<?xml version="1.0" encoding="UTF-8" standalone="no"?>
<svg width="505px" height="269px" viewBox="0 0 505 269" version="1.1" xmlns="http://www.w3.org/2000/svg" xmlns:xlink="http://www.w3.org/1999/xlink">
    <!-- Generator: Sketch 39.1 (31720) - http://www.bohemiancoding.com/sketch -->
    <title>Layer_1</title>
    <desc>Created with Sketch.</desc>
    <defs></defs>
    <g id="-" stroke="none" stroke-width="1" fill="none" fill-rule="evenodd">
        <g id="main_page_green" transform="translate(-835.000000, -856.000000)">
            <g id="green_illustration" transform="translate(835.000000, 858.000000)">
                <g id="Layer_1">
                    <circle id="Oval" fill="#4CAF50" cx="268" cy="244.3" r="2.3"></circle>
                    <circle id="Oval" fill="#4CAF50" cx="124.8" cy="186.9" r="2.3"></circle>
                    <circle id="Oval" fill="#4CAF50" cx="278" cy="244.3" r="2.3"></circle>
                    <circle id="Oval" fill="#4CAF50" cx="434.5" cy="159.1" r="2.3"></circle>
                    <path d="M240.6,196.8 L240.6,263.4" id="Shape" stroke="#D5F0D6" stroke-width="3"></path>
                    <path d="M317.6,264.8 L149.1,264.8 C148,264.8 147.1,263.9 147.1,262.8 L147.1,197.5 C147.1,196.4 148,195.5 149.1,195.5 L317.6,195.5 C318.7,195.5 319.6,196.4 319.6,197.5 L319.6,262.8 C319.6,263.9 318.7,264.8 317.6,264.8 L317.6,264.8 Z" id="Shape" stroke="#4CAF50" stroke-width="3"></path>
                    <g id="Group" transform="translate(418.000000, 246.000000)" stroke="#D5F0D6" stroke-width="2">
                        <path d="M0.7,7.1 L7.3,0.5" id="Shape"></path>
                        <path d="M1.3,14.2 L14.9,0.6" id="Shape"></path>
                        <path d="M5,18.2 L23,0.2" id="Shape"></path>
                        <path d="M12.6,18.3 L30.2,0.6" id="Shape"></path>
                        <path d="M20.5,18.1 L38.3,0.3" id="Shape"></path>
                        <path d="M28,18.3 L45.6,0.6" id="Shape"></path>
                        <path d="M35.5,18.5 L53.8,0.2" id="Shape"></path>
                        <path d="M43.4,18.3 L61.1,0.6" id="Shape"></path>
                        <path d="M51.5,17.9 L68.3,1.1" id="Shape"></path>
                        <path d="M58.9,18.2 L72.6,4.5" id="Shape"></path>
                        <path d="M66.4,18.3 L73,11.8" id="Shape"></path>
                    </g>
                    <path d="M317.4,176.1 L317.4,180.3" id="Shape" stroke="#D5F0D6" stroke-width="3"></path>
                    <path d="M331.9,184.7 L331.9,181.2" id="Shape" stroke="#D5F0D6" stroke-width="3"></path>
                    <path d="M331.9,175.6 L331.9,171.7" id="Shape" stroke="#D5F0D6" stroke-width="3"></path>
                    <path d="M251.6,73.4 L413.7,73.4 C416.5,73.4 418.7,75.6 418.7,78.4 L418.7,264.7 L245.6,264.7 C244.5,264.7 243.6,263.8 243.6,262.7 L243.6,196.7" id="Shape" stroke="#4CAF50" stroke-width="3"></path>
                    <path d="M372.4,73.4 C375.2,73.4 377.4,75.6 377.4,78.4 L377.4,264.7" id="Shape" stroke="#4CAF50" stroke-width="3"></path>
                    <path d="M222.1,63.6 C212.2,57.6 205.6,46.8 205.6,34.4 C205.6,22.2 212,11.4 221.7,5.4" id="Shape" stroke="#D5F0D6" stroke-width="3"></path>
                    <circle id="Oval" fill="#D5F0D6" cx="242.7" cy="34.9" r="7"></circle>
                    <path d="M255.8,59.5 C251.9,61.5 247.5,62.7 242.7,62.7 C227.1,62.7 214.4,50 214.4,34.4 C214.4,18.8 227.1,6.1 242.7,6.1 C258.3,6.1 271,18.8 271,34.4 C271,42.3 267.8,49.4 262.6,54.5" id="Shape" stroke="#4CAF50" stroke-width="3"></path>
                    <circle id="Oval" stroke="#4CAF50" stroke-width="3" cx="242.7" cy="34.3" r="34.2"></circle>
                    <circle id="Oval" fill="#4CAF50" cx="242.7" cy="34.9" r="2.5"></circle>
                    <path d="M242.7,34.9 L247.5,29.4" id="Shape" stroke="#4CAF50" stroke-width="3"></path>
                    <path d="M221.7,34.9 L227.4,34.9" id="Shape" stroke="#4CAF50" stroke-width="3"></path>
                    <path d="M224.5,45.5 L229.4,42.6" id="Shape" stroke="#4CAF50" stroke-width="3"></path>
                    <path d="M232.2,53.2 L235.1,48.2" id="Shape" stroke="#4CAF50" stroke-width="3"></path>
                    <path d="M242.7,56 L242.7,50.3" id="Shape" stroke="#4CAF50" stroke-width="3"></path>
                    <path d="M253.3,53.2 L250.4,48.2" id="Shape" stroke="#4CAF50" stroke-width="3"></path>
                    <path d="M261,45.5 L256.1,42.6" id="Shape" stroke="#4CAF50" stroke-width="3"></path>
                    <path d="M263.8,34.9 L258.1,34.9" id="Shape" stroke="#4CAF50" stroke-width="3"></path>
                    <path d="M261,24.4 L256.1,27.2" id="Shape" stroke="#4CAF50" stroke-width="3"></path>
                    <path d="M253.3,16.7 L250.4,21.6" id="Shape" stroke="#4CAF50" stroke-width="3"></path>
                    <path d="M242.7,13.9 L242.7,19.5" id="Shape" stroke="#4CAF50" stroke-width="3"></path>
                    <path d="M232.2,16.7 L235.1,21.6" id="Shape" stroke="#4CAF50" stroke-width="3"></path>
                    <path d="M224.5,24.4 L229.4,27.2" id="Shape" stroke="#4CAF50" stroke-width="3"></path>
                    <rect id="Rectangle-path" stroke="#4CAF50" stroke-width="3" x="234.9" y="68.5" width="15.6" height="11.7"></rect>
                    <path d="M266.3,89.8 L266.3,103.2" id="Shape" stroke="#D5F0D6" stroke-width="3"></path>
                    <rect id="Rectangle-path" stroke="#4CAF50" stroke-width="3" x="217.5" y="89.4" width="51.8" height="14.1"></rect>
                    <polygon id="Shape" stroke="#4CAF50" stroke-width="3" points="254.9 83.4 254.9 80.2 230.6 80.2 230.6 83.4 227.2 83.4 227.2 89.4 258.3 89.4 258.3 83.4"></polygon>
                    <path d="M206.7,89.4 L206.7,103.5" id="Shape" stroke="#D5F0D6" stroke-width="3"></path>
                    <path d="M215.5,108.2 L211.8,108.2 C210.7,108.2 209.8,107.3 209.8,106.2 L209.8,86.8 C209.8,85.7 210.7,84.8 211.8,84.8 L215.5,84.8 C216.6,84.8 217.5,85.7 217.5,86.8 L217.5,106.2 C217.5,107.3 216.6,108.2 215.5,108.2 L215.5,108.2 Z" id="Shape" stroke="#4CAF50" stroke-width="3"></path>
                    <path d="M273.1,108.2 L273.1,108.2 C271,108.2 269.2,106.5 269.2,104.3 L269.2,88.6 C269.2,86.5 270.9,84.7 273.1,84.7 L273.1,84.7 C275.2,84.7 277,86.4 277,88.6 L277,104.3 C277,106.4 275.2,108.2 273.1,108.2 L273.1,108.2 Z" id="Shape" stroke="#4CAF50" stroke-width="3"></path>
                    <path d="M280.8,108.2 L280.8,108.2 C278.7,108.2 276.9,106.5 276.9,104.3 L276.9,88.6 C276.9,86.5 278.6,84.7 280.8,84.7 L280.8,84.7 C282.9,84.7 284.7,86.4 284.7,88.6 L284.7,104.3 C284.7,106.4 283,108.2 280.8,108.2 L280.8,108.2 Z" id="Shape" stroke="#4CAF50" stroke-width="3"></path>
                    <path d="M243.4,89.4 L243.4,103.5" id="Shape" stroke="#4CAF50" stroke-width="3"></path>
                    <path d="M208.6,103.5 L192.5,103.5 C190.5,103.5 188.9,105.1 188.9,107.1 L188.9,129.4" id="Shape" stroke="#4CAF50" stroke-width="3"></path>
                    <path d="M174.8,129.4 L174.8,105 L174.8,104.4 C175.1,96.3 181.6,89.8 189.7,89.5 L190.3,89.5 L208.5,89.5" id="Shape" stroke="#4CAF50" stroke-width="3"></path>
                    <path d="M250.4,103.5 L250.4,129.4" id="Shape" stroke="#4CAF50" stroke-width="3"></path>
                    <path d="M236.3,129.4 L236.3,103.5" id="Shape" stroke="#4CAF50" stroke-width="3"></path>
                    <rect id="Rectangle-path" stroke="#4CAF50" stroke-width="3" x="170.7" y="181.6" width="23" height="13.9"></rect>
                    <path d="M177.2,181.6 L177.2,195.4" id="Shape" stroke="#4CAF50" stroke-width="2"></path>
                    <path d="M187.2,181.6 L187.2,195.4" id="Shape" stroke="#4CAF50" stroke-width="2"></path>
                    <rect id="Rectangle-path" stroke="#4CAF50" stroke-width="3" x="164.4" y="172.4" width="35.8" height="9.1"></rect>
                    <path d="M174.2,172.4 L174.2,181.6" id="Shape" stroke="#4CAF50" stroke-width="2"></path>
                    <path d="M190.2,172.4 L190.2,181.6" id="Shape" stroke="#4CAF50" stroke-width="2"></path>
                    <rect id="Rectangle-path" stroke="#4CAF50" stroke-width="3" x="164.4" y="136.6" width="35.8" height="9.1"></rect>
                    <path d="M174.2,136.6 L174.2,145.8" id="Shape" stroke="#4CAF50" stroke-width="2"></path>
                    <path d="M190.2,136.6 L190.2,145.8" id="Shape" stroke="#4CAF50" stroke-width="2"></path>
                    <circle id="Oval" stroke="#4CAF50" stroke-width="2" cx="182.2" cy="159.1" r="4.5"></circle>
                    <circle id="Oval" stroke="#4CAF50" stroke-width="3" cx="182.2" cy="159.1" r="8.1"></circle>
                    <path d="M174.1,159.1 L161.5,159.1" id="Shape" stroke="#4CAF50" stroke-width="3"></path>
                    <path d="M203,159.1 L190.4,159.1" id="Shape" stroke="#4CAF50" stroke-width="3"></path>
                    <rect id="Rectangle-path" stroke="#4CAF50" stroke-width="3" x="170.7" y="145.8" width="23" height="26.7"></rect>
                    <rect id="Rectangle-path" stroke="#4CAF50" stroke-width="3" x="170.7" y="129.4" width="23" height="7.2"></rect>
                    <rect id="Rectangle-path" stroke="#4CAF50" stroke-width="3" x="232.1" y="181.6" width="23" height="13.9"></rect>
                    <path d="M238.6,181.6 L238.6,195.4" id="Shape" stroke="#4CAF50" stroke-width="2"></path>
                    <path d="M248.6,181.6 L248.6,195.4" id="Shape" stroke="#4CAF50" stroke-width="2"></path>
                    <rect id="Rectangle-path" stroke="#4CAF50" stroke-width="3" x="225.7" y="172.4" width="35.8" height="9.1"></rect>
                    <path d="M235.6,172.4 L235.6,181.6" id="Shape" stroke="#4CAF50" stroke-width="2"></path>
                    <path d="M251.6,172.4 L251.6,181.6" id="Shape" stroke="#4CAF50" stroke-width="2"></path>
                    <rect id="Rectangle-path" stroke="#4CAF50" stroke-width="3" x="225.7" y="136.6" width="35.8" height="9.1"></rect>
                    <path d="M235.6,136.6 L235.6,145.8" id="Shape" stroke="#4CAF50" stroke-width="2"></path>
                    <path d="M251.6,136.6 L251.6,145.8" id="Shape" stroke="#4CAF50" stroke-width="2"></path>
                    <circle id="Oval" stroke="#4CAF50" stroke-width="2" cx="243.6" cy="159.1" r="4.5"></circle>
                    <circle id="Oval" stroke="#4CAF50" stroke-width="3" cx="243.6" cy="159.1" r="8.1"></circle>
                    <path d="M235.5,159.1 L222.9,159.1" id="Shape" stroke="#4CAF50" stroke-width="3"></path>
                    <path d="M264.4,159.1 L251.7,159.1" id="Shape" stroke="#4CAF50" stroke-width="3"></path>
                    <rect id="Rectangle-path" stroke="#4CAF50" stroke-width="3" x="232.1" y="145.8" width="23" height="26.7"></rect>
                    <rect id="Rectangle-path" stroke="#4CAF50" stroke-width="3" x="232.1" y="129.4" width="23" height="7.2"></rect>
                    <polyline id="Shape" stroke="#4CAF50" stroke-width="3" points="260.3 4.8 291 4.8 291 63.8 260 63.8"></polyline>
                    <polyline id="Shape" stroke="#4CAF50" stroke-width="3" points="225.5 63.8 194.5 63.8 194.5 4.8 225.3 4.8"></polyline>
                    <rect id="Rectangle-path" stroke="#4CAF50" stroke-width="3" x="291" y="9.8" width="5.4" height="49.1"></rect>
                    <rect id="Rectangle-path" stroke="#4CAF50" stroke-width="3" x="296.4" y="15.1" width="5.5" height="38.5"></rect>
                    <path d="M185.2,14.2 L185.2,55.9" id="Shape" stroke="#D5F0D6" stroke-width="3"></path>
                    <rect id="Rectangle-path" stroke="#4CAF50" stroke-width="3" x="188.2" y="7.3" width="6.2" height="54.2"></rect>
                    <polyline id="Shape" stroke="#4CAF50" stroke-width="3" points="137.8 55.9 188.2 55.9 188.2 14.2 116.9 14.2"></polyline>
                    <path d="M137.8,64.7 L137.8,55.9" id="Shape" stroke="#4CAF50" stroke-width="3"></path>
                    <path d="M96.1,35.5 L96.1,64.4" id="Shape" stroke="#4CAF50" stroke-width="3"></path>
                    <path d="M116.9,14.2 C105.4,14.2 96.1,23.5 96.1,35" id="Shape" stroke="#4CAF50" stroke-width="3"></path>
                    <path d="M104.7,37.6 L104.7,58.2" id="Shape" stroke="#4CAF50" stroke-width="3"></path>
                    <path d="M119.6,22.3 C111.4,22.3 104.7,29 104.7,37.2" id="Shape" stroke="#4CAF50" stroke-width="3"></path>
                    <path d="M150.9,140.9 L62,140.9 C59.2,140.9 57,138.7 57,135.9 L57,78.9 C57,76.1 59.2,73.9 62,73.9 L150.9,73.9 C153.7,73.9 155.9,76.1 155.9,78.9 L155.9,135.9 C155.9,138.6 153.7,140.9 150.9,140.9 L150.9,140.9 Z" id="Shape" stroke="#4CAF50" stroke-width="3"></path>
                    <circle id="Oval" stroke="#4CAF50" stroke-width="3" cx="75.1" cy="128.8" r="5.9"></circle>
                    <path d="M113.9,135.3 C98.5,135.3 85.9,122.8 85.9,107.3 C85.9,91.8 98.4,79.3 113.9,79.3" id="Shape" stroke="#D5F0D6" stroke-width="3"></path>
                    <circle id="Oval" stroke="#4CAF50" stroke-width="3" cx="116.9" cy="107.4" r="28"></circle>
                    <circle id="Oval" stroke="#4CAF50" stroke-width="3" cx="116.9" cy="107.4" r="20"></circle>
                    <circle id="Oval" stroke="#4CAF50" stroke-width="3" cx="116.7" cy="107.4" r="12"></circle>
                    <path d="M88.9,107.4 L144.9,107.4" id="Shape" stroke="#4CAF50" stroke-width="3"></path>
                    <path d="M116.9,79.4 L116.9,134.7" id="Shape" stroke="#4CAF50" stroke-width="3"></path>
                    <path d="M97.3,87.8 L136.5,127" id="Shape" stroke="#4CAF50" stroke-width="3"></path>
                    <path d="M97.3,127 L136.5,87.8" id="Shape" stroke="#4CAF50" stroke-width="3"></path>
                    <rect id="Rectangle-path" stroke="#4CAF50" stroke-width="3" x="85.9" y="65.2" width="62.1" height="8.2"></rect>
                    <path d="M92.9,65.9 L92.9,73.4" id="Shape" stroke="#4CAF50" stroke-width="3"></path>
                    <path d="M140.9,65.9 L140.9,73.4" id="Shape" stroke="#4CAF50" stroke-width="3"></path>
                    <path d="M132.1,22.3 L188.2,22.3" id="Shape" stroke="#4CAF50" stroke-width="3"></path>
                    <path d="M119.6,22.3 L122.6,22.3" id="Shape" stroke="#4CAF50" stroke-width="3"></path>
                    <path d="M104.7,58.2 L104.7,65.2" id="Shape" stroke="#4CAF50" stroke-width="3"></path>
                    <g id="Group" transform="translate(277.000000, 116.000000)" stroke="#D5F0D6" stroke-width="2">
                        <path d="M4.6,0.3 L4.6,9.8" id="Shape"></path>
                        <path d="M0.5,2.8 L8.7,7.4" id="Shape"></path>
                        <path d="M8.7,2.7 L0.5,7.4" id="Shape"></path>
                    </g>
                    <g id="Group" transform="translate(320.000000, 119.000000)" stroke="#D5F0D6" stroke-width="2">
                        <path d="M3.8,0.6 L3.8,8.6" id="Shape"></path>
                        <path d="M0.3,2.7 L7.3,6.6" id="Shape"></path>
                        <path d="M7.3,2.6 L0.3,6.6" id="Shape"></path>
                    </g>
                    <g id="Group" transform="translate(342.000000, 120.000000)" stroke="#D5F0D6" stroke-width="2">
                        <path d="M5,0 L5,11.2" id="Shape"></path>
                        <path d="M0.1,2.9 L9.9,8.3" id="Shape"></path>
                        <path d="M9.9,2.9 L0.1,8.4" id="Shape"></path>
                    </g>
                    <g id="Group" transform="translate(295.000000, 125.000000)" fill="#D5F0D6">
                        <path d="M5.4,9.8 L7.7,9.8 L7.4,9.2 L8.6,7 L11.1,7 L12.3,9.2 L11.9,9.8 L12.6,9.8 L14.3,9.8 L14.4,9.7 C14.6,9.4 14.6,9 14.4,8.7 L12.6,5.5 C12.4,5.2 12.1,5 11.7,5 L8,5 C7.6,5 7.3,5.2 7.1,5.5 L5.3,8.7 C5.1,9 5.1,9.4 5.4,9.8 L5.4,9.8 L5.4,9.8 Z" id="Shape"></path>
                        <path d="M7.9,6.8 C7.6,6.8 7.2,6.6 7,6.3 L4.7,2.4 C4.4,1.9 4.6,1.3 5.1,1 C5.6,0.7 6.2,0.9 6.5,1.4 L8.8,5.3 C9.1,5.8 8.9,6.4 8.4,6.7 C8.2,6.7 8,6.8 7.9,6.8 L7.9,6.8 Z" id="Shape"></path>
                        <path d="M7,5.4 L6.7,5.4 L4.1,4.7 C3.6,4.6 3.3,4 3.4,3.5 C3.5,3 4.1,2.7 4.6,2.8 L6.3,3.3 L6.8,1.6 C6.9,1.1 7.5,0.8 8,0.9 C8.5,1 8.8,1.6 8.7,2.1 L8,4.7 C7.9,5 7.8,5.2 7.5,5.3 C7.4,5.3 7.2,5.4 7,5.4 L7,5.4 Z" id="Shape"></path>
                        <path d="M11.6,7.2 C11.4,7.2 11.3,7.2 11.1,7.1 C10.6,6.8 10.5,6.2 10.7,5.7 L13.2,1.3 C13.5,0.8 14.1,0.7 14.6,0.9 C15.1,1.2 15.2,1.8 15,2.3 L12.5,6.7 C12.3,7 11.9,7.2 11.6,7.2 L11.6,7.2 Z" id="Shape"></path>
                        <path d="M12.7,5.4 C12.3,5.4 11.9,5.1 11.7,4.7 L11,2 C10.9,1.5 11.2,0.9 11.7,0.8 C12.2,0.7 12.8,1 12.9,1.5 L13.4,3.2 L15.1,2.7 C15.6,2.6 16.2,2.9 16.3,3.4 C16.4,3.9 16.1,4.5 15.6,4.6 L13,5.3 C12.8,5.4 12.7,5.4 12.7,5.4 L12.7,5.4 Z" id="Shape"></path>
                        <path d="M19.2,9.7 C19.3,9.5 19.4,9.4 19.4,9.1 C19.4,8.5 19,8.1 18.4,8.1 L18.4,8.1 L13.5,8.1 C12.9,8.1 12.5,8.5 12.5,9.1 C12.5,9.4 12.6,9.6 12.8,9.7 C14.9,9.8 17,9.6 19.2,9.7 L19.2,9.7 Z" id="Shape"></path>
                        <path d="M17.3,9.7 L16.8,9.2 L18,8 C18.4,7.6 18.4,7 18,6.6 C17.6,6.2 17,6.2 16.6,6.6 L14.7,8.5 C14.3,8.9 14.3,9.4 14.6,9.8 C15.6,9.8 16.4,9.7 17.3,9.7 L17.3,9.7 Z" id="Shape"></path>
                        <path d="M1.2,10.1 C1.5,10 1.8,9.9 2.2,9.9 C3.8,9.8 5.4,9.8 6.9,9.8 C7,9.6 7.1,9.4 7.1,9.2 C7.1,8.6 6.7,8.2 6.1,8.2 L1.6,8.2 C1,8.2 0.6,8.6 0.6,9.2 C0.7,9.6 0.9,9.9 1.2,10.1 L1.2,10.1 Z" id="Shape"></path>
                        <path d="M3.2,9.2 L2.5,9.8 C3.5,9.8 4.4,9.7 5.4,9.7 C5.5,9.5 5.6,9.3 5.6,9.1 C5.6,8.8 5.5,8.6 5.3,8.4 L3.4,6.5 C3,6.1 2.4,6.1 2,6.5 C1.6,6.9 1.6,7.5 2,7.9 L3.2,9.2 L3.2,9.2 Z" id="Shape"></path>
                    </g>
                    <path d="M350.2,135.2 L272,135.2 C270.9,135.2 270,134.3 270,133.2 L270,118.5 C270,117.4 270.9,116.5 272,116.5 L350.2,116.5 C351.3,116.5 352.2,117.4 352.2,118.5 L352.2,133.2 C352.2,134.3 351.3,135.2 350.2,135.2 L350.2,135.2 Z" id="Shape" stroke="#4CAF50" stroke-width="3"></path>
                    <path d="M290.2,116.5 L290.2,134.7" id="Shape" stroke="#4CAF50" stroke-width="3"></path>
                    <path d="M311.2,116.5 L311.2,134.7" id="Shape" stroke="#4CAF50" stroke-width="3"></path>
                    <path d="M332.2,116.5 L332.2,134.7" id="Shape" stroke="#4CAF50" stroke-width="3"></path>
                    <path d="M301.3,251 L262.7,251 C261.6,251 260.7,250.1 260.7,249 L260.7,211.2 C260.7,210.1 261.6,209.2 262.7,209.2 L301.3,209.2 C302.4,209.2 303.3,210.1 303.3,211.2 L303.3,249 C303.3,250.1 302.4,251 301.3,251 L301.3,251 Z" id="Shape" stroke="#4CAF50" stroke-width="2"></path>
                    <path d="M260,217.1 L260,221.7" id="Shape" stroke="#4CAF50" stroke-width="2"></path>
                    <path d="M260,238.5 L260,243.1" id="Shape" stroke="#4CAF50" stroke-width="2"></path>
                    <path d="M297.4,237.4 L266.7,237.4 C266.1,237.4 265.7,236.9 265.7,236.4 L265.7,214.7 C265.7,214.2 266.1,213.7 266.7,213.7 L297.4,213.7 C297.9,213.7 298.4,214.2 298.4,214.7 L298.4,236.4 C298.4,237 297.9,237.4 297.4,237.4 L297.4,237.4 Z" id="Shape" stroke="#4CAF50" stroke-width="2" fill="#D5F0D6"></path>
                    <polyline id="Shape" stroke="#4CAF50" stroke-width="2" points="287.9 226.4 291.9 232.6 282.8 232.6"></polyline>
                    <polyline id="Shape" stroke="#4CAF50" stroke-width="2" points="278 223.5 282 217.3 286.1 223.7"></polyline>
                    <polyline id="Shape" stroke="#4CAF50" stroke-width="2" points="279.3 232.6 272.1 232.6 276.3 226.1"></polyline>
                    <polyline id="Shape" stroke="#4CAF50" stroke-width="2" points="273.7 226.6 276.4 226.1 276.9 228.7"></polyline>
                    <polyline id="Shape" stroke="#4CAF50" stroke-width="2" points="284.7 234.5 282.8 232.6 284.7 230.7"></polyline>
                    <polyline id="Shape" stroke="#4CAF50" stroke-width="2" points="286.7 221.1 286.1 223.7 283.5 223.1"></polyline>
                    <rect id="Rectangle-path" stroke="#4CAF50" stroke-width="3" x="319.4" y="176.1" width="22.7" height="4.2"></rect>
                    <polyline id="Shape" stroke="#4CAF50" stroke-width="3" points="333.9 175.6 333.9 171.7 349.6 171.7 349.6 184.7 333.9 184.7 333.9 181.2"></polyline>
                    <polyline id="Shape" stroke="#4CAF50" stroke-width="3" points="418.7 180.3 503.2 180.3 503.2 264.8 418.7 264.8"></polyline>
                    <rect id="Rectangle-path" stroke="#4CAF50" stroke-width="3" x="418.7" y="207.8" width="72.2" height="57"></rect>
                    <path d="M491,216.3 L418.7,216.3" id="Shape" stroke="#4CAF50" stroke-width="3"></path>
                    <path d="M491,226.3 L418.7,226.3" id="Shape" stroke="#4CAF50" stroke-width="3"></path>
                    <path d="M491,236.3 L418.7,236.3" id="Shape" stroke="#4CAF50" stroke-width="3"></path>
                    <path d="M491,246.3 L418.7,246.3" id="Shape" stroke="#4CAF50" stroke-width="3"></path>
                    <polyline id="Shape" stroke="#4CAF50" stroke-width="3" points="418.7 202.8 491 202.8 491 207.8"></polyline>
                    <rect id="Rectangle-path" stroke="#4CAF50" stroke-width="3" x="426.7" y="129.2" width="40.7" height="35.7"></rect>
                    <rect id="Rectangle-path" stroke="#4CAF50" stroke-width="3" x="432.2" y="138.9" width="29.8" height="13"></rect>
                    <path d="M418.7,105.5 L432.9,105.5" id="Shape" stroke="#4CAF50" stroke-width="2"></path>
                    <path d="M440.3,170.9 L440.3,180.3" id="Shape" stroke="#4CAF50" stroke-width="2"></path>
                    <path d="M432.9,105.5 C437,105.5 440.4,108.8 440.4,113" id="Shape" stroke="#4CAF50" stroke-width="2"></path>
                    <path d="M440.3,113 L440.3,123.3" id="Shape" stroke="#4CAF50" stroke-width="2"></path>
                    <rect id="Rectangle-path" stroke="#4CAF50" stroke-width="2" x="438.5" y="165" width="3.8" height="6"></rect>
                    <path d="M454.8,170.9 L454.8,180.3" id="Shape" stroke="#4CAF50" stroke-width="2"></path>
                    <rect id="Rectangle-path" stroke="#4CAF50" stroke-width="2" x="453" y="165" width="3.8" height="6"></rect>
                    <rect id="Rectangle-path" stroke="#4CAF50" stroke-width="2" x="438.5" y="123.3" width="3.8" height="6"></rect>
                    <path d="M418.7,145.8 L426.7,145.8" id="Shape" stroke="#4CAF50" stroke-width="2"></path>
                    <path d="M444.2,145.9 L446.1,147.6" id="Shape" stroke="#4CAF50" stroke-width="2"></path>
                    <path d="M446.1,147.6 L449.9,143.3" id="Shape" stroke="#4CAF50" stroke-width="2"></path>
                    <rect id="Rectangle-path" stroke="#4CAF50" stroke-width="3" x="139.2" y="213.7" width="15.1" height="33.5"></rect>
                    <polyline id="Shape" stroke="#4CAF50" stroke-width="3" points="154.3 213.7 161.7 217.4 161.7 243.5 154.3 247.2"></polyline>
                    <path d="M139.2,213.7 L110.3,213.7" id="Shape" stroke="#4CAF50" stroke-width="3"></path>
                    <path d="M139.2,247.2 L110.3,247.2" id="Shape" stroke="#4CAF50" stroke-width="3"></path>
                    <path d="M93.5,213.7 L93.5,247.2" id="Shape" stroke="#D5F0D6" stroke-width="3"></path>
                    <rect id="Rectangle-path" stroke="#4CAF50" stroke-width="3" x="104.7" y="213.7" width="5.7" height="33.5"></rect>
                    <path d="M139.2,230.5 L110.3,230.5" id="Shape" stroke="#4CAF50" stroke-width="2"></path>
                    <path d="M139.2,234.5 L110.3,234.5" id="Shape" stroke="#4CAF50" stroke-width="2"></path>
                    <path d="M139.2,238.5 L110.3,238.5" id="Shape" stroke="#4CAF50" stroke-width="2"></path>
                    <path d="M139.2,242.5 L110.3,242.5" id="Shape" stroke="#4CAF50" stroke-width="2"></path>
                    <path d="M139.2,226.5 L110.3,226.5" id="Shape" stroke="#4CAF50" stroke-width="2"></path>
                    <path d="M139.2,222.5 L110.3,222.5" id="Shape" stroke="#4CAF50" stroke-width="2"></path>
                    <path d="M139.2,218.5 L110.3,218.5" id="Shape" stroke="#4CAF50" stroke-width="2"></path>
                    <rect id="Rectangle-path" stroke="#4CAF50" stroke-width="3" x="96.5" y="207.7" width="8.2" height="46.4"></rect>
                    <polyline id="Shape" stroke="#4CAF50" stroke-width="3" points="55 247.2 96.5 247.2 96.5 213.7 55 213.7"></polyline>
                    <path d="M55,213.7 C53,213.7 51.3,222.3 51.3,231.6 C51.3,240.9 52.9,247.3 55,247.3" id="Shape" stroke="#4CAF50" stroke-width="3"></path>
                    <polyline id="Shape" stroke="#4CAF50" stroke-width="3" points="85.7 194.4 85.7 213.7 72.2 213.7 72.2 194.4"></polyline>
                    <rect id="Rectangle-path" stroke="#4CAF50" stroke-width="3" x="39.2" y="227" width="12.1" height="9.2"></rect>
                    <rect id="Rectangle-path" stroke="#4CAF50" stroke-width="3" x="68.3" y="188.5" width="21.3" height="5.7"></rect>
                    <rect id="Rectangle-path" stroke="#4CAF50" stroke-width="3" x="106" y="142.2" width="21.3" height="5.7"></rect>
                    <path d="M78.9,188.5 L78.9,141.2" id="Shape" stroke="#4CAF50" stroke-width="3"></path>
                    <circle id="Oval" stroke="#4CAF50" stroke-width="3" cx="124.7" cy="186.9" r="12.2"></circle>
                    <path d="M124.8,186.9 L130.1,182.6" id="Shape" stroke="#4CAF50" stroke-width="2"></path>
                    <path d="M124.8,199.2 L124.8,196.4" id="Shape" stroke="#4CAF50" stroke-width="2"></path>
                    <path d="M124.8,177.5 L124.8,174.7" id="Shape" stroke="#4CAF50" stroke-width="2"></path>
                    <path d="M137,186.9 L134.2,186.9" id="Shape" stroke="#4CAF50" stroke-width="2"></path>
                    <path d="M115.5,186.9 L112.7,186.9" id="Shape" stroke="#4CAF50" stroke-width="2"></path>
                    <rect id="Rectangle-path" stroke="#4CAF50" stroke-width="3" x="118" y="206.6" width="13.4" height="7.1"></rect>
                    <path d="M121.7,199.2 L121.7,206.6" id="Shape" stroke="#4CAF50" stroke-width="3"></path>
                    <path d="M127.7,199.2 L127.7,206.6" id="Shape" stroke="#4CAF50" stroke-width="3"></path>
                    <circle id="Oval" stroke="#4CAF50" stroke-width="2" cx="124.8" cy="186.9" r="6.2"></circle>
                    <path d="M39.2,230.9 L31.7,230.9" id="Shape" stroke="#4CAF50" stroke-width="3"></path>
                    <path d="M31.7,230.9 C28,230.9 25,233.9 25,237.6" id="Shape" stroke="#4CAF50" stroke-width="3"></path>
                    <path d="M25,237.6 L25,264.8" id="Shape" stroke="#4CAF50" stroke-width="3"></path>
                    <path d="M149.1,264.8 L0.7,264.8" id="Shape" stroke="#4CAF50" stroke-width="3"></path>
                </g>
            </g>
        </g>
    </g>
</svg>