<?xml version="1.0" encoding="UTF-8" standalone="no"?>
<svg width="208px" height="128px" viewBox="0 0 208 128" version="1.1" xmlns="http://www.w3.org/2000/svg" xmlns:xlink="http://www.w3.org/1999/xlink">
    <!-- Generator: Sketch 39.1 (31720) - http://www.bohemiancoding.com/sketch -->
    <title>1</title>
    <desc>Created with Sketch.</desc>
    <defs>
        <filter x="-50%" y="-50%" width="200%" height="200%" filterUnits="objectBoundingBox" id="filter-1">
            <feOffset dx="0" dy="8" in="SourceAlpha" result="shadowOffsetOuter1"></feOffset>
            <feGaussianBlur stdDeviation="4" in="shadowOffsetOuter1" result="shadowBlurOuter1"></feGaussianBlur>
            <feColorMatrix values="0 0 0 0 0.298039216   0 0 0 0 0.68627451   0 0 0 0 0.31372549  0 0 0 0.352411685 0" type="matrix" in="shadowBlurOuter1" result="shadowMatrixOuter1"></feColorMatrix>
            <feMerge>
                <feMergeNode in="shadowMatrixOuter1"></feMergeNode>
                <feMergeNode in="SourceGraphic"></feMergeNode>
            </feMerge>
        </filter>
    </defs>
    <g id="-" stroke="none" stroke-width="1" fill="none" fill-rule="evenodd">
        <g id="main_page_blue" transform="translate(-1036.000000, -560.000000)" fill="#4CAF50">
            <g id="ACTIVE_SERVICE" transform="translate(0.000000, 529.000000)">
                <g id="freeze-copy-2" transform="translate(940.000000, 0.000000)">
                    <g id="Bitmap">
                        <g id="1" filter="url(#filter-1)" transform="translate(104.000000, 31.000000)">
                            <g id="Layer_1">
                                <path d="M106,66.2 C89.5,66.2 76.2,52.8 76.2,36.4 C76.2,20 89.6,6.6 106,6.6 C122.4,6.6 135.8,20 135.8,36.4 C135.8,44.4 132.7,51.9 127,57.6 C126.4,58.2 125.5,58.2 124.9,57.6 C124.3,57 124.3,56.1 124.9,55.5 C130,50.4 132.8,43.7 132.8,36.4 C132.8,21.6 120.8,9.6 106,9.6 C91.2,9.6 79.2,21.6 79.2,36.4 C79.2,51.2 91.2,63.2 106,63.2 C110.4,63.2 114.5,62.2 118.4,60.2 C119.1,59.8 120,60.1 120.4,60.8 C120.8,61.5 120.5,62.4 119.8,62.8 C115.5,65.1 110.8,66.2 106,66.2 L106,66.2 Z" id="Shape"></path>
                                <path d="M106,72 C86.3,72 70.3,56 70.3,36.3 C70.3,16.6 86.3,0.6 106,0.6 C125.7,0.6 141.7,16.6 141.7,36.3 C141.7,56 125.7,72 106,72 L106,72 Z M106,3.7 C88,3.7 73.3,18.4 73.3,36.4 C73.3,54.4 88,69 106,69 C124,69 138.7,54.3 138.7,36.3 C138.7,18.3 124,3.7 106,3.7 L106,3.7 Z" id="Shape"></path>
                                <circle id="Oval" cx="106" cy="37" r="2.5"></circle>
                                <circle id="Oval" cx="48.8" cy="90.5" r="2.5"></circle>
                                <path d="M106,38.5 C105.6,38.5 105.3,38.4 105,38.1 C104.4,37.6 104.3,36.6 104.9,36 L109.7,30.5 C110.2,29.9 111.2,29.8 111.8,30.4 C112.4,30.9 112.5,31.9 111.9,32.5 L107.1,38 C106.8,38.3 106.4,38.5 106,38.5 L106,38.5 Z" id="Shape"></path>
                                <path d="M90.6,38.5 L85,38.5 C84.2,38.5 83.5,37.8 83.5,37 C83.5,36.2 84.2,35.5 85,35.5 L90.7,35.5 C91.5,35.5 92.2,36.2 92.2,37 C92.2,37.8 91.5,38.5 90.6,38.5 L90.6,38.5 Z" id="Shape"></path>
                                <path d="M87.8,49 C87.3,49 86.8,48.7 86.5,48.2 C86.1,47.5 86.3,46.6 87,46.2 L91.9,43.4 C92.6,43 93.5,43.2 93.9,43.9 C94.3,44.6 94.1,45.5 93.4,45.9 L88.5,48.7 C88.3,48.9 88,49 87.8,49 L87.8,49 Z" id="Shape"></path>
                                <path d="M95.5,56.7 C95.2,56.7 95,56.6 94.8,56.5 C94.1,56.1 93.8,55.2 94.3,54.5 L97.1,49.6 C97.5,48.9 98.4,48.6 99.1,49.1 C99.8,49.5 100.1,50.4 99.6,51.1 L96.8,56 C96.5,56.4 96,56.7 95.5,56.7 L95.5,56.7 Z" id="Shape"></path>
                                <path d="M106,59.5 C105.2,59.5 104.5,58.8 104.5,58 L104.5,52.3 C104.5,51.5 105.2,50.8 106,50.8 C106.8,50.8 107.5,51.5 107.5,52.3 L107.5,58 C107.5,58.8 106.8,59.5 106,59.5 L106,59.5 Z" id="Shape"></path>
                                <path d="M116.5,56.7 C116,56.7 115.5,56.4 115.2,55.9 L112.4,51 C112,50.3 112.2,49.4 112.9,49 C113.6,48.6 114.5,48.8 114.9,49.5 L117.7,54.4 C118.1,55.1 117.9,56 117.2,56.4 C117.1,56.6 116.8,56.7 116.5,56.7 L116.5,56.7 Z" id="Shape"></path>
                                <path d="M124.2,49 C123.9,49 123.7,48.9 123.5,48.8 L118.6,46 C117.9,45.6 117.6,44.7 118.1,44 C118.6,43.3 119.4,43 120.1,43.5 L125,46.3 C125.7,46.7 126,47.6 125.5,48.3 C125.3,48.7 124.8,49 124.2,49 L124.2,49 Z" id="Shape"></path>
                                <path d="M127.1,38.5 L121.4,38.5 C120.6,38.5 119.9,37.8 119.9,37 C119.9,36.2 120.6,35.5 121.4,35.5 L127.1,35.5 C127.9,35.5 128.6,36.2 128.6,37 C128.6,37.8 127.9,38.5 127.1,38.5 L127.1,38.5 Z" id="Shape"></path>
                                <path d="M119.3,30.8 C118.8,30.8 118.3,30.5 118,30 C117.6,29.3 117.8,28.4 118.5,28 L123.4,25.2 C124.1,24.8 125,25 125.4,25.7 C125.8,26.4 125.6,27.3 124.9,27.7 L120,30.5 C119.8,30.7 119.6,30.8 119.3,30.8 L119.3,30.8 Z" id="Shape"></path>
                                <path d="M113.7,25.1 C113.4,25.1 113.2,25 113,24.9 C112.3,24.5 112,23.6 112.5,22.9 L115.3,18 C115.7,17.3 116.6,17 117.3,17.5 C118,17.9 118.3,18.8 117.8,19.5 L115,24.4 C114.7,24.9 114.2,25.1 113.7,25.1 L113.7,25.1 Z" id="Shape"></path>
                                <path d="M106,23.1 C105.2,23.1 104.5,22.4 104.5,21.6 L104.5,15.9 C104.5,15.1 105.2,14.4 106,14.4 C106.8,14.4 107.5,15.1 107.5,15.9 L107.5,21.6 C107.5,22.4 106.8,23.1 106,23.1 L106,23.1 Z" id="Shape"></path>
                                <path d="M98.3,25.1 C97.8,25.1 97.3,24.8 97,24.3 L94.2,19.4 C93.8,18.7 94,17.8 94.7,17.4 C95.4,17 96.3,17.2 96.7,17.9 L99.5,22.8 C99.9,23.5 99.7,24.4 99,24.8 C98.8,25.1 98.6,25.1 98.3,25.1 L98.3,25.1 Z" id="Shape"></path>
                                <path d="M92.7,30.8 C92.4,30.8 92.2,30.7 92,30.6 L87.1,27.8 C86.4,27.4 86.1,26.5 86.6,25.8 C87.1,25.1 87.9,24.8 88.6,25.3 L93.5,28.1 C94.2,28.5 94.5,29.4 94,30.1 C93.7,30.5 93.2,30.8 92.7,30.8 L92.7,30.8 Z" id="Shape"></path>
                                <path d="M113.8,83.8 L98.2,83.8 C97.4,83.8 96.7,83.1 96.7,82.3 L96.7,70.6 C96.7,69.8 97.4,69.1 98.2,69.1 L113.8,69.1 C114.6,69.1 115.3,69.8 115.3,70.6 L115.3,82.3 C115.3,83.1 114.6,83.8 113.8,83.8 L113.8,83.8 Z M99.7,80.8 L112.3,80.8 L112.3,72 L99.7,72 L99.7,80.8 L99.7,80.8 Z" id="Shape"></path>
                                <path d="M132.5,107.1 L80.7,107.1 C79.9,107.1 79.2,106.4 79.2,105.6 L79.2,91.5 C79.2,90.7 79.9,90 80.7,90 L132.5,90 C133.3,90 134,90.7 134,91.5 L134,105.6 C134,106.4 133.4,107.1 132.5,107.1 L132.5,107.1 Z M82.2,104.1 L131,104.1 L131,93 L82.2,93 L82.2,104.1 L82.2,104.1 Z" id="Shape"></path>
                                <path d="M121.6,93 L90.5,93 C89.7,93 89,92.3 89,91.5 L89,85.5 C89,84.7 89.7,84 90.5,84 L92.4,84 L92.4,82.3 C92.4,81.5 93.1,80.8 93.9,80.8 L118.3,80.8 C119.1,80.8 119.8,81.5 119.8,82.3 L119.8,84 L121.7,84 C122.5,84 123.2,84.7 123.2,85.5 L123.2,91.5 C123.1,92.3 122.4,93 121.6,93 L121.6,93 Z M92,90 L120.1,90 L120.1,87 L118.2,87 C117.4,87 116.7,86.3 116.7,85.5 L116.7,83.8 L95.3,83.8 L95.3,85.5 C95.3,86.3 94.6,87 93.8,87 L92,87 L92,90 L92,90 Z" id="Shape"></path>
                                <path d="M78.7,111.7 L75,111.7 C73.1,111.7 71.5,110.1 71.5,108.2 L71.5,88.8 C71.5,86.9 73.1,85.3 75,85.3 L78.7,85.3 C80.6,85.3 82.2,86.9 82.2,88.8 L82.2,108.2 C82.2,110.1 80.7,111.7 78.7,111.7 L78.7,111.7 Z M75,88.3 C74.7,88.3 74.5,88.5 74.5,88.8 L74.5,108.2 C74.5,108.5 74.7,108.7 75,108.7 L78.7,108.7 C79,108.7 79.2,108.5 79.2,108.2 L79.2,88.8 C79.2,88.5 79,88.3 78.7,88.3 L75,88.3 L75,88.3 Z" id="Shape"></path>
                                <path d="M136.4,111.7 C133.4,111.7 131,109.3 131,106.3 L131,90.6 C131,87.6 133.4,85.2 136.4,85.2 C139.4,85.2 141.8,87.6 141.8,90.6 L141.8,106.3 C141.7,109.3 139.3,111.7 136.4,111.7 L136.4,111.7 Z M136.4,88.3 C135.1,88.3 134,89.4 134,90.7 L134,106.4 C134,107.7 135.1,108.8 136.4,108.8 C137.7,108.8 138.8,107.7 138.8,106.4 L138.8,90.7 C138.7,89.4 137.7,88.3 136.4,88.3 L136.4,88.3 Z" id="Shape"></path>
                                <path d="M144.1,111.7 C141.1,111.7 138.7,109.3 138.7,106.3 L138.7,90.6 C138.7,87.6 141.1,85.2 144.1,85.2 C147.1,85.2 149.5,87.6 149.5,90.6 L149.5,106.3 C149.5,109.3 147.1,111.7 144.1,111.7 L144.1,111.7 Z M144.1,88.3 C142.8,88.3 141.7,89.4 141.7,90.7 L141.7,106.4 C141.7,107.7 142.8,108.8 144.1,108.8 C145.4,108.8 146.5,107.7 146.5,106.4 L146.5,90.7 C146.5,89.4 145.4,88.3 144.1,88.3 L144.1,88.3 Z" id="Shape"></path>
                                <path d="M106.6,107.1 C105.8,107.1 105.1,106.4 105.1,105.6 L105.1,91.5 C105.1,90.7 105.8,90 106.6,90 C107.4,90 108.1,90.7 108.1,91.5 L108.1,105.6 C108.1,106.4 107.5,107.1 106.6,107.1 L106.6,107.1 Z" id="Shape"></path>
                                <path d="M59.5,106.5 L24.4,106.5 C20.8,106.5 17.9,103.6 17.9,100 L17.9,79.8 C17.9,76.2 20.8,73.3 24.4,73.3 L59.5,73.3 C63.1,73.3 66,76.2 66,79.8 L66,100 C66,103.6 63,106.5 59.5,106.5 L59.5,106.5 Z M24.4,76.3 C22.5,76.3 20.9,77.9 20.9,79.8 L20.9,100 C20.9,101.9 22.5,103.5 24.4,103.5 L59.5,103.5 C61.4,103.5 63,101.9 63,100 L63,79.8 C63,77.9 61.4,76.3 59.5,76.3 L24.4,76.3 L24.4,76.3 Z" id="Shape"></path>
                                <path d="M187.1,111.7 L159.6,111.7 C157.1,111.7 155.1,109.7 155.1,107.2 L155.1,51 C155.1,48.5 157.1,46.5 159.6,46.5 L187.1,46.5 C189.6,46.5 191.6,48.5 191.6,51 L191.6,107.2 C191.6,109.7 189.6,111.7 187.1,111.7 L187.1,111.7 Z M159.6,49.5 C158.8,49.5 158.1,50.2 158.1,51 L158.1,107.2 C158.1,108 158.8,108.7 159.6,108.7 L187.1,108.7 C187.9,108.7 188.6,108 188.6,107.2 L188.6,51 C188.6,50.2 187.9,49.5 187.1,49.5 L159.6,49.5 L159.6,49.5 Z" id="Shape"></path>
                                <path d="M28.9,111.7 C28.1,111.7 27.4,111 27.4,110.2 L27.4,105.6 C27.4,104.8 28.1,104.1 28.9,104.1 C29.7,104.1 30.4,104.8 30.4,105.6 L30.4,110.2 C30.4,111 29.7,111.7 28.9,111.7 L28.9,111.7 Z" id="Shape"></path>
                                <path d="M54.9,111.7 C54.1,111.7 53.4,111 53.4,110.2 L53.4,105.6 C53.4,104.8 54.1,104.1 54.9,104.1 C55.7,104.1 56.4,104.8 56.4,105.6 L56.4,110.2 C56.4,111 55.7,111.7 54.9,111.7 L54.9,111.7 Z" id="Shape"></path>
                                <path d="M36.8,61.9 L13.1,61.9 C12.3,61.9 11.6,61.2 11.6,60.4 C11.6,59.6 12.3,58.9 13.1,58.9 L36.8,58.9 C37.6,58.9 38.3,59.6 38.3,60.4 C38.3,61.2 37.7,61.9 36.8,61.9 L36.8,61.9 Z" id="Shape"></path>
                                <path d="M59.5,68 L38,68 C37.2,68 36.5,67.3 36.5,66.5 L36.5,54 C36.5,53.2 37.2,52.5 38,52.5 L59.5,52.5 C60.3,52.5 61,53.2 61,54 L61,66.5 C61,67.4 60.3,68 59.5,68 L59.5,68 Z M39.5,65 L58,65 L58,55.5 L39.5,55.5 L39.5,65 L39.5,65 Z" id="Shape"></path>
                                <path d="M42.8,76.3 C42,76.3 41.3,75.6 41.3,74.8 L41.3,67.6 C41.3,66.8 42,66.1 42.8,66.1 C43.6,66.1 44.3,66.8 44.3,67.6 L44.3,74.8 C44.3,75.6 43.6,76.3 42.8,76.3 L42.8,76.3 Z" id="Shape"></path>
                                <path d="M54.8,76.3 C54,76.3 53.3,75.6 53.3,74.8 L53.3,67.6 C53.3,66.8 54,66.1 54.8,66.1 C55.6,66.1 56.3,66.8 56.3,67.6 L56.3,74.8 C56.3,75.6 55.6,76.3 54.8,76.3 L54.8,76.3 Z" id="Shape"></path>
                                <path d="M13.1,84.4 C6.1,84.4 0.3,78.7 0.3,71.6 C0.3,64.6 6,58.8 13.1,58.8 C13.9,58.8 14.6,59.5 14.6,60.3 C14.6,61.1 13.9,61.8 13.1,61.8 C7.7,61.8 3.3,66.2 3.3,71.6 C3.3,77 7.7,81.4 13.1,81.4 C13.9,81.4 14.6,82.1 14.6,82.9 C14.6,83.7 14,84.4 13.1,84.4 L13.1,84.4 Z" id="Shape"></path>
                                <path d="M19.4,84.4 L13.1,84.4 C12.3,84.4 11.6,83.7 11.6,82.9 C11.6,82.1 12.3,81.4 13.1,81.4 L19.4,81.4 C20.2,81.4 20.9,82.1 20.9,82.9 C20.9,83.7 20.2,84.4 19.4,84.4 L19.4,84.4 Z" id="Shape"></path>
                                <path d="M48.8,101 C43,101 38.3,96.3 38.3,90.5 C38.3,84.7 43,80 48.8,80 C54.6,80 59.3,84.7 59.3,90.5 C59.3,96.3 54.5,101 48.8,101 L48.8,101 Z M48.8,83.1 C44.7,83.1 41.3,86.4 41.3,90.6 C41.3,94.7 44.6,98.1 48.8,98.1 C52.9,98.1 56.3,94.8 56.3,90.6 C56.2,86.4 52.9,83.1 48.8,83.1 L48.8,83.1 Z" id="Shape"></path>
                                <path d="M39.8,92 L28.9,92 C28.1,92 27.4,91.3 27.4,90.5 C27.4,89.7 28.1,89 28.9,89 L39.8,89 C40.6,89 41.3,89.7 41.3,90.5 C41.3,91.3 40.6,92 39.8,92 L39.8,92 Z" id="Shape"></path>
                                <path d="M183.4,66.3 L163.4,66.3 C161.5,66.3 159.9,64.7 159.9,62.8 L159.9,60 C159.9,58.1 161.5,56.5 163.4,56.5 L183.4,56.5 C185.3,56.5 186.9,58.1 186.9,60 L186.9,62.8 C186.9,64.8 185.3,66.3 183.4,66.3 L183.4,66.3 Z M163.4,59.5 C163.1,59.5 162.9,59.7 162.9,60 L162.9,62.8 C162.9,63.1 163.1,63.3 163.4,63.3 L183.4,63.3 C183.7,63.3 183.9,63.1 183.9,62.8 L183.9,60 C183.9,59.7 183.7,59.5 183.4,59.5 L163.4,59.5 L163.4,59.5 Z" id="Shape"></path>
                                <path d="M169.4,66.1 C168.6,66.1 167.9,65.4 167.9,64.6 L167.9,58.3 C167.9,57.5 168.6,56.8 169.4,56.8 C170.2,56.8 170.9,57.5 170.9,58.3 L170.9,64.6 C170.9,65.4 170.2,66.1 169.4,66.1 L169.4,66.1 Z" id="Shape"></path>
                                <path d="M177.4,66.1 C176.6,66.1 175.9,65.4 175.9,64.6 L175.9,58.3 C175.9,57.5 176.6,56.8 177.4,56.8 C178.2,56.8 178.9,57.5 178.9,58.3 L178.9,64.6 C178.9,65.4 178.2,66.1 177.4,66.1 L177.4,66.1 Z" id="Shape"></path>
                                <path d="M184,86.8 L184,86.8 L182.7,86.8 L183.4,86 C183.8,85.6 183.8,85 183.4,84.6 C183,84.2 182.4,84.2 182,84.6 L179.9,86.8 L178.4,86.8 L176.7,83.8 L177.4,82.5 L180.4,81.7 C180.9,81.6 181.2,81 181.1,80.5 C181,80 180.4,79.7 179.9,79.8 L178.9,80.1 L179.6,79 C179.9,78.5 179.7,77.9 179.2,77.6 C178.7,77.3 178.1,77.5 177.8,78 L177.1,79.1 L176.8,78.1 C176.7,77.6 176.1,77.3 175.6,77.4 C175.1,77.5 174.8,78.1 174.9,78.6 L175.7,81.5 L175,82.8 L171.5,82.8 L170.8,81.5 L171.6,78.6 C171.7,78.1 171.4,77.5 170.9,77.4 C170.4,77.3 169.8,77.6 169.7,78.1 L169.4,79.1 L168.7,78 C168.4,77.5 167.8,77.4 167.3,77.6 C166.8,77.9 166.7,78.5 166.9,79 L167.6,80.1 L166.6,79.8 C166.1,79.7 165.5,80 165.4,80.5 C165.3,81 165.6,81.6 166.1,81.7 L169.1,82.5 L169.8,83.8 L168.1,86.8 L167.1,86.8 L165,84.6 C164.6,84.2 164,84.2 163.6,84.6 C163.2,85 163.2,85.6 163.6,86 L164.3,86.8 L163,86.8 L163,86.8 C162.4,86.8 162,87.2 162,87.8 C162,88.4 162.4,88.8 163,88.8 L164.3,88.8 L163.5,89.6 C163.1,90 163.1,90.6 163.5,91 C163.7,91.2 164,91.3 164.2,91.3 C164.5,91.3 164.7,91.2 164.9,91 L167.1,88.8 L168.1,88.8 L169.8,91.8 L169.1,93.1 L166.1,93.9 C165.6,94 165.3,94.6 165.4,95.1 C165.5,95.6 166.1,95.9 166.6,95.8 L167.6,95.5 L166.9,96.6 C166.6,97.1 166.8,97.7 167.3,98 C167.5,98.1 167.6,98.1 167.8,98.1 C168.1,98.1 168.5,97.9 168.7,97.6 L169.4,96.5 L169.7,97.5 C169.8,97.9 170.2,98.2 170.7,98.2 L171,98.2 C171.5,98.1 171.8,97.5 171.7,97 L170.9,94.1 L171.6,92.8 L175.1,92.8 L175.8,94.1 L175,97 C174.9,97.5 175.2,98.1 175.7,98.2 L176,98.2 C176.4,98.2 176.8,97.9 177,97.5 L177.3,96.5 L178,97.6 C178.2,97.9 178.5,98.1 178.9,98.1 C179.1,98.1 179.2,98.1 179.4,98 C179.9,97.7 180,97.1 179.8,96.6 L179.1,95.5 L180.1,95.8 C180.6,95.9 181.2,95.6 181.3,95.1 C181.4,94.6 181.1,94 180.6,93.9 L177.6,93.1 L176.9,91.8 L178.6,88.8 L180.1,88.8 L182.3,91 C182.5,91.2 182.7,91.3 183,91.3 C183.3,91.3 183.5,91.2 183.7,91 C184.1,90.6 184.1,90 183.7,89.6 L182.9,88.9 L184.2,88.9 C184.8,88.9 185.2,88.5 185.2,87.9 C185,87.2 184.5,86.8 184,86.8 L184,86.8 Z M174.9,90.8 L171.4,90.8 L169.7,87.8 L171.4,84.8 L174.8,84.8 C174.8,84.8 174.8,84.8 174.9,84.9 L175,84.9 L176.7,87.8 L174.9,90.8 L174.9,90.8 Z" id="Shape"></path>
                            </g>
                        </g>
                    </g>
                </g>
            </g>
        </g>
    </g>
</svg>