<?xml version="1.0" encoding="UTF-8" standalone="no"?>
<svg width="76px" height="72px" viewBox="0 0 76 72" version="1.1" xmlns="http://www.w3.org/2000/svg" xmlns:xlink="http://www.w3.org/1999/xlink">
    <!-- Generator: Sketch 39.1 (31720) - http://www.bohemiancoding.com/sketch -->
    <title>Group</title>
    <desc>Created with Sketch.</desc>
    <defs></defs>
    <g id="-" stroke="none" stroke-width="1" fill="none" fill-rule="evenodd">
        <g id="main_page_green" transform="translate(-368.000000, -1608.000000)">
            <g id="SERVICES" transform="translate(258.000000, 1258.000000)">
                <g id="Group-11" transform="translate(0.000000, 110.000000)">
                    <g id="Group-10-Copy-5" transform="translate(0.000000, 211.000000)">
                        <g id="Type-1-Copy-5" transform="translate(22.000000, 29.000000)">
                            <g id="Group" transform="translate(88.000000, 0.000000)">
                                <path d="M67.2,71.5 L8.3,71.5 C5,71.5 2.3,68.8 2.3,65.5 C2.3,65.5 0.3,52.1 0.3,36.1 C0.3,20.1 2.3,6.7 2.3,6.7 C2.3,3.4 5,0.7 8.3,0.7 L67.2,0.7 C70.5,0.7 73.2,3.4 73.2,6.7 C73.2,6.7 75.2,20.1 75.2,36.1 C75.2,52.1 73.2,65.5 73.2,65.5 C73.2,68.8 70.5,71.5 67.2,71.5 L67.2,71.5 Z" id="Shape" fill="#D6F0D7"></path>
                                <path d="M63.3,64 L12.3,64 C10.6,64 9.3,62.7 9.3,61 L9.3,11 C9.3,9.3 10.6,8 12.3,8 L63.3,8 C65,8 66.3,9.3 66.3,11 L66.3,61 C66.3,62.7 64.9,64 63.3,64 L63.3,64 Z M12.3,10 C11.7,10 11.3,10.4 11.3,11 L11.3,61 C11.3,61.6 11.7,62 12.3,62 L63.3,62 C63.9,62 64.3,61.6 64.3,61 L64.3,11 C64.3,10.4 63.9,10 63.3,10 L12.3,10 L12.3,10 Z" id="Shape" fill="#4CAF50"></path>
                                <path d="M9.3,26.1 C8.7,26.1 8.3,25.7 8.3,25.1 L8.3,19.2 C8.3,18.6 8.7,18.2 9.3,18.2 C9.9,18.2 10.3,18.6 10.3,19.2 L10.3,25.1 C10.3,25.7 9.8,26.1 9.3,26.1 L9.3,26.1 Z" id="Shape" fill="#4CAF50"></path>
                                <path d="M9.3,53.9 C8.7,53.9 8.3,53.5 8.3,52.9 L8.3,47 C8.3,46.4 8.7,46 9.3,46 C9.9,46 10.3,46.4 10.3,47 L10.3,52.9 C10.3,53.5 9.8,53.9 9.3,53.9 L9.3,53.9 Z" id="Shape" fill="#4CAF50"></path>
                                <g transform="translate(15.000000, 13.000000)" id="Shape">
                                    <path d="M42.9,32.5 L2.6,32.5 C2.1,32.5 1.6,32 1.6,31.5 L1.6,2.9 C1.6,2.4 2.1,1.9 2.6,1.9 L42.9,1.9 C43.4,1.9 43.9,2.4 43.9,2.9 L43.9,31.5 C43.9,32.1 43.5,32.5 42.9,32.5 L42.9,32.5 Z" fill="#FFFFFF"></path>
                                    <path d="M42.9,33.5 L2.6,33.5 C1.5,33.5 0.6,32.6 0.6,31.5 L0.6,2.9 C0.6,1.8 1.5,0.9 2.6,0.9 L42.9,0.9 C44,0.9 44.9,1.8 44.9,2.9 L44.9,31.5 C44.9,32.6 44,33.5 42.9,33.5 L42.9,33.5 Z M42.9,31.5 L42.9,32.5 L42.9,31.5 L42.9,31.5 L42.9,31.5 L42.9,31.5 Z M2.6,2.9 L2.6,31.5 L42.9,31.5 L42.9,2.9 L2.6,2.9 L2.6,2.9 Z" fill="#4CAF50"></path>
                                </g>
                                <g transform="translate(16.000000, 49.000000)">
                                    <circle id="Oval" fill="#EDF3F8" cx="5.1" cy="5.6" r="3.7"></circle>
                                    <path d="M5.1,10.3 C2.5,10.3 0.4,8.2 0.4,5.6 C0.4,3 2.5,0.9 5.1,0.9 C7.7,0.9 9.8,3 9.8,5.6 C9.8,8.2 7.7,10.3 5.1,10.3 L5.1,10.3 Z M5.1,2.9 C3.6,2.9 2.4,4.1 2.4,5.6 C2.4,7.1 3.6,8.3 5.1,8.3 C6.6,8.3 7.8,7.1 7.8,5.6 C7.8,4.1 6.6,2.9 5.1,2.9 L5.1,2.9 Z" id="Shape" fill="#4CAF50"></path>
                                </g>
                                <g transform="translate(28.000000, 49.000000)">
                                    <circle id="Oval" fill="#EDF3F8" cx="5.1" cy="5.6" r="3.7"></circle>
                                    <path d="M5.1,10.3 C2.5,10.3 0.4,8.2 0.4,5.6 C0.4,3 2.5,0.9 5.1,0.9 C7.7,0.9 9.8,3 9.8,5.6 C9.8,8.2 7.7,10.3 5.1,10.3 L5.1,10.3 Z M5.1,2.9 C3.6,2.9 2.4,4.1 2.4,5.6 C2.4,7.1 3.6,8.3 5.1,8.3 C6.6,8.3 7.8,7.1 7.8,5.6 C7.8,4.1 6.6,2.9 5.1,2.9 L5.1,2.9 Z" id="Shape" fill="#4CAF50"></path>
                                </g>
                                <g transform="translate(26.000000, 19.000000)" id="Shape" fill="#4CAF51">
                                    <path d="M13.9,16.2 L9.3,16.2 C8.9,16.2 8.6,16 8.4,15.7 L6.1,11.7 C5.9,11.4 5.9,11 6.1,10.7 L8.4,6.7 C8.6,6.4 8.9,6.2 9.3,6.2 L13.9,6.2 C14.3,6.2 14.6,6.4 14.8,6.7 L17.1,10.7 C17.3,11 17.3,11.4 17.1,11.7 L14.8,15.7 C14.5,16 14.2,16.2 13.9,16.2 L13.9,16.2 Z M9.8,14.2 L13.3,14.2 L15,11.2 L13.3,8.2 L9.8,8.2 L8.1,11.2 L9.8,14.2 L9.8,14.2 Z"></path>
                                    <path d="M9,7.9 C8.7,7.9 8.3,7.7 8.1,7.4 L5.2,2.4 C4.9,1.9 5.1,1.3 5.6,1 C6.1,0.7 6.7,0.9 7,1.4 L9.9,6.4 C10.2,6.9 10,7.5 9.5,7.8 C9.4,7.8 9.2,7.9 9,7.9 L9,7.9 Z"></path>
                                    <path d="M8,6.1 L7.7,6.1 L4.3,5.2 C3.8,5.1 3.5,4.5 3.6,4 C3.7,3.5 4.3,3.2 4.8,3.3 L7.2,3.9 L7.8,1.5 C7.9,1 8.5,0.6 9,0.8 C9.5,0.9 9.8,1.5 9.7,2 L8.8,5.4 C8.8,5.8 8.4,6.1 8,6.1 L8,6.1 Z"></path>
                                    <path d="M13.8,8.4 C13.6,8.4 13.5,8.4 13.3,8.3 C12.8,8 12.7,7.4 12.9,6.9 L16.1,1.4 C16.4,0.9 17,0.8 17.5,1 C18,1.3 18.1,1.9 17.9,2.4 L14.7,7.9 C14.4,8.2 14.1,8.4 13.8,8.4 L13.8,8.4 Z"></path>
                                    <path d="M15.1,6.1 C14.7,6.1 14.3,5.8 14.1,5.4 L13.2,2 C13.1,1.5 13.4,0.9 13.9,0.8 C14.4,0.7 15,1 15.1,1.5 L15.7,3.9 L18.1,3.3 C18.6,3.2 19.2,3.5 19.3,4 C19.4,4.5 19.1,5.1 18.6,5.2 L15.2,6.1 C15.3,6.1 15.2,6.1 15.1,6.1 L15.1,6.1 Z"></path>
                                    <path d="M16.2,12.2 C15.6,12.2 15.2,11.8 15.2,11.2 C15.2,10.6 15.6,10.2 16.2,10.2 L22.4,10.2 L22.4,10.2 C23,10.2 23.4,10.6 23.4,11.2 C23.4,11.8 23,12.2 22.4,12.2 L16.2,12.2 L16.2,12.2 L16.2,12.2 Z"></path>
                                    <path d="M21.1,14.7 C20.8,14.7 20.6,14.6 20.4,14.4 L17.9,12 C17.7,11.8 17.6,11.6 17.6,11.3 C17.6,11 17.7,10.8 17.9,10.6 L20.3,8.1 C20.7,7.7 21.3,7.7 21.7,8.1 C22.1,8.5 22.1,9.1 21.7,9.5 L20,11.3 L21.8,13 C22.2,13.4 22.2,14 21.8,14.4 C21.6,14.6 21.4,14.7 21.1,14.7 L21.1,14.7 Z"></path>
                                    <path d="M6.9,12.2 L6.9,12.2 L1.2,12.2 C0.6,12.2 0.2,11.8 0.2,11.2 C0.2,10.6 0.6,10.2 1.2,10.2 L1.2,10.2 L6.9,10.2 C7.5,10.2 7.9,10.6 7.9,11.2 C7.9,11.8 7.5,12.2 6.9,12.2 L6.9,12.2 Z"></path>
                                    <path d="M2.4,14.7 C2.1,14.7 1.9,14.6 1.7,14.4 C1.3,14 1.3,13.4 1.7,13 L3.5,11.3 L1.8,9.5 C1.4,9.1 1.4,8.5 1.8,8.1 C2.2,7.7 2.8,7.7 3.2,8.1 L5.6,10.6 C5.8,10.8 5.9,11 5.9,11.3 C5.9,11.6 5.8,11.8 5.6,12 L3.1,14.4 C2.9,14.6 2.7,14.7 2.4,14.7 L2.4,14.7 Z"></path>
                                    <path d="M6.1,21.6 C5.9,21.6 5.8,21.6 5.6,21.5 C5.1,21.2 5,20.6 5.2,20.1 L8.3,14.8 C8.6,14.3 9.2,14.2 9.7,14.4 C10.2,14.7 10.3,15.3 10.1,15.8 L7,21.1 C6.8,21.4 6.5,21.6 6.1,21.6 L6.1,21.6 Z"></path>
                                    <path d="M8.9,21.7 C8.5,21.7 8.1,21.4 7.9,21 L7.3,18.6 L4.9,19.2 C4.4,19.3 3.8,19 3.7,18.5 C3.6,18 3.9,17.4 4.4,17.3 L7.8,16.4 C8.3,16.3 8.9,16.6 9,17.1 L9.9,20.5 C10,21 9.7,21.6 9.2,21.7 L8.9,21.7 L8.9,21.7 Z"></path>
                                    <path d="M17,21.6 C16.7,21.6 16.3,21.4 16.1,21.1 L13,15.8 C12.7,15.3 12.9,14.7 13.4,14.4 C13.9,14.1 14.5,14.3 14.8,14.8 L17.9,20.1 C18.2,20.6 18,21.2 17.5,21.5 C17.3,21.5 17.1,21.6 17,21.6 L17,21.6 Z"></path>
                                    <path d="M14.2,21.7 L13.9,21.7 C13.4,21.6 13.1,21 13.2,20.5 L14.1,17.1 C14.2,16.6 14.8,16.2 15.3,16.4 L18.7,17.3 C19.2,17.4 19.5,18 19.4,18.5 C19.3,19 18.7,19.4 18.2,19.2 L15.8,18.6 L15.2,21 C15,21.4 14.6,21.7 14.2,21.7 L14.2,21.7 Z"></path>
                                </g>
                            </g>
                        </g>
                    </g>
                </g>
            </g>
        </g>
    </g>
</svg>