<?xml version="1.0" encoding="UTF-8" standalone="no"?>
<svg width="83px" height="67px" viewBox="0 0 83 67" version="1.1" xmlns="http://www.w3.org/2000/svg" xmlns:xlink="http://www.w3.org/1999/xlink">
    <!-- Generator: Sketch 39.1 (31720) - http://www.bohemiancoding.com/sketch -->
    <title>Group 3</title>
    <desc>Created with Sketch.</desc>
    <defs></defs>
    <g id="-" stroke="none" stroke-width="1" fill="none" fill-rule="evenodd">
        <g id="main_page_green" transform="translate(-994.000000, -1608.000000)">
            <g id="SERVICES" transform="translate(258.000000, 1258.000000)">
                <g id="Group-11" transform="translate(0.000000, 110.000000)">
                    <g id="Group-10-Copy-3" transform="translate(630.000000, 211.000000)">
                        <g id="Group" transform="translate(69.000000, 29.000000)">
                            <g id="Type-1-Copy-3">
                                <g id="Group-3" transform="translate(37.000000, 0.000000)">
                                    <path d="M67.5,61.6 L24.6,61.6 C16.3,61.6 9.6,54.9 9.6,46.6 L9.6,25.7 C9.6,17.4 16.3,10.7 24.6,10.7 L67.5,10.7 C75.8,10.7 82.5,17.4 82.5,25.7 L82.5,46.6 C82.5,54.8 75.8,61.6 67.5,61.6 L67.5,61.6 Z" id="Shape" fill="#D6F0D7"></path>
                                    <polygon id="Shape" fill="#D6F0D7" points="22.7 58.6 19.7 66.8 24.9 66.8 30.4 58.6"></polygon>
                                    <polygon id="Shape" fill="#D6F0D7" points="69.4 58.6 72.4 66.8 67.2 66.8 61.7 58.6"></polygon>
                                    <g id="Group" transform="translate(40.000000, 17.000000)">
                                        <g>
                                            <circle id="Oval" fill="#FFFFFF" cx="17.9" cy="18.4" r="16.7"></circle>
                                            <path d="M17.9,36.1 C8.2,36.1 0.2,28.2 0.2,18.4 C0.2,8.6 8.1,0.7 17.9,0.7 C27.7,0.7 35.6,8.6 35.6,18.4 C35.6,28.2 27.6,36.1 17.9,36.1 L17.9,36.1 Z M17.9,2.7 C9.3,2.7 2.2,9.7 2.2,18.4 C2.2,27.1 9.2,34.1 17.9,34.1 C26.6,34.1 33.6,27.1 33.6,18.4 C33.6,9.7 26.5,2.7 17.9,2.7 L17.9,2.7 Z" id="Shape" fill="#4CAF50"></path>
                                        </g>
                                        <path d="M17.9,19.4 C17.7,19.4 17.4,19.3 17.2,19.2 C16.8,18.8 16.7,18.2 17.1,17.8 L20.2,14.3 C20.6,13.9 21.2,13.8 21.6,14.2 C22,14.6 22.1,15.2 21.7,15.6 L18.6,19.1 C18.4,19.3 18.2,19.4 17.9,19.4 L17.9,19.4 Z" id="Shape" fill="#4CAF51"></path>
                                        <circle id="Oval" fill="#4CAF50" cx="17.9" cy="18.4" r="1.6"></circle>
                                        <path d="M7.9,19.4 L4.2,19.4 C3.6,19.4 3.2,19 3.2,18.4 C3.2,17.8 3.6,17.4 4.2,17.4 L7.9,17.4 C8.5,17.4 8.9,17.8 8.9,18.4 C8.9,19 8.5,19.4 7.9,19.4 L7.9,19.4 Z" id="Shape" fill="#4CAF51"></path>
                                        <path d="M6.1,26.2 C5.8,26.2 5.4,26 5.2,25.7 C4.9,25.2 5.1,24.6 5.6,24.3 L8.8,22.5 C9.3,22.2 9.9,22.4 10.2,22.9 C10.5,23.4 10.3,24 9.8,24.3 L6.6,26.1 C6.5,26.2 6.3,26.2 6.1,26.2 L6.1,26.2 Z" id="Shape" fill="#4CAF51"></path>
                                        <path d="M11.1,31.2 C10.9,31.2 10.8,31.2 10.6,31.1 C10.1,30.8 10,30.2 10.2,29.7 L12,26.5 C12.3,26 12.9,25.9 13.4,26.1 C13.9,26.4 14,27 13.8,27.5 L12,30.7 C11.8,31 11.4,31.2 11.1,31.2 L11.1,31.2 Z" id="Shape" fill="#4CAF51"></path>
                                        <path d="M17.9,33 C17.3,33 16.9,32.6 16.9,32 L16.9,28.3 C16.9,27.7 17.3,27.3 17.9,27.3 C18.5,27.3 18.9,27.7 18.9,28.3 L18.9,32 C18.9,32.5 18.4,33 17.9,33 L17.9,33 Z" id="Shape" fill="#4CAF51"></path>
                                        <path d="M24.7,31.2 C24.4,31.2 24,31 23.8,30.7 L22,27.5 C21.7,27 21.9,26.4 22.4,26.1 C22.9,25.8 23.5,26 23.8,26.5 L25.6,29.7 C25.9,30.2 25.7,30.8 25.2,31.1 C25,31.1 24.8,31.2 24.7,31.2 L24.7,31.2 Z" id="Shape" fill="#4CAF51"></path>
                                        <path d="M29.6,26.2 C29.4,26.2 29.3,26.2 29.1,26.1 L25.9,24.3 C25.4,24 25.3,23.4 25.5,22.9 C25.8,22.4 26.4,22.3 26.9,22.5 L30.1,24.3 C30.6,24.6 30.7,25.2 30.5,25.7 C30.3,26 30,26.2 29.6,26.2 L29.6,26.2 Z" id="Shape" fill="#4CAF51"></path>
                                        <path d="M31.5,19.4 L27.8,19.4 C27.2,19.4 26.8,19 26.8,18.4 C26.8,17.8 27.2,17.4 27.8,17.4 L31.5,17.4 C32.1,17.4 32.5,17.8 32.5,18.4 C32.5,19 32,19.4 31.5,19.4 L31.5,19.4 Z" id="Shape" fill="#4CAF51"></path>
                                        <path d="M26.5,14.4 C26.2,14.4 25.8,14.2 25.6,13.9 C25.3,13.4 25.5,12.8 26,12.5 L29.2,10.7 C29.7,10.4 30.3,10.6 30.6,11.1 C30.9,11.6 30.7,12.2 30.2,12.5 L27,14.3 C26.8,14.4 26.6,14.4 26.5,14.4 L26.5,14.4 Z" id="Shape" fill="#4CAF51"></path>
                                        <path d="M22.8,10.8 C22.6,10.8 22.5,10.8 22.3,10.7 C21.8,10.4 21.7,9.8 21.9,9.3 L23.7,6.1 C24,5.6 24.6,5.5 25.1,5.7 C25.6,5.9 25.7,6.6 25.5,7.1 L23.7,10.3 C23.5,10.6 23.2,10.8 22.8,10.8 L22.8,10.8 Z" id="Shape" fill="#4CAF51"></path>
                                        <path d="M17.9,9.5 C17.3,9.5 16.9,9.1 16.9,8.5 L16.9,4.8 C16.9,4.2 17.3,3.8 17.9,3.8 C18.5,3.8 18.9,4.2 18.9,4.8 L18.9,8.5 C18.9,9 18.4,9.5 17.9,9.5 L17.9,9.5 Z" id="Shape" fill="#4CAF51"></path>
                                        <path d="M12.9,10.8 C12.6,10.8 12.2,10.6 12,10.3 L10.2,7.1 C9.9,6.6 10.1,6 10.6,5.7 C11.1,5.4 11.7,5.6 12,6.1 L13.8,9.3 C14.1,9.8 13.9,10.4 13.4,10.7 C13.3,10.8 13.1,10.8 12.9,10.8 L12.9,10.8 Z" id="Shape" fill="#4CAF51"></path>
                                        <path d="M9.3,14.4 C9.1,14.4 9,14.4 8.8,14.3 L5.6,12.5 C5.1,12.2 5,11.6 5.2,11.1 C5.5,10.6 6.1,10.5 6.6,10.7 L9.8,12.5 C10.3,12.8 10.4,13.4 10.2,13.9 C10,14.3 9.6,14.4 9.3,14.4 L9.3,14.4 Z" id="Shape" fill="#4CAF51"></path>
                                    </g>
                                    <g id="Group" transform="translate(24.000000, 43.000000)">
                                        <circle id="Oval" fill="#EDF3F8" cx="5" cy="5.4" r="3.7"></circle>
                                        <path d="M5,10.1 C2.4,10.1 0.3,8 0.3,5.4 C0.3,2.8 2.4,0.7 5,0.7 C7.6,0.7 9.7,2.8 9.7,5.4 C9.7,8 7.6,10.1 5,10.1 L5,10.1 Z M5,2.7 C3.5,2.7 2.3,3.9 2.3,5.4 C2.3,6.9 3.5,8.1 5,8.1 C6.5,8.1 7.7,6.9 7.7,5.4 C7.7,3.9 6.5,2.7 5,2.7 L5,2.7 Z" id="Shape" fill="#4CAF50"></path>
                                    </g>
                                    <path d="M1.7,44.4 C1.1,44.4 0.7,44 0.7,43.4 L0.7,14.5 C0.7,13.9 1.1,13.5 1.7,13.5 C2.3,13.5 2.7,13.9 2.7,14.5 L2.7,43.4 C2.7,43.9 2.3,44.4 1.7,44.4 L1.7,44.4 Z" id="Shape" fill="#D6F0D7"></path>
                                    <path d="M46.8,5.2 L11.9,5.2 C11.3,5.2 10.9,4.8 10.9,4.2 C10.9,3.6 11.3,3.2 11.9,3.2 L46.8,3.2 C47.4,3.2 47.8,3.6 47.8,4.2 C47.8,4.8 47.4,5.2 46.8,5.2 L46.8,5.2 Z" id="Shape" fill="#D6F0D7"></path>
                                    <path d="M64.3,7.6 L38.4,7.6 C36.5,7.6 35,6.1 35,4.2 L35,4.2 C35,2.3 36.5,0.8 38.4,0.8 L64.3,0.8 C66.2,0.8 67.7,2.3 67.7,4.2 L67.7,4.2 C67.7,6.1 66.2,7.6 64.3,7.6 L64.3,7.6 Z" id="Shape" fill="#D6F0D7"></path>
                                    <path d="M2.7,14.5 L0.7,14.5 C0.7,8.3 5.7,3.3 11.9,3.3 L11.9,5.3 C6.8,5.2 2.7,9.4 2.7,14.5 L2.7,14.5 Z" id="Shape" fill="#D6F0D7"></path>
                                    <path d="M61.4,12.6 C60.8,12.6 60.4,12.2 60.4,11.6 L60.4,7.6 C60.4,7 60.8,6.6 61.4,6.6 C62,6.6 62.4,7 62.4,7.6 L62.4,11.6 C62.4,12.2 61.9,12.6 61.4,12.6 L61.4,12.6 Z" id="Shape" fill="#D6F0D7"></path>
                                    <path d="M41.4,12.6 C40.8,12.6 40.4,12.2 40.4,11.6 L40.4,7.6 C40.4,7 40.8,6.6 41.4,6.6 C42,6.6 42.4,7 42.4,7.6 L42.4,11.6 C42.4,12.2 41.9,12.6 41.4,12.6 L41.4,12.6 Z" id="Shape" fill="#D6F0D7"></path>
                                    <path d="M6.1,48.7 C3.1,48.7 0.7,46.3 0.7,43.3 C0.7,42.7 1.1,42.3 1.7,42.3 C2.3,42.3 2.7,42.7 2.7,43.3 C2.7,45.2 4.2,46.7 6.1,46.7 C6.7,46.7 7.1,47.1 7.1,47.7 C7.1,48.3 6.6,48.7 6.1,48.7 L6.1,48.7 Z" id="Shape" fill="#D6F0D7"></path>
                                    <path d="M12.2,48.7 L6,48.7 C5.4,48.7 5,48.3 5,47.7 C5,47.1 5.4,46.7 6,46.7 L12.2,46.7 C12.8,46.7 13.2,47.1 13.2,47.7 C13.2,48.3 12.8,48.7 12.2,48.7 L12.2,48.7 Z" id="Shape" fill="#D6F0D7"></path>
                                </g>
                            </g>
                        </g>
                    </g>
                </g>
            </g>
        </g>
    </g>
</svg>