<?xml version="1.0" encoding="UTF-8" standalone="no"?>
<svg width="76px" height="72px" viewBox="0 0 76 72" version="1.1" xmlns="http://www.w3.org/2000/svg" xmlns:xlink="http://www.w3.org/1999/xlink">
    <!-- Generator: Sketch 39.1 (31720) - http://www.bohemiancoding.com/sketch -->
    <title>Group</title>
    <desc>Created with Sketch.</desc>
    <defs></defs>
    <g id="-" stroke="none" stroke-width="1" fill="none" fill-rule="evenodd">
        <g id="main_page_green" transform="translate(-998.000000, -1397.000000)">
            <g id="SERVICES" transform="translate(258.000000, 1258.000000)">
                <g id="Group-11" transform="translate(0.000000, 110.000000)">
                    <g id="Group-10-Copy-2" transform="translate(630.000000, 0.000000)">
                        <g id="Type-1-Copy" transform="translate(45.000000, 29.000000)">
                            <g id="Group" transform="translate(65.000000, 0.000000)">
                                <g>
                                    <path d="M67.3,71.5 L8.4,71.5 C5.1,71.5 2.4,68.8 2.4,65.5 C2.4,65.5 0.4,52.1 0.4,36.1 C0.4,20.1 2.4,6.7 2.4,6.7 C2.4,3.4 5.1,0.7 8.4,0.7 L67.3,0.7 C70.6,0.7 73.3,3.4 73.3,6.7 C73.3,6.7 75.3,20.1 75.3,36.1 C75.3,52.1 73.3,65.5 73.3,65.5 C73.3,68.8 70.6,71.5 67.3,71.5 L67.3,71.5 Z" id="Shape" fill="#D6F0D7"></path>
                                    <path d="M63.3,64 L12.3,64 C10.6,64 9.3,62.7 9.3,61 L9.3,11 C9.3,9.3 10.6,8 12.3,8 L63.3,8 C65,8 66.3,9.3 66.3,11 L66.3,61 C66.3,62.7 65,64 63.3,64 L63.3,64 Z M12.3,10 C11.7,10 11.3,10.4 11.3,11 L11.3,61 C11.3,61.6 11.7,62 12.3,62 L63.3,62 C63.9,62 64.3,61.6 64.3,61 L64.3,11 C64.3,10.4 63.9,10 63.3,10 L12.3,10 L12.3,10 Z" id="Shape" fill="#4CAF50"></path>
                                    <path d="M9.3,26.1 C8.7,26.1 8.3,25.7 8.3,25.1 L8.3,19.2 C8.3,18.6 8.7,18.2 9.3,18.2 C9.9,18.2 10.3,18.6 10.3,19.2 L10.3,25.1 C10.3,25.7 9.9,26.1 9.3,26.1 L9.3,26.1 Z" id="Shape" fill="#4CAF50"></path>
                                    <path d="M9.3,53.9 C8.7,53.9 8.3,53.5 8.3,52.9 L8.3,47 C8.3,46.4 8.7,46 9.3,46 C9.9,46 10.3,46.4 10.3,47 L10.3,52.9 C10.3,53.4 9.9,53.9 9.3,53.9 L9.3,53.9 Z" id="Shape" fill="#4CAF50"></path>
                                    <g transform="translate(15.000000, 13.000000)" id="Shape">
                                        <path d="M43,32.5 L2.7,32.5 C2.2,32.5 1.7,32 1.7,31.5 L1.7,2.9 C1.7,2.3 2.2,1.9 2.7,1.9 L43,1.9 C43.5,1.9 44,2.3 44,2.9 L44,31.5 C44,32 43.6,32.5 43,32.5 L43,32.5 Z" fill="#FFFFFF"></path>
                                        <path d="M43,33.5 L2.7,33.5 C1.6,33.5 0.7,32.6 0.7,31.5 L0.7,2.9 C0.7,1.8 1.6,0.9 2.7,0.9 L43,0.9 C44.1,0.9 45,1.8 45,2.9 L45,31.5 C45,32.6 44.1,33.5 43,33.5 L43,33.5 Z M43,31.5 L43,32.5 L43,31.5 L43,31.5 L43,31.5 L43,31.5 Z M2.7,2.9 L2.7,31.5 L43,31.5 L43,2.9 L2.7,2.9 L2.7,2.9 Z" fill="#4CAF50"></path>
                                        <path d="M23.6,13.8 L10.1,13.8 C9.5,13.8 9.1,13.4 9.1,12.8 C9.1,12.2 9.5,11.8 10.1,11.8 L23.6,11.8 C24.2,11.8 24.6,12.2 24.6,12.8 C24.6,13.4 24.1,13.8 23.6,13.8 L23.6,13.8 Z" fill="#4CAF51"></path>
                                        <path d="M23.6,13.8 C23,13.8 22.6,13.4 22.6,12.8 C22.6,12.2 23,11.8 23.6,11.8 C24.6,11.8 25.5,11 25.5,9.9 C25.5,8.9 24.7,8 23.6,8 C22.8,8 22,8.5 21.8,9.3 C21.6,9.8 21.1,10.1 20.5,10 C20,9.8 19.7,9.3 19.8,8.7 C20.3,7.1 21.8,6 23.5,6 C25.6,6 27.4,7.7 27.4,9.9 C27.4,12.1 25.7,13.8 23.6,13.8 L23.6,13.8 Z" fill="#4CAF51"></path>
                                        <path d="M23.6,22.4 L10.1,22.4 C9.5,22.4 9.1,22 9.1,21.4 C9.1,20.8 9.5,20.4 10.1,20.4 L23.6,20.4 C24.2,20.4 24.6,20.8 24.6,21.4 C24.6,22 24.1,22.4 23.6,22.4 L23.6,22.4 Z" fill="#4CAF51"></path>
                                        <path d="M23.6,28.2 C21.9,28.2 20.4,27.1 19.9,25.5 C19.7,25 20,24.4 20.6,24.2 C21.1,24 21.7,24.3 21.9,24.9 C22.1,25.7 22.9,26.2 23.7,26.2 C24.7,26.2 25.6,25.4 25.6,24.3 C25.6,23.3 24.8,22.4 23.7,22.4 C23.1,22.4 22.7,22 22.7,21.4 C22.7,20.8 23.1,20.4 23.7,20.4 C25.8,20.4 27.6,22.1 27.6,24.3 C27.6,26.5 25.7,28.2 23.6,28.2 L23.6,28.2 Z" fill="#4CAF51"></path>
                                        <path d="M32.1,18.1 L10,18.1 C9.4,18.1 9,17.7 9,17.1 C9,16.5 9.4,16.1 10,16.1 L32.1,16.1 C32.7,16.1 33.1,16.5 33.1,17.1 C33.1,17.7 32.7,18.1 32.1,18.1 L32.1,18.1 Z" fill="#4CAF51"></path>
                                        <path d="M32.1,18.1 C31.5,18.1 31.1,17.7 31.1,17.1 C31.1,16.5 31.5,16.1 32.1,16.1 C33.2,16.1 34.1,15.2 34.1,14.1 C34.1,13 33.2,12.1 32.1,12.1 C31,12.1 30.1,13 30.1,14.1 C30.1,14.7 29.7,15.1 29.1,15.1 C28.5,15.1 28.1,14.7 28.1,14.1 C28.1,11.9 29.9,10.1 32.1,10.1 C34.3,10.1 36.1,11.9 36.1,14.1 C36.1,16.3 34.4,18.1 32.1,18.1 L32.1,18.1 Z" fill="#4CAF51"></path>
                                    </g>
                                    <g transform="translate(16.000000, 49.000000)">
                                        <circle id="Oval" fill="#EDF3F8" cx="5.2" cy="5.5" r="3.7"></circle>
                                        <path d="M5.2,10.2 C2.6,10.2 0.5,8.1 0.5,5.5 C0.5,2.9 2.6,0.8 5.2,0.8 C7.8,0.8 9.9,2.9 9.9,5.5 C9.9,8.1 7.8,10.2 5.2,10.2 L5.2,10.2 Z M5.2,2.9 C3.7,2.9 2.5,4.1 2.5,5.6 C2.5,7.1 3.7,8.3 5.2,8.3 C6.7,8.3 7.9,7.1 7.9,5.6 C7.9,4.1 6.7,2.9 5.2,2.9 L5.2,2.9 Z" id="Shape" fill="#4CAF50"></path>
                                    </g>
                                    <g transform="translate(28.000000, 49.000000)">
                                        <circle id="Oval" fill="#EDF3F8" cx="5.2" cy="5.5" r="3.7"></circle>
                                        <path d="M5.2,10.2 C2.6,10.2 0.5,8.1 0.5,5.5 C0.5,2.9 2.6,0.8 5.2,0.8 C7.8,0.8 9.9,2.9 9.9,5.5 C9.9,8.1 7.7,10.2 5.2,10.2 L5.2,10.2 Z M5.2,2.9 C3.7,2.9 2.5,4.1 2.5,5.6 C2.5,7.1 3.7,8.3 5.2,8.3 C6.7,8.3 7.9,7.1 7.9,5.6 C7.9,4.1 6.6,2.9 5.2,2.9 L5.2,2.9 Z" id="Shape" fill="#4CAF50"></path>
                                    </g>
                                </g>
                            </g>
                        </g>
                    </g>
                </g>
            </g>
        </g>
    </g>
</svg>