<?xml version="1.0" encoding="UTF-8" standalone="no"?>
<svg width="86px" height="73px" viewBox="0 0 86 73" version="1.1" xmlns="http://www.w3.org/2000/svg" xmlns:xlink="http://www.w3.org/1999/xlink">
    <!-- Generator: Sketch 39.1 (31720) - http://www.bohemiancoding.com/sketch -->
    <title>1</title>
    <desc>Created with Sketch.</desc>
    <defs></defs>
    <g id="-" stroke="none" stroke-width="1" fill="none" fill-rule="evenodd">
        <g id="main_page_green" transform="translate(-364.000000, -1397.000000)">
            <g id="SERVICES" transform="translate(258.000000, 1258.000000)">
                <g id="Group-11" transform="translate(0.000000, 110.000000)">
                    <g id="Group-10">
                        <g id="Type-1" transform="translate(14.000000, 29.000000)">
                            <g id="1" transform="translate(92.000000, 0.000000)">
                                <circle id="Oval" fill="#D6F0D7" cx="44" cy="44.2" r="28.8"></circle>
                                <path d="M59.1,18.1 L28.9,18.1 C28.1,18.1 27.5,17.5 27.5,16.7 L28.9,2.3 C28.9,1.5 29.5,0.9 30.3,0.9 L57.7,0.9 C58.5,0.9 59.1,1.5 59.1,2.3 L60.5,16.7 C60.5,17.5 59.9,18.1 59.1,18.1 L59.1,18.1 Z" id="Shape" fill="#D6F0D7"></path>
                                <path d="M15.2,57.5 L5.5,57.5 C4.4,57.5 3.5,56.6 3.5,55.5 L3.5,33 C3.5,31.9 4.4,31 5.5,31 L15.2,31 C16.3,31 17.2,31.9 17.2,33 L17.2,55.5 C17.2,56.6 16.3,57.5 15.2,57.5 L15.2,57.5 Z" id="Shape" fill="#D6F0D7"></path>
                                <path d="M2,52 L3.5,52 C4.4,52 5.1,51.3 5.1,50.4 L5.1,38.1 C5.1,37.2 4.4,36.5 3.5,36.5 L2,36.5 C1.1,36.5 0.4,37.2 0.4,38.1 L0.4,50.4 C0.4,51.3 1.1,52 2,52 L2,52 Z" id="Shape" fill="#D6F0D7"></path>
                                <g id="Group" transform="translate(21.000000, 21.000000)">
                                    <g>
                                        <circle id="Oval" fill="#FFFFFF" cx="23" cy="23.2" r="21.8"></circle>
                                        <path d="M23,46.1 C10.4,46.1 0.2,35.9 0.2,23.3 C0.2,10.7 10.4,0.5 23,0.5 C35.6,0.5 45.8,10.7 45.8,23.3 C45.8,35.9 35.6,46.1 23,46.1 L23,46.1 Z M23,2.4 C11.5,2.4 2.2,11.7 2.2,23.2 C2.2,34.7 11.5,44 23,44 C34.5,44 43.8,34.7 43.8,23.2 C43.8,11.8 34.5,2.4 23,2.4 L23,2.4 Z" id="Shape" fill="#4CAF50"></path>
                                    </g>
                                    <path d="M23,24.2 C22.8,24.2 22.5,24.1 22.3,24 C21.9,23.6 21.8,23 22.2,22.6 L26.3,18 C26.7,17.6 27.3,17.5 27.7,17.9 C28.1,18.3 28.2,18.9 27.8,19.3 L23.7,23.9 C23.6,24.1 23.3,24.2 23,24.2 L23,24.2 Z" id="Shape" fill="#4CAF51"></path>
                                    <circle id="Oval" fill="#4CAF50" cx="23" cy="23.2" r="2.1"></circle>
                                    <path d="M10,24.2 L5.2,24.2 C4.6,24.2 4.2,23.8 4.2,23.2 C4.2,22.6 4.6,22.2 5.2,22.2 L10,22.2 C10.6,22.2 11,22.6 11,23.2 C11,23.8 10.5,24.2 10,24.2 L10,24.2 Z" id="Shape" fill="#4CAF51"></path>
                                    <path d="M7.6,33.1 C7.3,33.1 6.9,32.9 6.7,32.6 C6.4,32.1 6.6,31.5 7.1,31.2 L11.2,28.8 C11.7,28.5 12.3,28.7 12.6,29.2 C12.9,29.7 12.7,30.3 12.2,30.6 L8.1,33 C7.9,33.1 7.8,33.1 7.6,33.1 L7.6,33.1 Z" id="Shape" fill="#4CAF51"></path>
                                    <path d="M14.1,39.7 C13.9,39.7 13.8,39.7 13.6,39.6 C13.1,39.3 13,38.7 13.2,38.2 L15.6,34.1 C15.9,33.6 16.5,33.5 17,33.7 C17.5,34 17.6,34.6 17.4,35.1 L15,39.2 C14.8,39.5 14.4,39.7 14.1,39.7 L14.1,39.7 Z" id="Shape" fill="#4CAF51"></path>
                                    <path d="M23,42 C22.4,42 22,41.6 22,41 L22,36.2 C22,35.6 22.4,35.2 23,35.2 C23.6,35.2 24,35.6 24,36.2 L24,41 C24,41.6 23.6,42 23,42 L23,42 Z" id="Shape" fill="#4CAF51"></path>
                                    <path d="M31.9,39.7 C31.6,39.7 31.2,39.5 31,39.2 L28.6,35.1 C28.3,34.6 28.5,34 29,33.7 C29.5,33.4 30.1,33.6 30.4,34.1 L32.8,38.2 C33.1,38.7 32.9,39.3 32.4,39.6 C32.2,39.6 32.1,39.7 31.9,39.7 L31.9,39.7 Z" id="Shape" fill="#4CAF51"></path>
                                    <path d="M38.4,33.1 C38.2,33.1 38.1,33.1 37.9,33 L33.8,30.6 C33.3,30.3 33.2,29.7 33.4,29.2 C33.7,28.7 34.3,28.6 34.8,28.8 L38.9,31.2 C39.4,31.5 39.5,32.1 39.3,32.6 C39.1,33 38.8,33.1 38.4,33.1 L38.4,33.1 Z" id="Shape" fill="#4CAF51"></path>
                                    <path d="M40.8,24.2 L36,24.2 C35.4,24.2 35,23.8 35,23.2 C35,22.6 35.4,22.2 36,22.2 L40.8,22.2 C41.4,22.2 41.8,22.6 41.8,23.2 C41.8,23.8 41.3,24.2 40.8,24.2 L40.8,24.2 Z" id="Shape" fill="#4CAF51"></path>
                                    <path d="M34.3,17.7 C34,17.7 33.6,17.5 33.4,17.2 C33.1,16.7 33.3,16.1 33.8,15.8 L37.9,13.4 C38.4,13.1 39,13.3 39.3,13.8 C39.6,14.3 39.4,14.9 38.9,15.2 L34.8,17.6 C34.6,17.7 34.4,17.7 34.3,17.7 L34.3,17.7 Z" id="Shape" fill="#4CAF51"></path>
                                    <path d="M29.5,13 C29.3,13 29.2,13 29,12.9 C28.5,12.6 28.4,12 28.6,11.5 L31,7.4 C31.3,6.9 31.9,6.8 32.4,7 C32.9,7.3 33,7.9 32.8,8.4 L30.4,12.5 C30.2,12.8 29.8,13 29.5,13 L29.5,13 Z" id="Shape" fill="#4CAF51"></path>
                                    <path d="M23,11.2 C22.4,11.2 22,10.8 22,10.2 L22,5.4 C22,4.8 22.4,4.4 23,4.4 C23.6,4.4 24,4.8 24,5.4 L24,10.2 C24,10.8 23.6,11.2 23,11.2 L23,11.2 Z" id="Shape" fill="#4CAF51"></path>
                                    <path d="M16.5,13 C16.2,13 15.8,12.8 15.6,12.5 L13.2,8.4 C12.9,7.9 13.1,7.3 13.6,7 C14.1,6.7 14.7,6.9 15,7.4 L17.4,11.5 C17.7,12 17.5,12.6 17,12.9 C16.8,12.9 16.7,13 16.5,13 L16.5,13 Z" id="Shape" fill="#4CAF51"></path>
                                    <path d="M11.7,17.7 C11.5,17.7 11.4,17.7 11.2,17.6 L7.1,15.2 C6.6,14.9 6.5,14.3 6.7,13.8 C7,13.3 7.6,13.2 8.1,13.4 L12.2,15.8 C12.7,16.1 12.8,16.7 12.6,17.2 C12.4,17.6 12.1,17.7 11.7,17.7 L11.7,17.7 Z" id="Shape" fill="#4CAF51"></path>
                                </g>
                                <path d="M74.1,55.3 L72.7,55.3 C71.6,55.3 70.7,54.4 70.7,53.3 L70.7,35.1 C70.7,34 71.6,33.1 72.7,33.1 L74.1,33.1 C75.2,33.1 76.1,34 76.1,35.1 L76.1,53.3 C76.1,54.4 75.2,55.3 74.1,55.3 L74.1,55.3 Z" id="Shape" fill="#D6F0D7"></path>
                                <path d="M82.4,45.2 L75,45.2 C74.4,45.2 74,44.8 74,44.2 C74,43.6 74.4,43.2 75,43.2 L82.4,43.2 C83,43.2 83.4,43.6 83.4,44.2 C83.4,44.8 83,45.2 82.4,45.2 L82.4,45.2 Z" id="Shape" fill="#D6F0D7"></path>
                                <path d="M77.8,51.6 L76.7,51.6 C75.8,51.6 75,50.9 75,49.9 L75,38.5 C75,37.6 75.7,36.8 76.7,36.8 L77.8,36.8 C78.7,36.8 79.5,37.5 79.5,38.5 L79.5,49.9 C79.5,50.9 78.7,51.6 77.8,51.6 L77.8,51.6 Z" id="Shape" fill="#D6F0D7"></path>
                                <path d="M84,50.4 L84,50.4 C83.1,50.4 82.4,49.7 82.4,48.8 L82.4,39.7 C82.4,38.8 83.1,38.1 84,38.1 L84,38.1 C84.9,38.1 85.6,38.8 85.6,39.7 L85.6,48.8 C85.6,49.7 84.9,50.4 84,50.4 L84,50.4 Z" id="Shape" fill="#D6F0D7"></path>
                                <path d="M11.3,18.4 L9.3,18.4 C9.3,12.9 13.7,8.5 19.2,8.5 L19.2,10.5 C14.9,10.5 11.3,14 11.3,18.4 L11.3,18.4 Z" id="Shape" fill="#D6F0D7"></path>
                                <rect id="Rectangle-path" fill="#D6F0D7" x="9.3" y="18.4" width="2" height="12.8"></rect>
                                <rect id="Rectangle-path" fill="#D6F0D7" x="19.3" y="8.5" width="10.4" height="2"></rect>
                            </g>
                        </g>
                    </g>
                </g>
            </g>
        </g>
    </g>
</svg>