<?xml version="1.0" encoding="UTF-8" standalone="no"?>
<svg width="76px" height="72px" viewBox="0 0 76 72" version="1.1" xmlns="http://www.w3.org/2000/svg" xmlns:xlink="http://www.w3.org/1999/xlink">
    <!-- Generator: Sketch 39.1 (31720) - http://www.bohemiancoding.com/sketch -->
    <title>Group 2</title>
    <desc>Created with Sketch.</desc>
    <defs></defs>
    <g id="-" stroke="none" stroke-width="1" fill="none" fill-rule="evenodd">
        <g id="main_page_green" transform="translate(-678.000000, -1608.000000)">
            <g id="SERVICES" transform="translate(258.000000, 1258.000000)">
                <g id="Group-11" transform="translate(0.000000, 110.000000)">
                    <g id="Group-10-Copy-4" transform="translate(315.000000, 211.000000)">
                        <g id="Type-1-Copy-4" transform="translate(3.000000, 29.000000)">
                            <g id="Group-2" transform="translate(102.000000, 0.000000)">
                                <g id="Group">
                                    <path d="M67.3,71.3 L8.4,71.3 C5.1,71.3 2.4,68.6 2.4,65.3 C2.4,65.3 0.4,51.9 0.4,35.9 C0.4,19.9 2.4,6.5 2.4,6.5 C2.4,3.2 5.1,0.5 8.4,0.5 L67.3,0.5 C70.6,0.5 73.3,3.2 73.3,6.5 C73.3,6.5 75.3,19.9 75.3,35.9 C75.3,51.9 73.3,65.3 73.3,65.3 C73.3,68.6 70.6,71.3 67.3,71.3 L67.3,71.3 Z" id="Shape" fill="#D6F0D7"></path>
                                    <path d="M63.3,63.8 L12.3,63.8 C10.6,63.8 9.3,62.5 9.3,60.8 L9.3,10.8 C9.3,9.1 10.6,7.8 12.3,7.8 L63.3,7.8 C65,7.8 66.3,9.1 66.3,10.8 L66.3,60.8 C66.3,62.5 65,63.8 63.3,63.8 L63.3,63.8 Z M12.3,9.8 C11.7,9.8 11.3,10.2 11.3,10.8 L11.3,60.8 C11.3,61.4 11.7,61.8 12.3,61.8 L63.3,61.8 C63.9,61.8 64.3,61.4 64.3,60.8 L64.3,10.8 C64.3,10.2 63.9,9.8 63.3,9.8 L12.3,9.8 L12.3,9.8 Z" id="Shape" fill="#4CAF50"></path>
                                    <path d="M9.3,25.9 C8.7,25.9 8.3,25.5 8.3,24.9 L8.3,19 C8.3,18.4 8.7,18 9.3,18 C9.9,18 10.3,18.4 10.3,19 L10.3,24.9 C10.3,25.5 9.9,25.9 9.3,25.9 L9.3,25.9 Z" id="Shape" fill="#4CAF50"></path>
                                    <path d="M9.3,53.7 C8.7,53.7 8.3,53.3 8.3,52.7 L8.3,46.8 C8.3,46.2 8.7,45.8 9.3,45.8 C9.9,45.8 10.3,46.2 10.3,46.8 L10.3,52.7 C10.3,53.2 9.9,53.7 9.3,53.7 L9.3,53.7 Z" id="Shape" fill="#4CAF50"></path>
                                    <g transform="translate(15.000000, 13.000000)" id="Shape">
                                        <path d="M43,32.3 L2.7,32.3 C2.2,32.3 1.7,31.8 1.7,31.3 L1.7,2.7 C1.7,2.2 2.2,1.7 2.7,1.7 L43,1.7 C43.5,1.7 44,2.2 44,2.7 L44,31.3 C44,31.8 43.6,32.3 43,32.3 L43,32.3 Z" fill="#FFFFFF"></path>
                                        <path d="M43,33.3 L2.7,33.3 C1.6,33.3 0.7,32.4 0.7,31.3 L0.7,2.7 C0.7,1.6 1.6,0.7 2.7,0.7 L43,0.7 C44.1,0.7 45,1.6 45,2.7 L45,31.3 C45,32.4 44.1,33.3 43,33.3 L43,33.3 Z M43,31.3 L43,32.3 L43,31.3 L43,31.3 L43,31.3 L43,31.3 Z M2.7,2.7 L2.7,31.3 L43,31.3 L43,2.7 L2.7,2.7 L2.7,2.7 Z" fill="#4CAF50"></path>
                                    </g>
                                    <g transform="translate(16.000000, 49.000000)">
                                        <circle id="Oval" fill="#EDF3F8" cx="5.2" cy="5.4" r="3.7"></circle>
                                        <path d="M5.2,10 C2.6,10 0.5,7.9 0.5,5.3 C0.5,2.7 2.6,0.6 5.2,0.6 C7.8,0.6 9.9,2.7 9.9,5.3 C9.9,7.9 7.8,10 5.2,10 L5.2,10 Z M5.2,2.7 C3.7,2.7 2.5,3.9 2.5,5.4 C2.5,6.9 3.7,8.1 5.2,8.1 C6.7,8.1 7.9,6.9 7.9,5.4 C7.9,3.9 6.7,2.7 5.2,2.7 L5.2,2.7 Z" id="Shape" fill="#4CAF50"></path>
                                    </g>
                                    <g transform="translate(28.000000, 49.000000)">
                                        <circle id="Oval" fill="#EDF3F8" cx="5.2" cy="5.4" r="3.7"></circle>
                                        <path d="M5.2,10 C2.6,10 0.5,7.9 0.5,5.3 C0.5,2.7 2.6,0.6 5.2,0.6 C7.8,0.6 9.9,2.7 9.9,5.3 C9.9,7.9 7.7,10 5.2,10 L5.2,10 Z M5.2,2.7 C3.7,2.7 2.5,3.9 2.5,5.4 C2.5,6.9 3.7,8.1 5.2,8.1 C6.7,8.1 7.9,6.9 7.9,5.4 C7.9,3.9 6.6,2.7 5.2,2.7 L5.2,2.7 Z" id="Shape" fill="#4CAF50"></path>
                                    </g>
                                </g>
                                <g id="Group" transform="translate(22.000000, 20.000000)" fill="#4CAF51">
                                    <path d="M30.3,6.9 L1.3,6.9 C0.7,6.9 0.3,6.5 0.3,5.9 L0.3,1.1 C0.3,0.5 0.7,0.1 1.3,0.1 L30.3,0.1 C30.9,0.1 31.3,0.5 31.3,1.1 L31.3,5.9 C31.3,6.5 30.9,6.9 30.3,6.9 L30.3,6.9 Z M2.3,4.9 L29.3,4.9 L29.3,2.1 L2.3,2.1 L2.3,4.9 L2.3,4.9 Z" id="Shape"></path>
                                </g>
                                <path d="M25.9,38.9 C25.3,38.9 24.9,38.5 24.9,37.9 L24.9,25.9 C24.9,25.3 25.3,24.9 25.9,24.9 C26.5,24.9 26.9,25.3 26.9,25.9 L26.9,37.9 C26.9,38.5 26.5,38.9 25.9,38.9 L25.9,38.9 Z" id="Shape" fill="#4CAF51"></path>
                                <path d="M49.8,38.9 C49.2,38.9 48.8,38.5 48.8,37.9 L48.8,25.9 C48.8,25.3 49.2,24.9 49.8,24.9 C50.4,24.9 50.8,25.3 50.8,25.9 L50.8,37.9 C50.8,38.5 50.3,38.9 49.8,38.9 L49.8,38.9 Z" id="Shape" fill="#4CAF51"></path>
                                <path d="M49.8,30.9 L25.9,30.9 C25.3,30.9 24.9,30.5 24.9,29.9 C24.9,29.3 25.3,28.9 25.9,28.9 L49.8,28.9 C50.4,28.9 50.8,29.3 50.8,29.9 C50.8,30.5 50.3,30.9 49.8,30.9 L49.8,30.9 Z" id="Shape" fill="#4CAF51"></path>
                                <path d="M49.8,34.9 L25.9,34.9 C25.3,34.9 24.9,34.5 24.9,33.9 C24.9,33.3 25.3,32.9 25.9,32.9 L49.8,32.9 C50.4,32.9 50.8,33.3 50.8,33.9 C50.8,34.5 50.3,34.9 49.8,34.9 L49.8,34.9 Z" id="Shape" fill="#4CAF51"></path>
                                <path d="M49.8,38.9 L25.9,38.9 C25.3,38.9 24.9,38.5 24.9,37.9 C24.9,37.3 25.3,36.9 25.9,36.9 L49.8,36.9 C50.4,36.9 50.8,37.3 50.8,37.9 C50.8,38.5 50.3,38.9 49.8,38.9 L49.8,38.9 Z" id="Shape" fill="#4CAF51"></path>
                            </g>
                        </g>
                    </g>
                </g>
            </g>
        </g>
    </g>
</svg>