<?xml version="1.0" encoding="UTF-8" standalone="no"?>
<svg width="76px" height="72px" viewBox="0 0 76 72" version="1.1" xmlns="http://www.w3.org/2000/svg" xmlns:xlink="http://www.w3.org/1999/xlink">
    <!-- Generator: Sketch 39.1 (31720) - http://www.bohemiancoding.com/sketch -->
    <title>Group</title>
    <desc>Created with Sketch.</desc>
    <defs></defs>
    <g id="-" stroke="none" stroke-width="1" fill="none" fill-rule="evenodd">
        <g id="main_page_green" transform="translate(-683.000000, -1397.000000)">
            <g id="SERVICES" transform="translate(258.000000, 1258.000000)">
                <g id="Group-11" transform="translate(0.000000, 110.000000)">
                    <g id="Group-10-Copy" transform="translate(315.000000, 0.000000)">
                        <g id="Type-1-Copy" transform="translate(59.000000, 29.000000)">
                            <g id="Group" transform="translate(51.000000, 0.000000)">
                                <g>
                                    <path d="M67.3,71.5 L8.4,71.5 C5.1,71.5 2.4,68.8 2.4,65.5 C2.4,65.5 0.4,52.1 0.4,36.1 C0.4,20.1 2.4,6.7 2.4,6.7 C2.4,3.4 5.1,0.7 8.4,0.7 L67.3,0.7 C70.6,0.7 73.3,3.4 73.3,6.7 C73.3,6.7 75.3,20.1 75.3,36.1 C75.3,52.1 73.3,65.5 73.3,65.5 C73.3,68.8 70.6,71.5 67.3,71.5 L67.3,71.5 Z" id="Shape" fill="#D6F0D7"></path>
                                    <path d="M63.3,64 L12.3,64 C10.6,64 9.3,62.7 9.3,61 L9.3,11 C9.3,9.3 10.6,8 12.3,8 L63.3,8 C65,8 66.3,9.3 66.3,11 L66.3,61 C66.3,62.7 65,64 63.3,64 L63.3,64 Z M12.3,10 C11.7,10 11.3,10.4 11.3,11 L11.3,61 C11.3,61.6 11.7,62 12.3,62 L63.3,62 C63.9,62 64.3,61.6 64.3,61 L64.3,11 C64.3,10.4 63.9,10 63.3,10 L12.3,10 L12.3,10 Z" id="Shape" fill="#4CAF50"></path>
                                    <path d="M9.3,26.1 C8.7,26.1 8.3,25.7 8.3,25.1 L8.3,19.2 C8.3,18.6 8.7,18.2 9.3,18.2 C9.9,18.2 10.3,18.6 10.3,19.2 L10.3,25.1 C10.3,25.7 9.9,26.1 9.3,26.1 L9.3,26.1 Z" id="Shape" fill="#4CAF50"></path>
                                    <path d="M9.3,53.9 C8.7,53.9 8.3,53.5 8.3,52.9 L8.3,47 C8.3,46.4 8.7,46 9.3,46 C9.9,46 10.3,46.4 10.3,47 L10.3,52.9 C10.3,53.4 9.9,53.9 9.3,53.9 L9.3,53.9 Z" id="Shape" fill="#4CAF50"></path>
                                    <g transform="translate(15.000000, 13.000000)" id="Shape">
                                        <path d="M43,32.5 L2.7,32.5 C2.2,32.5 1.7,32 1.7,31.5 L1.7,2.9 C1.7,2.3 2.2,1.9 2.7,1.9 L43,1.9 C43.5,1.9 44,2.3 44,2.9 L44,31.5 C44,32 43.6,32.5 43,32.5 L43,32.5 Z" fill="#FFFFFF"></path>
                                        <path d="M43,33.5 L2.7,33.5 C1.6,33.5 0.7,32.6 0.7,31.5 L0.7,2.9 C0.7,1.8 1.6,0.9 2.7,0.9 L43,0.9 C44.1,0.9 45,1.8 45,2.9 L45,31.5 C45,32.6 44.1,33.5 43,33.5 L43,33.5 Z M43,31.5 L43,32.5 L43,31.5 L43,31.5 L43,31.5 L43,31.5 Z M2.7,2.9 L2.7,31.5 L43,31.5 L43,2.9 L2.7,2.9 L2.7,2.9 Z" fill="#4CAF50"></path>
                                    </g>
                                    <g transform="translate(16.000000, 49.000000)">
                                        <circle id="Oval" fill="#EDF3F8" cx="5.2" cy="5.5" r="3.7"></circle>
                                        <path d="M5.2,10.2 C2.6,10.2 0.5,8.1 0.5,5.5 C0.5,2.9 2.6,0.8 5.2,0.8 C7.8,0.8 9.9,2.9 9.9,5.5 C9.9,8.1 7.8,10.2 5.2,10.2 L5.2,10.2 Z M5.2,2.9 C3.7,2.9 2.5,4.1 2.5,5.6 C2.5,7.1 3.7,8.3 5.2,8.3 C6.7,8.3 7.9,7.1 7.9,5.6 C7.9,4.1 6.7,2.9 5.2,2.9 L5.2,2.9 Z" id="Shape" fill="#4CAF50"></path>
                                    </g>
                                    <g transform="translate(28.000000, 49.000000)">
                                        <circle id="Oval" fill="#EDF3F8" cx="5.2" cy="5.5" r="3.7"></circle>
                                        <path d="M5.2,10.2 C2.6,10.2 0.5,8.1 0.5,5.5 C0.5,2.9 2.6,0.8 5.2,0.8 C7.8,0.8 9.9,2.9 9.9,5.5 C9.9,8.1 7.7,10.2 5.2,10.2 L5.2,10.2 Z M5.2,2.9 C3.7,2.9 2.5,4.1 2.5,5.6 C2.5,7.1 3.7,8.3 5.2,8.3 C6.7,8.3 7.9,7.1 7.9,5.6 C7.9,4.1 6.6,2.9 5.2,2.9 L5.2,2.9 Z" id="Shape" fill="#4CAF50"></path>
                                    </g>
                                </g>
                                <g transform="translate(23.000000, 18.000000)" id="Shape" fill="#4CAF51">
                                    <path d="M27.6,22.2 L15.9,22.2 C15.3,22.2 14.9,21.8 14.9,21.2 C14.9,20.6 15.3,20.2 15.9,20.2 L25.8,20.2 L21.6,13.7 C21.3,13.2 21.4,12.6 21.9,12.3 C22.4,12 23,12.1 23.3,12.6 L28.5,20.6 C28.7,20.9 28.7,21.3 28.5,21.6 C28.3,22 28,22.2 27.6,22.2 L27.6,22.2 Z"></path>
                                    <path d="M20.2,10.7 C19.9,10.7 19.5,10.5 19.4,10.2 L14.9,3.2 L10.6,9.9 C10.3,10.4 9.7,10.5 9.2,10.2 C8.7,9.9 8.6,9.3 8.9,8.8 L14.1,0.8 C14.3,0.5 14.6,0.3 14.9,0.3 L14.9,0.3 C15.2,0.3 15.6,0.5 15.7,0.8 L21,9.1 C21.3,9.6 21.2,10.2 20.7,10.5 C20.6,10.7 20.4,10.7 20.2,10.7 L20.2,10.7 Z"></path>
                                    <path d="M11.4,22.2 L2,22.2 C1.6,22.2 1.3,22 1.1,21.7 C0.9,21.4 0.9,21 1.1,20.7 L6.6,12.3 C6.9,11.8 7.5,11.7 8,12 C8.5,12.3 8.6,12.9 8.3,13.4 L3.8,20.3 L11.3,20.3 C11.9,20.3 12.3,20.7 12.3,21.3 C12.3,21.9 11.9,22.2 11.4,22.2 L11.4,22.2 Z"></path>
                                    <path d="M8.3,17.2 C7.8,17.2 7.4,16.9 7.3,16.4 L6.8,14 L4.4,14.5 C3.9,14.6 3.3,14.3 3.2,13.7 C3.1,13.1 3.4,12.6 4,12.5 L7.4,11.8 C7.7,11.7 7.9,11.8 8.2,11.9 C8.4,12 8.6,12.3 8.6,12.5 L9.3,15.9 C9.4,16.4 9.1,17 8.5,17.1 C8.4,17.2 8.3,17.2 8.3,17.2 L8.3,17.2 Z"></path>
                                    <path d="M18.4,24.7 C18.1,24.7 17.9,24.6 17.7,24.4 L15.2,22 C14.8,21.6 14.8,21 15.2,20.6 L17.6,18.1 C18,17.7 18.6,17.7 19,18.1 C19.4,18.5 19.4,19.1 19,19.5 L17.3,21.3 L19.1,23 C19.5,23.4 19.5,24 19.1,24.4 C18.9,24.6 18.6,24.7 18.4,24.7 L18.4,24.7 Z"></path>
                                    <path d="M20.1,10.7 L19.9,10.7 L16.5,9.9 C16,9.8 15.6,9.2 15.7,8.7 C15.8,8.2 16.4,7.8 16.9,7.9 L19.3,8.4 L19.8,6 C19.9,5.5 20.5,5.1 21,5.2 C21.5,5.3 21.9,5.9 21.8,6.4 L21,9.8 C21,10.4 20.6,10.7 20.1,10.7 L20.1,10.7 Z"></path>
                                </g>
                            </g>
                        </g>
                    </g>
                </g>
            </g>
        </g>
    </g>
</svg>