<?xml version="1.0" encoding="UTF-8" standalone="no"?>
<svg width="43px" height="43px" viewBox="0 0 43 43" version="1.1" xmlns="http://www.w3.org/2000/svg" xmlns:xlink="http://www.w3.org/1999/xlink">
    <!-- Generator: Sketch 39.1 (31720) - http://www.bohemiancoding.com/sketch -->
    <title>1466618859_Clock02</title>
    <desc>Created with Sketch.</desc>
    <defs>
        <filter x="-50%" y="-50%" width="200%" height="200%" filterUnits="objectBoundingBox" id="filter-1">
            <feOffset dx="0" dy="2" in="SourceAlpha" result="shadowOffsetOuter1"></feOffset>
            <feGaussianBlur stdDeviation="7.5" in="shadowOffsetOuter1" result="shadowBlurOuter1"></feGaussianBlur>
            <feColorMatrix values="0 0 0 0 0   0 0 0 0 0   0 0 0 0 0  0 0 0 0.255208333 0" type="matrix" in="shadowBlurOuter1" result="shadowMatrixOuter1"></feColorMatrix>
            <feMerge>
                <feMergeNode in="shadowMatrixOuter1"></feMergeNode>
                <feMergeNode in="SourceGraphic"></feMergeNode>
            </feMerge>
        </filter>
    </defs>
    <g id="Symbols" stroke="none" stroke-width="1" fill="none" fill-rule="evenodd">
        <g id="CONTACTS-&amp;-FEEDBACK" transform="translate(-126.000000, -255.000000)" fill="#FFFFFF">
            <g id="CONTACTS">
                <g id="Group-7" filter="url(#filter-1)" transform="translate(100.000000, 147.000000)">
                    <g id="Piter">
                        <g id="Group-5" transform="translate(40.000000, 40.000000)">
                            <g id="office_1" transform="translate(0.000000, 73.000000)">
                                <g id="schedule">
                                    <g id="1466618859_Clock02" transform="translate(0.000000, 7.000000)">
                                        <g id="Clock">
                                            <path d="M10.02,9.12 L8.02393701,7.99122047 L8.02393701,3.87023622 C8.02393701,3.57011811 7.78051181,3.32681102 7.4803937,3.32681102 C7.18027559,3.32681102 6.9369685,3.57023622 6.9369685,3.87023622 L6.9369685,8.30822835 C6.9369685,8.31519685 6.93885827,8.32181102 6.93897638,8.32877953 C6.93968504,8.34791339 6.94192913,8.36645669 6.94464567,8.38535433 C6.94712598,8.40259843 6.9496063,8.41972441 6.95362205,8.43649606 C6.95775591,8.45314961 6.96330709,8.4692126 6.96885827,8.4853937 C6.97488189,8.5026378 6.98066929,8.51929134 6.98822835,8.53570866 C6.99543307,8.55141732 7.00405512,8.56606299 7.01279528,8.58094488 C7.02165354,8.59594488 7.03027559,8.61094488 7.04043307,8.62511811 C7.05082677,8.63952756 7.0626378,8.65287402 7.07444882,8.66633858 C7.08590551,8.67933071 7.09712598,8.6919685 7.10976378,8.70377953 C7.12240157,8.71570866 7.13598425,8.72622047 7.14980315,8.73685039 C7.16468504,8.7484252 7.17968504,8.75940945 7.19586614,8.76944882 C7.20200787,8.77311024 7.20673228,8.77807087 7.21299213,8.78149606 L9.48496063,10.0662992 C9.56952756,10.1140157 9.66129921,10.136811 9.75200787,10.136811 C9.9415748,10.136811 10.1255906,10.0374803 10.2255118,9.8607874 C10.3732677,9.59929134 10.2811417,9.26775591 10.02,9.12 L10.02,9.12 Z" id="Shape"></path>
                                            <path d="M7.5,0.0786614173 C3.40783465,0.0786614173 0.0786614173,3.40783465 0.0786614173,7.5 C0.0786614173,11.5920472 3.40783465,14.9213386 7.5,14.9213386 C11.5920472,14.9213386 14.9213386,11.5920472 14.9213386,7.5 C14.9213386,3.40783465 11.5920472,0.0786614173 7.5,0.0786614173 L7.5,0.0786614173 Z M7.97244094,13.7205118 L7.97244094,12.6377953 L7.02755906,12.6377953 L7.02755906,13.7205118 C4.1019685,13.5002362 1.73350394,11.255315 1.32377953,8.38582677 L2.44098425,8.38582677 L2.44098425,7.44094488 L1.26129921,7.44094488 C1.29177165,4.18606299 3.8261811,1.52055118 7.02755906,1.27948819 L7.02755906,2.36220472 L7.97244094,2.36220472 L7.97244094,1.27948819 C11.1737008,1.52055118 13.7082283,4.18606299 13.7387008,7.44094488 L12.618189,7.44094488 L12.618189,8.38582677 L13.6762205,8.38582677 C13.2664961,11.255315 10.8981496,13.5002362 7.97244094,13.7205118 L7.97244094,13.7205118 Z" id="Shape"></path>
                                        </g>
                                    </g>
                                </g>
                            </g>
                        </g>
                    </g>
                </g>
            </g>
        </g>
    </g>
</svg>