<?xml version="1.0" encoding="UTF-8" standalone="no"?>
<svg width="29px" height="27px" viewBox="0 0 29 27" version="1.1" xmlns="http://www.w3.org/2000/svg" xmlns:xlink="http://www.w3.org/1999/xlink">
    <!-- Generator: Sketch 39.1 (31720) - http://www.bohemiancoding.com/sketch -->
    <title>document-file-pdf</title>
    <desc>Created with Sketch.</desc>
    <defs></defs>
    <g id="-" stroke="none" stroke-width="1" fill="none" fill-rule="evenodd">
        <g id="Main_page_blue_pop_up" transform="translate(-667.000000, -3036.000000)" fill="#1D87E4">
            <g id="REVIEWS" transform="translate(0.000000, 2604.000000)">
                <g id="block" transform="translate(100.000000, 159.000000)">
                    <g id="recence_button" transform="translate(527.000000, 256.000000)">
                        <path d="M59,40 L59,42.0025781 C59,43.1090746 58.1057238,44 57.0025781,44 L41.9974219,44 C40.8909254,44 40,43.1012878 40,41.9926701 L40,19.0073299 C40,17.8983383 40.8992496,17 42.0085302,17 L52,17 L52,23.0018987 C52,24.1132936 52.8980806,25 54.0059191,25 L59,25 L59,27 L50.0068483,27 C48.3462119,27 47,28.3422643 47,29.9987856 L47,37.0012144 C47,38.6573979 48.3359915,40 50.0068483,40 L59,40 L59,40 L59,40 Z M53,17 L53,22.9970707 C53,23.5509732 53.4509752,24 53.990778,24 L59,24 L53,17 L53,17 L53,17 Z M49.9945615,28 C48.8929956,28 48,28.9001762 48,29.992017 L48,37.007983 C48,38.1081436 48.9023438,39 49.9945615,39 L67.0054385,39 C68.1070044,39 69,38.0998238 69,37.007983 L69,29.992017 C69,28.8918564 68.0976562,28 67.0054385,28 L49.9945615,28 L49.9945615,28 L49.9945615,28 Z M63,33 L63,31 L67,31 L67,30 L62,30 L62,37 L63,37 L63,34 L66,34 L66,33 L63,33 L63,33 L63,33 Z M50,32 L50,37 L51,37 L51,34 L52.9951185,34 C54.102384,34 55,33.1122704 55,32 C55,30.8954305 54.1061002,30 52.9951185,30 L50,30 L50,32 L50,32 L50,32 Z M51,31 L51,33 L53.0010434,33 C53.5527519,33 54,32.5561352 54,32 C54,31.4477153 53.5573397,31 53.0010434,31 L51,31 L51,31 L51,31 Z M56,30 L56,37 L58.9951185,37 C60.102384,37 61,36.1134452 61,34.9940809 L61,32.0059191 C61,30.8980806 60.1061002,30 58.9951185,30 L56,30 L56,30 L56,30 Z M57,31 L57,36 L59.0010434,36 C59.5527519,36 60,35.5562834 60,35.0001925 L60,31.9998075 C60,31.4476291 59.5573397,31 59.0010434,31 L57,31 L57,31 L57,31 Z" id="document-file-pdf"></path>
                    </g>
                </g>
            </g>
        </g>
    </g>
</svg>