<?xml version="1.0" encoding="UTF-8" standalone="no"?>
<svg width="524px" height="329px" viewBox="0 0 524 329" version="1.1" xmlns="http://www.w3.org/2000/svg" xmlns:xlink="http://www.w3.org/1999/xlink">
    <!-- Generator: Sketch 39.1 (31720) - http://www.bohemiancoding.com/sketch -->
    <title>Layer_1</title>
    <desc>Created with Sketch.</desc>
    <defs></defs>
    <g id="-" stroke="none" stroke-width="1" fill="none" fill-rule="evenodd">
        <g id="main_page_red" transform="translate(-818.000000, -856.000000)">
            <g id="red_illustration" transform="translate(820.000000, 857.000000)">
                <g id="Layer_1">
                    <path d="M396.6,74.7 L361.2,74.7 C360.1,74.7 359.2,73.8 359.2,72.7 L359.2,38 C359.2,36.9 360.1,36 361.2,36 L396.6,36 C397.7,36 398.6,36.9 398.6,38 L398.6,72.7 C398.6,73.8 397.7,74.7 396.6,74.7 L396.6,74.7 Z" id="Shape" stroke="#F05F5A" stroke-width="2"></path>
                    <path d="M358.4,43.2 L358.4,47.5" id="Shape" stroke="#F05F5A" stroke-width="2"></path>
                    <path d="M358.4,63.1 L358.4,67.4" id="Shape" stroke="#F05F5A" stroke-width="2"></path>
                    <path d="M316.9,104 L281.5,104 C280.4,104 279.5,103.1 279.5,102 L279.5,67.3 C279.5,66.2 280.4,65.3 281.5,65.3 L316.9,65.3 C318,65.3 318.9,66.2 318.9,67.3 L318.9,102 C318.9,103.1 318,104 316.9,104 L316.9,104 Z" id="Shape" stroke="#F05F5A" stroke-width="2"></path>
                    <path d="M278.7,72.6 L278.7,76.8" id="Shape" stroke="#F05F5A" stroke-width="2"></path>
                    <path d="M278.7,92.5 L278.7,96.7" id="Shape" stroke="#F05F5A" stroke-width="2"></path>
                    <path d="M375.1,50.6 L371,56.2 C370.5,56.8 371,57.6 371.7,57.5 L375.9,57.1 C376.5,57 376.9,57.6 376.8,58.1 L374.9,68.1 C374.7,69 375.8,69.5 376.4,68.8 L386.7,54.4 C387.2,53.8 386.7,53 386,53.1 L381.8,53.5 C381.2,53.6 380.8,53 380.9,52.5 L382.8,42.5 C383,41.6 381.9,41.1 381.3,41.8 L375.1,50.6 L375.1,50.6 Z" id="Shape" stroke="#F05F5A" stroke-width="2" fill="#FFCACA"></path>
                    <circle id="Oval" fill="#F05F5A" cx="318.2" cy="307.1" r="2.8"></circle>
                    <circle id="Oval" fill="#F05F5A" cx="330.9" cy="307.1" r="2.8"></circle>
                    <circle id="Oval" fill="#F05F5A" cx="57.4" cy="99.6" r="2.8"></circle>
                    <circle id="Oval" fill="#F05F5A" cx="83.4" cy="99.6" r="2.8"></circle>
                    <path d="M458.8,286.4 L458.8,316.5 L361.5,316.5 L361.5,182.1 L403.5,144.5 C407.3,141.1 413.1,141.1 416.9,144.5 L458.9,182.1 L458.9,257.4" id="Shape" stroke="#F05F5A" stroke-width="3"></path>
                    <path d="M343.5,182.1 L343.5,316.5" id="Shape" stroke="#FFCACA" stroke-width="3"></path>
                    <path d="M443.8,316.5 L346.5,316.5 L346.5,182.1 L388.5,144.5 C390.4,142.8 392.8,141.9 395.2,141.9" id="Shape" stroke="#F05F5A" stroke-width="3"></path>
                    <path d="M207.5,148.5 L212.4,148.5" id="Shape" stroke="#FFCACA" stroke-width="3"></path>
                    <path d="M204.5,142.2 L204.5,181" id="Shape" stroke="#FFCACA" stroke-width="3"></path>
                    <path d="M163.5,182.1 L163.5,215.2" id="Shape" stroke="#FFCACA" stroke-width="3"></path>
                    <path d="M160.5,182.1 L202.5,144.5 C203.9,143.3 205.5,142.5 207.2,142.1" id="Shape" stroke="#F05F5A" stroke-width="3"></path>
                    <path d="M145.5,213.5 L145.5,182.1 L187.5,144.5 C189.4,142.8 191.8,141.9 194.2,141.9" id="Shape" stroke="#F05F5A" stroke-width="3"></path>
                    <path d="M160.5,182.1 L361.5,182.1" id="Shape" stroke="#F05F5A" stroke-width="3"></path>
                    <path d="M346.5,316.5 L284.1,316.5" id="Shape" stroke="#F05F5A" stroke-width="3"></path>
                    <path d="M395.2,142 L410.2,142" id="Shape" stroke="#F05F5A" stroke-width="3"></path>
                    <path d="M194.2,142 L207.5,142" id="Shape" stroke="#F05F5A" stroke-width="3"></path>
                    <path d="M145.5,182.1 L160.5,182.1" id="Shape" stroke="#F05F5A" stroke-width="3"></path>
                    <path d="M160.5,182.1 L160.5,214.4" id="Shape" stroke="#F05F5A" stroke-width="3"></path>
                    <path d="M285,206.1 L285,308.7" id="Shape" stroke="#F05F5A" stroke-width="3"></path>
                    <path d="M170.3,304.7 L170.3,261.6" id="Shape" stroke="#FFCACA" stroke-width="3"></path>
                    <path d="M170.3,261.6 L178.6,249.7" id="Shape" stroke="#FFCACA" stroke-width="3"></path>
                    <path d="M172.3,315.6 C171.2,315.6 170.3,314.7 170.3,313.6 L170.3,309.4" id="Shape" stroke="#FFCACA" stroke-width="3"></path>
                    <path d="M247.7,215.2 L247.7,308.7" id="Shape" stroke="#FFCACA" stroke-width="3"></path>
                    <polyline id="Shape" stroke="#F05F5A" stroke-width="3" points="250.7 215.2 135.5 215.2 120.3 215.2 120.3 232.4 120.3 325.9"></polyline>
                    <path d="M250.7,206.1 C250.7,196.6 258.4,188.9 267.9,188.9 C277.4,188.9 285.1,196.6 285.1,206.1" id="Shape" stroke="#F05F5A" stroke-width="3"></path>
                    <path d="M250.7,206.1 L250.7,308.7" id="Shape" stroke="#F05F5A" stroke-width="3"></path>
                    <path d="M267.8,291.6 C277.3,291.6 285,299.3 285,308.8 C285,318.3 277.3,326 267.8,326" id="Shape" stroke="#F05F5A" stroke-width="3"></path>
                    <path d="M250.7,308.7 C250.7,299.2 258.4,291.5 267.9,291.5" id="Shape" stroke="#F05F5A" stroke-width="3"></path>
                    <path d="M267.8,325.9 L120.3,325.9" id="Shape" stroke="#F05F5A" stroke-width="3"></path>
                    <g id="Group" transform="translate(128.000000, 225.000000)" stroke="#FFCACA" stroke-width="2">
                        <path d="M8.4,20.7 C8.4,15.4 12.7,11.2 17.9,11.2" id="Shape"></path>
                        <path d="M19.7,16.6 C21.3,17.3 22.4,18.8 22.4,20.7 C22.4,22.7 21.1,24.4 19.3,24.9" id="Shape"></path>
                        <polyline id="Shape" points="14.1 86.2 8.4 86.2 8.4 21.1"></polyline>
                        <path d="M21.9,86.2 L21.9,80.6" id="Shape"></path>
                        <path d="M18,11.1 L18,6.9" id="Shape"></path>
                        <path d="M18.3,6.4 L17.7,6.4 C16.6,6.4 15.7,5.5 15.7,4.4 L15.7,2.8 C15.7,1.7 16.6,0.8 17.7,0.8 L18.3,0.8 C19.4,0.8 20.3,1.7 20.3,2.8 L20.3,4.4 C20.3,5.5 19.4,6.4 18.3,6.4 L18.3,6.4 Z" id="Shape"></path>
                        <path d="M8.4,49.9 L4,49.9" id="Shape"></path>
                        <path d="M2.1,57.2 L2.1,57.2 C1.1,57.2 0.3,56.4 0.3,55.4 L0.3,44.5 C0.3,43.5 1.1,42.7 2.1,42.7 L2.1,42.7 C3.1,42.7 3.9,43.5 3.9,44.5 L3.9,55.4 C4,56.4 3.1,57.2 2.1,57.2 L2.1,57.2 Z" id="Shape"></path>
                        <path d="M24.7,80.6 C21.4,80.6 18.6,77.9 18.6,74.5 C18.6,71.1 21.3,68.4 24.7,68.4" id="Shape"></path>
                        <path d="M11.3,86.2 L11.3,90.6" id="Shape"></path>
                        <path d="M24.7,86.2 L24.7,90.6" id="Shape"></path>
                    </g>
                    <g id="Group" transform="translate(130.000000, 225.000000)" stroke="#F05F5A" stroke-width="2">
                        <circle id="Oval" cx="18" cy="20.7" r="9.5"></circle>
                        <circle id="Oval" cx="18" cy="20.7" r="4.4"></circle>
                        <polyline id="Shape" points="14.1 29.4 14.1 86.2 8.4 86.2 8.4 21.1"></polyline>
                        <path d="M21.9,68.5 L21.9,29.4" id="Shape"></path>
                        <polyline id="Shape" points="27.5 80.8 27.5 86.2 21.9 86.2 21.9 80.6"></polyline>
                        <polyline id="Shape" points="27.5 20.7 27.5 22 27.5 68.5"></polyline>
                        <path d="M18,11.1 L18,6.9" id="Shape"></path>
                        <path d="M18.3,6.4 L17.7,6.4 C16.6,6.4 15.7,5.5 15.7,4.4 L15.7,2.8 C15.7,1.7 16.6,0.8 17.7,0.8 L18.3,0.8 C19.4,0.8 20.3,1.7 20.3,2.8 L20.3,4.4 C20.3,5.5 19.4,6.4 18.3,6.4 L18.3,6.4 Z" id="Shape" fill="#FBFBFB"></path>
                        <path d="M21.6,49.9 L14.4,49.9" id="Shape"></path>
                        <path d="M8.4,49.9 L4,49.9" id="Shape"></path>
                        <path d="M2.1,57.2 L2.1,57.2 C1.1,57.2 0.3,56.4 0.3,55.4 L0.3,44.5 C0.3,43.5 1.1,42.7 2.1,42.7 L2.1,42.7 C3.1,42.7 3.9,43.5 3.9,44.5 L3.9,55.4 C4,56.4 3.1,57.2 2.1,57.2 L2.1,57.2 Z" id="Shape" fill="#FBFBFB"></path>
                        <circle id="Oval" cx="24.7" cy="74.6" r="6.1"></circle>
                        <path d="M11.3,86.2 L11.3,90.6" id="Shape"></path>
                        <path d="M24.7,86.2 L24.7,90.6" id="Shape"></path>
                    </g>
                    <path d="M171.9,309.4 C170.6,309.4 169.6,308.4 169.6,307.1 L169.6,307.1 C169.6,305.8 170.6,304.8 171.9,304.8" id="Shape" stroke="#FFCACA" stroke-width="3"></path>
                    <polyline id="Shape" stroke="#F05F5A" stroke-width="2" points="189 261.6 189 304.7 172.3 304.7 172.3 261.6"></polyline>
                    <polyline id="Shape" stroke="#F05F5A" stroke-width="2" points="172.3 261.6 175 265.6 177.8 261.6 180.6 265.6 183.4 261.6 186.2 265.6 189 261.6"></polyline>
                    <path d="M183.4,304.7 L183.4,297.7" id="Shape" stroke="#F05F5A" stroke-width="2"></path>
                    <path d="M183.4,291.9 L183.4,262" id="Shape" stroke="#F05F5A" stroke-width="2"></path>
                    <path d="M172.3,261.6 L180.6,249.7" id="Shape" stroke="#F05F5A" stroke-width="2"></path>
                    <path d="M180.6,249.7 L189,261.6" id="Shape" stroke="#F05F5A" stroke-width="2"></path>
                    <path d="M177.2,254.6 L184.1,254.6" id="Shape" stroke="#F05F5A" stroke-width="2"></path>
                    <path d="M187.4,309.4 L173.9,309.4 C172.6,309.4 171.6,308.4 171.6,307.1 L171.6,307.1 C171.6,305.8 172.6,304.8 173.9,304.8 L187.4,304.8 C188.7,304.8 189.7,305.8 189.7,307.1 L189.7,307.1 C189.7,308.3 188.7,309.4 187.4,309.4 L187.4,309.4 Z" id="Shape" stroke="#F05F5A" stroke-width="2"></path>
                    <path d="M187,315.6 L174.2,315.6 C173.1,315.6 172.2,314.7 172.2,313.6 L172.2,309.4 L189,309.4 L189,313.6 C189,314.7 188.1,315.6 187,315.6 L187,315.6 Z" id="Shape" stroke="#F05F5A" stroke-width="2"></path>
                    <path d="M199.2,315.7 C198.1,315.7 197.2,314.8 197.2,313.7 L197.2,300.3 C197.2,299.2 198.1,298.3 199.2,298.3" id="Shape" stroke="#FFCACA" stroke-width="2"></path>
                    <path d="M199.2,313.7 L199.2,300.3 C199.2,299.2 200.1,298.3 201.2,298.3 L228.7,298.3 C229.8,298.3 230.7,299.2 230.7,300.3 L230.7,311 C230.7,313.6 228.6,315.8 225.9,315.8 L201.1,315.8 C200.1,315.7 199.2,314.8 199.2,313.7 L199.2,313.7 Z" id="Shape" stroke="#F05F5A" stroke-width="2"></path>
                    <rect id="Rectangle-path" stroke="#F05F5A" stroke-width="2" x="205.1" y="298.4" width="12.4" height="17.4"></rect>
                    <path d="M211.3,311.7 L205.1,311.7" id="Shape" stroke="#F05F5A" stroke-width="2"></path>
                    <path d="M225.5,291.1 C229.1,291.1 231.9,288.2 231.9,284.7 C231.9,281.2 229,277.7 225.5,277.7" id="Shape" stroke="#F05F5A" stroke-width="2"></path>
                    <path d="M225.5,291.1 L202.3,291.1" id="Shape" stroke="#F05F5A" stroke-width="2"></path>
                    <path d="M202.3,282.4 C199.9,282.4 197.9,284.4 197.9,286.8 C197.9,289.2 199.9,291.2 202.3,291.2" id="Shape" stroke="#F05F5A" stroke-width="2"></path>
                    <path d="M223,282.4 L202.3,282.4" id="Shape" stroke="#F05F5A" stroke-width="2"></path>
                    <path d="M223,287.4 L207.2,287.4" id="Shape" stroke="#F05F5A" stroke-width="2"></path>
                    <path d="M225.5,277.7 L207.1,277.7" id="Shape" stroke="#F05F5A" stroke-width="2"></path>
                    <path d="M223.1,282.4 C224.5,282.4 225.6,283.5 225.6,284.9 C225.6,286.3 224.5,287.4 223.1,287.4" id="Shape" stroke="#F05F5A" stroke-width="2"></path>
                    <path d="M163.8,225.8 L242.8,225.8" id="Shape" stroke="#FFCACA" stroke-width="1.7436" stroke-dasharray="2.6155,2.6155"></path>
                    <path d="M242.8,225.8 L242.8,284.6" id="Shape" stroke="#FFCACA" stroke-width="1.7436" stroke-dasharray="2.6155,2.6155"></path>
                    <path d="M223.1,225.8 L223.1,271.7" id="Shape" stroke="#FFCACA" stroke-width="1.7436" stroke-dasharray="2.6155,2.6155"></path>
                    <path d="M202.3,225.8 L202.3,271.7" id="Shape" stroke="#FFCACA" stroke-width="1.7436" stroke-dasharray="2.6155,2.6155"></path>
                    <path d="M180.6,225.8 L180.6,241.1" id="Shape" stroke="#FFCACA" stroke-width="1.7436" stroke-dasharray="2.6155,2.6155"></path>
                    <path d="M189,245.7 L242.8,245.7" id="Shape" stroke="#FFCACA" stroke-width="1.7436" stroke-dasharray="2.6155,2.6155"></path>
                    <path d="M198,263.6 L242.8,263.6" id="Shape" stroke="#FFCACA" stroke-width="1.7436" stroke-dasharray="2.6155,2.6155"></path>
                    <path d="M58.3,41 L58.3,78.6" id="Shape" stroke="#FFCACA" stroke-width="3"></path>
                    <path d="M79.3,39.9 C91,44.6 101.7,51.1 101.7,64.4" id="Shape" stroke="#F05F5A" stroke-width="3"></path>
                    <path d="M38.5,64.4 C38.5,51.3 49,44.9 60.3,40.1" id="Shape" stroke="#F05F5A" stroke-width="3"></path>
                    <path d="M38.5,64.4 L38.5,65.6" id="Shape" stroke="#F05F5A" stroke-width="3"></path>
                    <path d="M101.7,64.4 L101.7,65.6" id="Shape" stroke="#F05F5A" stroke-width="3"></path>
                    <path d="M101.7,65.6 C99,65.6 98.7,67.8 98.7,70.4" id="Shape" stroke="#F05F5A" stroke-width="3"></path>
                    <path d="M38.5,88.9 L101.7,88.9" id="Shape" stroke="#F05F5A" stroke-width="3"></path>
                    <path d="M41.5,70.4 L41.5,78.6" id="Shape" stroke="#F05F5A" stroke-width="3"></path>
                    <path d="M41.8,88.9 L39,88.9 C34.2,88.9 30.2,85 30.2,80.1 L30.2,78.6 L33.6,78.6 L33.6,70.4 C33.6,67.7 35.8,65.6 38.4,65.6 C41,65.6 41.4,67.8 41.4,70.4" id="Shape" stroke="#F05F5A" stroke-width="3"></path>
                    <path d="M98.5,88.9 L101.2,88.9 C106,88.9 110,85 110,80.1 L110,78.6 L106.6,78.6 L106.6,70.4 C106.6,67.7 104.4,65.6 101.8,65.6 C99.2,65.6 98.8,67.8 98.8,70.4" id="Shape" stroke="#F05F5A" stroke-width="3"></path>
                    <path d="M98.7,70.4 L98.7,78.6" id="Shape" stroke="#F05F5A" stroke-width="3"></path>
                    <path d="M61.1,39.9 C61.1,35.6 63.7,35.1 70.1,35.1 C76.5,35.1 79.1,35.6 79.1,39.9" id="Shape" stroke="#F05F5A" stroke-width="3"></path>
                    <path d="M61.1,39.9 L61.1,78.6" id="Shape" stroke="#F05F5A" stroke-width="3"></path>
                    <path d="M79.1,71 L79.1,78.6" id="Shape" stroke="#F05F5A" stroke-width="3"></path>
                    <path d="M79.1,39.9 L79.1,63.4" id="Shape" stroke="#F05F5A" stroke-width="3"></path>
                    <path d="M48.1,78.6 C48.1,78.6 58.6,79.8 70.1,79.8 C81.6,79.8 91.8,78.6 91.8,78.6" id="Shape" stroke="#F05F5A" stroke-width="3"></path>
                    <path d="M47.3,47.9 L47.3,61.2" id="Shape" stroke="#F05F5A" stroke-width="3"></path>
                    <path d="M53.6,43.6 L53.6,61.2" id="Shape" stroke="#F05F5A" stroke-width="3"></path>
                    <path d="M53.6,61.2 C53.6,62.9 52.2,64.3 50.5,64.3 C48.8,64.3 47.4,62.9 47.4,61.2" id="Shape" stroke="#F05F5A" stroke-width="3"></path>
                    <path d="M92.9,47.9 L92.9,61.2" id="Shape" stroke="#F05F5A" stroke-width="3"></path>
                    <path d="M86.6,43.6 L86.6,61.2" id="Shape" stroke="#F05F5A" stroke-width="3"></path>
                    <path d="M86.6,61.2 C86.6,62.9 88,64.3 89.7,64.3 C91.4,64.3 92.8,62.9 92.8,61.2" id="Shape" stroke="#F05F5A" stroke-width="3"></path>
                    <path d="M39.8,88.9 L39.8,96.2" id="Shape" stroke="#F05F5A" stroke-width="3"></path>
                    <path d="M100.7,88.9 L100.7,96.2" id="Shape" stroke="#F05F5A" stroke-width="3"></path>
                    <path d="M45.1,98 C44.6,98.7 43.7,99.2 42.8,99.2 C41.2,99.2 39.9,97.9 39.9,96.3" id="Shape" stroke="#F05F5A" stroke-width="3"></path>
                    <path d="M45.1,97.9 L50.5,88.9" id="Shape" stroke="#F05F5A" stroke-width="3"></path>
                    <path d="M95.4,98 C95.9,98.7 96.8,99.2 97.7,99.2 C99.3,99.2 100.6,97.9 100.6,96.3" id="Shape" stroke="#F05F5A" stroke-width="3"></path>
                    <path d="M95.4,97.9 L89.9,88.9" id="Shape" stroke="#F05F5A" stroke-width="3"></path>
                    <circle id="Oval" fill="#F05F5A" cx="43" cy="221.9" r="2.8"></circle>
                    <path d="M41.8,228.1 L78.6,228.1 C80.6,232 84.3,234.8 88.8,235.4 C94.3,236.2 99.2,233.7 102,229.6 C102.6,228.7 102,227.5 100.9,227.5 L93.9,227.5 C93.5,227.5 93.2,227.3 92.9,227.1 L89.1,222.8 C88.7,222.3 88.7,221.6 89.1,221.1 L92.9,216.8 C93.1,216.5 93.5,216.4 93.9,216.4 L100.9,216.4 C101.9,216.4 102.6,215.2 102,214.4 C99.6,210.8 95.4,208.4 90.8,208.4 C85.5,208.4 80.9,211.4 78.7,215.9 L41.9,215.9" id="Shape" stroke="#F05F5A" stroke-width="3"></path>
                    <path d="M61,261.6 C61,262.8 60,263.8 58.8,263.8 L33.3,263.8 C29.9,263.8 27,261 27,257.5 L27,249.1 C27,245.7 29.8,242.8 33.3,242.8 L58.8,242.8 C60,242.8 61,243.8 61,245" id="Shape" stroke="#F05F5A" stroke-width="3"></path>
                    <path d="M61,245 C61,246.9 62.5,248.4 64.4,248.4 C66.3,248.4 67.8,246.9 67.8,245" id="Shape" stroke="#F05F5A" stroke-width="3"></path>
                    <path d="M61,261.7 C61,259.8 62.5,258.3 64.4,258.3 C66.3,258.3 67.8,259.8 67.8,261.7" id="Shape" stroke="#F05F5A" stroke-width="3"></path>
                    <path d="M67.9,245 L71.5,245" id="Shape" stroke="#F05F5A" stroke-width="3"></path>
                    <path d="M67.9,261.7 L71.5,261.7" id="Shape" stroke="#F05F5A" stroke-width="3"></path>
                    <path d="M71.5,245 L71.5,261.7" id="Shape" stroke="#F05F5A" stroke-width="3"></path>
                    <path d="M71.5,250.1 L93.5,250.1" id="Shape" stroke="#F05F5A" stroke-width="3"></path>
                    <path d="M71.5,256.6 L93.5,256.6" id="Shape" stroke="#F05F5A" stroke-width="3"></path>
                    <path d="M93.5,250.1 L97.1,248.2" id="Shape" stroke="#F05F5A" stroke-width="3"></path>
                    <path d="M93.5,256.6 L97.1,258.5" id="Shape" stroke="#F05F5A" stroke-width="3"></path>
                    <path d="M97.1,248.2 L108,250.5" id="Shape" stroke="#F05F5A" stroke-width="3"></path>
                    <path d="M97.1,258.5 L108,256.2" id="Shape" stroke="#F05F5A" stroke-width="3"></path>
                    <path d="M37.7,249.1 L35.2,249.1" id="Shape" stroke="#F05F5A" stroke-width="3"></path>
                    <path d="M55.1,249.1 L43.6,249.1" id="Shape" stroke="#F05F5A" stroke-width="3"></path>
                    <path d="M55.1,257.5 L35.2,257.5" id="Shape" stroke="#F05F5A" stroke-width="3"></path>
                    <path d="M41.8,228.1 C38.4,228.1 35.7,225.4 35.7,222 C35.7,218.6 38.4,215.9 41.8,215.9" id="Shape" stroke="#F05F5A" stroke-width="3"></path>
                    <path d="M303.9,130.9 L303.9,181.5" id="Shape" stroke="#FFCACA" stroke-width="3"></path>
                    <path d="M317.5,130.9 L317.5,181.5" id="Shape" stroke="#FFCACA" stroke-width="3"></path>
                    <path d="M268.1,130.9 L268.1,141.4" id="Shape" stroke="#FFCACA" stroke-width="3"></path>
                    <polyline id="Shape" stroke="#F05F5A" stroke-width="3" points="332.6 166.1 332.6 130.9 213.8 130.9 207.5 130.9 207.5 166.1"></polyline>
                    <path d="M232.5,160.4 L232.5,181.5" id="Shape" stroke="#FFCACA" stroke-width="3"></path>
                    <rect id="Rectangle-path" stroke="#F05F5A" stroke-width="3" x="207.5" y="166.1" width="125.1" height="16.1"></rect>
                    <path d="M234.5,160.4 L234.5,182.1" id="Shape" stroke="#F05F5A" stroke-width="3"></path>
                    <path d="M248.5,160.4 L248.5,182.1" id="Shape" stroke="#F05F5A" stroke-width="3"></path>
                    <path d="M234.5,171.3 L248.5,171.3" id="Shape" stroke="#F05F5A" stroke-width="3"></path>
                    <path d="M234.5,177.7 L248.5,177.7" id="Shape" stroke="#F05F5A" stroke-width="3"></path>
                    <path d="M249,142 C245.1,142 242,145.1 242,149 L242,166.1 L256,166.1 L256,149 C256,145.1 252.9,142 249,142 L249,142 Z" id="Shape" stroke="#F05F5A" stroke-width="3"></path>
                    <path d="M270.1,142 C266.2,142 263.1,145.1 263.1,149 L263.1,166.1 L277.1,166.1 L277.1,149 C277.1,145.1 273.9,142 270.1,142 L270.1,142 Z" id="Shape" stroke="#F05F5A" stroke-width="3"></path>
                    <path d="M291,142 C287.1,142 284,145.1 284,149 L284,166.1 L298,166.1 L298,149 C298,145.1 294.9,142 291,142 L291,142 Z" id="Shape" stroke="#F05F5A" stroke-width="3"></path>
                    <path d="M346.5,207 L361.5,207" id="Shape" stroke="#F05F5A" stroke-width="2"></path>
                    <path d="M361.5,214.4 L354,214.4" id="Shape" stroke="#F05F5A" stroke-width="2"></path>
                    <path d="M346.5,234 L354,234" id="Shape" stroke="#F05F5A" stroke-width="2"></path>
                    <path d="M346.5,241.3 L357.8,241.3" id="Shape" stroke="#F05F5A" stroke-width="2"></path>
                    <path d="M361.5,267.7 L346.5,267.7" id="Shape" stroke="#F05F5A" stroke-width="2"></path>
                    <path d="M361.5,305.6 L354,305.6" id="Shape" stroke="#F05F5A" stroke-width="2"></path>
                    <path d="M361.5,301.2 L352.2,301.2" id="Shape" stroke="#F05F5A" stroke-width="2"></path>
                    <path d="M382.6,163.2 L367.6,163.2" id="Shape" stroke="#F05F5A" stroke-width="2"></path>
                    <path d="M390.3,156.3 L381.5,156.3" id="Shape" stroke="#F05F5A" stroke-width="2"></path>
                    <path d="M160.5,188.9 L154.7,188.9" id="Shape" stroke="#F05F5A" stroke-width="2"></path>
                    <path d="M145.7,197.9 L160.5,197.9" id="Shape" stroke="#F05F5A" stroke-width="2"></path>
                    <path d="M160.5,205.1 L151.6,205.1" id="Shape" stroke="#F05F5A" stroke-width="2"></path>
                    <path d="M172.3,158.2 L179,158.2" id="Shape" stroke="#F05F5A" stroke-width="2"></path>
                    <path d="M176.4,167.9 L168.8,167.9" id="Shape" stroke="#F05F5A" stroke-width="2"></path>
                    <path d="M183.1,148.5 L198.1,148.5" id="Shape" stroke="#F05F5A" stroke-width="2"></path>
                    <path d="M410.3,82.6 L346.8,82.6 C345.7,82.6 344.8,81.7 344.8,80.6 L344.8,30 C344.8,28.9 345.7,28 346.8,28 L410.3,28 C411.4,28 412.3,28.9 412.3,30 L412.3,80.6 C412.3,81.7 411.4,82.6 410.3,82.6 L410.3,82.6 Z" id="Shape" stroke="#F05F5A" stroke-width="3"></path>
                    <path d="M330.5,112.7 L267,112.7 C265.9,112.7 265,111.8 265,110.7 L265,60.1 C265,59 265.9,58.1 267,58.1 L330.5,58.1 C331.6,58.1 332.5,59 332.5,60.1 L332.5,110.7 C332.5,111.8 331.6,112.7 330.5,112.7 L330.5,112.7 Z" id="Shape" stroke="#F05F5A" stroke-width="3"></path>
                    <rect id="Rectangle-path" stroke="#F05F5A" stroke-width="2" x="382.2" y="82.6" width="13.8" height="5.5"></rect>
                    <rect id="Rectangle-path" stroke="#F05F5A" stroke-width="2" x="384.8" y="88.1" width="8.5" height="5.2"></rect>
                    <rect id="Rectangle-path" stroke="#F05F5A" stroke-width="2" x="386.9" y="93.4" width="4.3" height="8.8"></rect>
                    <path d="M389.1,102.1 L389.1,113" id="Shape" stroke="#F05F5A" stroke-width="3"></path>
                    <rect id="Rectangle-path" stroke="#F05F5A" stroke-width="2" x="369.9" y="82.6" width="5" height="11.4"></rect>
                    <path d="M384.8,117.3 C387.2,117.3 389.1,115.4 389.1,113" id="Shape" stroke="#F05F5A" stroke-width="3"></path>
                    <path d="M384.8,117.3 L362.4,117.3" id="Shape" stroke="#F05F5A" stroke-width="3"></path>
                    <path d="M362.5,117.3 C359.7,117.3 357.3,119.6 357.3,122.5" id="Shape" stroke="#F05F5A" stroke-width="3"></path>
                    <path d="M357.3,122.5 L357.3,171.8" id="Shape" stroke="#F05F5A" stroke-width="3"></path>
                    <path d="M369.9,88.1 L374.9,88.1" id="Shape" stroke="#F05F5A" stroke-width="2"></path>
                    <rect id="Rectangle-path" stroke="#F05F5A" stroke-width="2" x="314.7" y="112.7" width="11.6" height="4.6"></rect>
                    <rect id="Rectangle-path" stroke="#F05F5A" stroke-width="2" x="316.9" y="117.3" width="7.2" height="4.4"></rect>
                    <path d="M372.5,94.6 L372.5,158.3" id="Shape" stroke="#F05F5A" stroke-width="3"></path>
                    <path d="M306.9,181.5 L306.9,118.1" id="Shape" stroke="#F05F5A" stroke-width="3"></path>
                    <path d="M320.5,182.1 L320.5,122.7" id="Shape" stroke="#F05F5A" stroke-width="3"></path>
                    <path d="M377.2,257.9 L377.2,285.5" id="Shape" stroke="#FFCACA" stroke-width="3"></path>
                    <polygon id="Shape" stroke="#F05F5A" stroke-width="3" points="380.2 285.5 380.2 257.9 425.4 257.9 426.4 267.9 450.4 267.9 451.4 257.9 496.6 257.9 496.6 285.5"></polygon>
                    <circle id="Oval" stroke="#F05F5A" stroke-width="2" cx="398.7" cy="271.7" r="6.2"></circle>
                    <circle id="Oval" stroke="#F05F5A" stroke-width="2" cx="398.7" cy="271.7" r="9.9"></circle>
                    <path d="M395.7,266.2 L395.7,277.2" id="Shape" stroke="#F05F5A" stroke-width="2"></path>
                    <path d="M401.7,266.7 L401.7,276.8" id="Shape" stroke="#F05F5A" stroke-width="2"></path>
                    <path d="M425.7,261 L451.1,261" id="Shape" stroke="#F05F5A" stroke-width="2"></path>
                    <path d="M432.4,261 L432.4,267.9" id="Shape" stroke="#F05F5A" stroke-width="2"></path>
                    <path d="M444.4,261 L444.4,267.9" id="Shape" stroke="#F05F5A" stroke-width="2"></path>
                    <path d="M460.8,267.9 L489.6,267.9" id="Shape" stroke="#FFCACA" stroke-width="3" stroke-dasharray="0,5"></path>
                    <g id="Group" transform="translate(289.000000, 74.000000)" stroke="#F05F5A" stroke-width="2">
                        <path d="M0.1,6.4 L10.6,6.4" id="Shape"></path>
                        <path d="M7.9,2.6 C8.3,1.4 9.4,0.6 10.7,0.6 C12.3,0.6 13.6,1.9 13.6,3.5 C13.6,5.1 12.3,6.4 10.7,6.4" id="Shape"></path>
                        <path d="M0.1,14.9 L10.6,14.9" id="Shape"></path>
                        <path d="M7.9,18.7 C8.3,19.9 9.4,20.7 10.7,20.7 C12.3,20.7 13.6,19.4 13.6,17.8 C13.6,16.2 12.3,14.9 10.7,14.9" id="Shape"></path>
                        <path d="M0.1,10.6 L19.2,10.6" id="Shape"></path>
                        <path d="M19.2,10.6 C20.9,10.6 22.2,9.3 22.2,7.6 C22.2,5.9 20.9,4.6 19.2,4.6 C17.5,4.6 16.2,5.9 16.2,7.6" id="Shape"></path>
                    </g>
                    <rect id="Rectangle-path" stroke="#F05F5A" stroke-width="2" x="303.9" y="112.7" width="6.1" height="4.7"></rect>
                    <rect id="Rectangle-path" stroke="#F05F5A" stroke-width="2" x="268" y="112.6" width="6.1" height="4.7"></rect>
                    <path d="M264.1,152.4 L271.1,152.4" id="Shape" stroke="#F05F5A" stroke-width="3"></path>
                    <path d="M271.1,152.4 L271.1,118.1" id="Shape" stroke="#F05F5A" stroke-width="3"></path>
                    <path d="M209.6,50.2 L213.1,50.2 C218.4,50.2 222.7,45.9 222.7,40.6 C222.7,35.3 218.4,31 213.1,31 L212.5,31 C212.9,29.6 213.1,28.2 213.1,26.6 C213.1,18.1 206.2,11.2 197.7,11.2 C195,11.2 192.5,11.9 190.3,13.1 C186.6,5.9 179.2,0.9 170.5,0.9 C158.9,0.9 149.4,9.8 148.4,21.1 C141.1,21.9 135.5,28.1 135.5,35.6 C135.5,43.7 142,50.2 150.1,50.2 L169.5,50.2" id="Shape" stroke="#FFCACA" stroke-width="3"></path>
                    <path d="M452,109.5 L452.6,109.5 C452.2,108.3 452,107 452,105.7 C452,98.3 458,92.2 465.5,92.2 C467.8,92.2 470,92.8 471.9,93.8 C475.1,87.5 481.6,83.2 489.1,83.2 C499.2,83.2 507.5,91 508.3,100.8 C514.6,101.5 519.6,106.9 519.6,113.4 C519.6,120.4 513.9,126.1 506.9,126.1 L452,126.1 C447.4,126.1 443.6,122.3 443.6,117.7 C443.6,113.2 447.3,109.5 452,109.5 L452,109.5 Z" id="Shape" stroke="#FFCACA" stroke-width="3"></path>
                    <path d="M170.5,52.9 L170.8,52.9 C170.6,52.2 170.5,51.4 170.5,50.6 C170.5,46.2 174.1,42.6 178.5,42.6 C179.9,42.6 181.2,43 182.3,43.6 C184.2,39.8 188.1,37.3 192.6,37.3 C198.6,37.3 203.6,41.9 204.1,47.8 C207.9,48.2 210.8,51.4 210.8,55.3 C210.8,59.5 207.4,62.9 203.2,62.9 L170.4,62.9 C167.6,62.9 165.4,60.7 165.4,57.9 C165.4,55.1 167.7,52.9 170.5,52.9 L170.5,52.9 Z" id="Shape" stroke="#FFCACA" stroke-width="3"></path>
                    <path d="M390.9,213.3 C385,213.3 380.2,208.5 380.2,202.6 L380.2,202.6 C380.2,196.7 385,191.9 390.9,191.9" id="Shape" stroke="#FFCACA" stroke-width="3"></path>
                    <path d="M417.6,191.9 C423.5,191.9 428.3,196.7 428.3,202.6 L428.3,202.6 C428.3,208.5 423.5,213.3 417.6,213.3" id="Shape" stroke="#F05F5A" stroke-width="3"></path>
                    <path d="M430.6,213.3 L393.8,213.3 C387.9,213.3 383.1,208.5 383.1,202.6 L383.1,202.6 C383.1,196.7 387.9,191.9 393.8,191.9 L430.6,191.9 C436.5,191.9 441.3,196.7 441.3,202.6 L441.3,202.6 C441.3,208.5 436.5,213.3 430.6,213.3 L430.6,213.3 Z" id="Shape" stroke="#F05F5A" stroke-width="3"></path>
                    <path d="M439.6,196.7 L434.3,196.7" id="Shape" stroke="#F05F5A" stroke-width="2"></path>
                    <path d="M431.8,200.6 L440.7,200.6" id="Shape" stroke="#F05F5A" stroke-width="2"></path>
                    <path d="M427.4,207 L431.8,207" id="Shape" stroke="#F05F5A" stroke-width="2"></path>
                    <path d="M332.6,72.1 L344.8,72.1" id="Shape" stroke="#F05F5A" stroke-width="3"></path>
                    <path d="M212.7,142.7 L217.5,142.7" id="Shape" stroke="#FFCACA" stroke-width="3"></path>
                    <path d="M223.7,142.7 L228.5,142.7" id="Shape" stroke="#FFCACA" stroke-width="3"></path>
                    <path d="M218.2,148.5 L223,148.5" id="Shape" stroke="#FFCACA" stroke-width="3"></path>
                    <path d="M288.2,171.5 L293,171.5" id="Shape" stroke="#FFCACA" stroke-width="3"></path>
                    <path d="M299.2,171.5 L304,171.5" id="Shape" stroke="#FFCACA" stroke-width="3"></path>
                    <path d="M293.7,177.3 L298.5,177.3" id="Shape" stroke="#FFCACA" stroke-width="3"></path>
                    <path d="M58.3,135.8 L58.3,155.9" id="Shape" stroke="#FFCACA" stroke-width="3"></path>
                    <path d="M82.6,135.8 L82.6,155.9" id="Shape" stroke="#FFCACA" stroke-width="3"></path>
                    <path d="M98.1,110 C98.1,120.9 84.6,129.8 70.4,129.8 C56.2,129.8 42.7,120.9 42.7,110" id="Shape" stroke="#F05F5A" stroke-width="3"></path>
                    <path d="M42.7,99.6 L42.7,110" id="Shape" stroke="#F05F5A" stroke-width="3"></path>
                    <path d="M98.1,110 L98.1,99.6" id="Shape" stroke="#F05F5A" stroke-width="3"></path>
                    <path d="M58.9,134.2 L58.9,127.8" id="Shape" stroke="#F05F5A" stroke-width="3"></path>
                    <path d="M82.1,128.2 L82.1,134.2" id="Shape" stroke="#F05F5A" stroke-width="3"></path>
                    <path d="M82.1,134.2 C82.1,140.6 76.9,145.8 70.5,145.8 C64.1,145.8 58.9,140.6 58.9,134.2" id="Shape" stroke="#F05F5A" stroke-width="3"></path>
                    <path d="M26.3,163.6 L37.2,163.6" id="Shape" stroke="#FFCACA" stroke-width="3"></path>
                    <path d="M104.6,163.6 L115.2,163.6" id="Shape" stroke="#FFCACA" stroke-width="3"></path>
                    <path d="M26.8,181.6 L37.2,181.6" id="Shape" stroke="#FFCACA" stroke-width="3"></path>
                    <path d="M104.6,181.6 L113.2,181.6" id="Shape" stroke="#FFCACA" stroke-width="3"></path>
                    <path d="M25.6,183.3 L25.6,167.2 C25.6,149.9 39.7,135.8 57,135.8 L58.4,135.8" id="Shape" stroke="#F05F5A" stroke-width="3"></path>
                    <path d="M82.6,135.8 L84,135.8 C101.3,135.8 115.4,149.9 115.4,167.2 L115.4,181.5" id="Shape" stroke="#F05F5A" stroke-width="3"></path>
                    <path d="M107.2,71 C126.6,83.3 139.5,105 139.5,129.7 C139.5,168.1 108.4,199.3 69.9,199.3 C31.4,199.3 0.3,168.2 0.3,129.7 C0.3,105 13.2,83.3 32.6,71" id="Shape" stroke="#F05F5A" stroke-width="3"></path>
                    <path d="M108,250.5 L108,256.2" id="Shape" stroke="#F05F5A" stroke-width="3.2483"></path>
                    <path d="M37.2,142.9 L37.2,190.5" id="Shape" stroke="#F05F5A" stroke-width="3"></path>
                    <path d="M104.6,144.4 L104.6,189" id="Shape" stroke="#F05F5A" stroke-width="3"></path>
                    <path d="M50.4,149.6 L90,149.6" id="Shape" stroke="#FFCACA" stroke-width="3"></path>
                    <path d="M50.5,136.5 L50.5,155.9" id="Shape" stroke="#F05F5A" stroke-width="3"></path>
                    <path d="M90.5,137.4 L90.5,155.9" id="Shape" stroke="#F05F5A" stroke-width="3"></path>
                    <path d="M50.5,155.9 L90.5,155.9" id="Shape" stroke="#F05F5A" stroke-width="3"></path>
                    <polyline id="Shape" stroke="#F05F5A" stroke-width="2" points="58.3 179 58.3 170.1 82.6 170.1 82.6 179"></polyline>
                    <path d="M82.6,179 C82.6,185.7 77.2,189.2 70.4,189.2 C63.7,189.2 58.2,185.8 58.2,179" id="Shape" stroke="#F05F5A" stroke-width="2"></path>
                    <path d="M58.3,174.6 L82.6,174.6" id="Shape" stroke="#F05F5A" stroke-width="2"></path>
                    <path d="M53.3,93.8 L61.5,93.8" id="Shape" stroke="#F05F5A" stroke-width="2"></path>
                    <path d="M79.3,93.8 L87.5,93.8" id="Shape" stroke="#F05F5A" stroke-width="2"></path>
                    <path d="M65.5,105.6 L65.5,108.6" id="Shape" stroke="#FFCACA" stroke-width="2"></path>
                    <path d="M68.5,111.6 C66.8,111.6 65.5,110.3 65.5,108.6" id="Shape" stroke="#FFCACA" stroke-width="2"></path>
                    <path d="M65.5,105.6 L68.5,99.7" id="Shape" stroke="#FFCACA" stroke-width="2"></path>
                    <path d="M67.5,105.6 L67.5,108.6" id="Shape" stroke="#F05F5A" stroke-width="2"></path>
                    <path d="M73.5,105.6 L73.5,108.6" id="Shape" stroke="#F05F5A" stroke-width="2"></path>
                    <path d="M73.5,108.6 C73.5,110.3 72.2,111.6 70.5,111.6 C68.8,111.6 67.5,110.3 67.5,108.6" id="Shape" stroke="#F05F5A" stroke-width="2"></path>
                    <path d="M67.5,105.6 L70.5,99.7" id="Shape" stroke="#F05F5A" stroke-width="2"></path>
                    <path d="M73.5,105.6 L70.5,99.7" id="Shape" stroke="#F05F5A" stroke-width="2"></path>
                    <path d="M77.5,116.4 C75.6,118 73.2,118.9 70.6,119 C67.7,119 65.1,118 63.2,116.2" id="Shape" stroke="#F05F5A" stroke-width="2"></path>
                    <path d="M69,123.3 L72.3,123.3" id="Shape" stroke="#F05F5A" stroke-width="2"></path>
                </g>
            </g>
        </g>
    </g>
</svg>