<?xml version="1.0" encoding="UTF-8" standalone="no"?>
<svg width="131px" height="114px" viewBox="0 0 131 114" version="1.1" xmlns="http://www.w3.org/2000/svg" xmlns:xlink="http://www.w3.org/1999/xlink">
    <!-- Generator: Sketch 39.1 (31720) - http://www.bohemiancoding.com/sketch -->
    <title>Group 2</title>
    <desc>Created with Sketch.</desc>
    <defs>
        <filter x="-50%" y="-50%" width="200%" height="200%" filterUnits="objectBoundingBox" id="filter-1">
            <feOffset dx="0" dy="8" in="SourceAlpha" result="shadowOffsetOuter1"></feOffset>
            <feGaussianBlur stdDeviation="4" in="shadowOffsetOuter1" result="shadowBlurOuter1"></feGaussianBlur>
            <feColorMatrix values="0 0 0 0 0.90454932   0 0 0 0 0.258263166   0 0 0 0 0.243233255  0 0 0 0.356770833 0" type="matrix" in="shadowBlurOuter1" result="shadowMatrixOuter1"></feColorMatrix>
            <feMerge>
                <feMergeNode in="shadowMatrixOuter1"></feMergeNode>
                <feMergeNode in="SourceGraphic"></feMergeNode>
            </feMerge>
        </filter>
    </defs>
    <g id="-" stroke="none" stroke-width="1" fill="none" fill-rule="evenodd">
        <g id="Main_page_blue_pop_up" transform="translate(-656.000000, -561.000000)" fill="#E7423E">
            <g id="ACTIVE_SERVICE" transform="translate(0.000000, 529.000000)">
                <g id="freeze-copy-2" transform="translate(520.000000, 0.000000)">
                    <g id="Bitmap">
                        <g id="Group-2" filter="url(#filter-1)" transform="translate(144.000000, 32.000000)">
                            <path d="M101.6,44.9 C100.8,44.9 100.1,44.2 100.1,43.4 C100.1,25.1 84.8,16.5 69.7,10.5 C68.9,10.2 68.6,9.3 68.9,8.6 C69.2,7.8 70.1,7.5 70.8,7.8 C80.9,11.8 87.9,15.9 93,20.7 C99.7,27 103,34.5 103,43.5 C103.1,44.3 102.4,44.9 101.6,44.9 L101.6,44.9 Z" id="Shape"></path>
                            <path d="M13.2,44.9 C12.4,44.9 11.7,44.2 11.7,43.4 C11.7,24 27.6,14.6 43.1,8.1 C43.9,7.8 44.7,8.1 45.1,8.9 C45.4,9.7 45.1,10.5 44.3,10.9 C28.9,17.4 14.7,25.8 14.7,43.5 C14.7,44.3 14.1,44.9 13.2,44.9 L13.2,44.9 Z" id="Shape"></path>
                            <path d="M13.2,50.8 C12.4,50.8 11.7,50.1 11.7,49.3 L11.7,43.5 C11.7,42.7 12.4,42 13.2,42 C14,42 14.7,42.7 14.7,43.5 L14.7,49.3 C14.7,50.1 14.1,50.8 13.2,50.8 L13.2,50.8 Z" id="Shape"></path>
                            <path d="M101.6,50.8 C100.8,50.8 100.1,50.1 100.1,49.3 L100.1,43.5 C100.1,42.7 100.8,42 101.6,42 C102.4,42 103.1,42.7 103.1,43.5 L103.1,49.3 C103.1,50.1 102.4,50.8 101.6,50.8 L101.6,50.8 Z" id="Shape"></path>
                            <path d="M97.4,57.5 C96.6,57.5 95.9,56.8 95.9,56 C95.9,53.5 95.9,47.7 101.6,47.7 C102.4,47.7 103.1,48.4 103.1,49.2 C103.1,50 102.4,50.7 101.6,50.7 C99.7,50.7 98.9,51.5 98.9,56 C98.9,56.9 98.2,57.5 97.4,57.5 L97.4,57.5 Z" id="Shape"></path>
                            <path d="M101.6,83.3 L13.2,83.3 C12.4,83.3 11.7,82.6 11.7,81.8 C11.7,81 12.4,80.3 13.2,80.3 L101.6,80.3 C102.4,80.3 103.1,81 103.1,81.8 C103.1,82.6 102.4,83.3 101.6,83.3 L101.6,83.3 Z" id="Shape"></path>
                            <path d="M17.5,68.9 C16.7,68.9 16,68.2 16,67.4 L16,56 C16,55.2 16.7,54.5 17.5,54.5 C18.3,54.5 19,55.2 19,56 L19,67.4 C19,68.2 18.3,68.9 17.5,68.9 L17.5,68.9 Z" id="Shape"></path>
                            <path d="M17.8,83.3 L14,83.3 C6.4,83.3 0.3,77.1 0.3,69.6 L0.3,67.5 C0.3,66.7 1,66 1.8,66 L5,66 L5,56 C5,51.4 8.7,47.7 13.3,47.7 C19,47.7 19,53.5 19,56 C19,56.8 18.3,57.5 17.5,57.5 C16.7,57.5 16,56.8 16,56 C16,51.5 15.2,50.7 13.3,50.7 C10.4,50.7 8,53.1 8,56 L8,67.4 C8,68.2 7.3,68.9 6.5,68.9 L3.3,68.9 L3.3,69.5 C3.3,75.4 8.1,80.2 14,80.2 L17.8,80.2 C18.6,80.2 19.3,80.9 19.3,81.7 C19.3,82.5 18.6,83.3 17.8,83.3 L17.8,83.3 Z" id="Shape"></path>
                            <path d="M100.8,83.3 L97,83.3 C96.2,83.3 95.5,82.6 95.5,81.8 C95.5,81 96.2,80.3 97,80.3 L100.8,80.3 C106.7,80.3 111.5,75.5 111.5,69.6 L111.5,69 L108.3,69 C107.5,69 106.8,68.3 106.8,67.5 L106.8,56 C106.8,53.1 104.4,50.7 101.5,50.7 C99.6,50.7 98.8,51.5 98.8,56 C98.8,56.8 98.1,57.5 97.3,57.5 C96.5,57.5 95.8,56.8 95.8,56 C95.8,53.5 95.8,47.7 101.5,47.7 C106.1,47.7 109.8,51.4 109.8,56 L109.8,65.9 L113,65.9 C113.8,65.9 114.5,66.6 114.5,67.4 L114.5,69.5 C114.6,77.1 108.4,83.3 100.8,83.3 L100.8,83.3 Z" id="Shape"></path>
                            <path d="M97.4,68.9 C96.6,68.9 95.9,68.2 95.9,67.4 L95.9,56 C95.9,55.2 96.6,54.5 97.4,54.5 C98.2,54.5 98.9,55.2 98.9,56 L98.9,67.4 C98.9,68.2 98.2,68.9 97.4,68.9 L97.4,68.9 Z" id="Shape"></path>
                            <path d="M69.9,10.7 C69.1,10.7 68.4,10 68.4,9.2 C68.4,5 67.1,3.9 57.4,3.9 C47.7,3.9 46.4,5 46.4,9.2 C46.4,10 45.7,10.7 44.9,10.7 C44.1,10.7 43.4,10 43.4,9.2 C43.4,1.5 49,0.9 57.4,0.9 C65.9,0.9 71.4,1.5 71.4,9.2 C71.4,10 70.8,10.7 69.9,10.7 L69.9,10.7 Z" id="Shape"></path>
                            <path d="M44.9,68.9 C44.1,68.9 43.4,68.2 43.4,67.4 L43.4,9.1 C43.4,8.3 44.1,7.6 44.9,7.6 C45.7,7.6 46.4,8.3 46.4,9.1 L46.4,67.4 C46.4,68.2 45.7,68.9 44.9,68.9 L44.9,68.9 Z" id="Shape"></path>
                            <path d="M69.9,68.9 C69.1,68.9 68.4,68.2 68.4,67.4 L68.4,56.8 C68.4,56 69.1,55.3 69.9,55.3 C70.7,55.3 71.4,56 71.4,56.8 L71.4,67.4 C71.4,68.2 70.8,68.9 69.9,68.9 L69.9,68.9 Z" id="Shape"></path>
                            <path d="M69.9,47.7 C69.1,47.7 68.4,47 68.4,46.2 L68.4,9.2 C68.4,8.4 69.1,7.7 69.9,7.7 C70.7,7.7 71.4,8.4 71.4,9.2 L71.4,46.2 C71.4,47 70.8,47.7 69.9,47.7 L69.9,47.7 Z" id="Shape"></path>
                            <path d="M57.4,70.6 C41.5,70.6 26.7,68.9 26.5,68.9 C25.7,68.8 25.1,68.1 25.2,67.2 C25.3,66.4 26,65.8 26.9,65.9 C27,65.9 41.7,67.6 57.4,67.6 C73.2,67.6 87.4,65.9 87.5,65.9 C88.3,65.8 89.1,66.4 89.2,67.2 C89.3,68 88.7,68.8 87.9,68.9 C87.8,68.9 73.4,70.6 57.4,70.6 L57.4,70.6 Z" id="Shape"></path>
                            <path d="M25.6,40.4 C24.8,40.4 24.1,39.7 24.1,38.9 L24.1,20.3 C24.1,19.5 24.8,18.8 25.6,18.8 C26.4,18.8 27.1,19.5 27.1,20.3 L27.1,38.9 C27.1,39.7 26.4,40.4 25.6,40.4 L25.6,40.4 Z" id="Shape"></path>
                            <path d="M34.3,40.4 C33.5,40.4 32.8,39.7 32.8,38.9 L32.8,14.4 C32.8,13.6 33.5,12.9 34.3,12.9 C35.1,12.9 35.8,13.6 35.8,14.4 L35.8,38.9 C35.8,39.7 35.2,40.4 34.3,40.4 L34.3,40.4 Z" id="Shape"></path>
                            <path d="M30,44.8 C26.8,44.8 24.1,42.2 24.1,38.9 C24.1,38.1 24.8,37.4 25.6,37.4 C26.4,37.4 27.1,38.1 27.1,38.9 C27.1,40.5 28.4,41.8 30,41.8 C31.6,41.8 32.9,40.5 32.9,38.9 C32.9,38.1 33.6,37.4 34.4,37.4 C35.2,37.4 35.9,38.1 35.9,38.9 C35.8,42.1 33.2,44.8 30,44.8 L30,44.8 Z" id="Shape"></path>
                            <path d="M89.3,40.4 C88.5,40.4 87.8,39.7 87.8,38.9 L87.8,20.3 C87.8,19.5 88.5,18.8 89.3,18.8 C90.1,18.8 90.8,19.5 90.8,20.3 L90.8,38.9 C90.8,39.7 90.1,40.4 89.3,40.4 L89.3,40.4 Z" id="Shape"></path>
                            <path d="M80.5,40.4 C79.7,40.4 79,39.7 79,38.9 L79,14.4 C79,13.6 79.7,12.9 80.5,12.9 C81.3,12.9 82,13.6 82,14.4 L82,38.9 C82,39.7 81.3,40.4 80.5,40.4 L80.5,40.4 Z" id="Shape"></path>
                            <path d="M79,38.9 C79,38.1 79.7,37.4 80.5,37.4 C81.3,37.4 82,38.1 82,38.9 C82,40.5 83.3,41.8 84.9,41.8 C86.5,41.8 87.8,40.5 87.8,38.9 C87.8,38.1 88.5,37.4 89.3,37.4 C90.1,37.4 90.8,38.1 90.8,38.9 C90.8,42.1 88.1,44.8 84.9,44.8 C81.7,44.8 79,42.2 79,38.9 Z" id="Shape"></path>
                            <path d="M17.8,93.5 C17,93.5 16.3,92.8 16.3,92 L16.3,81.8 C16.3,81 17,80.3 17.8,80.3 C18.6,80.3 19.3,81 19.3,81.8 L19.3,92 C19.3,92.8 18.6,93.5 17.8,93.5 L17.8,93.5 Z" id="Shape"></path>
                            <path d="M97.4,93.5 C96.6,93.5 95.9,92.8 95.9,92 L95.9,81.8 C95.9,81 96.6,80.3 97.4,80.3 C98.2,80.3 98.9,81 98.9,81.8 L98.9,92 C98.9,92.8 98.2,93.5 97.4,93.5 L97.4,93.5 Z" id="Shape"></path>
                            <path d="M21.9,97.6 C18.8,97.6 16.3,95.1 16.3,92 C16.3,91.2 17,90.5 17.8,90.5 C18.6,90.5 19.3,91.2 19.3,92 C19.3,93.4 20.5,94.6 21.9,94.6 C22.7,94.6 23.5,94.2 24,93.6 C24.5,92.9 25.4,92.8 26.1,93.3 C26.8,93.8 26.9,94.7 26.4,95.4 C25.3,96.8 23.7,97.6 21.9,97.6 L21.9,97.6 Z" id="Shape"></path>
                            <path d="M25.3,95.9 C25,95.9 24.8,95.8 24.5,95.7 C23.8,95.3 23.6,94.4 24,93.6 L31.6,81 C32,80.3 32.9,80.1 33.7,80.5 C34.4,80.9 34.6,81.8 34.2,82.6 L26.6,95.2 C26.3,95.6 25.8,95.9 25.3,95.9 L25.3,95.9 Z" id="Shape"></path>
                            <path d="M93.3,97.6 C91.5,97.6 89.9,96.8 88.8,95.4 C88.3,94.7 88.4,93.8 89.1,93.3 C89.8,92.8 90.7,92.9 91.2,93.6 C91.7,94.3 92.5,94.6 93.3,94.6 C94.7,94.6 95.9,93.4 95.9,92 C95.9,91.2 96.6,90.5 97.4,90.5 C98.2,90.5 98.9,91.2 98.9,92 C98.9,95.1 96.4,97.6 93.3,97.6 L93.3,97.6 Z" id="Shape"></path>
                            <path d="M89.9,95.9 C89.4,95.9 88.9,95.6 88.6,95.2 L81,82.6 C80.6,81.9 80.8,81 81.5,80.5 C82.2,80.1 83.1,80.3 83.6,81 L91.2,93.6 C91.6,94.3 91.4,95.2 90.7,95.7 C90.5,95.8 90.2,95.9 89.9,95.9 L89.9,95.9 Z" id="Shape"></path>
                        </g>
                    </g>
                </g>
            </g>
        </g>
    </g>
</svg>