<?xml version="1.0" encoding="UTF-8" standalone="no"?>
<svg width="55px" height="47px" viewBox="0 0 55 47" version="1.1" xmlns="http://www.w3.org/2000/svg" xmlns:xlink="http://www.w3.org/1999/xlink">
    <!-- Generator: Sketch 39.1 (31720) - http://www.bohemiancoding.com/sketch -->
    <title>icon_2</title>
    <desc>Created with Sketch.</desc>
    <defs></defs>
    <g id="-" stroke="none" stroke-width="1" fill="none" fill-rule="evenodd">
        <g id="Holod_Open" transform="translate(-701.000000, -113.000000)" fill="#E7423E">
            <g id="Popup" transform="translate(428.000000, 66.000000)">
                <g id="icon_2" transform="translate(273.000000, 47.000000)">
                    <path d="M48.5913043,21.473913 C48.2086957,21.473913 47.873913,21.1391304 47.873913,20.7565217 C47.873913,12.0043478 40.5565217,7.89130435 33.3347826,5.02173913 C32.9521739,4.87826087 32.8086957,4.44782609 32.9521739,4.11304348 C33.0956522,3.73043478 33.526087,3.58695652 33.8608696,3.73043478 C38.6913043,5.64347826 42.0391304,7.60434783 44.4782609,9.9 C47.6826087,12.9130435 49.2608696,16.5 49.2608696,20.8043478 C49.3086957,21.1869565 48.973913,21.473913 48.5913043,21.473913 L48.5913043,21.473913 Z" id="Shape"></path>
                    <path d="M6.31304348,21.473913 C5.93043478,21.473913 5.59565217,21.1391304 5.59565217,20.7565217 C5.59565217,11.4782609 13.2,6.9826087 20.6130435,3.87391304 C20.9956522,3.73043478 21.3782609,3.87391304 21.5695652,4.25652174 C21.7130435,4.63913043 21.5695652,5.02173913 21.1869565,5.21304348 C13.8217391,8.32173913 7.03043478,12.3391304 7.03043478,20.8043478 C7.03043478,21.1869565 6.74347826,21.473913 6.31304348,21.473913 L6.31304348,21.473913 Z" id="Shape"></path>
                    <path d="M6.31304348,24.2956522 C5.93043478,24.2956522 5.59565217,23.9608696 5.59565217,23.5782609 L5.59565217,20.8043478 C5.59565217,20.4217391 5.93043478,20.0869565 6.31304348,20.0869565 C6.69565217,20.0869565 7.03043478,20.4217391 7.03043478,20.8043478 L7.03043478,23.5782609 C7.03043478,23.9608696 6.74347826,24.2956522 6.31304348,24.2956522 L6.31304348,24.2956522 Z" id="Shape"></path>
                    <path d="M48.5913043,24.2956522 C48.2086957,24.2956522 47.873913,23.9608696 47.873913,23.5782609 L47.873913,20.8043478 C47.873913,20.4217391 48.2086957,20.0869565 48.5913043,20.0869565 C48.973913,20.0869565 49.3086957,20.4217391 49.3086957,20.8043478 L49.3086957,23.5782609 C49.3086957,23.9608696 48.973913,24.2956522 48.5913043,24.2956522 L48.5913043,24.2956522 Z" id="Shape"></path>
                    <path d="M46.5826087,27.5 C46.2,27.5 45.8652174,27.1652174 45.8652174,26.7826087 C45.8652174,25.5869565 45.8652174,22.8130435 48.5913043,22.8130435 C48.973913,22.8130435 49.3086957,23.1478261 49.3086957,23.5304348 C49.3086957,23.9130435 48.973913,24.2478261 48.5913043,24.2478261 C47.6826087,24.2478261 47.3,24.6304348 47.3,26.7826087 C47.3,27.2130435 46.9652174,27.5 46.5826087,27.5 L46.5826087,27.5 Z" id="Shape"></path>
                    <path d="M48.5913043,39.8391304 L6.31304348,39.8391304 C5.93043478,39.8391304 5.59565217,39.5043478 5.59565217,39.1217391 C5.59565217,38.7391304 5.93043478,38.4043478 6.31304348,38.4043478 L48.5913043,38.4043478 C48.973913,38.4043478 49.3086957,38.7391304 49.3086957,39.1217391 C49.3086957,39.5043478 48.973913,39.8391304 48.5913043,39.8391304 L48.5913043,39.8391304 Z" id="Shape"></path>
                    <path d="M8.36956522,32.9521739 C7.98695652,32.9521739 7.65217391,32.6173913 7.65217391,32.2347826 L7.65217391,26.7826087 C7.65217391,26.4 7.98695652,26.0652174 8.36956522,26.0652174 C8.75217391,26.0652174 9.08695652,26.4 9.08695652,26.7826087 L9.08695652,32.2347826 C9.08695652,32.6173913 8.75217391,32.9521739 8.36956522,32.9521739 L8.36956522,32.9521739 Z" id="Shape"></path>
                    <path d="M8.51304348,39.8391304 L6.69565217,39.8391304 C3.06086957,39.8391304 0.143478261,36.873913 0.143478261,33.2869565 L0.143478261,32.2826087 C0.143478261,31.9 0.47826087,31.5652174 0.860869565,31.5652174 L2.39130435,31.5652174 L2.39130435,26.7826087 C2.39130435,24.5826087 4.16086957,22.8130435 6.36086957,22.8130435 C9.08695652,22.8130435 9.08695652,25.5869565 9.08695652,26.7826087 C9.08695652,27.1652174 8.75217391,27.5 8.36956522,27.5 C7.98695652,27.5 7.65217391,27.1652174 7.65217391,26.7826087 C7.65217391,24.6304348 7.26956522,24.2478261 6.36086957,24.2478261 C4.97391304,24.2478261 3.82608696,25.3956522 3.82608696,26.7826087 L3.82608696,32.2347826 C3.82608696,32.6173913 3.49130435,32.9521739 3.10869565,32.9521739 L1.57826087,32.9521739 L1.57826087,33.2391304 C1.57826087,36.0608696 3.87391304,38.3565217 6.69565217,38.3565217 L8.51304348,38.3565217 C8.89565217,38.3565217 9.23043478,38.6913043 9.23043478,39.073913 C9.23043478,39.4565217 8.89565217,39.8391304 8.51304348,39.8391304 L8.51304348,39.8391304 Z" id="Shape"></path>
                    <path d="M48.2086957,39.8391304 L46.3913043,39.8391304 C46.0086957,39.8391304 45.673913,39.5043478 45.673913,39.1217391 C45.673913,38.7391304 46.0086957,38.4043478 46.3913043,38.4043478 L48.2086957,38.4043478 C51.0304348,38.4043478 53.326087,36.1086957 53.326087,33.2869565 L53.326087,33 L51.7956522,33 C51.4130435,33 51.0782609,32.6652174 51.0782609,32.2826087 L51.0782609,26.7826087 C51.0782609,25.3956522 49.9304348,24.2478261 48.5434783,24.2478261 C47.6347826,24.2478261 47.2521739,24.6304348 47.2521739,26.7826087 C47.2521739,27.1652174 46.9173913,27.5 46.5347826,27.5 C46.1521739,27.5 45.8173913,27.1652174 45.8173913,26.7826087 C45.8173913,25.5869565 45.8173913,22.8130435 48.5434783,22.8130435 C50.7434783,22.8130435 52.5130435,24.5826087 52.5130435,26.7826087 L52.5130435,31.5173913 L54.0434783,31.5173913 C54.426087,31.5173913 54.7608696,31.8521739 54.7608696,32.2347826 L54.7608696,33.2391304 C54.8086957,36.873913 51.8434783,39.8391304 48.2086957,39.8391304 L48.2086957,39.8391304 Z" id="Shape"></path>
                    <path d="M46.5826087,32.9521739 C46.2,32.9521739 45.8652174,32.6173913 45.8652174,32.2347826 L45.8652174,26.7826087 C45.8652174,26.4 46.2,26.0652174 46.5826087,26.0652174 C46.9652174,26.0652174 47.3,26.4 47.3,26.7826087 L47.3,32.2347826 C47.3,32.6173913 46.9652174,32.9521739 46.5826087,32.9521739 L46.5826087,32.9521739 Z" id="Shape"></path>
                    <path d="M33.4304348,5.1173913 C33.0478261,5.1173913 32.7130435,4.7826087 32.7130435,4.4 C32.7130435,2.39130435 32.0913043,1.86521739 27.4521739,1.86521739 C22.8130435,1.86521739 22.1913043,2.39130435 22.1913043,4.4 C22.1913043,4.7826087 21.8565217,5.1173913 21.473913,5.1173913 C21.0913043,5.1173913 20.7565217,4.7826087 20.7565217,4.4 C20.7565217,0.717391304 23.4347826,0.430434783 27.4521739,0.430434783 C31.5173913,0.430434783 34.1478261,0.717391304 34.1478261,4.4 C34.1478261,4.7826087 33.8608696,5.1173913 33.4304348,5.1173913 L33.4304348,5.1173913 Z" id="Shape"></path>
                    <path d="M21.473913,32.9521739 C21.0913043,32.9521739 20.7565217,32.6173913 20.7565217,32.2347826 L20.7565217,4.35217391 C20.7565217,3.96956522 21.0913043,3.63478261 21.473913,3.63478261 C21.8565217,3.63478261 22.1913043,3.96956522 22.1913043,4.35217391 L22.1913043,32.2347826 C22.1913043,32.6173913 21.8565217,32.9521739 21.473913,32.9521739 L21.473913,32.9521739 Z" id="Shape"></path>
                    <path d="M33.4304348,32.9521739 C33.0478261,32.9521739 32.7130435,32.6173913 32.7130435,32.2347826 L32.7130435,27.1652174 C32.7130435,26.7826087 33.0478261,26.4478261 33.4304348,26.4478261 C33.8130435,26.4478261 34.1478261,26.7826087 34.1478261,27.1652174 L34.1478261,32.2347826 C34.1478261,32.6173913 33.8608696,32.9521739 33.4304348,32.9521739 L33.4304348,32.9521739 Z" id="Shape"></path>
                    <path d="M33.4304348,22.8130435 C33.0478261,22.8130435 32.7130435,22.4782609 32.7130435,22.0956522 L32.7130435,4.4 C32.7130435,4.0173913 33.0478261,3.6826087 33.4304348,3.6826087 C33.8130435,3.6826087 34.1478261,4.0173913 34.1478261,4.4 L34.1478261,22.0956522 C34.1478261,22.4782609 33.8608696,22.8130435 33.4304348,22.8130435 L33.4304348,22.8130435 Z" id="Shape"></path>
                    <path d="M27.4521739,33.7652174 C19.8478261,33.7652174 12.7695652,32.9521739 12.673913,32.9521739 C12.2913043,32.9043478 12.0043478,32.5695652 12.0521739,32.1391304 C12.1,31.7565217 12.4347826,31.4695652 12.8652174,31.5173913 C12.9130435,31.5173913 19.9434783,32.3304348 27.4521739,32.3304348 C35.0086957,32.3304348 41.8,31.5173913 41.8478261,31.5173913 C42.2304348,31.4695652 42.6130435,31.7565217 42.6608696,32.1391304 C42.7086957,32.5217391 42.4217391,32.9043478 42.0391304,32.9521739 C41.9913043,32.9521739 35.1043478,33.7652174 27.4521739,33.7652174 L27.4521739,33.7652174 Z" id="Shape"></path>
                    <path d="M12.2434783,19.3217391 C11.8608696,19.3217391 11.526087,18.9869565 11.526087,18.6043478 L11.526087,9.70869565 C11.526087,9.32608696 11.8608696,8.99130435 12.2434783,8.99130435 C12.626087,8.99130435 12.9608696,9.32608696 12.9608696,9.70869565 L12.9608696,18.6043478 C12.9608696,18.9869565 12.626087,19.3217391 12.2434783,19.3217391 L12.2434783,19.3217391 Z" id="Shape"></path>
                    <path d="M16.4043478,19.3217391 C16.0217391,19.3217391 15.6869565,18.9869565 15.6869565,18.6043478 L15.6869565,6.88695652 C15.6869565,6.50434783 16.0217391,6.16956522 16.4043478,6.16956522 C16.7869565,6.16956522 17.1217391,6.50434783 17.1217391,6.88695652 L17.1217391,18.6043478 C17.1217391,18.9869565 16.8347826,19.3217391 16.4043478,19.3217391 L16.4043478,19.3217391 Z" id="Shape"></path>
                    <path d="M14.3478261,21.426087 C12.8173913,21.426087 11.526087,20.1826087 11.526087,18.6043478 C11.526087,18.2217391 11.8608696,17.8869565 12.2434783,17.8869565 C12.626087,17.8869565 12.9608696,18.2217391 12.9608696,18.6043478 C12.9608696,19.3695652 13.5826087,19.9913043 14.3478261,19.9913043 C15.1130435,19.9913043 15.7347826,19.3695652 15.7347826,18.6043478 C15.7347826,18.2217391 16.0695652,17.8869565 16.4521739,17.8869565 C16.8347826,17.8869565 17.1695652,18.2217391 17.1695652,18.6043478 C17.1217391,20.1347826 15.8782609,21.426087 14.3478261,21.426087 L14.3478261,21.426087 Z" id="Shape"></path>
                    <path d="M42.7086957,19.3217391 C42.326087,19.3217391 41.9913043,18.9869565 41.9913043,18.6043478 L41.9913043,9.70869565 C41.9913043,9.32608696 42.326087,8.99130435 42.7086957,8.99130435 C43.0913043,8.99130435 43.426087,9.32608696 43.426087,9.70869565 L43.426087,18.6043478 C43.426087,18.9869565 43.0913043,19.3217391 42.7086957,19.3217391 L42.7086957,19.3217391 Z" id="Shape"></path>
                    <path d="M38.5,19.3217391 C38.1173913,19.3217391 37.7826087,18.9869565 37.7826087,18.6043478 L37.7826087,6.88695652 C37.7826087,6.50434783 38.1173913,6.16956522 38.5,6.16956522 C38.8826087,6.16956522 39.2173913,6.50434783 39.2173913,6.88695652 L39.2173913,18.6043478 C39.2173913,18.9869565 38.8826087,19.3217391 38.5,19.3217391 L38.5,19.3217391 Z" id="Shape"></path>
                    <path d="M37.7826087,18.6043478 C37.7826087,18.2217391 38.1173913,17.8869565 38.5,17.8869565 C38.8826087,17.8869565 39.2173913,18.2217391 39.2173913,18.6043478 C39.2173913,19.3695652 39.8391304,19.9913043 40.6043478,19.9913043 C41.3695652,19.9913043 41.9913043,19.3695652 41.9913043,18.6043478 C41.9913043,18.2217391 42.326087,17.8869565 42.7086957,17.8869565 C43.0913043,17.8869565 43.426087,18.2217391 43.426087,18.6043478 C43.426087,20.1347826 42.1347826,21.426087 40.6043478,21.426087 C39.073913,21.426087 37.7826087,20.1826087 37.7826087,18.6043478 Z" id="Shape"></path>
                    <path d="M8.51304348,44.7173913 C8.13043478,44.7173913 7.79565217,44.3826087 7.79565217,44 L7.79565217,39.1217391 C7.79565217,38.7391304 8.13043478,38.4043478 8.51304348,38.4043478 C8.89565217,38.4043478 9.23043478,38.7391304 9.23043478,39.1217391 L9.23043478,44 C9.23043478,44.3826087 8.89565217,44.7173913 8.51304348,44.7173913 L8.51304348,44.7173913 Z" id="Shape"></path>
                    <path d="M46.5826087,44.7173913 C46.2,44.7173913 45.8652174,44.3826087 45.8652174,44 L45.8652174,39.1217391 C45.8652174,38.7391304 46.2,38.4043478 46.5826087,38.4043478 C46.9652174,38.4043478 47.3,38.7391304 47.3,39.1217391 L47.3,44 C47.3,44.3826087 46.9652174,44.7173913 46.5826087,44.7173913 L46.5826087,44.7173913 Z" id="Shape"></path>
                    <path d="M10.473913,46.6782609 C8.99130435,46.6782609 7.79565217,45.4826087 7.79565217,44 C7.79565217,43.6173913 8.13043478,43.2826087 8.51304348,43.2826087 C8.89565217,43.2826087 9.23043478,43.6173913 9.23043478,44 C9.23043478,44.6695652 9.80434783,45.2434783 10.473913,45.2434783 C10.8565217,45.2434783 11.2391304,45.0521739 11.4782609,44.7652174 C11.7173913,44.4304348 12.1478261,44.3826087 12.4826087,44.6217391 C12.8173913,44.8608696 12.8652174,45.2913043 12.626087,45.626087 C12.1,46.2956522 11.3347826,46.6782609 10.473913,46.6782609 L10.473913,46.6782609 Z" id="Shape"></path>
                    <path d="M12.1,45.8652174 C11.9565217,45.8652174 11.8608696,45.8173913 11.7173913,45.7695652 C11.3826087,45.5782609 11.2869565,45.1478261 11.4782609,44.7652174 L15.1130435,38.7391304 C15.3043478,38.4043478 15.7347826,38.3086957 16.1173913,38.5 C16.4521739,38.6913043 16.5478261,39.1217391 16.3565217,39.5043478 L12.7217391,45.5304348 C12.5782609,45.7217391 12.3391304,45.8652174 12.1,45.8652174 L12.1,45.8652174 Z" id="Shape"></path>
                    <path d="M44.6217391,46.6782609 C43.7608696,46.6782609 42.9956522,46.2956522 42.4695652,45.626087 C42.2304348,45.2913043 42.2782609,44.8608696 42.6130435,44.6217391 C42.9478261,44.3826087 43.3782609,44.4304348 43.6173913,44.7652174 C43.8565217,45.1 44.2391304,45.2434783 44.6217391,45.2434783 C45.2913043,45.2434783 45.8652174,44.6695652 45.8652174,44 C45.8652174,43.6173913 46.2,43.2826087 46.5826087,43.2826087 C46.9652174,43.2826087 47.3,43.6173913 47.3,44 C47.3,45.4826087 46.1043478,46.6782609 44.6217391,46.6782609 L44.6217391,46.6782609 Z" id="Shape"></path>
                    <path d="M42.9956522,45.8652174 C42.7565217,45.8652174 42.5173913,45.7217391 42.373913,45.5304348 L38.7391304,39.5043478 C38.5478261,39.1695652 38.6434783,38.7391304 38.9782609,38.5 C39.3130435,38.3086957 39.7434783,38.4043478 39.9826087,38.7391304 L43.6173913,44.7652174 C43.8086957,45.1 43.7130435,45.5304348 43.3782609,45.7695652 C43.2826087,45.8173913 43.1391304,45.8652174 42.9956522,45.8652174 L42.9956522,45.8652174 Z" id="Shape"></path>
                </g>
            </g>
        </g>
    </g>
</svg>