<?xml version="1.0" encoding="UTF-8" standalone="no"?>
<svg width="17px" height="12px" viewBox="0 0 17 12" version="1.1" xmlns="http://www.w3.org/2000/svg" xmlns:xlink="http://www.w3.org/1999/xlink">
    <!-- Generator: Sketch 39.1 (31720) - http://www.bohemiancoding.com/sketch -->
    <title>Shape</title>
    <desc>Created with Sketch.</desc>
    <defs></defs>
    <g id="Page-1" stroke="none" stroke-width="1" fill="none" fill-rule="evenodd">
        <g id="MENU_EXAMPLE" transform="translate(-152.000000, -536.000000)" fill="#FFFFFF">
            <g id="Menu" transform="translate(0.000000, 480.000000)">
                <path d="M168.1,65 L167.9,65 L167.9,63.9 C167.9,63.3 167.5,62.8 167,62.6 L167,62.2 C167,59.3 164.7,57.9 162.5,57.1 C162.3,56 161.2,56 160.3,56 C159.4,56 158.3,56 158.1,57.1 C155.9,58.1 153.6,59.4 153.6,62.2 L153.6,62.6 C153.1,62.8 152.7,63.3 152.7,63.9 L152.7,65 L152.5,65 C152.2,65 152,65.2 152,65.5 L152,67.5 C152,67.8 152.2,68 152.5,68 L168,68 C168.3,68 168.5,67.8 168.5,67.5 L168.5,65.5 C168.6,65.2 168.3,65 168.1,65 L168.1,65 Z M153.1,66 L153.3,66 L167.5,66 L167.5,66 L167.6,66 L167.6,67 L153.1,67 L153.1,66 L153.1,66 Z M158.1,58.2 L158.1,61.4 C158.1,61.7 158.3,61.9 158.6,61.9 C158.9,61.9 159.1,61.7 159.1,61.4 L159.1,57.5 C159.1,57.2 159.1,57.1 160.3,57.1 C161.5,57.1 161.5,57.2 161.5,57.5 L161.5,61.4 C161.5,61.7 161.7,61.9 162,61.9 C162.3,61.9 162.5,61.7 162.5,61.4 L162.5,58.2 C164.9,59.3 165.9,60.5 165.9,62.2 L165.9,63 C165.9,63.3 166.1,63.5 166.4,63.5 L166.4,63.5 L166.4,63.5 C166.6,63.5 166.8,63.7 166.8,63.9 L166.8,65 L164.5,65 L164.5,63.3 C164.5,63 164.3,62.8 164,62.8 C163.7,62.8 163.5,63 163.5,63.3 L163.5,65 L156.9,65 L156.9,63.3 C156.9,63 156.7,62.8 156.4,62.8 C156.1,62.8 155.9,63 155.9,63.3 L155.9,65 L153.6,65 L153.6,63.9 C153.6,63.7 153.8,63.5 154,63.5 C154.3,63.5 154.5,63.3 154.5,63 L154.5,62.2 C154.7,60.1 156.2,59 158.1,58.2 L158.1,58.2 Z" id="Shape"></path>
            </g>
        </g>
    </g>
</svg>