<?xml version="1.0" encoding="UTF-8" standalone="no"?>
<svg width="34px" height="49px" viewBox="0 0 34 49" version="1.1" xmlns="http://www.w3.org/2000/svg" xmlns:xlink="http://www.w3.org/1999/xlink">
    <!-- Generator: Sketch 39.1 (31720) - http://www.bohemiancoding.com/sketch -->
    <title>Group 23</title>
    <desc>Created with Sketch.</desc>
    <defs></defs>
    <g id="-" stroke="none" stroke-width="1" fill="none" fill-rule="evenodd">
        <g id="Injiniring_Open" transform="translate(-703.000000, -3456.000000)" fill="#E7423E">
            <g id="Oborudovanie" transform="translate(205.000000, 3315.000000)">
                <g id="BARNDS" transform="translate(0.000000, 139.000000)">
                    <g id="WATER" transform="translate(420.000000, 2.000000)">
                        <g id="Group-9" transform="translate(70.000000, 0.000000)">
                            <g id="Group-23" transform="translate(8.000000, 0.000000)">
                                <ellipse id="Oval" cx="6.24489796" cy="28.2099872" rx="0.971428571" ry="0.975160051"></ellipse>
                                <path d="M17.277551,45.971831 L17.277551,45.971831 C16.6530612,45.971831 16.0285714,45.9021767 15.3346939,45.8325224 C7.77142857,44.9966709 1.59591837,38.8670935 0.624489796,31.2051216 C1.51711976e-13,26.2596671 1.52653061,21.5928297 4.7877551,17.9011524 C5.48163265,16.9956466 6.31428571,16.0204866 7.28571429,14.9060179 C10.3387755,11.3536492 14.155102,7.03508323 15.7510204,1.25377721 C15.9591837,0.626888604 16.5142857,0.139308579 17.2081633,0.139308579 L17.2081633,0.139308579 C17.9020408,0.139308579 18.5265306,0.626888604 18.7346939,1.25377721 C20.4,7.17439181 24.4938776,11.9108835 27.477551,15.3239437 C28.3102041,16.2294494 29.0734694,17.1349552 29.6979592,17.9011524 C32.4734694,20.9659411 34,24.9362356 34,29.115493 C34,33.5733675 32.2653061,37.8222791 29.0734694,40.9567222 C25.9510204,44.2304738 21.7877551,45.971831 17.277551,45.971831 L17.277551,45.971831 Z M17.277551,1.60204866 C17.2081633,1.60204866 17.1387755,1.67170294 17.1387755,1.74135723 C15.4734694,7.80128041 11.5183673,12.3288092 8.39591837,15.9508323 C7.49387755,16.9956466 6.59183673,17.9708067 5.96734694,18.8763124 C2.91428571,22.2893726 1.52653061,26.6079385 2.08163265,31.1354673 C2.91428571,38.1008963 8.60408163,43.7428937 15.5428571,44.5090909 C20.2612245,45.0663252 24.8408163,43.3946223 28.1714286,40.1208707 C31.0857143,37.1953905 32.6816327,33.3644046 32.6816327,29.2548015 C32.6816327,25.4238156 31.2938776,21.8017926 28.7265306,18.9459667 C28.1020408,18.1797695 27.3387755,17.2742638 26.5755102,16.368758 C23.522449,12.8163892 19.2897959,8.01024328 17.4857143,1.74135723 C17.4163265,1.67170294 17.3469388,1.60204866 17.277551,1.60204866 L17.277551,1.60204866 Z" id="Shape"></path>
                                <path d="M13.044898,40.0512164 C12.9755102,40.0512164 12.8367347,40.0512164 12.7673469,39.9815621 C9.22857143,38.518822 6.59183673,35.3147247 5.82857143,31.5533931 C5.75918367,31.2051216 5.96734694,30.7871959 6.38367347,30.7175416 C6.73061224,30.6478873 7.14693878,30.8568502 7.21632653,31.2747759 C7.91020408,34.6181818 10.2,37.3346991 13.322449,38.6581306 C13.6693878,38.7974392 13.877551,39.2153649 13.6693878,39.5636364 C13.6,39.9119078 13.322449,40.0512164 13.044898,40.0512164 L13.044898,40.0512164 Z" id="Shape"></path>
                                <path d="M17.277551,48.9669654 C12.5591837,48.9669654 7.97959184,47.2256082 4.44081633,44.1608195 C4.16326531,43.8822023 4.09387755,43.4642766 4.37142857,43.1856594 C4.64897959,42.9070423 5.06530612,42.837388 5.34285714,43.1160051 C8.67346939,46.0414853 12.9061224,47.5738796 17.277551,47.5738796 C21.6489796,47.5738796 25.8816327,45.971831 29.2122449,43.1160051 C29.4897959,42.837388 29.9061224,42.9070423 30.1836735,43.1856594 C30.4612245,43.4642766 30.3918367,43.8822023 30.1142857,44.1608195 C26.5755102,47.2256082 21.9959184,48.9669654 17.277551,48.9669654 L17.277551,48.9669654 Z" id="Shape"></path>
                            </g>
                        </g>
                    </g>
                </g>
            </g>
        </g>
    </g>
</svg>