<?xml version="1.0" encoding="UTF-8" standalone="no"?>
<svg width="93px" height="52px" viewBox="0 0 93 52" version="1.1" xmlns="http://www.w3.org/2000/svg" xmlns:xlink="http://www.w3.org/1999/xlink">
    <!-- Generator: Sketch 39.1 (31720) - http://www.bohemiancoding.com/sketch -->
    <title>Group 20</title>
    <desc>Created with Sketch.</desc>
    <defs></defs>
    <g id="-" stroke="none" stroke-width="1" fill="none" fill-rule="evenodd">
        <g id="Injiniring_Open" transform="translate(-884.000000, -3454.000000)" fill="#E7423E">
            <g id="Oborudovanie" transform="translate(205.000000, 3315.000000)">
                <g id="BARNDS" transform="translate(0.000000, 139.000000)">
                    <g id="AIR" transform="translate(630.000000, 0.000000)">
                        <g id="Group-12" transform="translate(49.000000, 0.000000)">
                            <g id="Group-20">
                                <ellipse id="Oval" cx="21.3813084" cy="37.4576271" rx="1.56448598" ry="1.58644068"></ellipse>
                                <path d="M63.4485981,51.1186441 L17.1224299,51.1186441 C14.2542056,51.1186441 11.9074766,48.7389831 11.9074766,45.8305085 L11.9074766,5.90508475 C11.9074766,2.99661017 14.2542056,0.616949153 17.1224299,0.616949153 L63.4485981,0.616949153 C66.3168224,0.616949153 68.6635514,2.99661017 68.6635514,5.90508475 L68.6635514,45.8305085 C68.6635514,48.8271186 66.3168224,51.1186441 63.4485981,51.1186441 L63.4485981,51.1186441 Z M17.1224299,2.37966102 C15.2102804,2.37966102 13.6457944,3.96610169 13.6457944,5.90508475 L13.6457944,45.8305085 C13.6457944,47.7694915 15.2102804,49.3559322 17.1224299,49.3559322 L63.4485981,49.3559322 C65.3607477,49.3559322 66.9252336,47.7694915 66.9252336,45.8305085 L66.9252336,5.90508475 C66.9252336,3.96610169 65.3607477,2.37966102 63.4485981,2.37966102 L17.1224299,2.37966102 L17.1224299,2.37966102 Z" id="Shape"></path>
                                <path d="M4.34579439,30.2305085 C1.99906542,30.2305085 0.0869158879,28.2915254 0.0869158879,25.9118644 C0.0869158879,23.5322034 1.99906542,21.5932203 4.34579439,21.5932203 C6.69252336,21.5932203 8.6046729,23.5322034 8.6046729,25.9118644 C8.6046729,28.2915254 6.69252336,30.2305085 4.34579439,30.2305085 L4.34579439,30.2305085 Z M4.34579439,23.4440678 C2.95514019,23.4440678 1.82523364,24.5898305 1.82523364,26 C1.82523364,27.4101695 2.95514019,28.5559322 4.34579439,28.5559322 C5.7364486,28.5559322 6.86635514,27.4101695 6.86635514,26 C6.86635514,24.5898305 5.7364486,23.4440678 4.34579439,23.4440678 L4.34579439,23.4440678 Z" id="Shape"></path>
                                <path d="M4.34579439,41.6881356 C1.99906542,41.6881356 0.0869158879,39.7491525 0.0869158879,37.3694915 C0.0869158879,34.9898305 1.99906542,33.0508475 4.34579439,33.0508475 C6.69252336,33.0508475 8.6046729,34.9898305 8.6046729,37.3694915 C8.6046729,39.7491525 6.69252336,41.6881356 4.34579439,41.6881356 L4.34579439,41.6881356 Z M4.34579439,34.9016949 C2.95514019,34.9016949 1.82523364,36.0474576 1.82523364,37.4576271 C1.82523364,38.8677966 2.95514019,40.0135593 4.34579439,40.0135593 C5.7364486,40.0135593 6.86635514,38.8677966 6.86635514,37.4576271 C6.86635514,36.0474576 5.7364486,34.9016949 4.34579439,34.9016949 L4.34579439,34.9016949 Z" id="Shape"></path>
                                <path d="M81.2663551,21.9457627 L74.7476636,21.9457627 C74.2261682,21.9457627 73.8785047,21.5932203 73.8785047,21.0644068 C73.8785047,20.5355932 74.2261682,20.1830508 74.7476636,20.1830508 L81.2663551,20.1830508 C81.7878505,20.1830508 82.135514,20.5355932 82.135514,21.0644068 C82.135514,21.5932203 81.7878505,21.9457627 81.2663551,21.9457627 L81.2663551,21.9457627 Z" id="Shape"></path>
                                <path d="M81.2663551,21.9457627 C80.7448598,21.9457627 80.3971963,21.5932203 80.3971963,21.0644068 C80.3971963,20.5355932 80.7448598,20.1830508 81.2663551,20.1830508 C82.135514,20.1830508 82.917757,19.4779661 82.917757,18.5084746 C82.917757,17.5389831 82.2224299,16.8338983 81.2663551,16.8338983 C80.571028,16.8338983 79.8757009,17.2745763 79.7018692,17.979661 C79.5280374,18.420339 79.0934579,18.6847458 78.5719626,18.5966102 C78.1373832,18.420339 77.8766355,17.979661 77.9635514,17.4508475 C78.3981308,16.040678 79.7018692,15.0711864 81.1794393,15.0711864 C83.0046729,15.0711864 84.5691589,16.5694915 84.5691589,18.5084746 C84.5691589,20.4474576 83.1785047,21.9457627 81.2663551,21.9457627 L81.2663551,21.9457627 Z" id="Shape"></path>
                                <path d="M81.2663551,31.2 L74.7476636,31.2 C74.2261682,31.2 73.8785047,30.8474576 73.8785047,30.3186441 C73.8785047,29.7898305 74.2261682,29.4372881 74.7476636,29.4372881 L81.2663551,29.4372881 C81.7878505,29.4372881 82.135514,29.7898305 82.135514,30.3186441 C82.135514,30.8474576 81.7878505,31.2 81.2663551,31.2 L81.2663551,31.2 Z" id="Shape"></path>
                                <path d="M81.2663551,36.3118644 C79.788785,36.3118644 78.4850467,35.3423729 78.0504673,33.9322034 C77.8766355,33.4915254 78.1373832,32.9627119 78.6588785,32.7864407 C79.0934579,32.6101695 79.6149533,32.8745763 79.788785,33.4033898 C79.9626168,34.1084746 80.6579439,34.5491525 81.353271,34.5491525 C82.2224299,34.5491525 83.0046729,33.8440678 83.0046729,32.8745763 C83.0046729,31.9932203 82.3093458,31.2 81.353271,31.2 C80.8317757,31.2 80.4841121,30.8474576 80.4841121,30.3186441 C80.4841121,29.7898305 80.8317757,29.4372881 81.353271,29.4372881 C83.1785047,29.4372881 84.7429907,30.9355932 84.7429907,32.8745763 C84.7429907,34.8135593 83.1785047,36.3118644 81.2663551,36.3118644 L81.2663551,36.3118644 Z" id="Shape"></path>
                                <path d="M88.7411215,26.6169492 L74.7476636,26.6169492 C74.2261682,26.6169492 73.8785047,26.2644068 73.8785047,25.7355932 C73.8785047,25.2067797 74.2261682,24.8542373 74.7476636,24.8542373 L88.7411215,24.8542373 C89.2626168,24.8542373 89.6102804,25.2067797 89.6102804,25.7355932 C89.6102804,26.2644068 89.2626168,26.6169492 88.7411215,26.6169492 L88.7411215,26.6169492 Z" id="Shape"></path>
                                <path d="M88.7411215,26.6169492 C88.2196262,26.6169492 87.8719626,26.2644068 87.8719626,25.7355932 C87.8719626,25.2067797 88.2196262,24.8542373 88.7411215,24.8542373 C89.6971963,24.8542373 90.4794393,24.0610169 90.4794393,23.0915254 C90.4794393,22.1220339 89.6971963,21.3288136 88.7411215,21.3288136 C87.7850467,21.3288136 87.0028037,22.1220339 87.0028037,23.0915254 C87.0028037,23.620339 86.6551402,23.9728814 86.1336449,23.9728814 C85.6121495,23.9728814 85.264486,23.620339 85.264486,23.0915254 C85.264486,21.1525424 86.828972,19.5661017 88.7411215,19.5661017 C90.653271,19.5661017 92.217757,21.1525424 92.217757,23.0915254 C92.217757,25.0305085 90.653271,26.6169492 88.7411215,26.6169492 L88.7411215,26.6169492 Z" id="Shape"></path>
                                <path d="M45.1962617,30.6711864 C42.6757009,30.6711864 40.6766355,28.5559322 40.6766355,26.0881356 C40.6766355,23.620339 42.7626168,21.5050847 45.1962617,21.5050847 C47.6299065,21.5050847 49.7158879,23.620339 49.7158879,26.0881356 C49.7158879,28.5559322 47.7168224,30.6711864 45.1962617,30.6711864 L45.1962617,30.6711864 Z M45.1962617,23.179661 C43.6317757,23.179661 42.4149533,24.5016949 42.4149533,26 C42.4149533,27.4983051 43.7186916,28.820339 45.1962617,28.820339 C46.6738318,28.820339 47.9775701,27.4983051 47.9775701,26 C47.9775701,24.5016949 46.7607477,23.179661 45.1962617,23.179661 L45.1962617,23.179661 Z" id="Shape"></path>
                                <path d="M45.1962617,44.3322034 C35.2009346,44.3322034 27.0308411,36.0474576 27.0308411,25.9118644 C27.0308411,15.7762712 35.2009346,7.49152542 45.1962617,7.49152542 C55.1915888,7.49152542 63.3616822,15.7762712 63.3616822,25.9118644 C63.3616822,36.0474576 55.1915888,44.3322034 45.1962617,44.3322034 L45.1962617,44.3322034 Z M45.1962617,9.34237288 C36.1570093,9.34237288 28.7691589,16.8338983 28.7691589,26 C28.7691589,35.1661017 36.1570093,42.6576271 45.1962617,42.6576271 C54.235514,42.6576271 61.6233645,35.1661017 61.6233645,26 C61.6233645,16.8338983 54.235514,9.34237288 45.1962617,9.34237288 L45.1962617,9.34237288 Z" id="Shape"></path>
                                <path d="M45.1962617,44.3322034 C44.6747664,44.3322034 44.3271028,43.979661 44.3271028,43.4508475 L44.3271028,30.1423729 C44.3271028,29.6135593 44.6747664,29.2610169 45.1962617,29.2610169 C45.717757,29.2610169 46.0654206,29.6135593 46.0654206,30.1423729 L46.0654206,43.4508475 C46.0654206,43.979661 45.717757,44.3322034 45.1962617,44.3322034 L45.1962617,44.3322034 Z" id="Shape"></path>
                                <path d="M45.1962617,22.7389831 C44.6747664,22.7389831 44.3271028,22.3864407 44.3271028,21.8576271 L44.3271028,8.46101695 C44.3271028,7.93220339 44.6747664,7.57966102 45.1962617,7.57966102 C45.717757,7.57966102 46.0654206,7.93220339 46.0654206,8.46101695 L46.0654206,21.8576271 C46.0654206,22.2983051 45.717757,22.7389831 45.1962617,22.7389831 L45.1962617,22.7389831 Z" id="Shape"></path>
                                <path d="M57.4514019,39.220339 C57.1906542,39.220339 57.0168224,39.1322034 56.8429907,38.9559322 L47.5429907,29.5254237 C47.1953271,29.1728814 47.1953271,28.6440678 47.5429907,28.2915254 C47.8906542,27.9389831 48.4121495,27.9389831 48.7598131,28.2915254 L58.0598131,37.7220339 C58.4074766,38.0745763 58.4074766,38.6033898 58.0598131,38.9559322 C57.8859813,39.1322034 57.6252336,39.220339 57.4514019,39.220339 L57.4514019,39.220339 Z" id="Shape"></path>
                                <path d="M42.3280374,23.8847458 C42.0672897,23.8847458 41.8934579,23.7966102 41.7196262,23.620339 L32.4196262,14.1898305 C32.0719626,13.8372881 32.0719626,13.3084746 32.4196262,12.9559322 C32.7672897,12.6033898 33.288785,12.6033898 33.6364486,12.9559322 L42.9364486,22.3864407 C43.2841121,22.7389831 43.2841121,23.2677966 42.9364486,23.620339 C42.7626168,23.7966102 42.5018692,23.8847458 42.3280374,23.8847458 L42.3280374,23.8847458 Z" id="Shape"></path>
                                <path d="M48.064486,23.9728814 C47.8037383,23.9728814 47.6299065,23.8847458 47.4560748,23.7084746 C47.1084112,23.3559322 47.1084112,22.8271186 47.4560748,22.4745763 L56.8429907,12.9559322 C57.1906542,12.6033898 57.7121495,12.6033898 58.0598131,12.9559322 C58.4074766,13.3084746 58.4074766,13.8372881 58.0598131,14.1898305 L48.6728972,23.7084746 C48.4990654,23.8847458 48.2383178,23.9728814 48.064486,23.9728814 L48.064486,23.9728814 Z" id="Shape"></path>
                                <path d="M33.0280374,39.220339 C32.7672897,39.220339 32.5934579,39.1322034 32.4196262,38.9559322 C32.0719626,38.6033898 32.0719626,38.0745763 32.4196262,37.7220339 L41.7196262,28.2915254 C42.0672897,27.9389831 42.588785,27.9389831 42.9364486,28.2915254 C43.2841121,28.6440678 43.2841121,29.1728814 42.9364486,29.5254237 L33.6364486,38.9559322 C33.4626168,39.1322034 33.2018692,39.220339 33.0280374,39.220339 L33.0280374,39.220339 Z" id="Shape"></path>
                                <path d="M62.4925234,26.8813559 L49.2813084,26.8813559 C48.7598131,26.8813559 48.4121495,26.5288136 48.4121495,26 C48.4121495,25.4711864 48.7598131,25.1186441 49.2813084,25.1186441 L62.4925234,25.1186441 C63.0140187,25.1186441 63.3616822,25.4711864 63.3616822,26 C63.3616822,26.5288136 63.0140187,26.8813559 62.4925234,26.8813559 L62.4925234,26.8813559 Z" id="Shape"></path>
                                <path d="M41.111215,26.8813559 L27.9,26.8813559 C27.3785047,26.8813559 27.0308411,26.5288136 27.0308411,26 C27.0308411,25.4711864 27.3785047,25.1186441 27.9,25.1186441 L41.0242991,25.1186441 C41.5457944,25.1186441 41.8934579,25.4711864 41.8934579,26 C41.8934579,26.5288136 41.5457944,26.8813559 41.111215,26.8813559 L41.111215,26.8813559 Z" id="Shape"></path>
                                <path d="M45.1962617,37.4576271 C39.0252336,37.4576271 33.9841121,32.3457627 33.9841121,26.0881356 C33.9841121,19.8305085 39.0252336,14.7186441 45.1962617,14.7186441 C51.3672897,14.7186441 56.4084112,19.8305085 56.4084112,26.0881356 C56.4084112,32.3457627 51.3672897,37.4576271 45.1962617,37.4576271 L45.1962617,37.4576271 Z M45.1962617,16.4813559 C39.9813084,16.4813559 35.7224299,20.8 35.7224299,26.0881356 C35.7224299,31.3762712 39.9813084,35.6949153 45.1962617,35.6949153 C50.411215,35.6949153 54.6700935,31.3762712 54.6700935,26.0881356 C54.6700935,20.8 50.411215,16.4813559 45.1962617,16.4813559 L45.1962617,16.4813559 Z" id="Shape"></path>
                                <path d="M28.5953271,26.8813559 L7.73551402,26.8813559 C7.21401869,26.8813559 6.86635514,26.5288136 6.86635514,26 C6.86635514,25.4711864 7.21401869,25.1186441 7.73551402,25.1186441 L28.5953271,25.1186441 C29.1168224,25.1186441 29.464486,25.4711864 29.464486,26 C29.464486,26.5288136 29.1168224,26.8813559 28.5953271,26.8813559 L28.5953271,26.8813559 Z" id="Shape"></path>
                                <path d="M4.34579439,34.9016949 C3.82429907,34.9016949 3.47663551,34.5491525 3.47663551,34.020339 L3.47663551,29.4372881 C3.47663551,28.9084746 3.82429907,28.5559322 4.34579439,28.5559322 C4.86728972,28.5559322 5.21495327,28.9084746 5.21495327,29.4372881 L5.21495327,34.020339 C5.21495327,34.5491525 4.86728972,34.9016949 4.34579439,34.9016949 L4.34579439,34.9016949 Z" id="Shape"></path>
                                <path d="M12.7766355,38.3389831 L7.73551402,38.3389831 C7.21401869,38.3389831 6.86635514,37.9864407 6.86635514,37.4576271 C6.86635514,36.9288136 7.21401869,36.5762712 7.73551402,36.5762712 L12.7766355,36.5762712 C13.2981308,36.5762712 13.6457944,36.9288136 13.6457944,37.4576271 C13.6457944,37.9864407 13.2981308,38.3389831 12.7766355,38.3389831 L12.7766355,38.3389831 Z" id="Shape"></path>
                            </g>
                        </g>
                    </g>
                </g>
            </g>
        </g>
    </g>
</svg>