<?xml version="1.0" encoding="UTF-8" standalone="no"?>
<svg width="66px" height="52px" viewBox="0 0 66 52" version="1.1" xmlns="http://www.w3.org/2000/svg" xmlns:xlink="http://www.w3.org/1999/xlink">
    <!-- Generator: Sketch 39.1 (31720) - http://www.bohemiancoding.com/sketch -->
    <title>Group 24</title>
    <desc>Created with Sketch.</desc>
    <defs></defs>
    <g id="-" stroke="none" stroke-width="1" fill="none" fill-rule="evenodd">
        <g id="Injiniring_Open" transform="translate(-1108.000000, -3454.000000)" fill="#E7423E">
            <g id="Oborudovanie" transform="translate(205.000000, 3315.000000)">
                <g id="BARNDS" transform="translate(0.000000, 139.000000)">
                    <g id="GAZ" transform="translate(840.000000, 0.000000)">
                        <g id="Group-13" transform="translate(63.000000, 0.000000)">
                            <g id="Group-24">
                                <path d="M21.2313253,34.88 C20.9927711,34.88 20.6746988,34.72 20.5156627,34.48 C20.2771084,34.08 20.4361446,33.6 20.8337349,33.36 L27.4337349,29.52 C27.8313253,29.28 28.3084337,29.44 28.546988,29.84 C28.7855422,30.24 28.626506,30.72 28.2289157,30.96 L21.6289157,34.8 C21.5493976,34.8 21.3903614,34.88 21.2313253,34.88 L21.2313253,34.88 Z" id="Shape"></path>
                                <path d="M32.9204819,28.08 C32.6819277,28.08 32.3638554,27.92 32.2048193,27.68 C31.9662651,27.28 32.1253012,26.8 32.5228916,26.56 L39.1228916,22.72 C39.5204819,22.48 39.9975904,22.64 40.2361446,23.04 C40.4746988,23.44 40.3156627,23.92 39.9180723,24.16 L33.3180723,28 C33.2385542,28.08 33.0795181,28.08 32.9204819,28.08 L32.9204819,28.08 Z" id="Shape"></path>
                                <path d="M27.9108434,28.08 C27.7518072,28.08 27.6722892,28.08 27.513253,28 L20.913253,24.16 C20.5156627,23.92 20.4361446,23.44 20.5951807,23.04 C20.8337349,22.64 21.3108434,22.56 21.7084337,22.72 L28.3084337,26.56 C28.7060241,26.8 28.7855422,27.28 28.626506,27.68 C28.3879518,27.92 28.1493976,28.08 27.9108434,28.08 L27.9108434,28.08 Z" id="Shape"></path>
                                <path d="M39.6,34.88 C39.4409639,34.88 39.3614458,34.88 39.2024096,34.8 L32.6024096,30.96 C32.2048193,30.72 32.1253012,30.24 32.2843373,29.84 C32.4433735,29.44 33,29.36 33.3975904,29.52 L39.9975904,33.36 C40.3951807,33.6 40.4746988,34.08 40.3156627,34.48 C40.1566265,34.72 39.8385542,34.88 39.6,34.88 L39.6,34.88 Z" id="Shape"></path>
                                <path d="M30.3759036,26.56 C29.8987952,26.56 29.5807229,26.24 29.5807229,25.76 L29.5807229,18.08 C29.5807229,17.6 29.8987952,17.28 30.3759036,17.28 L30.3759036,17.28 C30.853012,17.28 31.1710843,17.6 31.1710843,18.08 L31.1710843,25.76 C31.1710843,26.24 30.853012,26.56 30.3759036,26.56 L30.3759036,26.56 L30.3759036,26.56 Z" id="Shape"></path>
                                <path d="M30.4554217,40.16 C29.9783133,40.16 29.660241,39.84 29.660241,39.36 L29.660241,31.68 C29.660241,31.2 29.9783133,30.88 30.4554217,30.88 L30.4554217,30.88 C30.9325301,30.88 31.2506024,31.2 31.2506024,31.68 L31.2506024,39.36 C31.2506024,39.84 30.853012,40.16 30.4554217,40.16 L30.4554217,40.16 L30.4554217,40.16 Z" id="Shape"></path>
                                <path d="M39.6,34.88 C39.1228916,34.88 38.8048193,34.56 38.8048193,34.08 C38.8048193,33.6 39.1228916,33.28 39.6,33.28 C42.0650602,33.28 44.1325301,31.28 44.1325301,28.72 C44.1325301,26.16 42.1445783,24.16 39.6,24.16 C39.1228916,24.16 38.8048193,23.84 38.8048193,23.36 C38.8048193,22.88 39.1228916,22.56 39.6,22.56 C42.939759,22.56 45.7228916,25.28 45.7228916,28.72 C45.6433735,32.16 42.939759,34.88 39.6,34.88 L39.6,34.88 Z" id="Shape"></path>
                                <path d="M21.2313253,34.88 C17.8915663,34.88 15.1084337,32.16 15.1084337,28.72 C15.1084337,25.36 17.8120482,22.56 21.2313253,22.56 C21.7084337,22.56 22.026506,22.88 22.026506,23.36 C22.026506,23.84 21.7084337,24.16 21.2313253,24.16 C18.7662651,24.16 16.6987952,26.16 16.6987952,28.72 C16.6987952,31.28 18.686747,33.28 21.2313253,33.28 C21.7084337,33.28 22.026506,33.6 22.026506,34.08 C22.026506,34.56 21.7084337,34.88 21.2313253,34.88 L21.2313253,34.88 Z" id="Shape"></path>
                                <path d="M21.2313253,24.24 C20.9927711,24.24 20.6746988,24.08 20.5156627,23.84 C18.8457831,20.88 19.8,17.2 22.7421687,15.44 C24.173494,14.64 25.7638554,14.4 27.3542169,14.8 C28.9445783,15.2 30.2168675,16.24 31.0120482,17.68 C31.2506024,18.08 31.0915663,18.56 30.6939759,18.8 C30.2963855,19.04 29.8192771,18.88 29.5807229,18.48 C28.9445783,17.44 27.9903614,16.72 26.8771084,16.4 C25.6843373,16.08 24.4915663,16.24 23.4578313,16.88 C21.3108434,18.16 20.5951807,20.88 21.7879518,23.04 C22.026506,23.44 21.8674699,23.92 21.4698795,24.16 C21.5493976,24.16 21.3903614,24.24 21.2313253,24.24 L21.2313253,24.24 Z" id="Shape"></path>
                                <path d="M25.8433735,42.88 C24.8096386,42.88 23.7759036,42.64 22.8216867,42.08 C21.3903614,41.28 20.4361446,39.92 19.9590361,38.4 C19.4819277,36.88 19.7204819,35.2 20.5951807,33.76 C20.8337349,33.36 21.3108434,33.28 21.7084337,33.44 C22.1060241,33.68 22.1855422,34.16 22.026506,34.56 C21.3903614,35.6 21.2313253,36.8 21.5493976,38 C21.8674699,39.2 22.5831325,40.16 23.6168675,40.72 C24.6506024,41.36 25.8433735,41.52 27.0361446,41.2 C28.2289157,40.88 29.1831325,40.16 29.739759,39.12 C29.9783133,38.72 30.4554217,38.64 30.853012,38.8 C31.2506024,39.04 31.3301205,39.52 31.1710843,39.92 C30.3759036,41.36 29.0240964,42.32 27.513253,42.8 C26.8771084,42.8 26.3204819,42.88 25.8433735,42.88 L25.8433735,42.88 Z" id="Shape"></path>
                                <path d="M39.6,24.24 C39.4409639,24.24 39.3614458,24.24 39.2024096,24.16 C38.8048193,23.92 38.7253012,23.44 38.8843373,23.04 C40.1566265,20.88 39.3614458,18.08 37.2144578,16.88 C35.0674699,15.6 32.2843373,16.4 31.0915663,18.56 C30.853012,18.96 30.3759036,19.04 29.9783133,18.88 C29.5807229,18.64 29.5012048,18.16 29.660241,17.76 C31.3301205,14.8 35.0674699,13.84 38.0096386,15.52 C39.4409639,16.32 40.3951807,17.68 40.8722892,19.2 C41.2698795,20.8 41.1108434,22.4 40.2361446,23.84 C40.1566265,24.08 39.8385542,24.24 39.6,24.24 L39.6,24.24 Z" id="Shape"></path>
                                <path d="M34.9879518,42.88 C32.9204819,42.88 30.853012,41.76 29.739759,39.84 C29.5012048,39.44 29.660241,38.96 30.0578313,38.72 C30.4554217,38.48 30.9325301,38.64 31.1710843,39.04 C32.4433735,41.2 35.146988,41.92 37.2939759,40.72 C38.3277108,40.08 39.0433735,39.12 39.3614458,38 C39.6795181,36.8 39.5204819,35.6 38.8843373,34.56 C38.6457831,34.16 38.8048193,33.68 39.2024096,33.44 C39.6,33.2 40.0771084,33.36 40.3156627,33.76 C41.1108434,35.2 41.3493976,36.8 40.9518072,38.4 C40.5542169,40 39.5204819,41.28 38.0891566,42.08 C37.0554217,42.56 36.0216867,42.88 34.9879518,42.88 L34.9879518,42.88 Z" id="Shape"></path>
                                <path d="M30.3759036,32.4 C28.3879518,32.4 26.7975904,30.8 26.7975904,28.8 C26.7975904,26.8 28.3879518,25.2 30.3759036,25.2 C32.3638554,25.2 33.9542169,26.8 33.9542169,28.8 C33.9542169,30.8 32.3638554,32.4 30.3759036,32.4 L30.3759036,32.4 Z M30.3759036,26.72 C29.2626506,26.72 28.3879518,27.6 28.3879518,28.72 C28.3879518,29.84 29.2626506,30.72 30.3759036,30.72 C31.4891566,30.72 32.3638554,29.84 32.3638554,28.72 C32.3638554,27.6 31.4891566,26.72 30.3759036,26.72 L30.3759036,26.72 Z" id="Shape"></path>
                                <path d="M30.3759036,13.04 C29.8987952,13.04 29.5807229,12.72 29.5807229,12.24 L29.5807229,5.04 C29.5807229,4.56 29.8987952,4.24 30.3759036,4.24 C30.853012,4.24 31.1710843,4.56 31.1710843,5.04 L31.1710843,12.24 C31.1710843,12.64 30.853012,13.04 30.3759036,13.04 L30.3759036,13.04 Z" id="Shape"></path>
                                <path d="M50.7325301,51.68 C50.2554217,51.68 49.9373494,51.36 49.9373494,50.88 L49.9373494,5.04 C49.9373494,4.56 50.2554217,4.24 50.7325301,4.24 C51.2096386,4.24 51.5277108,4.56 51.5277108,5.04 L51.5277108,50.88 C51.5277108,51.36 51.1301205,51.68 50.7325301,51.68 L50.7325301,51.68 Z" id="Shape"></path>
                                <path d="M50.7325301,51.68 L30.4554217,51.68 C29.9783133,51.68 29.660241,51.36 29.660241,50.88 C29.660241,50.4 29.9783133,50.08 30.4554217,50.08 L50.7325301,50.08 C51.2096386,50.08 51.5277108,50.4 51.5277108,50.88 C51.5277108,51.36 51.1301205,51.68 50.7325301,51.68 L50.7325301,51.68 Z" id="Shape"></path>
                                <path d="M30.4554217,51.68 C29.9783133,51.68 29.660241,51.36 29.660241,50.88 L29.660241,32.16 C29.660241,31.68 29.9783133,31.36 30.4554217,31.36 C30.9325301,31.36 31.2506024,31.68 31.2506024,32.16 L31.2506024,50.88 C31.2506024,51.36 30.853012,51.68 30.4554217,51.68 L30.4554217,51.68 Z" id="Shape"></path>
                                <path d="M64.6481928,49.52 L59.0819277,49.52 C58.6048193,49.52 58.286747,49.2 58.286747,48.72 L58.286747,15.92 C58.286747,15.44 58.6048193,15.12 59.0819277,15.12 L64.6481928,15.12 C65.1253012,15.12 65.4433735,15.44 65.4433735,15.92 L65.4433735,48.72 C65.4433735,49.2 65.0457831,49.52 64.6481928,49.52 L64.6481928,49.52 Z M59.8771084,47.92 L63.853012,47.92 L63.853012,16.72 L59.8771084,16.72 L59.8771084,47.92 L59.8771084,47.92 Z" id="Shape"></path>
                                <path d="M52.2433735,5.84 L28.3879518,5.84 C27.0361446,5.84 25.8433735,4.72 25.8433735,3.28 C25.8433735,1.84 26.9566265,0.72 28.3879518,0.72 L52.2433735,0.72 C53.5951807,0.72 54.7879518,1.84 54.7879518,3.28 C54.7879518,4.72 53.5951807,5.84 52.2433735,5.84 L52.2433735,5.84 Z M28.3879518,2.4 C27.9108434,2.4 27.4337349,2.8 27.4337349,3.36 C27.4337349,3.92 27.8313253,4.32 28.3879518,4.32 L52.2433735,4.32 C52.7204819,4.32 53.1975904,3.92 53.1975904,3.36 C53.1975904,2.8 52.8,2.4 52.2433735,2.4 L28.3879518,2.4 L28.3879518,2.4 Z" id="Shape"></path>
                                <path d="M59.0819277,19.52 L50.7325301,19.52 C50.2554217,19.52 49.9373494,19.2 49.9373494,18.72 C49.9373494,18.24 50.2554217,17.92 50.7325301,17.92 L59.0819277,17.92 C59.5590361,17.92 59.8771084,18.24 59.8771084,18.72 C59.8771084,19.2 59.4795181,19.52 59.0819277,19.52 L59.0819277,19.52 Z" id="Shape"></path>
                                <path d="M59.0819277,46.72 L50.7325301,46.72 C50.2554217,46.72 49.9373494,46.4 49.9373494,45.92 C49.9373494,45.44 50.2554217,45.12 50.7325301,45.12 L59.0819277,45.12 C59.5590361,45.12 59.8771084,45.44 59.8771084,45.92 C59.8771084,46.4 59.4795181,46.72 59.0819277,46.72 L59.0819277,46.72 Z" id="Shape"></path>
                                <path d="M50.7325301,46.72 L30.4554217,46.72 C29.9783133,46.72 29.660241,46.4 29.660241,45.92 C29.660241,45.44 29.9783133,45.12 30.4554217,45.12 L50.7325301,45.12 C51.2096386,45.12 51.5277108,45.44 51.5277108,45.92 C51.5277108,46.4 51.1301205,46.72 50.7325301,46.72 L50.7325301,46.72 Z" id="Shape"></path>
                                <path d="M59.0819277,39.04 L50.7325301,39.04 C50.2554217,39.04 49.9373494,38.72 49.9373494,38.24 C49.9373494,37.76 50.2554217,37.44 50.7325301,37.44 L59.0819277,37.44 C59.5590361,37.44 59.8771084,37.76 59.8771084,38.24 C59.8771084,38.72 59.4795181,39.04 59.0819277,39.04 L59.0819277,39.04 Z" id="Shape"></path>
                                <path d="M6.28192771,41.2 C5.08915663,41.2 3.97590361,40.72 3.10120482,39.76 C2.38554217,38.88 2.06746988,37.84 2.14698795,36.72 C2.22650602,35.6 2.78313253,34.64 3.57831325,33.92 C3.89638554,33.6 4.45301205,33.68 4.69156627,34 C5.00963855,34.32 4.93012048,34.88 4.61204819,35.12 C4.13493976,35.52 3.81686747,36.16 3.7373494,36.8 C3.65783133,37.44 3.89638554,38.16 4.2939759,38.64 C5.1686747,39.68 6.75903614,39.84 7.87228916,38.96 C8.19036145,38.64 8.74698795,38.72 8.98554217,39.04 C9.22409639,39.36 9.22409639,39.92 8.9060241,40.16 C8.11084337,40.88 7.15662651,41.2 6.28192771,41.2 L6.28192771,41.2 Z" id="Shape"></path>
                                <path d="M8.50843373,32.56 L8.26987952,32.56 C7.23614458,32.24 6.36144578,31.52 5.88433735,30.48 C5.40722892,29.44 5.32771084,28.4 5.64578313,27.36 C5.96385542,26.32 6.67951807,25.44 7.71325301,24.96 C8.66746988,24.48 9.78072289,24.4 10.8144578,24.72 C11.2120482,24.88 11.4506024,25.28 11.2915663,25.76 C11.1325301,26.16 10.7349398,26.4 10.2578313,26.24 C8.9060241,25.84 7.55421687,26.56 7.07710843,27.84 C6.67951807,29.2 7.39518072,30.56 8.66746988,31.04 C9.06506024,31.2 9.30361446,31.6 9.14457831,32.08 C9.14457831,32.4 8.9060241,32.56 8.50843373,32.56 L8.50843373,32.56 Z" id="Shape"></path>
                                <path d="M13.0409639,44.72 C11.7686747,44.72 10.4963855,44.24 9.54216867,43.44 C8.42891566,42.48 7.71325301,41.12 7.55421687,39.68 C7.55421687,39.28 7.87228916,38.88 8.26987952,38.8 C8.74698795,38.72 9.06506024,39.12 9.14457831,39.52 C9.22409639,40.56 9.70120482,41.52 10.4963855,42.16 C11.2915663,42.8 12.3253012,43.12 13.3590361,43.04 C14.3927711,42.96 15.346988,42.48 15.9831325,41.68 C16.6192771,40.88 16.9373494,39.84 16.8578313,38.8 C16.8578313,38.32 17.1759036,38 17.573494,37.92 C18.0506024,37.84 18.3686747,38.24 18.4481928,38.64 C18.6072289,40.08 18.1301205,41.52 17.1759036,42.72 C16.2216867,43.84 14.8698795,44.56 13.4385542,44.72 C13.3590361,44.72 13.2,44.72 13.0409639,44.72 L13.0409639,44.72 Z" id="Shape"></path>
                                <path d="M4.13493976,35.28 C4.05542169,35.28 3.97590361,35.28 3.89638554,35.2 C1.4313253,34.32 0.0795180723,31.6 0.954216867,29.12 C1.82891566,26.64 4.53253012,25.28 6.99759036,26.16 C7.39518072,26.32 7.63373494,26.72 7.4746988,27.2 C7.31566265,27.6 6.91807229,27.84 6.44096386,27.68 C4.77108434,27.12 3.02168675,28 2.38554217,29.68 C1.82891566,31.36 2.70361446,33.12 4.37349398,33.76 C4.77108434,33.92 5.00963855,34.32 4.85060241,34.8 C4.77108434,35.04 4.45301205,35.28 4.13493976,35.28 L4.13493976,35.28 Z" id="Shape"></path>
                                <path d="M6.67951807,27.76 C6.44096386,27.76 6.20240964,27.68 6.04337349,27.44 C4.05542169,24.72 4.61204819,20.88 7.31566265,18.88 C10.0192771,16.88 13.8361446,17.44 15.8240964,20.16 C16.0626506,20.48 15.9831325,21.04 15.6650602,21.28 C15.346988,21.52 14.7903614,21.44 14.5518072,21.12 C13.0409639,19.12 10.2578313,18.72 8.26987952,20.16 C6.28192771,21.68 5.88433735,24.48 7.31566265,26.48 C7.55421687,26.8 7.4746988,27.36 7.15662651,27.6 C6.99759036,27.68 6.83855422,27.76 6.67951807,27.76 L6.67951807,27.76 Z" id="Shape"></path>
                            </g>
                        </g>
                    </g>
                </g>
            </g>
        </g>
    </g>
</svg>