<?xml version="1.0" encoding="UTF-8" standalone="no"?>
<svg width="57px" height="51px" viewBox="0 0 57 51" version="1.1" xmlns="http://www.w3.org/2000/svg" xmlns:xlink="http://www.w3.org/1999/xlink">
    <!-- Generator: Sketch 39.1 (31720) - http://www.bohemiancoding.com/sketch -->
    <title>Group 22</title>
    <desc>Created with Sketch.</desc>
    <defs></defs>
    <g id="-" stroke="none" stroke-width="1" fill="none" fill-rule="evenodd">
        <g id="Injiniring_Open" transform="translate(-272.000000, -3455.000000)" fill="#E7423E">
            <g id="Oborudovanie" transform="translate(205.000000, 3315.000000)">
                <g id="BARNDS" transform="translate(0.000000, 139.000000)">
                    <g id="ELECTRO" transform="translate(0.000000, 1.000000)">
                        <g id="Group-2" transform="translate(16.000000, 0.000000)">
                            <g id="Group-22" transform="translate(51.000000, 0.000000)">
                                <path d="M23.4662338,50.4368816 C23.1701299,50.4368816 22.8,50.3628186 22.5038961,50.2146927 C21.5415584,49.7703148 21.0233766,48.8074963 21.2454545,47.7706147 L24.5025974,30.1436282 C24.5766234,29.9214393 24.5025974,29.6251874 24.3545455,29.4770615 C24.2064935,29.3289355 23.9844156,29.1808096 23.7623377,29.2548726 L16.3597403,29.9955022 C15.4714286,30.0695652 14.6571429,29.6251874 14.212987,28.8845577 C13.7688312,28.0698651 13.8428571,27.1811094 14.4350649,26.4404798 L18.6545455,20.7376312 C18.8766234,20.4413793 19.3948052,20.3673163 19.6909091,20.5895052 C19.987013,20.8116942 20.061039,21.3301349 19.838961,21.6263868 L15.6194805,27.4032984 C15.3233766,27.7736132 15.4714286,28.143928 15.5454545,28.217991 C15.6194805,28.292054 15.8415584,28.6623688 16.2857143,28.5883058 L23.6883117,27.8476762 C24.4285714,27.7736132 25.0948052,28.0698651 25.538961,28.5883058 C25.9831169,29.1067466 26.2051948,29.8473763 26.0571429,30.513943 L22.8,48.1409295 C22.6519481,48.6593703 23.0961039,48.9556222 23.2441558,48.9556222 C23.3922078,49.0296852 23.8363636,49.1778111 24.1324675,48.7334333 L42.1948052,23.2557721 C42.4909091,22.8854573 42.3428571,22.5151424 42.2688312,22.4410795 C42.1948052,22.3670165 41.9727273,21.9967016 41.5285714,22.0707646 L34.125974,22.8113943 C33.3857143,22.8854573 32.7194805,22.5892054 32.2753247,22.0707646 C31.8311688,21.5523238 31.6090909,20.8116942 31.7571429,20.1451274 L35.0142857,2.51814093 C35.1623377,1.99970015 34.7181818,1.70344828 34.5701299,1.70344828 C34.4220779,1.62938531 33.9779221,1.48125937 33.6818182,1.92563718 L22.8,17.4788606 C22.5779221,17.8491754 22.1337662,17.9232384 21.7636364,17.6269865 C21.3935065,17.4047976 21.3194805,16.9604198 21.6155844,16.5901049 L32.5714286,0.962818591 C33.2376623,0.0740629685 34.3480519,-0.148125937 35.3103896,0.296251874 C36.2727273,0.740629685 36.7909091,1.70344828 36.5688312,2.74032984 L33.3116883,20.3673163 C33.2376623,20.5895052 33.3116883,20.8857571 33.4597403,21.0338831 C33.6077922,21.182009 33.8298701,21.3301349 34.0519481,21.256072 L41.4545455,20.5154423 C42.3428571,20.4413793 43.1571429,20.8857571 43.6012987,21.6263868 C44.0454545,22.4410795 43.9714286,23.3298351 43.3792208,24.0704648 L25.1688312,49.5481259 C24.7246753,50.1406297 24.1324675,50.4368816 23.4662338,50.4368816 L23.4662338,50.4368816 Z" id="Shape"></path>
                                <path d="M9.4012987,26.8107946 L1.25844156,26.8107946 C0.814285714,26.8107946 0.518181818,26.5145427 0.518181818,26.0701649 C0.518181818,25.6257871 0.814285714,25.3295352 1.25844156,25.3295352 L9.4012987,25.3295352 C9.84545455,25.3295352 10.1415584,25.6257871 10.1415584,26.0701649 C10.1415584,26.5145427 9.84545455,26.8107946 9.4012987,26.8107946 L9.4012987,26.8107946 Z" id="Shape"></path>
                                <path d="M9.62337662,18.3676162 C9.4012987,18.3676162 9.25324675,18.2935532 9.10519481,18.1454273 L4.44155844,13.4794603 C4.14545455,13.1832084 4.14545455,12.7388306 4.44155844,12.4425787 C4.73766234,12.1463268 5.18181818,12.1463268 5.47792208,12.4425787 L10.1415584,17.1085457 C10.4376623,17.4047976 10.4376623,17.8491754 10.1415584,18.1454273 C9.99350649,18.2935532 9.77142857,18.3676162 9.62337662,18.3676162 L9.62337662,18.3676162 Z" id="Shape"></path>
                                <path d="M47.6727273,18.3676162 C47.4506494,18.3676162 47.3025974,18.2935532 47.1545455,18.1454273 C46.8584416,17.8491754 46.8584416,17.4047976 47.1545455,17.1085457 L51.8181818,12.4425787 C52.1142857,12.1463268 52.5584416,12.1463268 52.8545455,12.4425787 C53.1506494,12.7388306 53.1506494,13.1832084 52.8545455,13.4794603 L48.1909091,18.1454273 C48.0428571,18.2935532 47.8207792,18.3676162 47.6727273,18.3676162 L47.6727273,18.3676162 Z" id="Shape"></path>
                                <path d="M4.95974026,39.91994 C4.73766234,39.91994 4.58961039,39.8458771 4.44155844,39.6977511 C4.14545455,39.4014993 4.14545455,38.9571214 4.44155844,38.6608696 L9.10519481,33.9949025 C9.4012987,33.6986507 9.84545455,33.6986507 10.1415584,33.9949025 C10.4376623,34.2911544 10.4376623,34.7355322 10.1415584,35.0317841 L5.47792208,39.6977511 C5.32987013,39.8458771 5.18181818,39.91994 4.95974026,39.91994 L4.95974026,39.91994 Z" id="Shape"></path>
                                <path d="M52.2623377,39.91994 C52.0402597,39.91994 51.8922078,39.8458771 51.7441558,39.6977511 L47.0805195,35.0317841 C46.7844156,34.7355322 46.7844156,34.2911544 47.0805195,33.9949025 C47.3766234,33.6986507 47.8207792,33.6986507 48.1168831,33.9949025 L52.7805195,38.6608696 C53.0766234,38.9571214 53.0766234,39.4014993 52.7805195,39.6977511 C52.7064935,39.8458771 52.4844156,39.91994 52.2623377,39.91994 L52.2623377,39.91994 Z" id="Shape"></path>
                                <path d="M55.8155844,26.8107946 L47.6727273,26.8107946 C47.2285714,26.8107946 46.9324675,26.5145427 46.9324675,26.0701649 C46.9324675,25.6257871 47.2285714,25.3295352 47.6727273,25.3295352 L55.8155844,25.3295352 C56.2597403,25.3295352 56.5558442,25.6257871 56.5558442,26.0701649 C56.5558442,26.5145427 56.1857143,26.8107946 55.8155844,26.8107946 L55.8155844,26.8107946 Z" id="Shape"></path>
                            </g>
                        </g>
                    </g>
                </g>
            </g>
        </g>
    </g>
</svg>