<?xml version="1.0" encoding="UTF-8" standalone="no"?>
<svg width="59px" height="50px" viewBox="0 0 59 50" version="1.1" xmlns="http://www.w3.org/2000/svg" xmlns:xlink="http://www.w3.org/1999/xlink">
    <!-- Generator: Sketch 39.1 (31720) - http://www.bohemiancoding.com/sketch -->
    <title>TEPLO ICON</title>
    <desc>Created with Sketch.</desc>
    <defs></defs>
    <g id="-" stroke="none" stroke-width="1" fill="none" fill-rule="evenodd">
        <g id="Injiniring_Open" transform="translate(-481.000000, -3455.000000)" fill="#E7423E">
            <g id="Oborudovanie" transform="translate(205.000000, 3315.000000)">
                <g id="BARNDS" transform="translate(0.000000, 139.000000)">
                    <g id="WARM" transform="translate(210.000000, 1.000000)">
                        <g id="TEPLO-ICON" transform="translate(66.000000, 0.000000)">
                            <path d="M6.81777778,32.6973684 C3.34333333,32.6973684 0.458888889,29.8684211 0.458888889,26.3157895 C0.458888889,25.9868421 0.458888889,25.6578947 0.524444444,25.3947368 C0.59,25.0657895 0.917777778,24.8026316 1.24555556,24.8684211 C1.57333333,24.9342105 1.83555556,25.2631579 1.77,25.5921053 C1.70444444,25.8552632 1.70444444,26.0526316 1.70444444,26.3157895 C1.70444444,29.0789474 3.93333333,31.3815789 6.75222222,31.3815789 C9.57111111,31.3815789 11.8,29.1447368 11.8,26.3157895 C11.8,24.5394737 10.8822222,22.8947368 9.30888889,21.9736842 C9.11222222,21.8421053 8.98111111,21.6447368 8.98111111,21.3815789 L8.98111111,3.61842105 C8.98111111,2.36842105 7.99777778,1.38157895 6.75222222,1.38157895 C5.50666667,1.38157895 4.52333333,2.36842105 4.52333333,3.61842105 L4.52333333,21.3815789 C4.52333333,21.6447368 4.39222222,21.8421053 4.19555556,21.9736842 C3.73666667,22.2368421 3.34333333,22.5657895 2.95,22.9605263 C2.68777778,23.2236842 2.29444444,23.2894737 2.03222222,23.0263158 C1.77,22.7631579 1.70444444,22.3684211 1.96666667,22.1052632 C2.29444444,21.7105263 2.75333333,21.3157895 3.21222222,21.0526316 L3.21222222,3.75 C3.21222222,1.77631579 4.78555556,0.197368421 6.75222222,0.197368421 C8.71888889,0.197368421 10.2922222,1.77631579 10.2922222,3.75 L10.2922222,21.1184211 C11.9966667,22.3026316 13.1111111,24.2763158 13.1111111,26.3815789 C13.1766667,29.8684211 10.2922222,32.6973684 6.81777778,32.6973684 L6.81777778,32.6973684 Z" id="Shape"></path>
                            <path d="M6.81777778,29.8684211 C4.91666667,29.8684211 3.34333333,28.2894737 3.34333333,26.3815789 C3.34333333,24.4736842 4.91666667,22.8947368 6.81777778,22.8947368 C8.71888889,22.8947368 10.2922222,24.4736842 10.2922222,26.3815789 C10.2922222,28.2894737 8.71888889,29.8684211 6.81777778,29.8684211 L6.81777778,29.8684211 Z M6.81777778,24.2105263 C5.63777778,24.2105263 4.65444444,25.1973684 4.65444444,26.3815789 C4.65444444,27.5657895 5.63777778,28.5526316 6.81777778,28.5526316 C7.99777778,28.5526316 8.98111111,27.5657895 8.98111111,26.3815789 C8.98111111,25.1973684 7.99777778,24.2105263 6.81777778,24.2105263 L6.81777778,24.2105263 Z" id="Shape"></path>
                            <path d="M21.6333333,49.6710526 L17.7,49.6710526 C16.5855556,49.6710526 15.7333333,48.8157895 15.7333333,47.6973684 L15.7333333,8.81578947 C15.7333333,7.69736842 16.5855556,6.84210526 17.7,6.84210526 L21.6333333,6.84210526 C22.7477778,6.84210526 23.6,7.69736842 23.6,8.81578947 L23.6,47.6973684 C23.6,48.8157895 22.7477778,49.6710526 21.6333333,49.6710526 L21.6333333,49.6710526 Z M17.7,8.22368421 C17.3066667,8.22368421 17.0444444,8.48684211 17.0444444,8.88157895 L17.0444444,47.7631579 C17.0444444,48.1578947 17.3066667,48.4210526 17.7,48.4210526 L21.6333333,48.4210526 C22.0266667,48.4210526 22.2888889,48.1578947 22.2888889,47.7631579 L22.2888889,8.88157895 C22.2888889,8.48684211 22.0266667,8.22368421 21.6333333,8.22368421 L17.7,8.22368421 L17.7,8.22368421 Z" id="Shape"></path>
                            <path d="M30.8111111,49.6710526 L26.8777778,49.6710526 C25.7633333,49.6710526 24.9111111,48.8157895 24.9111111,47.6973684 L24.9111111,8.81578947 C24.9111111,7.69736842 25.7633333,6.84210526 26.8777778,6.84210526 L30.8111111,6.84210526 C31.9255556,6.84210526 32.7777778,7.69736842 32.7777778,8.81578947 L32.7777778,47.6973684 C32.7777778,48.8157895 31.9255556,49.6710526 30.8111111,49.6710526 L30.8111111,49.6710526 Z M26.8777778,8.22368421 C26.4844444,8.22368421 26.2222222,8.48684211 26.2222222,8.88157895 L26.2222222,47.7631579 C26.2222222,48.1578947 26.4844444,48.4210526 26.8777778,48.4210526 L30.8111111,48.4210526 C31.2044444,48.4210526 31.4666667,48.1578947 31.4666667,47.7631579 L31.4666667,8.88157895 C31.4666667,8.48684211 31.2044444,8.22368421 30.8111111,8.22368421 L26.8777778,8.22368421 L26.8777778,8.22368421 Z" id="Shape"></path>
                            <path d="M39.9888889,49.6710526 L36.0555556,49.6710526 C34.9411111,49.6710526 34.0888889,48.8157895 34.0888889,47.6973684 L34.0888889,8.81578947 C34.0888889,7.69736842 34.9411111,6.84210526 36.0555556,6.84210526 L39.9888889,6.84210526 C41.1033333,6.84210526 41.9555556,7.69736842 41.9555556,8.81578947 L41.9555556,47.6973684 C41.9555556,48.8157895 41.1033333,49.6710526 39.9888889,49.6710526 L39.9888889,49.6710526 Z M36.0555556,8.22368421 C35.6622222,8.22368421 35.4,8.48684211 35.4,8.88157895 L35.4,47.7631579 C35.4,48.1578947 35.6622222,48.4210526 36.0555556,48.4210526 L39.9888889,48.4210526 C40.3822222,48.4210526 40.6444444,48.1578947 40.6444444,47.7631579 L40.6444444,8.88157895 C40.6444444,8.48684211 40.3822222,8.22368421 39.9888889,8.22368421 L36.0555556,8.22368421 L36.0555556,8.22368421 Z" id="Shape"></path>
                            <path d="M49.1666667,49.6710526 L45.2333333,49.6710526 C44.1188889,49.6710526 43.2666667,48.8157895 43.2666667,47.6973684 L43.2666667,8.81578947 C43.2666667,7.69736842 44.1188889,6.84210526 45.2333333,6.84210526 L49.1666667,6.84210526 C50.2811111,6.84210526 51.1333333,7.69736842 51.1333333,8.81578947 L51.1333333,47.6973684 C51.1333333,48.8157895 50.2811111,49.6710526 49.1666667,49.6710526 L49.1666667,49.6710526 Z M45.2333333,8.22368421 C44.84,8.22368421 44.5777778,8.48684211 44.5777778,8.88157895 L44.5777778,47.7631579 C44.5777778,48.1578947 44.84,48.4210526 45.2333333,48.4210526 L49.1666667,48.4210526 C49.56,48.4210526 49.8222222,48.1578947 49.8222222,47.7631579 L49.8222222,8.88157895 C49.8222222,8.48684211 49.56,8.22368421 49.1666667,8.22368421 L45.2333333,8.22368421 L45.2333333,8.22368421 Z" id="Shape"></path>
                            <path d="M6.81777778,24.2105263 C6.42444444,24.2105263 6.16222222,23.9473684 6.16222222,23.5526316 L6.16222222,13.0921053 C6.16222222,12.6973684 6.42444444,12.4342105 6.81777778,12.4342105 C7.21111111,12.4342105 7.47333333,12.6973684 7.47333333,13.0921053 L7.47333333,23.5526316 C7.47333333,23.8815789 7.21111111,24.2105263 6.81777778,24.2105263 L6.81777778,24.2105263 Z" id="Shape"></path>
                            <path d="M15.0777778,45.3947368 L14.6188889,45.3947368 C13.5044444,45.3947368 12.6522222,44.5394737 12.6522222,43.4210526 L12.6522222,35.5263158 C12.6522222,34.4078947 13.5044444,33.5526316 14.6188889,33.5526316 L15.0777778,33.5526316 C16.1922222,33.5526316 17.0444444,34.4078947 17.0444444,35.5263158 L17.0444444,43.4210526 C17.0444444,44.5394737 16.1922222,45.3947368 15.0777778,45.3947368 L15.0777778,45.3947368 Z M14.6188889,34.8684211 C14.2255556,34.8684211 13.9633333,35.1315789 13.9633333,35.5263158 L13.9633333,43.4210526 C13.9633333,43.8157895 14.2255556,44.0789474 14.6188889,44.0789474 L15.0777778,44.0789474 C15.4711111,44.0789474 15.7333333,43.8157895 15.7333333,43.4210526 L15.7333333,35.5263158 C15.7333333,35.1315789 15.4711111,34.8684211 15.0777778,34.8684211 L14.6188889,34.8684211 L14.6188889,34.8684211 Z" id="Shape"></path>
                            <path d="M52.2477778,45.3947368 L51.7888889,45.3947368 C50.6744444,45.3947368 49.8222222,44.5394737 49.8222222,43.4210526 L49.8222222,35.5263158 C49.8222222,34.4078947 50.6744444,33.5526316 51.7888889,33.5526316 L52.2477778,33.5526316 C53.3622222,33.5526316 54.2144444,34.4078947 54.2144444,35.5263158 L54.2144444,43.4210526 C54.2144444,44.5394737 53.2966667,45.3947368 52.2477778,45.3947368 L52.2477778,45.3947368 Z M51.7888889,34.8684211 C51.3955556,34.8684211 51.1333333,35.1315789 51.1333333,35.5263158 L51.1333333,43.4210526 C51.1333333,43.8157895 51.3955556,44.0789474 51.7888889,44.0789474 L52.2477778,44.0789474 C52.6411111,44.0789474 52.9033333,43.8157895 52.9033333,43.4210526 L52.9033333,35.5263158 C52.9033333,35.1315789 52.6411111,34.8684211 52.2477778,34.8684211 L51.7888889,34.8684211 L51.7888889,34.8684211 Z" id="Shape"></path>
                            <path d="M52.2477778,23.0263158 L51.7888889,23.0263158 C50.6744444,23.0263158 49.8222222,22.1710526 49.8222222,21.0526316 L49.8222222,13.1578947 C49.8222222,12.0394737 50.6744444,11.1842105 51.7888889,11.1842105 L52.2477778,11.1842105 C53.3622222,11.1842105 54.2144444,12.0394737 54.2144444,13.1578947 L54.2144444,21.0526316 C54.2144444,22.1710526 53.2966667,23.0263158 52.2477778,23.0263158 L52.2477778,23.0263158 Z M51.7888889,12.5 C51.3955556,12.5 51.1333333,12.7631579 51.1333333,13.1578947 L51.1333333,21.0526316 C51.1333333,21.4473684 51.3955556,21.7105263 51.7888889,21.7105263 L52.2477778,21.7105263 C52.6411111,21.7105263 52.9033333,21.4473684 52.9033333,21.0526316 L52.9033333,13.1578947 C52.9033333,12.7631579 52.6411111,12.5 52.2477778,12.5 L51.7888889,12.5 L51.7888889,12.5 Z" id="Shape"></path>
                            <path d="M13.3077778,40.1315789 L13.3077778,40.1315789 L10.4888889,40.1315789 C10.0955556,40.1315789 9.83333333,39.8684211 9.83333333,39.4736842 C9.83333333,39.0789474 10.0955556,38.8157895 10.4888889,38.8157895 L10.4888889,38.8157895 L13.3077778,38.8157895 C13.7011111,38.8157895 13.9633333,39.0789474 13.9633333,39.4736842 C13.9633333,39.8684211 13.7011111,40.1315789 13.3077778,40.1315789 L13.3077778,40.1315789 Z" id="Shape"></path>
                            <path d="M54.2144444,40.1315789 L53.5588889,40.1315789 C53.1655556,40.1315789 52.9033333,39.8684211 52.9033333,39.4736842 C52.9033333,39.0789474 53.1655556,38.8157895 53.5588889,38.8157895 L54.2144444,38.8157895 C54.6077778,38.8157895 54.87,39.0789474 54.87,39.4736842 C54.87,39.8684211 54.5422222,40.1315789 54.2144444,40.1315789 L54.2144444,40.1315789 Z" id="Shape"></path>
                            <path d="M54.2144444,40.1315789 C53.8211111,40.1315789 53.5588889,39.8684211 53.5588889,39.4736842 C53.5588889,39.0789474 53.8211111,38.8157895 54.2144444,38.8157895 C55.9188889,38.8157895 57.2955556,37.4342105 57.2955556,35.7236842 C57.2955556,35.3289474 57.5577778,35.0657895 57.9511111,35.0657895 C58.3444444,35.0657895 58.6066667,35.3289474 58.6066667,35.7236842 C58.6066667,38.1578947 56.64,40.1315789 54.2144444,40.1315789 L54.2144444,40.1315789 Z" id="Shape"></path>
                            <path d="M10.5544444,40.1315789 C8.12888889,40.1315789 6.16222222,38.1578947 6.16222222,35.7236842 C6.16222222,35.3289474 6.42444444,35.0657895 6.81777778,35.0657895 C7.21111111,35.0657895 7.47333333,35.3289474 7.47333333,35.7236842 C7.47333333,37.4342105 8.85,38.8157895 10.5544444,38.8157895 C10.9477778,38.8157895 11.21,39.0789474 11.21,39.4736842 C11.21,39.8684211 10.9477778,40.1315789 10.5544444,40.1315789 L10.5544444,40.1315789 Z" id="Shape"></path>
                            <path d="M54.2144444,17.7631579 L53.5588889,17.7631579 C53.1655556,17.7631579 52.9033333,17.5 52.9033333,17.1052632 C52.9033333,16.7105263 53.1655556,16.4473684 53.5588889,16.4473684 L54.2144444,16.4473684 C54.6077778,16.4473684 54.87,16.7105263 54.87,17.1052632 C54.87,17.5 54.5422222,17.7631579 54.2144444,17.7631579 L54.2144444,17.7631579 Z" id="Shape"></path>
                            <path d="M57.9511111,21.5131579 C57.5577778,21.5131579 57.2955556,21.25 57.2955556,20.8552632 C57.2955556,19.1447368 55.9188889,17.7631579 54.2144444,17.7631579 C53.8211111,17.7631579 53.5588889,17.5 53.5588889,17.1052632 C53.5588889,16.7105263 53.8211111,16.4473684 54.2144444,16.4473684 C56.64,16.4473684 58.6066667,18.4210526 58.6066667,20.8552632 C58.6066667,21.25 58.3444444,21.5131579 57.9511111,21.5131579 L57.9511111,21.5131579 Z" id="Shape"></path>
                            <path d="M57.9511111,36.3815789 C57.5577778,36.3815789 57.2955556,36.1184211 57.2955556,35.7236842 L57.2955556,20.6578947 C57.2955556,20.2631579 57.5577778,20 57.9511111,20 C58.3444444,20 58.6066667,20.2631579 58.6066667,20.6578947 L58.6066667,35.7236842 C58.6066667,36.0526316 58.3444444,36.3815789 57.9511111,36.3815789 L57.9511111,36.3815789 Z" id="Shape"></path>
                            <path d="M6.81777778,36.3815789 C6.42444444,36.3815789 6.16222222,36.1184211 6.16222222,35.7236842 L6.16222222,32.1052632 C6.16222222,31.7105263 6.42444444,31.4473684 6.81777778,31.4473684 C7.21111111,31.4473684 7.47333333,31.7105263 7.47333333,32.1052632 L7.47333333,35.7236842 C7.47333333,36.0526316 7.21111111,36.3815789 6.81777778,36.3815789 L6.81777778,36.3815789 Z" id="Shape"></path>
                            <path d="M43.9222222,17.7631579 L41.3,17.7631579 C40.9066667,17.7631579 40.6444444,17.5 40.6444444,17.1052632 C40.6444444,16.7105263 40.9066667,16.4473684 41.3,16.4473684 L43.9222222,16.4473684 C44.3155556,16.4473684 44.5777778,16.7105263 44.5777778,17.1052632 C44.5777778,17.5 44.3155556,17.7631579 43.9222222,17.7631579 L43.9222222,17.7631579 Z" id="Shape"></path>
                            <path d="M34.7444444,17.7631579 L32.1222222,17.7631579 C31.7288889,17.7631579 31.4666667,17.5 31.4666667,17.1052632 C31.4666667,16.7105263 31.7288889,16.4473684 32.1222222,16.4473684 L34.7444444,16.4473684 C35.1377778,16.4473684 35.4,16.7105263 35.4,17.1052632 C35.4,17.5 35.1377778,17.7631579 34.7444444,17.7631579 L34.7444444,17.7631579 Z" id="Shape"></path>
                            <path d="M25.5666667,17.7631579 L22.9444444,17.7631579 C22.5511111,17.7631579 22.2888889,17.5 22.2888889,17.1052632 C22.2888889,16.7105263 22.5511111,16.4473684 22.9444444,16.4473684 L25.5666667,16.4473684 C25.96,16.4473684 26.2222222,16.7105263 26.2222222,17.1052632 C26.2222222,17.5 25.96,17.7631579 25.5666667,17.7631579 L25.5666667,17.7631579 Z" id="Shape"></path>
                            <path d="M43.9222222,40.1315789 L41.3,40.1315789 C40.9066667,40.1315789 40.6444444,39.8684211 40.6444444,39.4736842 C40.6444444,39.0789474 40.9066667,38.8157895 41.3,38.8157895 L43.9222222,38.8157895 C44.3155556,38.8157895 44.5777778,39.0789474 44.5777778,39.4736842 C44.5777778,39.8684211 44.3155556,40.1315789 43.9222222,40.1315789 L43.9222222,40.1315789 Z" id="Shape"></path>
                            <path d="M34.7444444,40.1315789 L32.1222222,40.1315789 C31.7288889,40.1315789 31.4666667,39.8684211 31.4666667,39.4736842 C31.4666667,39.0789474 31.7288889,38.8157895 32.1222222,38.8157895 L34.7444444,38.8157895 C35.1377778,38.8157895 35.4,39.0789474 35.4,39.4736842 C35.4,39.8684211 35.1377778,40.1315789 34.7444444,40.1315789 L34.7444444,40.1315789 Z" id="Shape"></path>
                            <path d="M25.5666667,40.1315789 L22.9444444,40.1315789 C22.5511111,40.1315789 22.2888889,39.8684211 22.2888889,39.4736842 C22.2888889,39.0789474 22.5511111,38.8157895 22.9444444,38.8157895 L25.5666667,38.8157895 C25.96,38.8157895 26.2222222,39.0789474 26.2222222,39.4736842 C26.2222222,39.8684211 25.96,40.1315789 25.5666667,40.1315789 L25.5666667,40.1315789 Z" id="Shape"></path>
                        </g>
                    </g>
                </g>
            </g>
        </g>
    </g>
</svg>