<?xml version="1.0" encoding="UTF-8" standalone="no"?>
<svg width="79px" height="33px" viewBox="0 0 79 33" version="1.1" xmlns="http://www.w3.org/2000/svg" xmlns:xlink="http://www.w3.org/1999/xlink">
    <!-- Generator: Sketch 39.1 (31720) - http://www.bohemiancoding.com/sketch -->
    <title>Group 31</title>
    <desc>Created with Sketch.</desc>
    <defs></defs>
    <g id="-" stroke="none" stroke-width="1" fill="none" fill-rule="evenodd">
        <g id="Injiniring_Open" transform="translate(-236.000000, -1469.000000)" fill="#F05F5A">
            <g id="PROECTIROVANIE" transform="translate(0.000000, 1223.000000)">
                <g id="Group-26" transform="translate(207.000000, 219.000000)">
                    <g id="Group-6">
                        <g id="HOLODILNIE-SKLADI" transform="translate(0.000000, 27.000000)">
                            <g id="Group-18">
                                <g id="Group-31" transform="translate(29.000000, 0.000000)">
                                    <circle id="Oval" cx="33.4" cy="23" r="1.5"></circle>
                                    <circle id="Oval" cx="45.4" cy="23" r="1.5"></circle>
                                    <path d="M12,32.4 C11.4,32.4 11,32 11,31.4 L11,8.8 C11,8.2 11.4,7.8 12,7.8 C12.6,7.8 13,8.2 13,8.8 L13,31.4 C13,31.9 12.6,32.4 12,32.4 L12,32.4 Z" id="Shape"></path>
                                    <path d="M66.7,32.4 C66.1,32.4 65.7,32 65.7,31.4 L65.7,9.2 C65.7,8.6 66.1,8.2 66.7,8.2 C67.3,8.2 67.7,8.6 67.7,9.2 L67.7,31.4 C67.7,31.9 67.2,32.4 66.7,32.4 L66.7,32.4 Z" id="Shape"></path>
                                    <path d="M74.6,9.8 L4.1,9.8 C3.5,9.8 3.1,9.4 3.1,8.8 L3.1,1.4 C3.1,0.8 3.5,0.4 4.1,0.4 L74.6,0.4 C75.2,0.4 75.6,0.8 75.6,1.4 L75.6,8.8 C75.6,9.3 75.2,9.8 74.6,9.8 L74.6,9.8 Z M5.1,7.8 L73.6,7.8 L73.6,2.4 L5.1,2.4 L5.1,7.8 L5.1,7.8 Z" id="Shape"></path>
                                    <path d="M7.1,32.4 C6.5,32.4 6.1,32 6.1,31.4 L6.1,8.8 C6.1,8.2 6.5,7.8 7.1,7.8 C7.7,7.8 8.1,8.2 8.1,8.8 L8.1,31.4 C8.1,31.9 7.7,32.4 7.1,32.4 L7.1,32.4 Z" id="Shape"></path>
                                    <path d="M71.6,32.4 C71,32.4 70.6,32 70.6,31.4 L70.6,9.2 C70.6,8.6 71,8.2 71.6,8.2 C72.2,8.2 72.6,8.6 72.6,9.2 L72.6,31.4 C72.6,31.9 72.2,32.4 71.6,32.4 L71.6,32.4 Z" id="Shape"></path>
                                    <path d="M77.6,32.4 L1.1,32.4 C0.5,32.4 0.1,32 0.1,31.4 C0.1,30.8 0.5,30.4 1.1,30.4 L77.6,30.4 C78.2,30.4 78.6,30.8 78.6,31.4 C78.6,32 78.2,32.4 77.6,32.4 L77.6,32.4 Z" id="Shape"></path>
                                    <path d="M27.4,32.4 C26.8,32.4 26.4,32 26.4,31.4 L26.4,8.8 C26.4,8.2 26.8,7.8 27.4,7.8 C28,7.8 28.4,8.2 28.4,8.8 L28.4,31.4 C28.4,31.9 27.9,32.4 27.4,32.4 L27.4,32.4 Z" id="Shape"></path>
                                    <path d="M51.4,32.4 C50.8,32.4 50.4,32 50.4,31.4 L50.4,8.8 C50.4,8.2 50.8,7.8 51.4,7.8 C52,7.8 52.4,8.2 52.4,8.8 L52.4,31.4 C52.4,31.9 51.9,32.4 51.4,32.4 L51.4,32.4 Z" id="Shape"></path>
                                    <path d="M51.4,14.5 L27.4,14.5 C26.8,14.5 26.4,14.1 26.4,13.5 C26.4,12.9 26.8,12.5 27.4,12.5 L51.4,12.5 C52,12.5 52.4,12.9 52.4,13.5 C52.4,14.1 51.9,14.5 51.4,14.5 L51.4,14.5 Z" id="Shape"></path>
                                    <path d="M39.4,32.4 C38.8,32.4 38.4,32 38.4,31.4 L38.4,13.5 C38.4,12.9 38.8,12.5 39.4,12.5 C40,12.5 40.4,12.9 40.4,13.5 L40.4,31.4 C40.4,31.9 39.9,32.4 39.4,32.4 L39.4,32.4 Z" id="Shape"></path>
                                </g>
                            </g>
                        </g>
                    </g>
                </g>
            </g>
        </g>
    </g>
</svg>