<?xml version="1.0" encoding="UTF-8" standalone="no"?>
<svg width="86px" height="57px" viewBox="0 0 86 57" version="1.1" xmlns="http://www.w3.org/2000/svg" xmlns:xlink="http://www.w3.org/1999/xlink">
    <!-- Generator: Sketch 39.1 (31720) - http://www.bohemiancoding.com/sketch -->
    <title>Group 34</title>
    <desc>Created with Sketch.</desc>
    <defs></defs>
    <g id="-" stroke="none" stroke-width="1" fill="none" fill-rule="evenodd">
        <g id="Injiniring_Open" transform="translate(-795.000000, -1629.000000)" fill="#F05F5A">
            <g id="PROECTIROVANIE" transform="translate(0.000000, 1223.000000)">
                <g id="Group-26" transform="translate(207.000000, 219.000000)">
                    <g id="Group-21" transform="translate(11.000000, 185.000000)">
                        <g id="CHICKEN-STORE-Copy" transform="translate(553.000000, 2.000000)">
                            <g id="Group-34" transform="translate(24.000000, 0.000000)">
                                <path d="M85,56.9 L1,56.9 C0.4,56.9 0,56.5 0,55.9 C0,55.3 0.4,54.9 1,54.9 L85,54.9 C85.6,54.9 86,55.3 86,55.9 C86,56.5 85.6,56.9 85,56.9 L85,56.9 Z" id="Shape"></path>
                                <path d="M69.8,41.3 C69.2,41.3 68.8,40.9 68.8,40.3 C68.8,39.7 68.8,39.2 68.9,38.6 C69.1,34.9 69.3,31.3 61.3,28.8 C60.8,28.6 60.5,28.1 60.6,27.5 C60.8,27 61.3,26.7 61.9,26.8 C71.4,29.7 71.1,34.6 70.9,38.6 C70.9,39.1 70.8,39.7 70.8,40.2 C70.8,40.8 70.4,41.3 69.8,41.3 L69.8,41.3 Z" id="Shape"></path>
                                <path d="M15.2,41.3 C14.6,41.3 14.2,40.9 14.2,40.3 L14.2,39.4 C14.1,35.2 14.1,30.1 24,27 C24.5,26.8 25.1,27.1 25.3,27.7 C25.5,28.2 25.2,28.8 24.6,29 C16.1,31.7 16.1,35.6 16.2,39.5 L16.2,40.4 C16.2,40.8 15.7,41.3 15.2,41.3 L15.2,41.3 Z" id="Shape"></path>
                                <path d="M17.2,20 C16.8,20 16.5,19.8 16.3,19.4 C16.1,18.9 16.3,18.3 16.8,18.1 C24.3,14.6 33.7,12.7 42.4,12.7 C52.3,12.7 62,14.7 69,18.2 C69.5,18.4 69.7,19 69.5,19.5 C69.3,20 68.7,20.2 68.2,20 C61.5,16.7 52.1,14.7 42.5,14.7 C34,14.7 25,16.6 17.7,20 L17.2,20 L17.2,20 Z" id="Shape"></path>
                                <path d="M29.1,47 C28.6,47 28.2,46.7 28.1,46.2 L22.3,19.7 C22.2,19.4 22.3,19.1 22.5,18.9 C22.7,18.7 23,18.5 23.3,18.5 L62.8,18.5 C63.1,18.5 63.4,18.6 63.6,18.9 C63.8,19.1 63.9,19.4 63.8,19.7 L58,46 C57.9,46.5 57.3,46.9 56.8,46.8 C56.3,46.7 55.9,46.1 56,45.6 L61.5,20.6 L24.5,20.6 L30.1,45.8 C30.2,46.3 29.9,46.9 29.3,47 L29.1,47 L29.1,47 Z" id="Shape"></path>
                                <path d="M27.3,41.3 L27.3,41.3 L15.1,41.3 C14.5,41.3 14.1,40.9 14.1,40.3 C14.1,39.7 14.5,39.3 15.1,39.3 L15.1,39.3 L27.3,39.3 C27.9,39.3 28.3,39.7 28.3,40.3 C28.3,40.9 27.9,41.3 27.3,41.3 L27.3,41.3 Z" id="Shape"></path>
                                <path d="M69.8,41.3 L58.2,41.3 C57.6,41.3 57.2,40.9 57.2,40.3 C57.2,39.7 57.6,39.3 58.2,39.3 L69.8,39.3 C70.4,39.3 70.8,39.7 70.8,40.3 C70.8,40.9 70.4,41.3 69.8,41.3 L69.8,41.3 Z" id="Shape"></path>
                                <path d="M50.2,47.3 C49.6,47.3 49.2,46.9 49.2,46.3 L49.2,32.6 C49.2,29.2 46.4,26.4 43,26.4 C39.6,26.4 36.8,29.2 36.8,32.6 L36.8,46.3 C36.8,46.9 36.4,47.3 35.8,47.3 C35.2,47.3 34.8,46.9 34.8,46.3 L34.8,32.6 C34.8,28.1 38.5,24.4 43,24.4 C47.5,24.4 51.2,28.1 51.2,32.6 L51.2,46.3 C51.2,46.8 50.7,47.3 50.2,47.3 L50.2,47.3 Z" id="Shape"></path>
                                <path d="M40,47.3 C39.4,47.3 39,46.9 39,46.3 L39,26.6 C39,26 39.4,25.6 40,25.6 C40.6,25.6 41,26 41,26.6 L41,46.3 C41,46.8 40.6,47.3 40,47.3 L40,47.3 Z" id="Shape"></path>
                                <path d="M46,47.3 C45.4,47.3 45,46.9 45,46.3 L45,26.6 C45,26 45.4,25.6 46,25.6 C46.6,25.6 47,26 47,26.6 L47,46.3 C47,46.8 46.6,47.3 46,47.3 L46,47.3 Z" id="Shape"></path>
                                <path d="M50.2,42.3 L35.9,42.3 C35.3,42.3 34.9,41.9 34.9,41.3 C34.9,40.7 35.3,40.3 35.9,40.3 L50.2,40.3 C50.8,40.3 51.2,40.7 51.2,41.3 C51.2,41.9 50.7,42.3 50.2,42.3 L50.2,42.3 Z" id="Shape"></path>
                                <path d="M60.9,47.3 L25.2,47.3 C24.6,47.3 24.2,46.9 24.2,46.3 C24.2,45.7 24.6,45.3 25.2,45.3 L60.9,45.3 C61.5,45.3 61.9,45.7 61.9,46.3 C61.9,46.9 61.4,47.3 60.9,47.3 L60.9,47.3 Z" id="Shape"></path>
                                <path d="M49.8,32.3 L36.2,32.3 C35.6,32.3 35.2,31.9 35.2,31.3 C35.2,30.7 35.6,30.3 36.2,30.3 L49.8,30.3 C50.4,30.3 50.8,30.7 50.8,31.3 C50.8,31.9 50.3,32.3 49.8,32.3 L49.8,32.3 Z" id="Shape"></path>
                                <path d="M50.2,37.3 L35.9,37.3 C35.3,37.3 34.9,36.9 34.9,36.3 C34.9,35.7 35.3,35.3 35.9,35.3 L50.2,35.3 C50.8,35.3 51.2,35.7 51.2,36.3 C51.2,36.9 50.7,37.3 50.2,37.3 L50.2,37.3 Z" id="Shape"></path>
                                <path d="M18.2,56.9 C17.6,56.9 17.2,56.5 17.2,55.9 L17.2,40.3 C17.2,39.7 17.6,39.3 18.2,39.3 C18.8,39.3 19.2,39.7 19.2,40.3 L19.2,55.9 C19.2,56.4 18.7,56.9 18.2,56.9 L18.2,56.9 Z" id="Shape"></path>
                                <path d="M66.8,56.9 C66.2,56.9 65.8,56.5 65.8,55.9 L65.8,40.3 C65.8,39.7 66.2,39.3 66.8,39.3 C67.4,39.3 67.8,39.7 67.8,40.3 L67.8,55.9 C67.8,56.4 67.4,56.9 66.8,56.9 L66.8,56.9 Z" id="Shape"></path>
                                <path d="M23.2,20.6 C22.7,20.6 22.3,20.3 22.2,19.8 L21.6,17.1 C21.5,16.6 21.8,16 22.4,15.9 C22.9,15.8 23.5,16.1 23.6,16.7 L24.2,19.4 C24.3,19.9 24,20.5 23.4,20.6 C23.4,20.5 23.3,20.6 23.2,20.6 L23.2,20.6 Z" id="Shape"></path>
                                <path d="M62.8,20.6 L62.6,20.6 C62.1,20.5 61.7,20 61.8,19.4 L62.4,16.7 C62.5,16.2 63.1,15.8 63.6,15.9 C64.1,16 64.5,16.5 64.4,17.1 L63.8,19.8 C63.6,20.2 63.2,20.6 62.8,20.6 L62.8,20.6 Z" id="Shape"></path>
                                <path d="M5,56.9 C4.4,56.9 4,56.5 4,55.9 L4,48.1 C4,47.5 4.4,47.1 5,47.1 C5.6,47.1 6,47.5 6,48.1 L6,55.9 C6,56.4 5.5,56.9 5,56.9 L5,56.9 Z" id="Shape"></path>
                                <path d="M75,56.9 C74.4,56.9 74,56.5 74,55.9 L74,48.1 C74,47.5 74.4,47.1 75,47.1 C75.6,47.1 76,47.5 76,48.1 L76,55.9 C76,56.4 75.6,56.9 75,56.9 L75,56.9 Z" id="Shape"></path>
                                <path d="M6.4,49.6 C5.7,49.6 5,49.4 4.4,48.9 C4.1,48.7 4,48.4 4,48.1 L4,44 C4,43.6 4.2,43.3 4.6,43.1 C4.9,42.9 5.3,43 5.6,43.2 C6.3,43.7 7.1,43.4 8,43.1 C8.7,42.8 9.5,42.6 10.3,42.6 C11,42.6 11.7,42.8 12.3,43.3 C12.6,43.5 12.7,43.8 12.7,44.1 L12.7,48.2 C12.7,48.6 12.5,48.9 12.2,49.1 C11.9,49.3 11.5,49.2 11.2,49 C10.5,48.5 9.7,48.8 8.8,49.1 C8,49.3 7.2,49.6 6.4,49.6 L6.4,49.6 Z M6,47.5 C6.5,47.7 7.2,47.4 8,47.1 C8.8,46.8 9.8,46.5 10.7,46.6 L10.7,44.5 C10.2,44.3 9.5,44.6 8.7,44.9 C7.9,45.2 6.9,45.5 6,45.4 L6,47.5 L6,47.5 Z" id="Shape"></path>
                                <path d="M42.6,14.6 C42,14.6 41.6,14.2 41.6,13.6 L41.6,5.8 C41.6,5.2 42,4.8 42.6,4.8 C43.2,4.8 43.6,5.2 43.6,5.8 L43.6,13.6 C43.6,14.2 43.2,14.6 42.6,14.6 L42.6,14.6 Z" id="Shape"></path>
                                <path d="M44.1,7.3 C43.4,7.3 42.7,7.1 42.1,6.6 C41.8,6.4 41.7,6.1 41.7,5.8 L41.7,1.7 C41.7,1.3 41.9,1 42.2,0.8 C42.5,0.6 42.9,0.7 43.2,0.9 C43.9,1.4 44.7,1.1 45.6,0.8 C46.3,0.5 47.1,0.3 47.9,0.3 C48.6,0.3 49.3,0.5 49.9,1 C50.2,1.2 50.3,1.5 50.3,1.8 L50.3,5.9 C50.3,6.3 50.1,6.6 49.8,6.8 C49.5,7 49.1,6.9 48.8,6.7 C48.1,6.2 47.3,6.5 46.4,6.8 C45.7,7 44.9,7.3 44.1,7.3 L44.1,7.3 Z M43.6,5.2 C44.1,5.4 44.8,5.1 45.6,4.8 C46.4,4.5 47.4,4.2 48.3,4.3 L48.3,2.2 C47.8,2 47.1,2.3 46.3,2.6 C45.5,2.9 44.5,3.2 43.6,3.1 L43.6,5.2 L43.6,5.2 Z" id="Shape"></path>
                                <path d="M76.4,49.8 C75.7,49.8 75,49.6 74.4,49.1 C74.1,48.9 74,48.6 74,48.3 L74,44.2 C74,43.8 74.2,43.5 74.5,43.3 C74.8,43.1 75.2,43.2 75.5,43.4 C76.2,43.9 77,43.6 77.9,43.3 C78.6,43 79.4,42.8 80.2,42.8 C80.9,42.8 81.6,43 82.2,43.5 C82.5,43.7 82.6,44 82.6,44.3 L82.6,48.4 C82.6,48.8 82.4,49.1 82.1,49.3 C81.8,49.5 81.4,49.4 81.1,49.2 C80.4,48.7 79.6,49 78.7,49.3 C78,49.5 77.3,49.8 76.4,49.8 L76.4,49.8 Z M76,47.8 C76.5,48 77.2,47.7 78,47.4 C78.8,47.1 79.8,46.8 80.7,46.9 L80.7,44.8 C80.2,44.6 79.5,44.9 78.7,45.2 C77.9,45.5 76.9,45.8 76,45.7 L76,47.8 L76,47.8 Z" id="Shape"></path>
                                <path d="M29.1,56.9 C28.5,56.9 28.1,56.5 28.1,55.9 L28.1,46 C28.1,45.4 28.5,45 29.1,45 C29.7,45 30.1,45.4 30.1,46 L30.1,55.9 C30.1,56.4 29.6,56.9 29.1,56.9 L29.1,56.9 Z" id="Shape"></path>
                                <path d="M57,56.9 C56.4,56.9 56,56.5 56,55.9 L56,45.8 C56,45.2 56.4,44.8 57,44.8 C57.6,44.8 58,45.2 58,45.8 L58,55.9 C58,56.4 57.5,56.9 57,56.9 L57,56.9 Z" id="Shape"></path>
                                <path d="M35.8,56.9 C35.2,56.9 34.8,56.5 34.8,55.9 L34.8,46.3 C34.8,45.7 35.2,45.3 35.8,45.3 C36.4,45.3 36.8,45.7 36.8,46.3 L36.8,55.9 C36.8,56.4 36.4,56.9 35.8,56.9 L35.8,56.9 Z" id="Shape"></path>
                                <path d="M50.2,56.9 C49.6,56.9 49.2,56.5 49.2,55.9 L49.2,46.3 C49.2,45.7 49.6,45.3 50.2,45.3 C50.8,45.3 51.2,45.7 51.2,46.3 L51.2,55.9 C51.2,56.4 50.7,56.9 50.2,56.9 L50.2,56.9 Z" id="Shape"></path>
                                <path d="M25.1,56.9 C24.5,56.9 24.1,56.5 24.1,55.9 L24.1,40.3 C24.1,39.7 24.5,39.3 25.1,39.3 C25.7,39.3 26.1,39.7 26.1,40.3 L26.1,55.9 C26.1,56.4 25.7,56.9 25.1,56.9 L25.1,56.9 Z" id="Shape"></path>
                                <path d="M60.9,56.9 C60.3,56.9 59.9,56.5 59.9,55.9 L59.9,40.3 C59.9,39.7 60.3,39.3 60.9,39.3 C61.5,39.3 61.9,39.7 61.9,40.3 L61.9,55.9 C61.9,56.4 61.4,56.9 60.9,56.9 L60.9,56.9 Z" id="Shape"></path>
                            </g>
                        </g>
                    </g>
                </g>
            </g>
        </g>
    </g>
</svg>