<?xml version="1.0" encoding="UTF-8" standalone="no"?>
<svg width="77px" height="60px" viewBox="0 0 77 60" version="1.1" xmlns="http://www.w3.org/2000/svg" xmlns:xlink="http://www.w3.org/1999/xlink">
    <!-- Generator: Sketch 39.1 (31720) - http://www.bohemiancoding.com/sketch -->
    <title>Group 37</title>
    <desc>Created with Sketch.</desc>
    <defs></defs>
    <g id="-" stroke="none" stroke-width="1" fill="none" fill-rule="evenodd">
        <g id="Injiniring_Open" transform="translate(-247.000000, -1810.000000)" fill="#F05F5A">
            <g id="PROECTIROVANIE" transform="translate(0.000000, 1223.000000)">
                <g id="Group-26" transform="translate(207.000000, 219.000000)">
                    <g id="Group-25" transform="translate(4.000000, 368.000000)">
                        <g id="CLASSIFICATION-Copy-2">
                            <g id="HOLODILNIE-SKLADI">
                                <g id="Group-18">
                                    <g id="Group-37" transform="translate(36.000000, 0.000000)">
                                        <path d="M75.5,59.2 L1.5,59.2 C0.9,59.2 0.5,58.8 0.5,58.2 C0.5,57.6 0.9,57.2 1.5,57.2 L75.5,57.2 C76.1,57.2 76.5,57.6 76.5,58.2 C76.5,58.8 76.1,59.2 75.5,59.2 L75.5,59.2 Z" id="Shape"></path>
                                        <path d="M42.1,59 C41.5,59 41.1,58.6 41.1,58 L41.1,51.1 L35.9,51.1 L35.9,58 C35.9,58.6 35.5,59 34.9,59 C34.3,59 33.9,58.6 33.9,58 L33.9,50.1 C33.9,49.5 34.3,49.1 34.9,49.1 L42.1,49.1 C42.7,49.1 43.1,49.5 43.1,50.1 L43.1,58 C43.1,58.6 42.7,59 42.1,59 L42.1,59 Z" id="Shape"></path>
                                        <path d="M57.4,18.1 L52.7,18.1 C52.1,18.1 51.7,17.7 51.7,17.1 L51.7,11.9 C51.7,11.3 52.1,10.9 52.7,10.9 L57.4,10.9 C58,10.9 58.4,11.3 58.4,11.9 L58.4,17.1 C58.4,17.6 58,18.1 57.4,18.1 L57.4,18.1 Z M53.7,16.1 L56.4,16.1 L56.4,12.9 L53.7,12.9 L53.7,16.1 L53.7,16.1 Z" id="Shape"></path>
                                        <path d="M24.4,18.1 L19.7,18.1 C19.1,18.1 18.7,17.7 18.7,17.1 L18.7,11.9 C18.7,11.3 19.1,10.9 19.7,10.9 L24.4,10.9 C25,10.9 25.4,11.3 25.4,11.9 L25.4,17.1 C25.4,17.6 25,18.1 24.4,18.1 L24.4,18.1 Z M20.7,16.1 L23.4,16.1 L23.4,12.9 L20.7,12.9 L20.7,16.1 L20.7,16.1 Z" id="Shape"></path>
                                        <path d="M24.4,27.6 L19.7,27.6 C19.1,27.6 18.7,27.2 18.7,26.6 L18.7,21.4 C18.7,20.8 19.1,20.4 19.7,20.4 L24.4,20.4 C25,20.4 25.4,20.8 25.4,21.4 L25.4,26.6 C25.4,27.1 25,27.6 24.4,27.6 L24.4,27.6 Z M20.7,25.6 L23.4,25.6 L23.4,22.4 L20.7,22.4 L20.7,25.6 L20.7,25.6 Z" id="Shape"></path>
                                        <path d="M57.4,27.6 L52.7,27.6 C52.1,27.6 51.7,27.2 51.7,26.6 L51.7,21.4 C51.7,20.8 52.1,20.4 52.7,20.4 L57.4,20.4 C58,20.4 58.4,20.8 58.4,21.4 L58.4,26.6 C58.4,27.1 58,27.6 57.4,27.6 L57.4,27.6 Z M53.7,25.6 L56.4,25.6 L56.4,22.4 L53.7,22.4 L53.7,25.6 L53.7,25.6 Z" id="Shape"></path>
                                        <path d="M57.4,37.1 L52.7,37.1 C52.1,37.1 51.7,36.7 51.7,36.1 L51.7,30.9 C51.7,30.3 52.1,29.9 52.7,29.9 L57.4,29.9 C58,29.9 58.4,30.3 58.4,30.9 L58.4,36.1 C58.4,36.6 58,37.1 57.4,37.1 L57.4,37.1 Z M53.7,35.1 L56.4,35.1 L56.4,31.9 L53.7,31.9 L53.7,35.1 L53.7,35.1 Z" id="Shape"></path>
                                        <path d="M24.4,37.1 L19.7,37.1 C19.1,37.1 18.7,36.7 18.7,36.1 L18.7,30.9 C18.7,30.3 19.1,29.9 19.7,29.9 L24.4,29.9 C25,29.9 25.4,30.3 25.4,30.9 L25.4,36.1 C25.4,36.6 25,37.1 24.4,37.1 L24.4,37.1 Z M20.7,35.1 L23.4,35.1 L23.4,31.9 L20.7,31.9 L20.7,35.1 L20.7,35.1 Z" id="Shape"></path>
                                        <path d="M60.8,59.1 C60.2,59.1 59.8,58.7 59.8,58.1 L59.8,7.4 L17.2,7.4 L17.2,58.1 C17.2,58.7 16.8,59.1 16.2,59.1 C15.6,59.1 15.2,58.7 15.2,58.1 L15.2,6.4 C15.2,5.8 15.6,5.4 16.2,5.4 L60.8,5.4 C61.4,5.4 61.8,5.8 61.8,6.4 L61.8,58.1 C61.8,58.7 61.4,59.1 60.8,59.1 L60.8,59.1 Z" id="Shape"></path>
                                        <path d="M49.3,59.1 C48.7,59.1 48.3,58.7 48.3,58.1 L48.3,2.4 L28.7,2.4 L28.7,58.1 C28.7,58.7 28.3,59.1 27.7,59.1 C27.1,59.1 26.7,58.7 26.7,58.1 L26.7,1.4 C26.7,0.8 27.1,0.4 27.7,0.4 L49.3,0.4 C49.9,0.4 50.3,0.8 50.3,1.4 L50.3,58.1 C50.3,58.7 49.9,59.1 49.3,59.1 L49.3,59.1 Z" id="Shape"></path>
                                        <path d="M69.3,45.7 L7.8,45.7 C7.2,45.7 6.8,45.3 6.8,44.7 C6.8,44.1 7.2,43.7 7.8,43.7 L69.3,43.7 C69.9,43.7 70.3,44.1 70.3,44.7 C70.3,45.3 69.8,45.7 69.3,45.7 L69.3,45.7 Z" id="Shape"></path>
                                        <path d="M11.6,59.1 C11,59.1 10.6,58.7 10.6,58.1 L10.6,44.6 C10.6,44 11,43.6 11.6,43.6 C12.2,43.6 12.6,44 12.6,44.6 L12.6,58.1 C12.6,58.7 12.2,59.1 11.6,59.1 L11.6,59.1 Z" id="Shape"></path>
                                        <path d="M65.4,59.2 C64.8,59.2 64.4,58.8 64.4,58.2 L64.4,44.7 C64.4,44.1 64.8,43.7 65.4,43.7 C66,43.7 66.4,44.1 66.4,44.7 L66.4,58.2 C66.4,58.7 66,59.2 65.4,59.2 L65.4,59.2 Z" id="Shape"></path>
                                        <path d="M41.3,28 L35.8,28 C35.2,28 34.8,27.6 34.8,27 L34.8,23.2 L31,23.2 C30.4,23.2 30,22.8 30,22.2 L30,16.7 C30,16.1 30.4,15.7 31,15.7 L34.8,15.7 L34.8,11.9 C34.8,11.3 35.2,10.9 35.8,10.9 L41.3,10.9 C41.9,10.9 42.3,11.3 42.3,11.9 L42.3,15.7 L46.1,15.7 C46.7,15.7 47.1,16.1 47.1,16.7 L47.1,22.2 C47.1,22.8 46.7,23.2 46.1,23.2 L42.3,23.2 L42.3,27 C42.3,27.5 41.8,28 41.3,28 L41.3,28 Z M36.8,26 L40.3,26 L40.3,22.2 C40.3,21.6 40.7,21.2 41.3,21.2 L45.1,21.2 L45.1,17.7 L41.3,17.7 C40.7,17.7 40.3,17.3 40.3,16.7 L40.3,12.9 L36.8,12.9 L36.8,16.7 C36.8,17.3 36.4,17.7 35.8,17.7 L32,17.7 L32,21.2 L35.8,21.2 C36.4,21.2 36.8,21.6 36.8,22.2 L36.8,26 L36.8,26 Z" id="Shape"></path>
                                    </g>
                                </g>
                            </g>
                        </g>
                    </g>
                </g>
            </g>
        </g>
    </g>
</svg>