<?xml version="1.0" encoding="UTF-8" standalone="no"?>
<svg width="65px" height="43px" viewBox="0 0 65 43" version="1.1" xmlns="http://www.w3.org/2000/svg" xmlns:xlink="http://www.w3.org/1999/xlink">
    <!-- Generator: Sketch 39.1 (31720) - http://www.bohemiancoding.com/sketch -->
    <title>Group 30</title>
    <desc>Created with Sketch.</desc>
    <defs></defs>
    <g id="-" stroke="none" stroke-width="1" fill="none" fill-rule="evenodd">
        <g id="Injiniring_Open" transform="translate(-507.000000, -1459.000000)" fill="#F05F5A">
            <g id="PROECTIROVANIE" transform="translate(0.000000, 1223.000000)">
                <g id="Group-26" transform="translate(207.000000, 219.000000)">
                    <g id="Group-6">
                        <g id="Group-5" transform="translate(298.000000, 17.000000)">
                            <g id="Group-30" transform="translate(2.000000, 0.000000)">
                                <path d="M11.2,21.1 C10.6,21.1 10.2,20.7 10.2,20.1 L10.2,1.9 C10.2,1.3 10.6,0.9 11.2,0.9 L51,0.9 C51.6,0.9 52,1.3 52,1.9 L52,12.2 C52,12.8 51.6,13.2 51,13.2 C50.4,13.2 50,12.8 50,12.2 L50,2.9 L12.1,2.9 L12.1,20.1 C12.2,20.7 11.7,21.1 11.2,21.1 L11.2,21.1 Z" id="Shape"></path>
                                <path d="M22.2,42.8 L1.3,42.8 C0.7,42.8 0.3,42.4 0.3,41.8 L0.3,20.9 C0.3,20.3 0.7,19.9 1.3,19.9 L22.2,19.9 C22.8,19.9 23.2,20.3 23.2,20.9 L23.2,41.8 C23.2,42.3 22.8,42.8 22.2,42.8 L22.2,42.8 Z M2.4,40.8 L21.3,40.8 L21.3,21.9 L2.4,21.9 L2.4,40.8 L2.4,40.8 Z" id="Shape"></path>
                                <path d="M63.3,42.8 L34.5,42.8 C33.9,42.8 33.5,42.4 33.5,41.8 L33.5,13 C33.5,12.4 33.9,12 34.5,12 L63.3,12 C63.9,12 64.3,12.4 64.3,13 L64.3,41.8 C64.3,42.3 63.9,42.8 63.3,42.8 L63.3,42.8 Z M35.5,40.8 L62.3,40.8 L62.3,14 L35.5,14 L35.5,40.8 L35.5,40.8 Z" id="Shape"></path>
                                <path d="M34.5,42.8 L22.2,42.8 C21.6,42.8 21.2,42.4 21.2,41.8 C21.2,41.2 21.6,40.8 22.2,40.8 L34.5,40.8 C35.1,40.8 35.5,41.2 35.5,41.8 C35.5,42.4 35,42.8 34.5,42.8 L34.5,42.8 Z" id="Shape"></path>
                                <path d="M34.5,36.8 L22.2,36.8 C21.6,36.8 21.2,36.4 21.2,35.8 C21.2,35.2 21.6,34.8 22.2,34.8 L34.5,34.8 C35.1,34.8 35.5,35.2 35.5,35.8 C35.5,36.4 35,36.8 34.5,36.8 L34.5,36.8 Z" id="Shape"></path>
                                <path d="M57.7,37.1 L40.2,37.1 C39.6,37.1 39.2,36.7 39.2,36.1 L39.2,18.6 C39.2,18 39.6,17.6 40.2,17.6 L57.7,17.6 C58.3,17.6 58.7,18 58.7,18.6 L58.7,36.1 C58.7,36.7 58.2,37.1 57.7,37.1 L57.7,37.1 Z M41.1,35.1 L56.6,35.1 L56.6,19.6 L41.1,19.6 L41.1,35.1 L41.1,35.1 Z" id="Shape"></path>
                                <path d="M40.1,19.6 C39.8,19.6 39.6,19.5 39.4,19.3 L33.8,13.7 C33.4,13.3 33.4,12.7 33.8,12.3 C34.2,11.9 34.8,11.9 35.2,12.3 L40.8,17.9 C41.2,18.3 41.2,18.9 40.8,19.3 C40.6,19.5 40.4,19.6 40.1,19.6 L40.1,19.6 Z" id="Shape"></path>
                                <path d="M57.7,19.6 C57.4,19.6 57.2,19.5 57,19.3 C56.6,18.9 56.6,18.3 57,17.9 L62.6,12.3 C63,11.9 63.6,11.9 64,12.3 C64.4,12.7 64.4,13.3 64,13.7 L58.4,19.3 C58.2,19.5 57.9,19.6 57.7,19.6 L57.7,19.6 Z" id="Shape"></path>
                                <path d="M62.8,42.3 C62.5,42.3 62.3,42.2 62.1,42 L57,36.9 C56.6,36.5 56.6,35.9 57,35.5 C57.4,35.1 58,35.1 58.4,35.5 L63.5,40.6 C63.9,41 63.9,41.6 63.5,42 C63.3,42.2 63,42.3 62.8,42.3 L62.8,42.3 Z" id="Shape"></path>
                                <path d="M34.5,42.8 C34.2,42.8 34,42.7 33.8,42.5 C33.4,42.1 33.4,41.5 33.8,41.1 L39.4,35.5 C39.8,35.1 40.4,35.1 40.8,35.5 C41.2,35.9 41.2,36.5 40.8,36.9 L35.2,42.5 C35,42.7 34.7,42.8 34.5,42.8 L34.5,42.8 Z" id="Shape"></path>
                                <path d="M57.7,23.9 L40.2,23.9 C39.6,23.9 39.2,23.5 39.2,22.9 C39.2,22.3 39.6,21.9 40.2,21.9 L57.7,21.9 C58.3,21.9 58.7,22.3 58.7,22.9 C58.7,23.5 58.2,23.9 57.7,23.9 L57.7,23.9 Z" id="Shape"></path>
                                <path d="M57.7,33 L40.2,33 C39.6,33 39.2,32.6 39.2,32 C39.2,31.4 39.6,31 40.2,31 L57.7,31 C58.3,31 58.7,31.4 58.7,32 C58.7,32.6 58.2,33 57.7,33 L57.7,33 Z" id="Shape"></path>
                                <path d="M57.7,28.4 L40.2,28.4 C39.6,28.4 39.2,28 39.2,27.4 C39.2,26.8 39.6,26.4 40.2,26.4 L57.7,26.4 C58.3,26.4 58.7,26.8 58.7,27.4 C58.7,28 58.2,28.4 57.7,28.4 L57.7,28.4 Z" id="Shape"></path>
                                <path d="M51,8.9 L11.1,8.9 C10.5,8.9 10.1,8.5 10.1,7.9 C10.1,7.3 10.5,6.9 11.1,6.9 L51,6.9 C51.6,6.9 52,7.3 52,7.9 C52,8.5 51.6,8.9 51,8.9 L51,8.9 Z" id="Shape"></path>
                                <path d="M17.8,21.9 C17.2,21.9 16.8,21.5 16.8,20.9 L16.8,8.4 C16.8,7.8 17.2,7.4 17.8,7.4 C18.4,7.4 18.8,7.8 18.8,8.4 L18.8,20.9 C18.8,21.5 18.4,21.9 17.8,21.9 L17.8,21.9 Z" id="Shape"></path>
                                <rect id="Rectangle-path" x="1.4" y="34.8" width="5.8" height="2"></rect>
                            </g>
                        </g>
                    </g>
                </g>
            </g>
        </g>
    </g>
</svg>