<?xml version="1.0" encoding="UTF-8" standalone="no"?>
<svg width="87px" height="35px" viewBox="0 0 87 35" version="1.1" xmlns="http://www.w3.org/2000/svg" xmlns:xlink="http://www.w3.org/1999/xlink">
    <!-- Generator: Sketch 39.1 (31720) - http://www.bohemiancoding.com/sketch -->
    <title>Group 36</title>
    <desc>Created with Sketch.</desc>
    <defs></defs>
    <g id="-" stroke="none" stroke-width="1" fill="none" fill-rule="evenodd">
        <g id="Injiniring_Open" transform="translate(-1119.000000, -1652.000000)" fill="#F05F5A">
            <g id="PROECTIROVANIE" transform="translate(0.000000, 1223.000000)">
                <g id="Group-26" transform="translate(207.000000, 219.000000)">
                    <g id="Group-21" transform="translate(11.000000, 185.000000)">
                        <g id="CHICKEN-STORE" transform="translate(877.000000, 25.000000)">
                            <g id="airtech_kurka">
                                <g id="Group-36" transform="translate(24.000000, 0.000000)">
                                    <path d="M85.5,34.8 L1.5,34.8 C0.9,34.8 0.5,34.4 0.5,33.8 C0.5,33.2 0.9,32.8 1.5,32.8 L85.5,32.8 C86.1,32.8 86.5,33.2 86.5,33.8 C86.5,34.4 86,34.8 85.5,34.8 L85.5,34.8 Z" id="Shape"></path>
                                    <path d="M79.3,17.2 C78.7,17.2 78.3,16.8 78.3,16.2 C78.3,10.8 62,2 43.5,2 C35.3,2 26.4,3.8 19.2,7.1 C12.8,9.9 8.7,13.6 8.7,16.3 C8.7,16.9 8.3,17.3 7.7,17.3 C7.1,17.3 6.7,16.9 6.7,16.3 C6.7,8.6 26,0.1 43.5,0.1 C61,0.1 80.3,8.6 80.3,16.3 C80.3,16.8 79.8,17.2 79.3,17.2 L79.3,17.2 Z" id="Shape"></path>
                                    <path d="M26.3,33.8 C24,33.8 22.1,31.9 22.1,29.6 C22.1,27.3 24,25.4 26.3,25.4 C28.6,25.4 30.5,27.3 30.5,29.6 C30.4,31.9 28.6,33.8 26.3,33.8 L26.3,33.8 Z M26.3,27.5 C25.1,27.5 24.1,28.5 24.1,29.7 C24.1,30.9 25.1,31.9 26.3,31.9 C27.5,31.9 28.5,30.9 28.5,29.7 C28.5,28.5 27.5,27.5 26.3,27.5 L26.3,27.5 Z" id="Shape"></path>
                                    <path d="M32.4,31.1 C31.8,31.1 31.4,30.7 31.4,30.1 C31.4,27.3 29.1,24.9 26.2,24.9 C23.4,24.9 21,27.2 21,30.1 C21,30.7 20.6,31.1 20,31.1 C19.4,31.1 19,30.7 19,30.1 C19,26.1 22.2,22.9 26.2,22.9 C30.2,22.9 33.4,26.1 33.4,30.1 C33.4,30.6 33,31.1 32.4,31.1 L32.4,31.1 Z" id="Shape"></path>
                                    <path d="M67.9,31.1 L67.5,31.1 C67,31.1 66.6,30.6 66.6,30.1 C66.6,27.3 64.3,24.9 61.4,24.9 C58.6,24.9 56.2,27.2 56.2,30.1 C56.2,30.7 55.8,31.1 55.2,31.1 C54.6,31.1 54.2,30.7 54.2,30.1 C54.2,26.1 57.4,22.9 61.4,22.9 C65,22.9 68,25.6 68.5,29 C69,28.9 69.7,28.8 70,28.4 C70.2,28.2 70.3,28 70.3,27.6 C70.3,27 70.7,26.6 71.3,26.6 C71.9,26.6 72.3,27 72.3,27.6 C72.3,28.5 72,29.3 71.4,29.8 C70.3,31 68.7,31.1 67.9,31.1 L67.9,31.1 Z" id="Shape"></path>
                                    <path d="M61.4,33.8 C59.1,33.8 57.2,31.9 57.2,29.6 C57.2,27.3 59.1,25.4 61.4,25.4 C63.7,25.4 65.6,27.3 65.6,29.6 C65.6,31.9 63.7,33.8 61.4,33.8 L61.4,33.8 Z M61.4,27.5 C60.2,27.5 59.2,28.5 59.2,29.7 C59.2,30.9 60.2,31.9 61.4,31.9 C62.6,31.9 63.6,30.9 63.6,29.7 C63.6,28.5 62.6,27.5 61.4,27.5 L61.4,27.5 Z" id="Shape"></path>
                                    <path d="M55.2,31.1 L32.4,31.1 C31.8,31.1 31.4,30.7 31.4,30.1 C31.4,29.5 31.8,29.1 32.4,29.1 L55.2,29.1 C55.8,29.1 56.2,29.5 56.2,30.1 C56.2,30.7 55.8,31.1 55.2,31.1 L55.2,31.1 Z" id="Shape"></path>
                                    <path d="M20.1,31.1 L17.8,31.1 C17.2,31.1 16.8,30.7 16.8,30.1 C16.8,29.5 17.2,29.1 17.8,29.1 L20.1,29.1 C20.7,29.1 21.1,29.5 21.1,30.1 C21.1,30.7 20.6,31.1 20.1,31.1 L20.1,31.1 Z" id="Shape"></path>
                                    <path d="M71.3,28.7 C70.7,28.7 70.3,28.3 70.3,27.7 L70.3,23.3 C70.3,22.8 69.9,22 69.7,21.8 L69.7,21.8 L63.1,20.8 C62.6,20.7 62.2,20.2 62.3,19.7 C62.4,19.2 62.9,18.8 63.4,18.9 L70,19.9 C71.6,20 72.4,22.2 72.4,23.4 L72.4,27.8 C72.3,28.3 71.9,28.7 71.3,28.7 L71.3,28.7 Z" id="Shape"></path>
                                    <path d="M17.8,31.1 C15.9,31.1 13.8,31 12.7,29.8 C12.2,29.3 12,28.7 12,28 C12.1,26 12.1,24.1 13.9,23 C20.5,19.1 30.6,18.8 32.8,18.8 L36.7,14.9 C37.6,14 38.8,13.4 40.1,13.3 C42.9,13.1 52.4,12.6 58.9,13.2 C60.4,13.3 61.7,14.3 62.3,15.6 L64.1,19.3 C64.3,19.8 64.1,20.4 63.6,20.6 C63.1,20.8 62.5,20.6 62.3,20.1 L60.5,16.4 C60.2,15.7 59.5,15.2 58.7,15.1 C52.3,14.5 43,15 40.2,15.2 C39.4,15.3 38.6,15.6 38.1,16.2 L34,20.3 C33.8,20.5 33.5,20.6 33.3,20.6 C33.2,20.6 21.8,20.6 15,24.6 C14.2,25.1 14.1,25.8 14.1,27.9 C14.1,28.1 14.1,28.2 14.2,28.3 C14.8,28.9 17.1,28.9 17.9,28.9 C18.5,28.9 18.9,29.3 18.9,29.9 C18.9,30.5 18.4,31.1 17.8,31.1 L17.8,31.1 Z" id="Shape"></path>
                                    <path d="M40.3,20.8 L33.2,20.8 C32.6,20.8 32.2,20.4 32.2,19.8 C32.2,19.2 32.6,18.8 33.2,18.8 L40.3,18.8 C40.9,18.8 41.3,19.2 41.3,19.8 C41.3,20.4 40.9,20.8 40.3,20.8 L40.3,20.8 Z" id="Shape"></path>
                                    <path d="M54,20.6 C53.4,20.6 53,20.2 53,19.6 L53,14 C53,13.4 53.4,13 54,13 C54.6,13 55,13.4 55,14 L55,19.6 C55,20.2 54.6,20.6 54,20.6 L54,20.6 Z" id="Shape"></path>
                                    <path d="M63.2,20.8 L63.2,20.8 L54,20.8 C53.4,20.8 53,20.3 53,19.8 C53,19.2 53.4,18.8 54,18.8 L54,18.8 L63.2,18.8 C63.8,18.8 64.2,19.3 64.2,19.8 C64.2,20.4 63.8,20.8 63.2,20.8 L63.2,20.8 Z" id="Shape"></path>
                                    <path d="M56.4,27.5 L31.3,27.5 C30.7,27.5 30.3,27.1 30.3,26.5 C30.3,25.9 30.7,25.5 31.3,25.5 L56.4,25.5 C57,25.5 57.4,25.9 57.4,26.5 C57.4,27.1 57,27.5 56.4,27.5 L56.4,27.5 Z" id="Shape"></path>
                                    <path d="M21,27.5 L13.1,27.5 C12.5,27.5 12.1,27.1 12.1,26.5 C12.1,25.9 12.5,25.5 13.1,25.5 L21,25.5 C21.6,25.5 22,25.9 22,26.5 C22,27.1 21.5,27.5 21,27.5 L21,27.5 Z" id="Shape"></path>
                                    <path d="M71.3,27.5 L66.4,27.5 C65.8,27.5 65.4,27.1 65.4,26.5 C65.4,25.9 65.8,25.5 66.4,25.5 L71.3,25.5 C71.9,25.5 72.3,25.9 72.3,26.5 C72.3,27.1 71.9,27.5 71.3,27.5 L71.3,27.5 Z" id="Shape"></path>
                                    <path d="M7.6,33.8 C7,33.8 6.6,33.4 6.6,32.8 L6.6,16.2 C6.6,15.6 7,15.2 7.6,15.2 C8.2,15.2 8.6,15.6 8.6,16.2 L8.6,32.8 C8.6,33.4 8.2,33.8 7.6,33.8 L7.6,33.8 Z" id="Shape"></path>
                                    <path d="M79.3,33.8 C78.7,33.8 78.3,33.4 78.3,32.8 L78.3,16.2 C78.3,15.6 78.7,15.2 79.3,15.2 C79.9,15.2 80.3,15.6 80.3,16.2 L80.3,32.8 C80.3,33.4 79.8,33.8 79.3,33.8 L79.3,33.8 Z" id="Shape"></path>
                                    <path d="M85.5,16.6 L75.4,16.6 C74.3,16.6 73.2,15.9 72.7,14.9 C70.6,10.8 55.8,5.4 43.5,5.4 C31.2,5.4 16.3,10.8 14.3,14.9 C13.8,16 12.7,16.6 11.6,16.6 L1.5,16.6 C0.9,16.6 0.5,16.2 0.5,15.6 C0.5,15 0.9,14.6 1.5,14.6 L11.6,14.6 C12,14.6 12.3,14.4 12.5,14 C15.1,8.8 31,3.4 43.5,3.4 C55.9,3.4 71.9,8.9 74.5,14 C74.7,14.4 75,14.6 75.4,14.6 L85.5,14.6 C86.1,14.6 86.5,15 86.5,15.6 C86.5,16.2 86,16.6 85.5,16.6 L85.5,16.6 Z" id="Shape"></path>
                                </g>
                            </g>
                        </g>
                    </g>
                </g>
            </g>
        </g>
    </g>
</svg>