<?xml version="1.0" encoding="UTF-8" standalone="no"?>
<svg width="77px" height="60px" viewBox="0 0 77 60" version="1.1" xmlns="http://www.w3.org/2000/svg" xmlns:xlink="http://www.w3.org/1999/xlink">
    <!-- Generator: Sketch 39.1 (31720) - http://www.bohemiancoding.com/sketch -->
    <title>Group 40</title>
    <desc>Created with Sketch.</desc>
    <defs></defs>
    <g id="-" stroke="none" stroke-width="1" fill="none" fill-rule="evenodd">
        <g id="Injiniring_Open" transform="translate(-500.000000, -1627.000000)" fill="#F05F5A">
            <g id="PROECTIROVANIE" transform="translate(0.000000, 1223.000000)">
                <g id="Group-26" transform="translate(207.000000, 219.000000)">
                    <g id="Group-21" transform="translate(11.000000, 185.000000)">
                        <g id="Group-5" transform="translate(250.000000, 0.000000)">
                            <g id="Group-40" transform="translate(32.000000, 0.000000)">
                                <path d="M25.7,59.4 C25.1,59.4 24.7,59 24.7,58.4 L24.7,51.5 L19.5,51.5 L19.5,58.4 C19.5,59 19.1,59.4 18.5,59.4 C17.9,59.4 17.5,59 17.5,58.4 L17.5,50.5 C17.5,49.9 17.9,49.5 18.5,49.5 L25.7,49.5 C26.3,49.5 26.7,49.9 26.7,50.5 L26.7,58.4 C26.7,59 26.2,59.4 25.7,59.4 L25.7,59.4 Z" id="Shape"></path>
                                <path d="M58.5,59.4 C57.9,59.4 57.5,59 57.5,58.4 L57.5,51.5 L52.3,51.5 L52.3,58.4 C52.3,59 51.9,59.4 51.3,59.4 C50.7,59.4 50.3,59 50.3,58.4 L50.3,50.5 C50.3,49.9 50.7,49.5 51.3,49.5 L58.5,49.5 C59.1,49.5 59.5,49.9 59.5,50.5 L59.5,58.4 C59.5,59 59.1,59.4 58.5,59.4 L58.5,59.4 Z" id="Shape"></path>
                                <path d="M75.4,59.5 L1.4,59.5 C0.8,59.5 0.4,59.1 0.4,58.5 C0.4,57.9 0.8,57.5 1.4,57.5 L75.4,57.5 C76,57.5 76.4,57.9 76.4,58.5 C76.4,59.1 76,59.5 75.4,59.5 L75.4,59.5 Z" id="Shape"></path>
                                <path d="M60.7,41.7 C60.1,41.7 59.7,41.3 59.7,40.7 L59.7,8.7 C59.7,8.1 60.1,7.7 60.7,7.7 C61.3,7.7 61.7,8.1 61.7,8.7 L61.7,40.7 C61.7,41.3 61.3,41.7 60.7,41.7 L60.7,41.7 Z" id="Shape"></path>
                                <path d="M16.1,41.7 C15.5,41.7 15.1,41.3 15.1,40.7 L15.1,8.7 C15.1,8.1 15.5,7.7 16.1,7.7 C16.7,7.7 17.1,8.1 17.1,8.7 L17.1,40.7 C17.1,41.3 16.7,41.7 16.1,41.7 L16.1,41.7 Z" id="Shape"></path>
                                <path d="M69.2,46 L7.7,46 C7.1,46 6.7,45.6 6.7,45 C6.7,44.4 7.1,44 7.7,44 L69.2,44 C69.8,44 70.2,44.4 70.2,45 C70.2,45.6 69.7,46 69.2,46 L69.2,46 Z" id="Shape"></path>
                                <path d="M11.5,59.4 C10.9,59.4 10.5,59 10.5,58.4 L10.5,45 C10.5,44.4 10.9,44 11.5,44 C12.1,44 12.5,44.4 12.5,45 L12.5,58.5 C12.5,59 12.1,59.4 11.5,59.4 L11.5,59.4 Z" id="Shape"></path>
                                <path d="M65.3,59.5 C64.7,59.5 64.3,59.1 64.3,58.5 L64.3,45 C64.3,44.4 64.7,44 65.3,44 C65.9,44 66.3,44.4 66.3,45 L66.3,58.5 C66.3,59 65.9,59.5 65.3,59.5 L65.3,59.5 Z" id="Shape"></path>
                                <path d="M24.2,9.7 L16.1,9.7 C15.5,9.7 15.1,9.3 15.1,8.7 C15.1,8.1 15.5,7.7 16.1,7.7 L24.2,7.7 C24.8,7.7 25.2,8.1 25.2,8.7 C25.2,9.3 24.7,9.7 24.2,9.7 L24.2,9.7 Z" id="Shape"></path>
                                <path d="M60.7,9.7 L52.5,9.7 C51.9,9.7 51.5,9.3 51.5,8.7 C51.5,8.1 51.9,7.7 52.5,7.7 L60.7,7.7 C61.3,7.7 61.7,8.1 61.7,8.7 C61.7,9.3 61.3,9.7 60.7,9.7 L60.7,9.7 Z" id="Shape"></path>
                                <path d="M52.6,9.7 C52,9.7 51.6,9.3 51.6,8.7 C51.6,6.7 48.8,4.1 44.2,2 C43.7,1.8 43.5,1.2 43.7,0.7 C43.9,0.2 44.5,6.55031585e-15 45,0.2 C48.2,1.7 53.6,4.8 53.6,8.7 C53.6,9.2 53.1,9.7 52.6,9.7 L52.6,9.7 Z" id="Shape"></path>
                                <path d="M24.2,9.7 C23.6,9.7 23.2,9.3 23.2,8.7 C23.2,5 27.9,2 31.9,0.2 C32.4,6.49480469e-15 33,0.2 33.2,0.7 C33.4,1.2 33.2,1.8 32.7,2 C28,4.2 25.2,6.7 25.2,8.7 C25.2,9.2 24.7,9.7 24.2,9.7 L24.2,9.7 Z" id="Shape"></path>
                                <path d="M32.4,59.4 C31.8,59.4 31.4,59 31.4,58.4 L31.4,1 C31.4,0.4 31.8,0 32.4,0 C33,0 33.4,0.4 33.4,1 L33.4,58.4 C33.4,59 33,59.4 32.4,59.4 L32.4,59.4 Z" id="Shape"></path>
                                <path d="M44.4,59.4 C43.8,59.4 43.4,59 43.4,58.4 L43.4,1 C43.4,0.4 43.8,0 44.4,0 C45,0 45.4,0.4 45.4,1 L45.4,58.4 C45.4,59 45,59.4 44.4,59.4 L44.4,59.4 Z" id="Shape"></path>
                                <path d="M44.4,9.7 L32.7,9.7 C32.1,9.7 31.7,9.3 31.7,8.7 C31.7,8.1 32.1,7.7 32.7,7.7 L44.4,7.7 C45,7.7 45.4,8.1 45.4,8.7 C45.4,9.3 45,9.7 44.4,9.7 L44.4,9.7 Z" id="Shape"></path>
                                <path d="M32.3,33.7 L16.1,33.7 C15.5,33.7 15.1,33.3 15.1,32.7 C15.1,32.1 15.5,31.7 16.1,31.7 L32.3,31.7 C32.9,31.7 33.3,32.1 33.3,32.7 C33.3,33.3 32.8,33.7 32.3,33.7 L32.3,33.7 Z" id="Shape"></path>
                                <path d="M60.7,33.7 L44.4,33.7 C43.8,33.7 43.4,33.3 43.4,32.7 C43.4,32.1 43.8,31.7 44.4,31.7 L60.7,31.7 C61.3,31.7 61.7,32.1 61.7,32.7 C61.7,33.3 61.3,33.7 60.7,33.7 L60.7,33.7 Z" id="Shape"></path>
                                <path d="M32.3,39.7 L16.1,39.7 C15.5,39.7 15.1,39.3 15.1,38.7 C15.1,38.1 15.5,37.7 16.1,37.7 L32.3,37.7 C32.9,37.7 33.3,38.1 33.3,38.7 C33.3,39.3 32.8,39.7 32.3,39.7 L32.3,39.7 Z" id="Shape"></path>
                                <path d="M60.7,39.7 L44.4,39.7 C43.8,39.7 43.4,39.3 43.4,38.7 C43.4,38.1 43.8,37.7 44.4,37.7 L60.7,37.7 C61.3,37.7 61.7,38.1 61.7,38.7 C61.7,39.3 61.3,39.7 60.7,39.7 L60.7,39.7 Z" id="Shape"></path>
                                <path d="M32.3,27.7 L16.1,27.7 C15.5,27.7 15.1,27.3 15.1,26.7 C15.1,26.1 15.5,25.7 16.1,25.7 L32.3,25.7 C32.9,25.7 33.3,26.1 33.3,26.7 C33.3,27.3 32.8,27.7 32.3,27.7 L32.3,27.7 Z" id="Shape"></path>
                                <path d="M60.7,27.7 L44.4,27.7 C43.8,27.7 43.4,27.3 43.4,26.7 C43.4,26.1 43.8,25.7 44.4,25.7 L60.7,25.7 C61.3,25.7 61.7,26.1 61.7,26.7 C61.7,27.3 61.3,27.7 60.7,27.7 L60.7,27.7 Z" id="Shape"></path>
                                <path d="M32.3,21.7 L16.1,21.7 C15.5,21.7 15.1,21.3 15.1,20.7 C15.1,20.1 15.5,19.7 16.1,19.7 L32.3,19.7 C32.9,19.7 33.3,20.1 33.3,20.7 C33.3,21.3 32.8,21.7 32.3,21.7 L32.3,21.7 Z" id="Shape"></path>
                                <path d="M60.7,21.7 L44.4,21.7 C43.8,21.7 43.4,21.3 43.4,20.7 C43.4,20.1 43.8,19.7 44.4,19.7 L60.7,19.7 C61.3,19.7 61.7,20.1 61.7,20.7 C61.7,21.3 61.3,21.7 60.7,21.7 L60.7,21.7 Z" id="Shape"></path>
                                <path d="M32.3,15.7 L16.1,15.7 C15.5,15.7 15.1,15.3 15.1,14.7 C15.1,14.1 15.5,13.7 16.1,13.7 L32.3,13.7 C32.9,13.7 33.3,14.1 33.3,14.7 C33.3,15.3 32.8,15.7 32.3,15.7 L32.3,15.7 Z" id="Shape"></path>
                                <path d="M60.7,15.7 L44.4,15.7 C43.8,15.7 43.4,15.3 43.4,14.7 C43.4,14.1 43.8,13.7 44.4,13.7 L60.7,13.7 C61.3,13.7 61.7,14.1 61.7,14.7 C61.7,15.3 61.3,15.7 60.7,15.7 L60.7,15.7 Z" id="Shape"></path>
                                <path d="M24.2,46 C23.6,46 23.2,45.6 23.2,45 L23.2,8.7 C23.2,8.1 23.6,7.7 24.2,7.7 C24.8,7.7 25.2,8.1 25.2,8.7 L25.2,45 C25.2,45.5 24.7,46 24.2,46 L24.2,46 Z" id="Shape"></path>
                                <path d="M52.6,46 C52,46 51.6,45.6 51.6,45 L51.6,8.7 C51.6,8.1 52,7.7 52.6,7.7 C53.2,7.7 53.6,8.1 53.6,8.7 L53.6,45 C53.6,45.5 53.1,46 52.6,46 L52.6,46 Z" id="Shape"></path>
                                <path d="M11.9,46 C11.3,46 10.9,45.6 10.9,45 C10.9,44.4 11.3,44 11.9,44 C13.7,44 15.1,42.6 15.1,40.8 C15.1,40.2 15.5,39.8 16.1,39.8 C16.7,39.8 17.1,40.2 17.1,40.8 C17.1,43.6 14.8,46 11.9,46 L11.9,46 Z" id="Shape"></path>
                                <path d="M65,46 C62.1,46 59.8,43.7 59.8,40.8 C59.8,40.2 60.2,39.8 60.8,39.8 C61.4,39.8 61.8,40.2 61.8,40.8 C61.8,42.6 63.2,44 65,44 C65.6,44 66,44.4 66,45 C66,45.6 65.5,46 65,46 L65,46 Z" id="Shape"></path>
                            </g>
                        </g>
                    </g>
                </g>
            </g>
        </g>
    </g>
</svg>