<?xml version="1.0" encoding="UTF-8" standalone="no"?>
<svg width="75px" height="54px" viewBox="0 0 75 54" version="1.1" xmlns="http://www.w3.org/2000/svg" xmlns:xlink="http://www.w3.org/1999/xlink">
    <!-- Generator: Sketch 39.1 (31720) - http://www.bohemiancoding.com/sketch -->
    <title>Group 38</title>
    <desc>Created with Sketch.</desc>
    <defs></defs>
    <g id="-" stroke="none" stroke-width="1" fill="none" fill-rule="evenodd">
        <g id="Injiniring_Open" transform="translate(-801.000000, -1816.000000)" fill="#F05F5A">
            <g id="PROECTIROVANIE" transform="translate(0.000000, 1223.000000)">
                <g id="Group-26" transform="translate(207.000000, 219.000000)">
                    <g id="Group-25" transform="translate(4.000000, 368.000000)">
                        <g id="OVOSHEHRANILISHE" transform="translate(569.000000, 6.000000)">
                            <g id="Group-18-Copy">
                                <g id="Group-38" transform="translate(21.000000, 0.000000)">
                                    <path d="M55.6,49.4 L41,49.4 C40.4,49.4 40,49 40,48.4 L40,40 C40,39.4 40.4,39 41,39 L55.6,39 C56.2,39 56.6,39.4 56.6,40 L56.6,48.5 C56.6,49 56.1,49.4 55.6,49.4 L55.6,49.4 Z M42,47.4 L54.6,47.4 L54.6,41 L42,41 L42,47.4 L42,47.4 Z" id="Shape"></path>
                                    <path d="M45.3,49.4 C44.7,49.4 44.3,49 44.3,48.4 L44.3,40 C44.3,39.4 44.7,39 45.3,39 C45.9,39 46.3,39.4 46.3,40 L46.3,48.5 C46.3,49 45.8,49.4 45.3,49.4 L45.3,49.4 Z" id="Shape"></path>
                                    <path d="M51.3,49.4 C50.7,49.4 50.3,49 50.3,48.4 L50.3,40 C50.3,39.4 50.7,39 51.3,39 C51.9,39 52.3,39.4 52.3,40 L52.3,48.5 C52.3,49 51.8,49.4 51.3,49.4 L51.3,49.4 Z" id="Shape"></path>
                                    <path d="M59.8,53.8 L17.6,53.8 C17,53.8 16.6,53.4 16.6,52.8 L16.6,36.8 C16.6,36.2 17,35.8 17.6,35.8 L59.8,35.8 C60.4,35.8 60.8,36.2 60.8,36.8 L60.8,52.8 C60.8,53.3 60.3,53.8 59.8,53.8 L59.8,53.8 Z M18.5,51.8 L58.7,51.8 L58.7,37.8 L18.5,37.8 L18.5,51.8 L18.5,51.8 Z" id="Shape"></path>
                                    <path d="M9.5,53.8 C8.9,53.8 8.5,53.4 8.5,52.8 L8.5,29.7 C8.5,29.1 8.9,28.7 9.5,28.7 C10.1,28.7 10.5,29.1 10.5,29.7 L10.5,52.8 C10.5,53.3 10.1,53.8 9.5,53.8 L9.5,53.8 Z" id="Shape"></path>
                                    <path d="M22.8,53.8 C22.2,53.8 21.8,53.4 21.8,52.8 L21.8,29.7 C21.8,29.1 22.2,28.7 22.8,28.7 C23.4,28.7 23.8,29.1 23.8,29.7 L23.8,52.8 C23.8,53.3 23.4,53.8 22.8,53.8 L22.8,53.8 Z" id="Shape"></path>
                                    <path d="M29.2,30.7 L1.7,30.7 C1.1,30.7 0.7,30.3 0.7,29.7 L0.7,18 C0.7,17.4 1.1,17 1.7,17 L29.2,17 C29.8,17 30.2,17.4 30.2,18 L30.2,29.7 C30.2,30.2 29.8,30.7 29.2,30.7 L29.2,30.7 Z M2.8,28.7 L28.3,28.7 L28.3,19 L2.8,19 L2.8,28.7 L2.8,28.7 Z" id="Shape"></path>
                                    <path d="M68,53.8 C67.4,53.8 67,53.4 67,52.8 L67,2.5 L36.7,2.5 L36.7,36.8 C36.7,37.4 36.3,37.8 35.7,37.8 C35.1,37.8 34.7,37.4 34.7,36.8 L34.7,1.5 C34.7,0.9 35.1,0.5 35.7,0.5 L68,0.5 C68.6,0.5 69,0.9 69,1.5 L69,52.8 C69,53.3 68.6,53.8 68,53.8 L68,53.8 Z" id="Shape"></path>
                                    <path d="M74,53.8 L59.8,53.8 C59.2,53.8 58.8,53.4 58.8,52.8 C58.8,52.2 59.2,51.8 59.8,51.8 L74,51.8 C74.6,51.8 75,52.2 75,52.8 C75,53.4 74.6,53.8 74,53.8 L74,53.8 Z" id="Shape"></path>
                                    <path d="M48.3,19.4 L39.4,19.4 C38.8,19.4 38.4,19 38.4,18.4 L38.4,13.2 C38.4,12.6 38.8,12.2 39.4,12.2 L48.3,12.2 C48.9,12.2 49.3,12.6 49.3,13.2 L49.3,18.4 C49.3,19 48.8,19.4 48.3,19.4 L48.3,19.4 Z M40.4,17.4 L47.3,17.4 L47.3,14.2 L40.4,14.2 L40.4,17.4 L40.4,17.4 Z" id="Shape"></path>
                                    <path d="M42.3,19.4 C41.7,19.4 41.3,19 41.3,18.4 L41.3,13.2 C41.3,12.6 41.7,12.2 42.3,12.2 C42.9,12.2 43.3,12.6 43.3,13.2 L43.3,18.4 C43.3,19 42.9,19.4 42.3,19.4 L42.3,19.4 Z" id="Shape"></path>
                                    <path d="M45.3,19.4 C44.7,19.4 44.3,19 44.3,18.4 L44.3,13.2 C44.3,12.6 44.7,12.2 45.3,12.2 C45.9,12.2 46.3,12.6 46.3,13.2 L46.3,18.4 C46.3,19 45.9,19.4 45.3,19.4 L45.3,19.4 Z" id="Shape"></path>
                                    <path d="M64.3,19.4 L55.4,19.4 C54.8,19.4 54.4,19 54.4,18.4 L54.4,13.2 C54.4,12.6 54.8,12.2 55.4,12.2 L64.3,12.2 C64.9,12.2 65.3,12.6 65.3,13.2 L65.3,18.4 C65.3,19 64.8,19.4 64.3,19.4 L64.3,19.4 Z M56.4,17.4 L63.3,17.4 L63.3,14.2 L56.4,14.2 L56.4,17.4 L56.4,17.4 Z" id="Shape"></path>
                                    <path d="M58.3,19.4 C57.7,19.4 57.3,19 57.3,18.4 L57.3,13.2 C57.3,12.6 57.7,12.2 58.3,12.2 C58.9,12.2 59.3,12.6 59.3,13.2 L59.3,18.4 C59.3,19 58.9,19.4 58.3,19.4 L58.3,19.4 Z" id="Shape"></path>
                                    <path d="M61.3,19.4 C60.7,19.4 60.3,19 60.3,18.4 L60.3,13.2 C60.3,12.6 60.7,12.2 61.3,12.2 C61.9,12.2 62.3,12.6 62.3,13.2 L62.3,18.4 C62.3,19 61.9,19.4 61.3,19.4 L61.3,19.4 Z" id="Shape"></path>
                                    <path d="M41.3,14.2 C40.7,14.2 40.3,13.8 40.3,13.2 L40.3,9.4 C40.3,8.8 40.7,8.4 41.3,8.4 C41.9,8.4 42.3,8.8 42.3,9.4 L42.3,13.2 C42.3,13.7 41.9,14.2 41.3,14.2 L41.3,14.2 Z" id="Shape"></path>
                                    <path d="M46.3,14.2 C45.7,14.2 45.3,13.8 45.3,13.2 L45.3,9.4 C45.3,8.8 45.7,8.4 46.3,8.4 C46.9,8.4 47.3,8.8 47.3,9.4 L47.3,13.2 C47.3,13.7 46.9,14.2 46.3,14.2 L46.3,14.2 Z" id="Shape"></path>
                                    <path d="M46.3,10.4 L41.3,10.4 C40.7,10.4 40.3,10 40.3,9.4 C40.3,8.8 40.7,8.4 41.3,8.4 L46.3,8.4 C46.9,8.4 47.3,8.8 47.3,9.4 C47.3,10 46.9,10.4 46.3,10.4 L46.3,10.4 Z" id="Shape"></path>
                                    <path d="M57.3,14.2 C56.7,14.2 56.3,13.8 56.3,13.2 L56.3,9.4 C56.3,8.8 56.7,8.4 57.3,8.4 C57.9,8.4 58.3,8.8 58.3,9.4 L58.3,13.2 C58.3,13.7 57.9,14.2 57.3,14.2 L57.3,14.2 Z" id="Shape"></path>
                                    <path d="M62.3,14.2 C61.7,14.2 61.3,13.8 61.3,13.2 L61.3,9.4 C61.3,8.8 61.7,8.4 62.3,8.4 C62.9,8.4 63.3,8.8 63.3,9.4 L63.3,13.2 C63.3,13.7 62.9,14.2 62.3,14.2 L62.3,14.2 Z" id="Shape"></path>
                                    <path d="M62.3,10.4 L57.3,10.4 C56.7,10.4 56.3,10 56.3,9.4 C56.3,8.8 56.7,8.4 57.3,8.4 L62.3,8.4 C62.9,8.4 63.3,8.8 63.3,9.4 C63.3,10 62.9,10.4 62.3,10.4 L62.3,10.4 Z" id="Shape"></path>
                                    <path d="M48.3,33.4 L39.4,33.4 C38.8,33.4 38.4,33 38.4,32.4 L38.4,27.2 C38.4,26.6 38.8,26.2 39.4,26.2 L48.3,26.2 C48.9,26.2 49.3,26.6 49.3,27.2 L49.3,32.4 C49.3,33 48.8,33.4 48.3,33.4 L48.3,33.4 Z M40.4,31.4 L47.3,31.4 L47.3,28.2 L40.4,28.2 L40.4,31.4 L40.4,31.4 Z" id="Shape"></path>
                                    <path d="M42.3,33.4 C41.7,33.4 41.3,33 41.3,32.4 L41.3,27.2 C41.3,26.6 41.7,26.2 42.3,26.2 C42.9,26.2 43.3,26.6 43.3,27.2 L43.3,32.4 C43.3,33 42.9,33.4 42.3,33.4 L42.3,33.4 Z" id="Shape"></path>
                                    <path d="M45.3,33.4 C44.7,33.4 44.3,33 44.3,32.4 L44.3,27.2 C44.3,26.6 44.7,26.2 45.3,26.2 C45.9,26.2 46.3,26.6 46.3,27.2 L46.3,32.4 C46.3,33 45.9,33.4 45.3,33.4 L45.3,33.4 Z" id="Shape"></path>
                                    <path d="M64.3,33.4 L55.4,33.4 C54.8,33.4 54.4,33 54.4,32.4 L54.4,27.2 C54.4,26.6 54.8,26.2 55.4,26.2 L64.3,26.2 C64.9,26.2 65.3,26.6 65.3,27.2 L65.3,32.4 C65.3,33 64.8,33.4 64.3,33.4 L64.3,33.4 Z M56.4,31.4 L63.3,31.4 L63.3,28.2 L56.4,28.2 L56.4,31.4 L56.4,31.4 Z" id="Shape"></path>
                                    <path d="M58.3,33.4 C57.7,33.4 57.3,33 57.3,32.4 L57.3,27.2 C57.3,26.6 57.7,26.2 58.3,26.2 C58.9,26.2 59.3,26.6 59.3,27.2 L59.3,32.4 C59.3,33 58.9,33.4 58.3,33.4 L58.3,33.4 Z" id="Shape"></path>
                                    <path d="M61.3,33.4 C60.7,33.4 60.3,33 60.3,32.4 L60.3,27.2 C60.3,26.6 60.7,26.2 61.3,26.2 C61.9,26.2 62.3,26.6 62.3,27.2 L62.3,32.4 C62.3,33 61.9,33.4 61.3,33.4 L61.3,33.4 Z" id="Shape"></path>
                                    <path d="M41.3,28.2 C40.7,28.2 40.3,27.8 40.3,27.2 L40.3,23.4 C40.3,22.8 40.7,22.4 41.3,22.4 C41.9,22.4 42.3,22.8 42.3,23.4 L42.3,27.2 C42.3,27.7 41.9,28.2 41.3,28.2 L41.3,28.2 Z" id="Shape"></path>
                                    <path d="M46.3,28.2 C45.7,28.2 45.3,27.8 45.3,27.2 L45.3,23.4 C45.3,22.8 45.7,22.4 46.3,22.4 C46.9,22.4 47.3,22.8 47.3,23.4 L47.3,27.2 C47.3,27.7 46.9,28.2 46.3,28.2 L46.3,28.2 Z" id="Shape"></path>
                                    <path d="M46.3,24.4 L41.3,24.4 C40.7,24.4 40.3,24 40.3,23.4 C40.3,22.8 40.7,22.4 41.3,22.4 L46.3,22.4 C46.9,22.4 47.3,22.8 47.3,23.4 C47.3,24 46.9,24.4 46.3,24.4 L46.3,24.4 Z" id="Shape"></path>
                                    <path d="M57.3,28.2 C56.7,28.2 56.3,27.8 56.3,27.2 L56.3,23.4 C56.3,22.8 56.7,22.4 57.3,22.4 C57.9,22.4 58.3,22.8 58.3,23.4 L58.3,27.2 C58.3,27.7 57.9,28.2 57.3,28.2 L57.3,28.2 Z" id="Shape"></path>
                                    <path d="M62.3,28.2 C61.7,28.2 61.3,27.8 61.3,27.2 L61.3,23.4 C61.3,22.8 61.7,22.4 62.3,22.4 C62.9,22.4 63.3,22.8 63.3,23.4 L63.3,27.2 C63.3,27.7 62.9,28.2 62.3,28.2 L62.3,28.2 Z" id="Shape"></path>
                                    <path d="M62.3,24.4 L57.3,24.4 C56.7,24.4 56.3,24 56.3,23.4 C56.3,22.8 56.7,22.4 57.3,22.4 L62.3,22.4 C62.9,22.4 63.3,22.8 63.3,23.4 C63.3,24 62.9,24.4 62.3,24.4 L62.3,24.4 Z" id="Shape"></path>
                                    <path d="M34.4,53.8 C33.8,53.8 33.4,53.4 33.4,52.8 L33.4,44 L29.8,44 L29.8,52.8 C29.8,53.4 29.4,53.8 28.8,53.8 C28.2,53.8 27.8,53.4 27.8,52.8 L27.8,43 C27.8,42.4 28.2,42 28.8,42 L34.4,42 C35,42 35.4,42.4 35.4,43 L35.4,52.8 C35.4,53.3 35,53.8 34.4,53.8 L34.4,53.8 Z" id="Shape"></path>
                                    <path d="M68,6 L35.7,6 C35.1,6 34.7,5.6 34.7,5 C34.7,4.4 35.1,4 35.7,4 L68,4 C68.6,4 69,4.4 69,5 C69,5.6 68.6,6 68,6 L68,6 Z" id="Shape"></path>
                                    <path d="M17.5,53.8 L3.5,53.8 C2.9,53.8 2.5,53.4 2.5,52.8 C2.5,52.2 2.9,51.8 3.5,51.8 L17.5,51.8 C18.1,51.8 18.5,52.2 18.5,52.8 C18.5,53.4 18.1,53.8 17.5,53.8 L17.5,53.8 Z" id="Shape"></path>
                                </g>
                            </g>
                        </g>
                    </g>
                </g>
            </g>
        </g>
    </g>
</svg>