<?xml version="1.0" encoding="UTF-8" standalone="no"?>
<svg width="84px" height="55px" viewBox="0 0 84 55" version="1.1" xmlns="http://www.w3.org/2000/svg" xmlns:xlink="http://www.w3.org/1999/xlink">
    <!-- Generator: Sketch 39.1 (31720) - http://www.bohemiancoding.com/sketch -->
    <title>Group 29</title>
    <desc>Created with Sketch.</desc>
    <defs></defs>
    <g id="-" stroke="none" stroke-width="1" fill="none" fill-rule="evenodd">
        <g id="Injiniring_Open" transform="translate(-497.000000, -1815.000000)" fill="#F05F5A">
            <g id="PROECTIROVANIE" transform="translate(0.000000, 1223.000000)">
                <g id="Group-26" transform="translate(207.000000, 219.000000)">
                    <g id="Group-25" transform="translate(4.000000, 368.000000)">
                        <g id="CHICKEN-STORE-Copy" transform="translate(264.000000, 5.000000)">
                            <g id="airtech_kurka">
                                <g id="Group-29" transform="translate(22.000000, 0.000000)">
                                    <path d="M34.6,54.7 C34,54.7 33.6,54.3 33.6,53.7 L33.6,6.5 C33.6,5.9 34,5.5 34.6,5.5 C35.2,5.5 35.6,5.9 35.6,6.5 L35.6,53.7 C35.6,54.2 35.1,54.7 34.6,54.7 L34.6,54.7 Z" id="Shape"></path>
                                    <path d="M76.4,54.7 C75.8,54.7 75.4,54.3 75.4,53.7 L75.4,6.5 C75.4,5.9 75.8,5.5 76.4,5.5 C77,5.5 77.4,5.9 77.4,6.5 L77.4,53.7 C77.4,54.2 76.9,54.7 76.4,54.7 L76.4,54.7 Z" id="Shape"></path>
                                    <path d="M79.7,7.5 L31.2,7.5 C30.6,7.5 30.2,7.1 30.2,6.5 L30.2,1.8 C30.2,1.2 30.6,0.8 31.2,0.8 L79.7,0.8 C80.3,0.8 80.7,1.2 80.7,1.8 L80.7,6.5 C80.7,7.1 80.3,7.5 79.7,7.5 L79.7,7.5 Z M32.2,5.5 L78.7,5.5 L78.7,2.8 L32.2,2.8 L32.2,5.5 L32.2,5.5 Z" id="Shape"></path>
                                    <path d="M82.4,54.7 L3.5,54.7 C2.9,54.7 2.5,54.3 2.5,53.7 C2.5,53.1 2.9,52.7 3.5,52.7 L82.4,52.7 C83,52.7 83.4,53.1 83.4,53.7 C83.4,54.3 82.9,54.7 82.4,54.7 L82.4,54.7 Z" id="Shape"></path>
                                    <path d="M55.6,54.6 C55,54.6 54.6,54.2 54.6,53.6 L54.6,50.9 C54.6,50.3 55,49.9 55.6,49.9 C56.2,49.9 56.6,50.3 56.6,50.9 L56.6,53.6 C56.6,54.1 56.2,54.6 55.6,54.6 L55.6,54.6 Z" id="Shape"></path>
                                    <path d="M39,51.9 C38.4,51.9 38,51.5 38,50.9 L38,48.2 C38,47.6 38.4,47.2 39,47.2 C39.6,47.2 40,47.6 40,48.2 L40,50.9 C40,51.4 39.6,51.9 39,51.9 L39,51.9 Z" id="Shape"></path>
                                    <path d="M51,51.9 C50.4,51.9 50,51.5 50,50.9 L50,48.2 C50,47.6 50.4,47.2 51,47.2 C51.6,47.2 52,47.6 52,48.2 L52,50.9 C52,51.4 51.6,51.9 51,51.9 L51,51.9 Z" id="Shape"></path>
                                    <path d="M55.6,51.9 L34.5,51.9 C33.9,51.9 33.5,51.5 33.5,50.9 C33.5,50.3 33.9,49.9 34.5,49.9 L55.6,49.9 C56.2,49.9 56.6,50.3 56.6,50.9 C56.6,51.5 56.2,51.9 55.6,51.9 L55.6,51.9 Z" id="Shape"></path>
                                    <path d="M51,49.2 L39,49.2 C38.4,49.2 38,48.8 38,48.2 C38,47.6 38.4,47.2 39,47.2 L51,47.2 C51.6,47.2 52,47.6 52,48.2 C52,48.8 51.6,49.2 51,49.2 L51,49.2 Z" id="Shape"></path>
                                    <path d="M48.4,48.8 C47.8,48.8 47.4,48.4 47.4,47.8 L47.4,37.5 L42.7,37.5 L42.7,47.8 C42.7,48.4 42.3,48.8 41.7,48.8 C41.1,48.8 40.7,48.4 40.7,47.8 L40.7,36.5 C40.7,35.9 41.1,35.5 41.7,35.5 L48.4,35.5 C49,35.5 49.4,35.9 49.4,36.5 L49.4,47.8 C49.4,48.3 48.9,48.8 48.4,48.8 L48.4,48.8 Z" id="Shape"></path>
                                    <path d="M69.3,45.9 L54.7,45.9 C54.1,45.9 53.7,45.5 53.7,44.9 L53.7,36.4 C53.7,35.8 54.1,35.4 54.7,35.4 L69.3,35.4 C69.9,35.4 70.3,35.8 70.3,36.4 L70.3,44.9 C70.3,45.5 69.8,45.9 69.3,45.9 L69.3,45.9 Z M55.7,43.9 L68.3,43.9 L68.3,37.4 L55.7,37.4 L55.7,43.9 L55.7,43.9 Z" id="Shape"></path>
                                    <path d="M59,45.9 C58.4,45.9 58,45.5 58,44.9 L58,36.4 C58,35.8 58.4,35.4 59,35.4 C59.6,35.4 60,35.8 60,36.4 L60,44.9 C60,45.5 59.6,45.9 59,45.9 L59,45.9 Z" id="Shape"></path>
                                    <path d="M65,45.9 C64.4,45.9 64,45.5 64,44.9 L64,36.4 C64,35.8 64.4,35.4 65,35.4 C65.6,35.4 66,35.8 66,36.4 L66,44.9 C66,45.5 65.6,45.9 65,45.9 L65,45.9 Z" id="Shape"></path>
                                    <path d="M48.4,21 L41.7,21 C41.1,21 40.7,20.6 40.7,20 L40.7,12.6 C40.7,12 41.1,11.6 41.7,11.6 L48.4,11.6 C49,11.6 49.4,12 49.4,12.6 L49.4,20 C49.4,20.5 48.9,21 48.4,21 L48.4,21 Z M42.7,19 L47.4,19 L47.4,13.6 L42.7,13.6 L42.7,19 L42.7,19 Z" id="Shape"></path>
                                    <path d="M69.3,21 L62.6,21 C62,21 61.6,20.6 61.6,20 L61.6,12.6 C61.6,12 62,11.6 62.6,11.6 L69.3,11.6 C69.9,11.6 70.3,12 70.3,12.6 L70.3,20 C70.3,20.5 69.8,21 69.3,21 L69.3,21 Z M63.6,19 L68.3,19 L68.3,13.6 L63.6,13.6 L63.6,19 L63.6,19 Z" id="Shape"></path>
                                    <path d="M48.4,33 L41.7,33 C41.1,33 40.7,32.6 40.7,32 L40.7,24.6 C40.7,24 41.1,23.6 41.7,23.6 L48.4,23.6 C49,23.6 49.4,24 49.4,24.6 L49.4,32 C49.4,32.5 48.9,33 48.4,33 L48.4,33 Z M42.7,31 L47.4,31 L47.4,25.6 L42.7,25.6 L42.7,31 L42.7,31 Z" id="Shape"></path>
                                    <path d="M58.8,21 L52.1,21 C51.5,21 51.1,20.6 51.1,20 L51.1,12.6 C51.1,12 51.5,11.6 52.1,11.6 L58.8,11.6 C59.4,11.6 59.8,12 59.8,12.6 L59.8,20 C59.8,20.5 59.4,21 58.8,21 L58.8,21 Z M53.2,19 L57.9,19 L57.9,13.6 L53.2,13.6 L53.2,19 L53.2,19 Z" id="Shape"></path>
                                    <path d="M58.8,33 L52.1,33 C51.5,33 51.1,32.6 51.1,32 L51.1,24.6 C51.1,24 51.5,23.6 52.1,23.6 L58.8,23.6 C59.4,23.6 59.8,24 59.8,24.6 L59.8,32 C59.8,32.5 59.4,33 58.8,33 L58.8,33 Z M53.2,31 L57.9,31 L57.9,25.6 L53.2,25.6 L53.2,31 L53.2,31 Z" id="Shape"></path>
                                    <path d="M69.3,33 L62.6,33 C62,33 61.6,32.6 61.6,32 L61.6,24.6 C61.6,24 62,23.6 62.6,23.6 L69.3,23.6 C69.9,23.6 70.3,24 70.3,24.6 L70.3,32 C70.3,32.5 69.8,33 69.3,33 L69.3,33 Z M63.6,31 L68.3,31 L68.3,25.6 L63.6,25.6 L63.6,31 L63.6,31 Z" id="Shape"></path>
                                    <path d="M9.5,54.6 C8.9,54.6 8.5,54.2 8.5,53.6 L8.5,30.5 C8.5,29.9 8.9,29.5 9.5,29.5 C10.1,29.5 10.5,29.9 10.5,30.5 L10.5,53.6 C10.5,54.1 10,54.6 9.5,54.6 L9.5,54.6 Z" id="Shape"></path>
                                    <path d="M22.8,54.6 C22.2,54.6 21.8,54.2 21.8,53.6 L21.8,30.5 C21.8,29.9 22.2,29.5 22.8,29.5 C23.4,29.5 23.8,29.9 23.8,30.5 L23.8,53.6 C23.8,54.1 23.4,54.6 22.8,54.6 L22.8,54.6 Z" id="Shape"></path>
                                    <path d="M29.2,31.5 L1.7,31.5 C1.1,31.5 0.7,31.1 0.7,30.5 L0.7,18.8 C0.7,18.2 1.1,17.8 1.7,17.8 L29.2,17.8 C29.8,17.8 30.2,18.2 30.2,18.8 L30.2,30.5 C30.2,31.1 29.8,31.5 29.2,31.5 L29.2,31.5 Z M2.7,29.5 L28.2,29.5 L28.2,19.8 L2.7,19.8 L2.7,29.5 L2.7,29.5 Z" id="Shape"></path>
                                </g>
                            </g>
                        </g>
                    </g>
                </g>
            </g>
        </g>
    </g>
</svg>