<?xml version="1.0" encoding="UTF-8" standalone="no"?>
<svg width="87px" height="46px" viewBox="0 0 87 46" version="1.1" xmlns="http://www.w3.org/2000/svg" xmlns:xlink="http://www.w3.org/1999/xlink">
    <!-- Generator: Sketch 39.1 (31720) - http://www.bohemiancoding.com/sketch -->
    <title>Group 35</title>
    <desc>Created with Sketch.</desc>
    <defs></defs>
    <g id="-" stroke="none" stroke-width="1" fill="none" fill-rule="evenodd">
        <g id="Injiniring_Open" transform="translate(-796.000000, -1456.000000)" fill="#F05F5A">
            <g id="PROECTIROVANIE" transform="translate(0.000000, 1223.000000)">
                <g id="Group-26" transform="translate(207.000000, 219.000000)">
                    <g id="Group-6">
                        <g id="OVOSHEHRANILISHE" transform="translate(529.000000, 14.000000)">
                            <g id="Group-18-Copy">
                                <g id="Group-35" transform="translate(60.000000, 0.000000)">
                                    <path d="M74.6,45.6 C74,45.6 73.6,45.2 73.6,44.6 L73.6,17.7 C73.6,17.1 74,16.7 74.6,16.7 C75.2,16.7 75.6,17.1 75.6,17.7 L75.6,44.6 C75.6,45.2 75.1,45.6 74.6,45.6 L74.6,45.6 Z" id="Shape"></path>
                                    <path d="M67.5,45.6 C66.9,45.6 66.5,45.2 66.5,44.6 L66.5,17.7 C66.5,17.1 66.9,16.7 67.5,16.7 C68.1,16.7 68.5,17.1 68.5,17.7 L68.5,44.6 C68.5,45.2 68,45.6 67.5,45.6 L67.5,45.6 Z" id="Shape"></path>
                                    <path d="M82.6,22 L12.1,22 C11.5,22 11.1,21.6 11.1,21 L11.1,13.6 C11.1,13 11.5,12.6 12.1,12.6 L82.6,12.6 C83.2,12.6 83.6,13 83.6,13.6 L83.6,21 C83.6,21.6 83.2,22 82.6,22 L82.6,22 Z M13.1,20 L81.6,20 L81.6,14.6 L13.1,14.6 L13.1,20 L13.1,20 Z" id="Shape"></path>
                                    <path d="M15.1,45.6 C14.5,45.6 14.1,45.2 14.1,44.6 L14.1,42.8 C14.1,42.2 14.5,41.8 15.1,41.8 C15.7,41.8 16.1,42.2 16.1,42.8 L16.1,44.6 C16.1,45.2 15.7,45.6 15.1,45.6 L15.1,45.6 Z" id="Shape"></path>
                                    <path d="M15.1,34 C14.5,34 14.1,33.6 14.1,33 L14.1,22 C14.1,21.4 14.5,21 15.1,21 C15.7,21 16.1,21.4 16.1,22 L16.1,33 C16.1,33.6 15.7,34 15.1,34 L15.1,34 Z" id="Shape"></path>
                                    <path d="M79.6,45.6 C79,45.6 78.6,45.2 78.6,44.6 L78.6,21.4 C78.6,20.8 79,20.4 79.6,20.4 C80.2,20.4 80.6,20.8 80.6,21.4 L80.6,44.6 C80.6,45.2 80.2,45.6 79.6,45.6 L79.6,45.6 Z" id="Shape"></path>
                                    <path d="M85.6,45.6 L1.6,45.6 C1,45.6 0.6,45.2 0.6,44.6 C0.6,44 1,43.6 1.6,43.6 L85.6,43.6 C86.2,43.6 86.6,44 86.6,44.6 C86.6,45.2 86.2,45.6 85.6,45.6 L85.6,45.6 Z" id="Shape"></path>
                                    <path d="M61.3,31.2 L21.4,31.2 C20.3,31.2 19.4,30.3 19.4,29.2 L19.4,26.3 C19.4,25.2 20.3,24.3 21.4,24.3 L61.3,24.3 C62.4,24.3 63.3,25.2 63.3,26.3 L63.3,29.2 C63.3,30.4 62.4,31.2 61.3,31.2 L61.3,31.2 Z M21.4,26.3 L21.4,29.2 L61.3,29.2 L61.3,26.3 L21.4,26.3 L21.4,26.3 Z" id="Shape"></path>
                                    <path d="M41.4,31.2 C40.8,31.2 40.4,30.8 40.4,30.2 L40.4,25.3 C40.4,24.7 40.8,24.3 41.4,24.3 C42,24.3 42.4,24.7 42.4,25.3 L42.4,30.2 C42.4,30.8 41.9,31.2 41.4,31.2 L41.4,31.2 Z" id="Shape"></path>
                                    <path d="M31.4,31.2 C30.8,31.2 30.4,30.8 30.4,30.2 L30.4,25.3 C30.4,24.7 30.8,24.3 31.4,24.3 C32,24.3 32.4,24.7 32.4,25.3 L32.4,30.2 C32.4,30.8 31.9,31.2 31.4,31.2 L31.4,31.2 Z" id="Shape"></path>
                                    <path d="M51.4,31.2 C50.8,31.2 50.4,30.8 50.4,30.2 L50.4,25.3 C50.4,24.7 50.8,24.3 51.4,24.3 C52,24.3 52.4,24.7 52.4,25.3 L52.4,30.2 C52.4,30.8 51.9,31.2 51.4,31.2 L51.4,31.2 Z" id="Shape"></path>
                                    <path d="M20.6,43.2 L9.7,43.2 C6.8,43.2 4.4,40.8 4.4,37.9 C4.4,35 6.8,32.6 9.7,32.6 L20.6,32.6 C23.5,32.6 25.9,35 25.9,37.9 C25.9,40.8 23.5,43.2 20.6,43.2 L20.6,43.2 Z M9.7,34.6 C7.9,34.6 6.4,36.1 6.4,37.9 C6.4,39.7 7.9,41.2 9.7,41.2 L20.6,41.2 C22.4,41.2 23.9,39.7 23.9,37.9 C23.9,36.1 22.4,34.6 20.6,34.6 L9.7,34.6 L9.7,34.6 Z" id="Shape"></path>
                                    <path d="M5.4,38.9 C4.8,38.9 4.4,38.5 4.4,37.9 L4.4,8.8 C4.4,4.9 7.5,1.8 11.4,1.8 L17.3,1.8 C21.2,1.8 24.3,4.9 24.3,8.8 C24.3,9.4 23.9,9.8 23.3,9.8 C22.7,9.8 22.3,9.4 22.3,8.8 C22.3,6 20.1,3.8 17.3,3.8 L11.4,3.8 C8.6,3.8 6.4,6 6.4,8.8 L6.4,37.9 C6.4,38.4 5.9,38.9 5.4,38.9 L5.4,38.9 Z" id="Shape"></path>
                                    <path d="M23.3,14.6 C22.7,14.6 22.3,14.2 22.3,13.6 L22.3,8.7 C22.3,8.1 22.7,7.7 23.3,7.7 C23.9,7.7 24.3,8.1 24.3,8.7 L24.3,13.6 C24.3,14.2 23.9,14.6 23.3,14.6 L23.3,14.6 Z" id="Shape"></path>
                                    <path d="M30.4,14 C29.8,14 29.4,13.6 29.4,13 L29.4,7.9 C29.4,4 32.5,0.9 36.4,0.9 L53.3,0.9 C57.2,0.9 60.3,4 60.3,7.9 C60.3,8.5 59.9,8.9 59.3,8.9 C58.7,8.9 58.3,8.5 58.3,7.9 C58.3,5.1 56.1,2.9 53.3,2.9 L36.4,2.9 C33.6,2.9 31.4,5.1 31.4,7.9 L31.4,13 C31.4,13.6 31,14 30.4,14 L30.4,14 Z" id="Shape"></path>
                                    <path d="M59.4,13.7 C58.8,13.7 58.4,13.3 58.4,12.7 L58.4,7.8 C58.4,7.2 58.8,6.8 59.4,6.8 C60,6.8 60.4,7.2 60.4,7.8 L60.4,12.7 C60.4,13.3 59.9,13.7 59.4,13.7 L59.4,13.7 Z" id="Shape"></path>
                                    <path d="M9.1,45.6 C8.5,45.6 8.1,45.2 8.1,44.6 L8.1,42.8 C8.1,42.2 8.5,41.8 9.1,41.8 C9.7,41.8 10.1,42.2 10.1,42.8 L10.1,44.6 C10.1,45.2 9.7,45.6 9.1,45.6 L9.1,45.6 Z" id="Shape"></path>
                                    <path d="M5.4,38.9 L1.6,38.9 C1,38.9 0.6,38.5 0.6,37.9 C0.6,37.3 1,36.9 1.6,36.9 L5.4,36.9 C6,36.9 6.4,37.3 6.4,37.9 C6.4,38.5 5.9,38.9 5.4,38.9 L5.4,38.9 Z" id="Shape"></path>
                                    <path d="M36.9,38.9 L24.9,38.9 C24.3,38.9 23.9,38.5 23.9,37.9 C23.9,37.3 24.3,36.9 24.9,36.9 L36.9,36.9 C37.5,36.9 37.9,37.3 37.9,37.9 C37.9,38.5 37.4,38.9 36.9,38.9 L36.9,38.9 Z" id="Shape"></path>
                                    <path d="M36.9,45.6 C36.3,45.6 35.9,45.2 35.9,44.6 L35.9,37.8 C35.9,37.2 36.3,36.8 36.9,36.8 C37.5,36.8 37.9,37.2 37.9,37.8 L37.9,44.6 C37.9,45.2 37.4,45.6 36.9,45.6 L36.9,45.6 Z" id="Shape"></path>
                                    <path d="M74.6,42.2 L67.5,42.2 C66.9,42.2 66.5,41.8 66.5,41.2 C66.5,40.6 66.9,40.2 67.5,40.2 L74.6,40.2 C75.2,40.2 75.6,40.6 75.6,41.2 C75.6,41.8 75.1,42.2 74.6,42.2 L74.6,42.2 Z" id="Shape"></path>
                                    <path d="M74.6,37.2 L67.5,37.2 C66.9,37.2 66.5,36.8 66.5,36.2 C66.5,35.6 66.9,35.2 67.5,35.2 L74.6,35.2 C75.2,35.2 75.6,35.6 75.6,36.2 C75.6,36.8 75.1,37.2 74.6,37.2 L74.6,37.2 Z" id="Shape"></path>
                                    <path d="M67.5,27.2 C66.9,27.2 66.5,26.8 66.5,26.2 C66.5,25.6 66.9,25.2 67.5,25.2 L74.6,25.2 C75.2,25.2 75.6,25.6 75.6,26.2 C75.6,26.8 75.1,27.2 74.6,27.2 L67.5,27.2 Z" id="Shape"></path>
                                    <path d="M74.6,32.2 L67.5,32.2 C66.9,32.2 66.5,31.8 66.5,31.2 C66.5,30.6 66.9,30.2 67.5,30.2 L74.6,30.2 C75.2,30.2 75.6,30.6 75.6,31.2 C75.6,31.8 75.1,32.2 74.6,32.2 L74.6,32.2 Z" id="Shape"></path>
                                </g>
                            </g>
                        </g>
                    </g>
                </g>
            </g>
        </g>
    </g>
</svg>