<?xml version="1.0" encoding="UTF-8" standalone="no"?>
<svg width="77px" height="60px" viewBox="0 0 77 60" version="1.1" xmlns="http://www.w3.org/2000/svg" xmlns:xlink="http://www.w3.org/1999/xlink">
    <!-- Generator: Sketch 39.1 (31720) - http://www.bohemiancoding.com/sketch -->
    <title>Group 39</title>
    <desc>Created with Sketch.</desc>
    <defs></defs>
    <g id="-" stroke="none" stroke-width="1" fill="none" fill-rule="evenodd">
        <g id="Injiniring_Open" transform="translate(-1126.000000, -1442.000000)" fill="#F05F5A">
            <g id="PROECTIROVANIE" transform="translate(0.000000, 1223.000000)">
                <g id="Group-26" transform="translate(207.000000, 219.000000)">
                    <g id="Group-6">
                        <g id="CHICKEN-STORE" transform="translate(897.000000, 0.000000)">
                            <g id="airtech_kurka">
                                <g id="Group-39" transform="translate(22.000000, 0.000000)">
                                    <path d="M75.7,59.4 L1.7,59.4 C1.1,59.4 0.7,59 0.7,58.4 C0.7,57.8 1.1,57.4 1.7,57.4 L75.7,57.4 C76.3,57.4 76.7,57.8 76.7,58.4 C76.7,59 76.2,59.4 75.7,59.4 L75.7,59.4 Z" id="Shape"></path>
                                    <path d="M42.3,59.2 C41.7,59.2 41.3,58.8 41.3,58.2 L41.3,51.3 L36.1,51.3 L36.1,58.2 C36.1,58.8 35.7,59.2 35.1,59.2 C34.5,59.2 34.1,58.8 34.1,58.2 L34.1,50.3 C34.1,49.7 34.5,49.3 35.1,49.3 L42.3,49.3 C42.9,49.3 43.3,49.7 43.3,50.3 L43.3,58.2 C43.3,58.8 42.8,59.2 42.3,59.2 L42.3,59.2 Z" id="Shape"></path>
                                    <path d="M45.8,18.3 L41,18.3 C40.4,18.3 40,17.9 40,17.3 L40,12 C40,11.4 40.4,11 41,11 L45.7,11 C46.3,11 46.7,11.4 46.7,12 L46.7,17.2 C46.8,17.8 46.3,18.3 45.8,18.3 L45.8,18.3 Z M42,16.3 L44.7,16.3 L44.7,13 L42,13 L42,16.3 L42,16.3 Z" id="Shape"></path>
                                    <path d="M36.3,18.3 L31.6,18.3 C31,18.3 30.6,17.9 30.6,17.3 L30.6,12 C30.6,11.4 31,11 31.6,11 L36.3,11 C36.9,11 37.3,11.4 37.3,12 L37.3,17.2 C37.3,17.8 36.9,18.3 36.3,18.3 L36.3,18.3 Z M32.6,16.3 L35.3,16.3 L35.3,13 L32.6,13 L32.6,16.3 L32.6,16.3 Z" id="Shape"></path>
                                    <path d="M36.3,27.8 L31.6,27.8 C31,27.8 30.6,27.4 30.6,26.8 L30.6,21.6 C30.6,21 31,20.6 31.6,20.6 L36.3,20.6 C36.9,20.6 37.3,21 37.3,21.6 L37.3,26.8 C37.3,27.3 36.9,27.8 36.3,27.8 L36.3,27.8 Z M32.6,25.8 L35.3,25.8 L35.3,22.6 L32.6,22.6 L32.6,25.8 L32.6,25.8 Z" id="Shape"></path>
                                    <path d="M45.8,27.8 L41,27.8 C40.4,27.8 40,27.4 40,26.8 L40,21.6 C40,21 40.4,20.6 41,20.6 L45.7,20.6 C46.3,20.6 46.7,21 46.7,21.6 L46.7,26.8 C46.8,27.3 46.3,27.8 45.8,27.8 L45.8,27.8 Z M42,25.8 L44.7,25.8 L44.7,22.6 L42,22.6 L42,25.8 L42,25.8 Z" id="Shape"></path>
                                    <path d="M45.8,37.3 L41,37.3 C40.4,37.3 40,36.9 40,36.3 L40,31 C40,30.4 40.4,30 41,30 L45.7,30 C46.3,30 46.7,30.4 46.7,31 L46.7,36.2 C46.8,36.8 46.3,37.3 45.8,37.3 L45.8,37.3 Z M42,35.3 L44.7,35.3 L44.7,32 L42,32 L42,35.3 L42,35.3 Z" id="Shape"></path>
                                    <path d="M36.3,37.3 L31.6,37.3 C31,37.3 30.6,36.9 30.6,36.3 L30.6,31 C30.6,30.4 31,30 31.6,30 L36.3,30 C36.9,30 37.3,30.4 37.3,31 L37.3,36.2 C37.3,36.8 36.9,37.3 36.3,37.3 L36.3,37.3 Z M32.6,35.3 L35.3,35.3 L35.3,32 L32.6,32 L32.6,35.3 L32.6,35.3 Z" id="Shape"></path>
                                    <path d="M61,59.4 C60.4,59.4 60,59 60,58.4 L60,7.7 L17.4,7.7 L17.4,58.4 C17.4,59 17,59.4 16.4,59.4 C15.8,59.4 15.4,59 15.4,58.4 L15.4,6.7 C15.4,6.1 15.8,5.7 16.4,5.7 L61,5.7 C61.6,5.7 62,6.1 62,6.7 L62,58.4 C62,58.9 61.6,59.4 61,59.4 L61,59.4 Z" id="Shape"></path>
                                    <path d="M49.5,59.4 C48.9,59.4 48.5,59 48.5,58.4 L48.5,2.7 L28.9,2.7 L28.9,58.4 C28.9,59 28.5,59.4 27.9,59.4 C27.3,59.4 26.9,59 26.9,58.4 L26.9,1.7 C26.9,1.1 27.3,0.7 27.9,0.7 L49.5,0.7 C50.1,0.7 50.5,1.1 50.5,1.7 L50.5,58.4 C50.5,58.9 50,59.4 49.5,59.4 L49.5,59.4 Z" id="Shape"></path>
                                    <path d="M69.4,45.9 L7.9,45.9 C7.3,45.9 6.9,45.5 6.9,44.9 C6.9,44.3 7.3,43.9 7.9,43.9 L69.4,43.9 C70,43.9 70.4,44.3 70.4,44.9 C70.4,45.5 70,45.9 69.4,45.9 L69.4,45.9 Z" id="Shape"></path>
                                    <path d="M11.8,59.4 C11.2,59.4 10.8,59 10.8,58.4 L10.8,44.9 C10.8,44.3 11.2,43.9 11.8,43.9 C12.4,43.9 12.8,44.3 12.8,44.9 L12.8,58.4 C12.8,58.9 12.3,59.4 11.8,59.4 L11.8,59.4 Z" id="Shape"></path>
                                    <path d="M65.6,59.4 C65,59.4 64.6,59 64.6,58.4 L64.6,44.9 C64.6,44.3 65,43.9 65.6,43.9 C66.2,43.9 66.6,44.3 66.6,44.9 L66.6,58.4 C66.6,59 66.1,59.4 65.6,59.4 L65.6,59.4 Z" id="Shape"></path>
                                    <path d="M27.9,13 L16.4,13 C15.8,13 15.4,12.6 15.4,12 C15.4,11.4 15.8,11 16.4,11 L27.9,11 C28.5,11 28.9,11.4 28.9,12 C28.9,12.6 28.5,13 27.9,13 L27.9,13 Z" id="Shape"></path>
                                    <path d="M27.9,18.4 L16.4,18.4 C15.8,18.4 15.4,18 15.4,17.4 C15.4,16.8 15.8,16.4 16.4,16.4 L27.9,16.4 C28.5,16.4 28.9,16.8 28.9,17.4 C28.9,18 28.5,18.4 27.9,18.4 L27.9,18.4 Z" id="Shape"></path>
                                    <path d="M27.9,23.8 L16.4,23.8 C15.8,23.8 15.4,23.4 15.4,22.8 C15.4,22.2 15.8,21.8 16.4,21.8 L27.9,21.8 C28.5,21.8 28.9,22.2 28.9,22.8 C28.9,23.4 28.5,23.8 27.9,23.8 L27.9,23.8 Z" id="Shape"></path>
                                    <path d="M27.9,29.2 L16.4,29.2 C15.8,29.2 15.4,28.8 15.4,28.2 C15.4,27.6 15.8,27.2 16.4,27.2 L27.9,27.2 C28.5,27.2 28.9,27.6 28.9,28.2 C28.9,28.8 28.5,29.2 27.9,29.2 L27.9,29.2 Z" id="Shape"></path>
                                    <path d="M27.9,34.6 L16.4,34.6 C15.8,34.6 15.4,34.2 15.4,33.6 C15.4,33 15.8,32.6 16.4,32.6 L27.9,32.6 C28.5,32.6 28.9,33 28.9,33.6 C28.9,34.2 28.5,34.6 27.9,34.6 L27.9,34.6 Z" id="Shape"></path>
                                    <path d="M27.9,40 L16.4,40 C15.8,40 15.4,39.6 15.4,39 C15.4,38.4 15.8,38 16.4,38 L27.9,38 C28.5,38 28.9,38.4 28.9,39 C28.9,39.6 28.5,40 27.9,40 L27.9,40 Z" id="Shape"></path>
                                    <path d="M61,13 L49.5,13 C48.9,13 48.5,12.6 48.5,12 C48.5,11.4 48.9,11 49.5,11 L61,11 C61.6,11 62,11.4 62,12 C62,12.6 61.6,13 61,13 L61,13 Z" id="Shape"></path>
                                    <path d="M61,18.4 L49.5,18.4 C48.9,18.4 48.5,18 48.5,17.4 C48.5,16.8 48.9,16.4 49.5,16.4 L61,16.4 C61.6,16.4 62,16.8 62,17.4 C62,18 61.6,18.4 61,18.4 L61,18.4 Z" id="Shape"></path>
                                    <path d="M61,23.8 L49.5,23.8 C48.9,23.8 48.5,23.4 48.5,22.8 C48.5,22.2 48.9,21.8 49.5,21.8 L61,21.8 C61.6,21.8 62,22.2 62,22.8 C62,23.4 61.6,23.8 61,23.8 L61,23.8 Z" id="Shape"></path>
                                    <path d="M61,29.2 L49.5,29.2 C48.9,29.2 48.5,28.8 48.5,28.2 C48.5,27.6 48.9,27.2 49.5,27.2 L61,27.2 C61.6,27.2 62,27.6 62,28.2 C62,28.8 61.6,29.2 61,29.2 L61,29.2 Z" id="Shape"></path>
                                    <path d="M61,34.6 L49.5,34.6 C48.9,34.6 48.5,34.2 48.5,33.6 C48.5,33 48.9,32.6 49.5,32.6 L61,32.6 C61.6,32.6 62,33 62,33.6 C62,34.2 61.6,34.6 61,34.6 L61,34.6 Z" id="Shape"></path>
                                    <path d="M61,40 L49.5,40 C48.9,40 48.5,39.6 48.5,39 C48.5,38.4 48.9,38 49.5,38 L61,38 C61.6,38 62,38.4 62,39 C62,39.6 61.6,40 61,40 L61,40 Z" id="Shape"></path>
                                </g>
                            </g>
                        </g>
                    </g>
                </g>
            </g>
        </g>
    </g>
</svg>