<?xml version="1.0" encoding="UTF-8" standalone="no"?>
<svg width="78px" height="46px" viewBox="0 0 78 46" version="1.1" xmlns="http://www.w3.org/2000/svg" xmlns:xlink="http://www.w3.org/1999/xlink">
    <!-- Generator: Sketch 39.1 (31720) - http://www.bohemiancoding.com/sketch -->
    <title>Group 33</title>
    <desc>Created with Sketch.</desc>
    <defs></defs>
    <g id="-" stroke="none" stroke-width="1" fill="none" fill-rule="evenodd">
        <g id="Injiniring_Open" transform="translate(-237.000000, -1640.000000)" fill="#F05F5A">
            <g id="PROECTIROVANIE" transform="translate(0.000000, 1223.000000)">
                <g id="Group-26" transform="translate(207.000000, 219.000000)">
                    <g id="Group-21" transform="translate(11.000000, 185.000000)">
                        <g id="HOLODILNIE-SKLADI" transform="translate(0.000000, 13.000000)">
                            <g id="Group-33" transform="translate(19.000000, 0.000000)">
                                <path d="M42,16.2 L4.5,16.2 C3.9,16.2 3.5,15.8 3.5,15.2 L3.5,8.4 C3.5,7.8 3.9,7.4 4.5,7.4 L41.8,7.4 C42.4,7.4 42.8,7.8 42.8,8.4 C42.8,9 42.4,9.4 41.8,9.4 L5.5,9.4 L5.5,14.2 L42,14.2 C42.6,14.2 43,14.6 43,15.2 C43,15.8 42.6,16.2 42,16.2 L42,16.2 Z" id="Shape"></path>
                                <path d="M73.6,16.2 L64.6,16.2 C64,16.2 63.6,15.8 63.6,15.2 C63.6,14.6 64,14.2 64.6,14.2 L72.6,14.2 L72.6,9.4 L64.2,9.4 C63.6,9.4 63.2,9 63.2,8.4 C63.2,7.8 63.6,7.4 64.2,7.4 L73.6,7.4 C74.2,7.4 74.6,7.8 74.6,8.4 L74.6,15.2 C74.6,15.7 74.2,16.2 73.6,16.2 L73.6,16.2 Z" id="Shape"></path>
                                <path d="M7.2,46 C6.6,46 6.2,45.6 6.2,45 L6.2,15.2 C6.2,14.6 6.6,14.2 7.2,14.2 C7.8,14.2 8.2,14.6 8.2,15.2 L8.2,45 C8.2,45.6 7.8,46 7.2,46 L7.2,46 Z" id="Shape"></path>
                                <path d="M70.9,46 C70.3,46 69.9,45.6 69.9,45 L69.9,15.6 C69.9,15 70.3,14.6 70.9,14.6 C71.5,14.6 71.9,15 71.9,15.6 L71.9,45 C71.9,45.6 71.4,46 70.9,46 L70.9,46 Z" id="Shape"></path>
                                <path d="M76.4,46 L1.8,46 C1.2,46 0.8,45.6 0.8,45 C0.8,44.4 1.2,44 1.8,44 L76.4,44 C77,44 77.4,44.4 77.4,45 C77.4,45.6 76.9,46 76.4,46 L76.4,46 Z" id="Shape"></path>
                                <path d="M20,46 C19.4,46 19,45.6 19,45 L19,38.2 L15.4,38.2 L15.4,45 C15.4,45.6 15,46 14.4,46 C13.8,46 13.4,45.6 13.4,45 L13.4,37.2 C13.4,36.6 13.8,36.2 14.4,36.2 L20,36.2 C20.6,36.2 21,36.6 21,37.2 L21,45 C21,45.6 20.6,46 20,46 L20,46 Z" id="Shape"></path>
                                <path d="M64.3,46 L42.4,46 C41.8,46 41.4,45.6 41.4,45 L41.4,1 C41.4,0.4 41.8,0 42.4,0 L64.3,0 C64.9,0 65.3,0.4 65.3,1 L65.3,45 C65.3,45.6 64.8,46 64.3,46 L64.3,46 Z M43.3,44 L63.2,44 L63.2,2 L43.3,2 L43.3,44 L43.3,44 Z" id="Shape"></path>
                                <path d="M42.3,22.2 L7.2,22.2 C6.6,22.2 6.2,21.8 6.2,21.2 C6.2,20.6 6.6,20.2 7.2,20.2 L42.3,20.2 C42.9,20.2 43.3,20.6 43.3,21.2 C43.3,21.8 42.9,22.2 42.3,22.2 L42.3,22.2 Z" id="Shape"></path>
                                <path d="M70.9,22.2 L64.3,22.2 C63.7,22.2 63.3,21.8 63.3,21.2 C63.3,20.6 63.7,20.2 64.3,20.2 L70.9,20.2 C71.5,20.2 71.9,20.6 71.9,21.2 C71.9,21.8 71.4,22.2 70.9,22.2 L70.9,22.2 Z" id="Shape"></path>
                                <path d="M42.3,28.2 L7.2,28.2 C6.6,28.2 6.2,27.8 6.2,27.2 C6.2,26.6 6.6,26.2 7.2,26.2 L42.3,26.2 C42.9,26.2 43.3,26.6 43.3,27.2 C43.3,27.8 42.9,28.2 42.3,28.2 L42.3,28.2 Z" id="Shape"></path>
                                <path d="M70.9,28.2 L64.3,28.2 C63.7,28.2 63.3,27.8 63.3,27.2 C63.3,26.6 63.7,26.2 64.3,26.2 L70.9,26.2 C71.5,26.2 71.9,26.6 71.9,27.2 C71.9,27.8 71.4,28.2 70.9,28.2 L70.9,28.2 Z" id="Shape"></path>
                                <path d="M42.3,34.2 L7.2,34.2 C6.6,34.2 6.2,33.8 6.2,33.2 C6.2,32.6 6.6,32.2 7.2,32.2 L42.3,32.2 C42.9,32.2 43.3,32.6 43.3,33.2 C43.3,33.8 42.9,34.2 42.3,34.2 L42.3,34.2 Z" id="Shape"></path>
                                <path d="M70.9,34.2 L64.3,34.2 C63.7,34.2 63.3,33.8 63.3,33.2 C63.3,32.6 63.7,32.2 64.3,32.2 L70.9,32.2 C71.5,32.2 71.9,32.6 71.9,33.2 C71.9,33.8 71.4,34.2 70.9,34.2 L70.9,34.2 Z" id="Shape"></path>
                                <path d="M24.4,34.2 C23.8,34.2 23.4,33.8 23.4,33.2 L23.4,15.1 C23.4,14.5 23.8,14.1 24.4,14.1 C25,14.1 25.4,14.5 25.4,15.1 L25.4,33.2 C25.4,33.8 24.9,34.2 24.4,34.2 L24.4,34.2 Z" id="Shape"></path>
                                <path d="M15.8,34.2 C15.2,34.2 14.8,33.8 14.8,33.2 L14.8,15.1 C14.8,14.5 15.2,14.1 15.8,14.1 C16.4,14.1 16.8,14.5 16.8,15.1 L16.8,33.2 C16.8,33.8 16.3,34.2 15.8,34.2 L15.8,34.2 Z" id="Shape"></path>
                                <path d="M33.2,34.2 C32.6,34.2 32.2,33.8 32.2,33.2 L32.2,15.1 C32.2,14.5 32.6,14.1 33.2,14.1 C33.8,14.1 34.2,14.5 34.2,15.1 L34.2,33.2 C34.2,33.8 33.8,34.2 33.2,34.2 L33.2,34.2 Z" id="Shape"></path>
                                <path d="M53.3,26.1 C48.2,26.1 44.1,22 44.1,16.9 C44.1,11.8 48.2,7.7 53.3,7.7 C58.4,7.7 62.5,11.8 62.5,16.9 C62.5,22 58.4,26.1 53.3,26.1 L53.3,26.1 Z M53.3,9.6 C49.3,9.6 46.1,12.9 46.1,16.8 C46.1,20.7 49.4,24 53.3,24 C57.2,24 60.5,20.7 60.5,16.8 C60.5,12.9 57.3,9.6 53.3,9.6 L53.3,9.6 Z" id="Shape"></path>
                                <path d="M53.3,22.8 C50,22.8 47.4,20.1 47.4,16.9 C47.4,13.7 50.1,11 53.3,11 C56.5,11 59.2,13.7 59.2,16.9 C59.2,20.1 56.6,22.8 53.3,22.8 L53.3,22.8 Z M53.3,12.9 C51.1,12.9 49.4,14.7 49.4,16.8 C49.4,19 51.2,20.7 53.3,20.7 C55.5,20.7 57.2,18.9 57.2,16.8 C57.3,14.6 55.5,12.9 53.3,12.9 L53.3,12.9 Z" id="Shape"></path>
                                <path d="M53.3,22.7 C52.7,22.7 52.3,22.3 52.3,21.7 L52.3,11.8 C52.3,11.2 52.7,10.8 53.3,10.8 C53.9,10.8 54.3,11.2 54.3,11.8 L54.3,21.7 C54.3,22.3 53.9,22.7 53.3,22.7 L53.3,22.7 Z" id="Shape"></path>
                                <path d="M57.6,20.3 C57.4,20.3 57.3,20.3 57.1,20.2 L48.6,15.3 C48.1,15 48,14.4 48.2,13.9 C48.4,13.4 49.1,13.3 49.6,13.5 L58.1,18.4 C58.6,18.7 58.7,19.3 58.5,19.8 C58.3,20.1 57.9,20.3 57.6,20.3 L57.6,20.3 Z" id="Shape"></path>
                                <path d="M49,20.3 C48.7,20.3 48.3,20.1 48.1,19.8 C47.8,19.3 48,18.7 48.5,18.4 L57,13.5 C57.5,13.2 58.1,13.4 58.4,13.9 C58.7,14.4 58.5,15 58,15.3 L49.5,20.2 C49.4,20.2 49.2,20.3 49,20.3 L49,20.3 Z" id="Shape"></path>
                            </g>
                        </g>
                    </g>
                </g>
            </g>
        </g>
    </g>
</svg>