<?xml version="1.0" encoding="UTF-8" standalone="no"?>
<svg width="49px" height="71px" viewBox="0 0 49 71" version="1.1" xmlns="http://www.w3.org/2000/svg" xmlns:xlink="http://www.w3.org/1999/xlink">
    <!-- Generator: Sketch 39.1 (31720) - http://www.bohemiancoding.com/sketch -->
    <title>water</title>
    <desc>Created with Sketch.</desc>
    <defs></defs>
    <g id="-" stroke="none" stroke-width="1" fill="none" fill-rule="evenodd">
        <g id="main_page_red" transform="translate(-381.000000, -1511.000000)">
            <g id="SERVICES" transform="translate(258.000000, 1349.000000)">
                <g id="Group-11" transform="translate(0.000000, 140.000000)">
                    <g id="Group-10">
                        <g id="water" transform="translate(123.000000, 22.000000)">
                            <path d="M42.1,38.2 C40.8,38.2 39.6,38.6 38.5,39.3 L38.5,39.3 C37.9,39.7 36.6,40.3 35.4,40.2 C34.1,40 33.2,39.3 32.6,38.2 L32.6,38.2 C29.7,33.5 24.5,30.3 18.6,30.3 C9.5,30.3 2.2,37.6 2.2,46.7 C2.2,55.8 9,61.1 17.2,64.4 C25.6,67.8 16.9,66.5 28.3,65.6 C28.8,65.6 37.1,62 36.6,62.2 C42.4,59.7 40.6,58.6 42.1,57.1 C44.5,54.7 47.4,48 47.4,44.5 C47.4,41 45.6,38.2 42.1,38.2 L42.1,38.2 Z" id="Shape" fill="#FFCACA"></path>
                            <circle id="Oval" fill="#FFFFFF" cx="8.6" cy="41" r="1.4"></circle>
                            <path d="M24.5,66.6 L24.5,66.6 C23.6,66.6 22.7,66.5 21.7,66.4 C10.8,65.2 1.9,56.4 0.5,45.4 C-0.4,38.3 1.8,31.6 6.5,26.3 C7.5,25 8.7,23.6 10.1,22 C14.5,16.9 20,10.7 22.3,2.4 C22.6,1.5 23.4,0.8 24.4,0.8 L24.4,0.8 C25.4,0.8 26.3,1.5 26.6,2.4 C29,10.9 34.9,17.7 39.2,22.6 C40.4,23.9 41.5,25.2 42.4,26.3 C46.4,30.7 48.6,36.4 48.6,42.4 C48.6,48.8 46.1,54.9 41.5,59.4 C37,64.1 30.9,66.6 24.5,66.6 L24.5,66.6 Z M24.5,2.9 C24.4,2.9 24.3,3 24.3,3.1 C21.9,11.8 16.2,18.3 11.7,23.5 C10.4,25 9.1,26.4 8.2,27.7 C3.8,32.6 1.8,38.8 2.6,45.3 C3.8,55.3 12,63.4 22,64.5 C28.8,65.3 35.4,62.9 40.2,58.2 C44.4,54 46.7,48.5 46.7,42.6 C46.7,37.1 44.7,31.9 41,27.8 C40.1,26.7 39,25.4 37.9,24.1 C33.5,19 27.4,12.1 24.8,3.1 C24.6,2.9 24.6,2.9 24.5,2.9 L24.5,2.9 Z" id="Shape" fill="#F05F5A"></path>
                            <path d="M18.4,58.1 C18.3,58.1 18.1,58.1 18,58 C12.9,55.9 9.1,51.3 8,45.9 C7.9,45.4 8.2,44.8 8.8,44.7 C9.3,44.6 9.9,44.9 10,45.5 C11,50.3 14.3,54.2 18.8,56.1 C19.3,56.3 19.6,56.9 19.3,57.4 C19.2,57.8 18.8,58.1 18.4,58.1 L18.4,58.1 Z" id="Shape" fill="#FFFFFF"></path>
                            <path d="M24.5,70.8 C17.7,70.8 11.1,68.3 6,63.9 C5.6,63.5 5.5,62.9 5.9,62.5 C6.3,62.1 6.9,62 7.3,62.4 C12.1,66.6 18.2,68.8 24.5,68.8 C30.8,68.8 36.9,66.5 41.7,62.4 C42.1,62 42.7,62.1 43.1,62.5 C43.5,62.9 43.4,63.5 43,63.9 C37.9,68.4 31.3,70.8 24.5,70.8 L24.5,70.8 Z" id="Shape" fill="#F05F5A"></path>
                        </g>
                    </g>
                </g>
            </g>
        </g>
    </g>
</svg>