<?xml version="1.0" encoding="UTF-8" standalone="no"?>
<svg width="110px" height="61px" viewBox="0 0 110 61" version="1.1" xmlns="http://www.w3.org/2000/svg" xmlns:xlink="http://www.w3.org/1999/xlink">
    <!-- Generator: Sketch 39.1 (31720) - http://www.bohemiancoding.com/sketch -->
    <title>Air</title>
    <desc>Created with Sketch.</desc>
    <defs></defs>
    <g id="-" stroke="none" stroke-width="1" fill="none" fill-rule="evenodd">
        <g id="main_page_red" transform="translate(-509.000000, -1730.000000)">
            <g id="SERVICES" transform="translate(258.000000, 1349.000000)">
                <g id="Group-11" transform="translate(0.000000, 140.000000)">
                    <g id="Group-10-Copy-3" transform="translate(158.000000, 211.000000)">
                        <g id="Air" transform="translate(93.000000, 30.000000)">
                            <circle id="Oval" fill="#1D87E4" cx="21.6" cy="40.7" r="2"></circle>
                            <path d="M76.3,61 L10.6,61 L10.6,5.9 C10.6,3.1 12.8,0.9 15.6,0.9 L76.3,0.9 C79.1,0.9 81.3,3.1 81.3,5.9 L81.3,56 C81.3,58.7 79.1,61 76.3,61 L76.3,61 Z" id="Shape" fill="#FFCACA"></path>
                            <path d="M95.4,20.8 L87,20.8 C86.4,20.8 86,20.4 86,19.8 C86,19.2 86.4,18.8 87,18.8 L95.4,18.8 C96,18.8 96.4,19.2 96.4,19.8 C96.4,20.4 95.9,20.8 95.4,20.8 L95.4,20.8 Z" id="Shape" fill="#FFCACA"></path>
                            <path d="M95.4,20.8 C94.8,20.8 94.4,20.4 94.4,19.8 C94.4,19.2 94.8,18.8 95.4,18.8 C96.6,18.8 97.6,17.8 97.6,16.6 C97.6,15.4 96.6,14.4 95.4,14.4 C94.4,14.4 93.6,15 93.3,16 C93.1,16.5 92.6,16.8 92,16.7 C91.5,16.5 91.2,16 91.3,15.4 C91.9,13.6 93.5,12.4 95.3,12.4 C97.6,12.4 99.5,14.3 99.5,16.6 C99.5,18.9 97.7,20.8 95.4,20.8 L95.4,20.8 Z" id="Shape" fill="#FFCACA"></path>
                            <path d="M95.4,32.7 L87,32.7 C86.4,32.7 86,32.3 86,31.7 C86,31.1 86.4,30.7 87,30.7 L95.4,30.7 C96,30.7 96.4,31.1 96.4,31.7 C96.4,32.3 95.9,32.7 95.4,32.7 L95.4,32.7 Z" id="Shape" fill="#FFCACA"></path>
                            <path d="M95.4,39.1 C93.5,39.1 91.9,37.9 91.4,36.1 C91.2,35.6 91.5,35 92.1,34.8 C92.6,34.6 93.2,34.9 93.4,35.5 C93.7,36.4 94.5,37.1 95.5,37.1 C96.7,37.1 97.7,36.1 97.7,34.9 C97.7,33.7 96.7,32.7 95.5,32.7 C94.9,32.7 94.5,32.3 94.5,31.7 C94.5,31.1 94.9,30.7 95.5,30.7 C97.8,30.7 99.7,32.6 99.7,34.9 C99.7,37.2 97.7,39.1 95.4,39.1 L95.4,39.1 Z" id="Shape" fill="#FFCACA"></path>
                            <path d="M105,26.8 L87,26.8 C86.4,26.8 86,26.4 86,25.8 C86,25.2 86.4,24.8 87,24.8 L105,24.8 C105.6,24.8 106,25.2 106,25.8 C106,26.4 105.5,26.8 105,26.8 L105,26.8 Z" id="Shape" fill="#FFCACA"></path>
                            <path d="M105,26.8 C104.4,26.8 104,26.4 104,25.8 C104,25.2 104.4,24.8 105,24.8 C106.3,24.8 107.4,23.7 107.4,22.4 C107.4,21.1 106.3,20 105,20 C103.7,20 102.6,21.1 102.6,22.4 C102.6,23 102.2,23.4 101.6,23.4 C101,23.4 100.6,23 100.6,22.4 C100.6,20 102.6,18 105,18 C107.4,18 109.4,20 109.4,22.4 C109.3,24.8 107.4,26.8 105,26.8 L105,26.8 Z" id="Shape" fill="#FFCACA"></path>
                            <circle id="Oval" fill="#FFFFFF" cx="21.6" cy="45.2" r="4.1"></circle>
                            <path d="M21.6,50.3 C18.8,50.3 16.5,48 16.5,45.2 C16.5,42.4 18.8,40.1 21.6,40.1 C24.4,40.1 26.7,42.4 26.7,45.2 C26.8,48 24.5,50.3 21.6,50.3 L21.6,50.3 Z M21.6,42 C19.9,42 18.5,43.4 18.5,45.1 C18.5,46.8 19.9,48.2 21.6,48.2 C23.3,48.2 24.7,46.8 24.7,45.1 C24.8,43.5 23.4,42 21.6,42 L21.6,42 Z" id="Shape" fill="#F05F5A"></path>
                            <circle id="Oval" fill="#FFFFFF" cx="55.4" cy="29.7" r="19.6"></circle>
                            <path d="M55.4,50.3 C44,50.3 34.8,41.1 34.8,29.7 C34.8,18.3 44,9.1 55.4,9.1 C66.8,9.1 76,18.3 76,29.7 C76,41.1 66.7,50.3 55.4,50.3 L55.4,50.3 Z M55.4,11.1 C45.2,11.1 36.8,19.4 36.8,29.7 C36.8,40 45.1,48.3 55.4,48.3 C65.7,48.3 74,40 74,29.7 C74,19.4 65.6,11.1 55.4,11.1 L55.4,11.1 Z" id="Shape" fill="#F05F5A"></path>
                            <circle id="Oval" fill="#FFFFFF" cx="55.4" cy="29.7" r="14"></circle>
                            <path d="M55.4,44.7 C47.1,44.7 40.4,38 40.4,29.7 C40.4,21.4 47.1,14.7 55.4,14.7 C63.7,14.7 70.4,21.4 70.4,29.7 C70.4,38 63.6,44.7 55.4,44.7 L55.4,44.7 Z M55.4,16.7 C48.2,16.7 42.4,22.5 42.4,29.7 C42.4,36.9 48.2,42.7 55.4,42.7 C62.6,42.7 68.4,36.9 68.4,29.7 C68.4,22.5 62.5,16.7 55.4,16.7 L55.4,16.7 Z" id="Shape" fill="#F05F5A"></path>
                            <circle id="Oval" fill="#FFFFFF" cx="55.2" cy="29.7" r="8.4"></circle>
                            <path d="M55.2,39.1 C50,39.1 45.8,34.9 45.8,29.7 C45.8,24.5 50,20.3 55.2,20.3 C60.4,20.3 64.6,24.5 64.6,29.7 C64.6,34.9 60.4,39.1 55.2,39.1 L55.2,39.1 Z M55.2,22.3 C51.1,22.3 47.8,25.6 47.8,29.7 C47.8,33.8 51.1,37.1 55.2,37.1 C59.3,37.1 62.6,33.8 62.6,29.7 C62.6,25.6 59.3,22.3 55.2,22.3 L55.2,22.3 Z" id="Shape" fill="#F05F5A"></path>
                            <path d="M35.8,29.7 L75,29.7" id="Shape" fill="#FFFFFF"></path>
                            <path d="M75,30.7 L35.8,30.7 C35.2,30.7 34.8,30.3 34.8,29.7 C34.8,29.1 35.2,28.7 35.8,28.7 L75,28.7 C75.6,28.7 76,29.1 76,29.7 C76,30.3 75.5,30.7 75,30.7 L75,30.7 Z" id="Shape" fill="#F05F5A"></path>
                            <path d="M55.4,10.1 L55.4,48.9" id="Shape" fill="#FFFFFF"></path>
                            <path d="M55.4,49.9 C54.8,49.9 54.4,49.5 54.4,48.9 L54.4,10.1 C54.4,9.5 54.8,9.1 55.4,9.1 C56,9.1 56.4,9.5 56.4,10.1 L56.4,48.9 C56.4,49.4 55.9,49.9 55.4,49.9 L55.4,49.9 Z" id="Shape" fill="#F05F5A"></path>
                            <path d="M41.7,16 L69.1,43.4" id="Shape" fill="#FFFFFF"></path>
                            <path d="M69.1,44.4 C68.8,44.4 68.6,44.3 68.4,44.1 L41,16.7 C40.6,16.3 40.6,15.7 41,15.3 C41.4,14.9 42,14.9 42.4,15.3 L69.8,42.7 C70.2,43.1 70.2,43.7 69.8,44.1 C69.6,44.3 69.3,44.4 69.1,44.4 L69.1,44.4 Z" id="Shape" fill="#F05F5A"></path>
                            <path d="M41.7,43.4 L69.1,16" id="Shape" fill="#FFFFFF"></path>
                            <path d="M41.7,44.4 C41.4,44.4 41.2,44.3 41,44.1 C40.6,43.7 40.6,43.1 41,42.7 L68.4,15.3 C68.8,14.9 69.4,14.9 69.8,15.3 C70.2,15.7 70.2,16.3 69.8,16.7 L42.4,44.1 C42.2,44.3 41.9,44.4 41.7,44.4 L41.7,44.4 Z" id="Shape" fill="#F05F5A"></path>
                            <path d="M2.7,31.2 L0.7,31.2 C0.7,27.5 3.7,24.5 7.4,24.5 L7.4,26.5 C4.8,26.5 2.7,28.6 2.7,31.2 L2.7,31.2 Z" id="Shape" fill="#FFCACA"></path>
                            <rect id="Rectangle-path" fill="#FFCACA" x="7.4" y="24.5" width="3.1" height="2"></rect>
                            <polygon id="Shape" fill="#FFCACA" points="10.6 60.9 0.7 60.9 0.7 30.9 2.7 30.9 2.7 58.9 10.6 58.9"></polygon>
                        </g>
                    </g>
                </g>
            </g>
        </g>
    </g>
</svg>