<?xml version="1.0" encoding="UTF-8" standalone="no"?>
<svg width="64px" height="60px" viewBox="0 0 64 60" version="1.1" xmlns="http://www.w3.org/2000/svg" xmlns:xlink="http://www.w3.org/1999/xlink">
    <!-- Generator: Sketch 39.1 (31720) - http://www.bohemiancoding.com/sketch -->
    <title>electro</title>
    <desc>Created with Sketch.</desc>
    <defs></defs>
    <g id="-" stroke="none" stroke-width="1" fill="none" fill-rule="evenodd">
        <g id="main_page_red" transform="translate(-1004.000000, -1520.000000)">
            <g id="SERVICES" transform="translate(258.000000, 1349.000000)">
                <g id="Group-11" transform="translate(0.000000, 140.000000)">
                    <g id="Group-10-Copy-2" transform="translate(630.000000, 0.000000)">
                        <g id="electro" transform="translate(116.000000, 31.000000)">
                            <path d="M57.0947368,60 L7.49473684,60 C4.71578947,60 2.44210526,57.7183099 2.44210526,54.9295775 C2.44210526,54.9295775 0.757894737,43.6056338 0.757894737,30.084507 C0.757894737,16.5633803 2.44210526,5.23943662 2.44210526,5.23943662 C2.44210526,2.45070423 4.71578947,0.169014085 7.49473684,0.169014085 L57.0947368,0.169014085 C59.8736842,0.169014085 62.1473684,2.45070423 62.1473684,5.23943662 C62.1473684,5.23943662 63.8315789,16.5633803 63.8315789,30.084507 C63.8315789,43.6056338 62.1473684,54.9295775 62.1473684,54.9295775 C62.1473684,57.7183099 59.8736842,60 57.0947368,60 L57.0947368,60 Z" id="Shape" fill="#FFCACA"></path>
                            <path d="M53.8105263,53.6619718 L10.8631579,53.6619718 C9.43157895,53.6619718 8.33684211,52.5633803 8.33684211,51.1267606 L8.33684211,8.87323944 C8.33684211,7.43661972 9.43157895,6.33802817 10.8631579,6.33802817 L53.8105263,6.33802817 C55.2421053,6.33802817 56.3368421,7.43661972 56.3368421,8.87323944 L56.3368421,51.1267606 C56.3368421,52.5633803 55.1578947,53.6619718 53.8105263,53.6619718 L53.8105263,53.6619718 Z M10.8631579,8.02816901 C10.3578947,8.02816901 10.0210526,8.36619718 10.0210526,8.87323944 L10.0210526,51.1267606 C10.0210526,51.6338028 10.3578947,51.971831 10.8631579,51.971831 L53.8105263,51.971831 C54.3157895,51.971831 54.6526316,51.6338028 54.6526316,51.1267606 L54.6526316,8.87323944 C54.6526316,8.36619718 54.3157895,8.02816901 53.8105263,8.02816901 L10.8631579,8.02816901 L10.8631579,8.02816901 Z" id="Shape" fill="#F05F5A"></path>
                            <path d="M8.33684211,21.6338028 C7.83157895,21.6338028 7.49473684,21.2957746 7.49473684,20.7887324 L7.49473684,15.8028169 C7.49473684,15.2957746 7.83157895,14.9577465 8.33684211,14.9577465 C8.84210526,14.9577465 9.17894737,15.2957746 9.17894737,15.8028169 L9.17894737,20.7887324 C9.17894737,21.2112676 8.75789474,21.6338028 8.33684211,21.6338028 L8.33684211,21.6338028 Z" id="Shape" fill="#F05F5A"></path>
                            <path d="M8.33684211,45.1267606 C7.83157895,45.1267606 7.49473684,44.7887324 7.49473684,44.2816901 L7.49473684,39.2957746 C7.49473684,38.7887324 7.83157895,38.4507042 8.33684211,38.4507042 C8.84210526,38.4507042 9.17894737,38.7887324 9.17894737,39.2957746 L9.17894737,44.2816901 C9.17894737,44.7042254 8.75789474,45.1267606 8.33684211,45.1267606 L8.33684211,45.1267606 Z" id="Shape" fill="#F05F5A"></path>
                            <path d="M27.8736842,24.5070423 L23.0736842,31.0985915 C22.5684211,31.7746479 23.0736842,32.7887324 23.9157895,32.7042254 L28.8,32.1971831 C29.4736842,32.1126761 29.9789474,32.7042254 29.8947368,33.3802817 L27.7052632,45.1267606 C27.4526316,46.1408451 28.8,46.7323944 29.4736842,45.971831 L41.5157895,28.9859155 C42.0210526,28.3098592 41.5157895,27.2957746 40.6736842,27.3802817 L35.7894737,27.8873239 C35.1157895,27.971831 34.6105263,27.3802817 34.6947368,26.7042254 L36.8842105,14.9577465 C37.1368421,13.943662 35.7894737,13.3521127 35.1157895,14.1126761 L27.8736842,24.5070423 L27.8736842,24.5070423 Z" id="Shape" fill="#FFFFFF"></path>
                            <path d="M28.7157895,47.1549296 C28.1263158,47.1549296 27.6210526,46.9014085 27.2842105,46.4788732 C26.9473684,46.056338 26.7789474,45.5492958 26.9473684,44.9577465 L29.1368421,33.2112676 L29.1368421,33.0422535 L29.0526316,32.9577465 L24.0842105,33.4647887 L23.9157895,33.4647887 L23.9157895,33.4647887 C23.2421053,33.4647887 22.5684211,33.0422535 22.3157895,32.4507042 C21.9789474,31.7746479 22.0631579,31.0985915 22.4842105,30.5070423 L27.2842105,24 L34.5263158,13.6056338 C35.2842105,12.5915493 36.7157895,12.6760563 37.3894737,13.5211268 C37.7263158,13.943662 37.8947368,14.4507042 37.7263158,15.0422535 L35.5368421,26.7887324 L35.5368421,26.9577465 L35.6210526,27.0422535 L40.5894737,26.5352113 C41.3473684,26.4507042 42.1052632,26.8732394 42.4421053,27.5492958 C42.7789474,28.2253521 42.6947368,28.9014085 42.2736842,29.4929577 L30.2315789,46.3943662 C29.8105263,46.9014085 29.3052632,47.1549296 28.7157895,47.1549296 L28.7157895,47.1549296 Z M28.9684211,31.2676056 C29.5578947,31.2676056 30.0631579,31.5211268 30.4,31.943662 C30.7368421,32.3661972 30.9052632,32.9577465 30.7368421,33.4647887 L28.5473684,45.2112676 L28.5473684,45.3802817 C28.6315789,45.4647887 28.6315789,45.5492958 28.8,45.3802817 L40.8421053,28.4788732 C40.8421053,28.3943662 40.9263158,28.3943662 40.8421053,28.3098592 L40.7578947,28.2253521 L35.7894737,28.7323944 C35.2,28.8169014 34.6105263,28.5633803 34.1894737,28.056338 C33.8526316,27.6338028 33.6842105,27.0422535 33.8526316,26.5352113 L36.0421053,14.7887324 L36.0421053,14.6197183 C35.9578947,14.5352113 35.9578947,14.4507042 35.7894737,14.6197183 L28.5473684,25.0140845 L23.7473684,31.6056338 C23.7473684,31.6056338 23.6631579,31.6901408 23.7473684,31.7746479 L23.8315789,31.8591549 L28.8,31.3521127 C28.8,31.3521127 28.8842105,31.2676056 28.9684211,31.2676056 L28.9684211,31.2676056 Z" id="Shape" fill="#F05F5A"></path>
                        </g>
                    </g>
                </g>
            </g>
        </g>
    </g>
</svg>