<?xml version="1.0" encoding="UTF-8" standalone="no"?>
<svg width="83px" height="64px" viewBox="0 0 83 64" version="1.1" xmlns="http://www.w3.org/2000/svg" xmlns:xlink="http://www.w3.org/1999/xlink">
    <!-- Generator: Sketch 39.1 (31720) - http://www.bohemiancoding.com/sketch -->
    <title>heat</title>
    <desc>Created with Sketch.</desc>
    <defs></defs>
    <g id="-" stroke="none" stroke-width="1" fill="none" fill-rule="evenodd">
        <g id="main_page_red" transform="translate(-679.000000, -1516.000000)">
            <g id="SERVICES" transform="translate(258.000000, 1349.000000)">
                <g id="Group-11" transform="translate(0.000000, 140.000000)">
                    <g id="Group-10-Copy" transform="translate(315.000000, 0.000000)">
                        <g id="heat" transform="translate(106.000000, 27.000000)">
                            <path d="M68,63.4 L60.8,63.4 C59.7,63.4 58.8,62.5 58.8,61.4 L58.8,2.3 C58.8,1.2 59.7,0.3 60.8,0.3 L68,0.3 C69.1,0.3 70,1.2 70,2.3 L70,61.4 C70,62.5 69.1,63.4 68,63.4 L68,63.4 Z" id="Shape" fill="#FFCACA"></path>
                            <path d="M53.5,63.5 L46.3,63.5 C45.2,63.5 44.3,62.6 44.3,61.5 L44.3,2.4 C44.3,1.3 45.2,0.4 46.3,0.4 L53.5,0.4 C54.6,0.4 55.5,1.3 55.5,2.4 L55.5,61.5 C55.5,62.6 54.6,63.5 53.5,63.5 L53.5,63.5 Z" id="Shape" fill="#FFCACA"></path>
                            <path d="M58.8,15.8 L54.8,15.8 C54.2,15.8 53.8,15.4 53.8,14.8 C53.8,14.2 54.2,13.8 54.8,13.8 L58.8,13.8 C59.4,13.8 59.8,14.2 59.8,14.8 C59.8,15.4 59.3,15.8 58.8,15.8 L58.8,15.8 Z" id="Shape" fill="#FFCACA"></path>
                            <path d="M44.8,15.8 L40.8,15.8 C40.2,15.8 39.8,15.4 39.8,14.8 C39.8,14.2 40.2,13.8 40.8,13.8 L44.8,13.8 C45.4,13.8 45.8,14.2 45.8,14.8 C45.8,15.4 45.3,15.8 44.8,15.8 L44.8,15.8 Z" id="Shape" fill="#FFCACA"></path>
                            <path d="M58.8,49.8 L54.8,49.8 C54.2,49.8 53.8,49.4 53.8,48.8 C53.8,48.2 54.2,47.8 54.8,47.8 L58.8,47.8 C59.4,47.8 59.8,48.2 59.8,48.8 C59.8,49.4 59.3,49.8 58.8,49.8 L58.8,49.8 Z" id="Shape" fill="#FFCACA"></path>
                            <path d="M44.8,49.8 L40.8,49.8 C40.2,49.8 39.8,49.4 39.8,48.8 C39.8,48.2 40.2,47.8 40.8,47.8 L44.8,47.8 C45.4,47.8 45.8,48.2 45.8,48.8 C45.8,49.4 45.3,49.8 44.8,49.8 L44.8,49.8 Z" id="Shape" fill="#FFCACA"></path>
                            <rect id="Rectangle-path" fill="#FFCACA" x="0.2" y="20" width="2" height="24.4"></rect>
                            <path d="M5.5,49.7 C2.5,49.7 0.1,47.3 0.1,44.3 L2.1,44.3 C2.1,46.2 3.6,47.7 5.5,47.7 L5.5,49.7 L5.5,49.7 Z" id="Shape" fill="#FFCACA"></path>
                            <path d="M2.2,20 L0.2,20 C0.2,16.6 2.9,13.9 6.3,13.9 L6.3,15.9 C4,15.8 2.2,17.7 2.2,20 L2.2,20 Z" id="Shape" fill="#FFCACA"></path>
                            <path d="M14.6,19.3 L11.1,19.3 C10,19.3 9.1,18.4 9.1,17.3 L9.1,12.3 C9.1,11.2 10,10.3 11.1,10.3 L14.6,10.3 C15.7,10.3 19.6,11.2 19.6,12.3 L19.6,17.3 C19.6,18.4 15.7,19.3 14.6,19.3 L14.6,19.3 Z" id="Shape" fill="#FFCACA"></path>
                            <path d="M71.7,19.3 L68.2,19.3 C67.1,19.3 66.2,18.4 66.2,17.3 L66.2,12.3 C66.2,11.2 67.1,10.3 68.2,10.3 L71.7,10.3 C72.8,10.3 73.7,11.2 73.7,12.3 L73.7,17.3 C73.7,18.4 72.8,19.3 71.7,19.3 L71.7,19.3 Z" id="Shape" fill="#FFCACA"></path>
                            <path d="M14.6,53.3 L11.1,53.3 C10,53.3 9.1,52.4 9.1,51.3 L9.1,46.3 C9.1,45.2 10,44.3 11.1,44.3 L14.6,44.3 C15.7,44.3 19.6,45.2 19.6,46.3 L19.6,51.3 C19.6,52.4 15.7,53.3 14.6,53.3 L14.6,53.3 Z" id="Shape" fill="#FFCACA"></path>
                            <path d="M71.7,53.7 L68.2,53.7 C67.1,53.7 66.2,52.8 66.2,51.7 L66.2,46.7 C66.2,45.6 67.1,44.7 68.2,44.7 L71.7,44.7 C72.8,44.7 73.7,45.6 73.7,46.7 L73.7,51.7 C73.7,52.8 72.8,53.7 71.7,53.7 L71.7,53.7 Z" id="Shape" fill="#FFCACA"></path>
                            <path d="M38.8,63.4 L15.8,63.4 C14.7,63.4 13.8,62.5 13.8,61.4 L13.8,2.3 C13.8,1.2 14.7,0.3 15.8,0.3 L38.8,0.3 C39.9,0.3 40.8,1.2 40.8,2.3 L40.8,61.4 C40.8,62.5 39.9,63.4 38.8,63.4 L38.8,63.4 Z" id="Shape" fill="#FFCACA"></path>
                            <path d="M18.7,47.9 C18.6,48.3 18.6,48.7 18.6,49.2 C18.6,54 22.5,57.9 27.3,57.9 C32.1,57.9 36,54 36,49.2 C36,46 34.3,43.3 31.7,41.8 L31.7,14.8 C31.7,12.4 29.7,10.4 27.3,10.4 C24.9,10.4 22.9,12.4 22.9,14.8 L22.9,41.8 C22.1,42.3 21.4,42.9 20.8,43.5 C20.7,43.4 19,45.4 18.7,47.9 L18.7,47.9 Z" id="Shape" fill="#FFFFFF"></path>
                            <path d="M27.3,58.8 C22,58.8 17.6,54.5 17.6,49.1 C17.6,48.6 17.6,48.2 17.7,47.7 C18.1,44.9 19.9,42.8 20,42.7 C20.5,42.1 21.2,41.5 21.9,41.1 L21.9,14.7 C21.9,11.7 24.3,9.3 27.3,9.3 C30.3,9.3 32.7,11.7 32.7,14.7 L32.7,41.1 C35.3,42.9 37,45.9 37,49.1 C36.9,54.5 32.6,58.8 27.3,58.8 L27.3,58.8 Z M27.3,11.3 C25.4,11.3 23.9,12.8 23.9,14.7 L23.9,41.7 C23.9,42.1 23.7,42.4 23.4,42.6 C22.7,43 22.1,43.5 21.5,44.1 C21.5,44.1 20,45.9 19.7,48 C19.6,48.4 19.6,48.8 19.6,49.1 C19.6,53.3 23,56.8 27.3,56.8 C31.5,56.8 35,53.4 35,49.1 C35,46.4 33.6,43.9 31.2,42.5 C30.9,42.3 30.7,42 30.7,41.6 L30.7,14.6 C30.7,12.9 29.1,11.3 27.3,11.3 L27.3,11.3 Z" id="Shape" fill="#F05F5A"></path>
                            <circle id="Oval" fill="#FFFFFF" cx="27.3" cy="49.2" r="4.3"></circle>
                            <path d="M27.3,54.5 C24.4,54.5 22,52.1 22,49.2 C22,46.3 24.4,43.9 27.3,43.9 C30.2,43.9 32.6,46.3 32.6,49.2 C32.6,52.1 30.2,54.5 27.3,54.5 L27.3,54.5 Z M27.3,45.8 C25.5,45.8 24,47.3 24,49.1 C24,50.9 25.5,52.4 27.3,52.4 C29.1,52.4 30.6,50.9 30.6,49.1 C30.6,47.3 29.1,45.8 27.3,45.8 L27.3,45.8 Z" id="Shape" fill="#F05F5A"></path>
                            <path d="M27.3,45.8 C26.7,45.8 26.3,45.4 26.3,44.8 L26.3,28.9 C26.3,28.3 26.7,27.9 27.3,27.9 C27.9,27.9 28.3,28.3 28.3,28.9 L28.3,44.8 C28.3,45.4 27.8,45.8 27.3,45.8 L27.3,45.8 Z" id="Shape" fill="#F05F5A"></path>
                            <rect id="Rectangle-path" fill="#FFCACA" x="6.3" y="13.8" width="2.8" height="2"></rect>
                            <rect id="Rectangle-path" fill="#FFCACA" x="5.5" y="47.7" width="3.5" height="2"></rect>
                            <rect id="Rectangle-path" fill="#FFCACA" x="80.6" y="20" width="2" height="24.4"></rect>
                            <path d="M77.2,49.8 L77.2,47.8 C79.1,47.8 80.6,46.3 80.6,44.4 L82.6,44.4 C82.6,47.4 80.2,49.8 77.2,49.8 L77.2,49.8 Z" id="Shape" fill="#FFCACA"></path>
                            <path d="M82.6,20 L80.6,20 C80.6,17.7 78.8,15.9 76.5,15.9 L76.5,13.9 C79.9,13.9 82.6,16.7 82.6,20 L82.6,20 Z" id="Shape" fill="#FFCACA"></path>
                            <rect id="Rectangle-path" fill="#FFCACA" x="73.7" y="13.9" width="2.8" height="2"></rect>
                            <rect id="Rectangle-path" fill="#FFCACA" x="73.7" y="47.8" width="3.5" height="2"></rect>
                        </g>
                    </g>
                </g>
            </g>
        </g>
    </g>
</svg>