<?xml version="1.0" encoding="UTF-8" standalone="no"?>
<svg width="102px" height="58px" viewBox="0 0 102 58" version="1.1" xmlns="http://www.w3.org/2000/svg" xmlns:xlink="http://www.w3.org/1999/xlink">
    <!-- Generator: Sketch 39.1 (31720) - http://www.bohemiancoding.com/sketch -->
    <title>teplo</title>
    <desc>Created with Sketch.</desc>
    <defs></defs>
    <g id="-" stroke="none" stroke-width="1" fill="none" fill-rule="evenodd">
        <g id="main_page_red" transform="translate(-828.000000, -1733.000000)">
            <g id="SERVICES" transform="translate(258.000000, 1349.000000)">
                <g id="Group-11" transform="translate(0.000000, 140.000000)">
                    <g id="Group-10-Copy-4" transform="translate(473.000000, 211.000000)">
                        <g id="teplo" transform="translate(97.000000, 33.000000)">
                            <g id="Layer_1">
                                <path d="M42.1,57.2 L29.6,57.2 C28.5,57.2 27.6,56.3 27.6,55.2 L27.6,2.9 C27.6,1.8 28.5,0.9 29.6,0.9 L42.1,0.9 C43.2,0.9 44.1,1.8 44.1,2.9 L44.1,55.2 C44.1,56.3 43.2,57.2 42.1,57.2 L42.1,57.2 Z" id="Shape" fill="#FFCACA"></path>
                                <rect id="Rectangle-path" fill="#FFCACA" x="41.9" y="24.2" width="29.3" height="9.7"></rect>
                                <rect id="Rectangle-path" fill="#FFCACA" x="41.9" y="10.2" width="29.3" height="9.7"></rect>
                                <rect id="Rectangle-path" fill="#FFCACA" x="41.9" y="2.4" width="29.3" height="3.7"></rect>
                                <rect id="Rectangle-path" fill="#FFCACA" x="41.9" y="52" width="29.3" height="3.7"></rect>
                                <rect id="Rectangle-path" fill="#FFCACA" x="41.9" y="38.2" width="29.3" height="9.7"></rect>
                                <path d="M87.6,57.2 L70.2,57.2 L70.2,0.9 L87.5,0.9 C95.2,0.9 101.5,7.2 101.5,14.9 L101.5,43.2 C101.6,50.9 95.3,57.2 87.6,57.2 L87.6,57.2 Z" id="Shape" fill="#FFCACA"></path>
                                <g id="Group" transform="translate(63.000000, 27.000000)">
                                    <circle id="Oval" fill="#FFFFFF" cx="12.9" cy="12" r="11.1"></circle>
                                    <path d="M12.9,24.2 C6.2,24.2 0.8,18.8 0.8,12.1 C0.8,5.4 6.2,0 12.9,0 C19.6,0 25,5.4 25,12.1 C25.1,18.7 19.6,24.2 12.9,24.2 L12.9,24.2 Z M12.9,1.9 C7.3,1.9 2.8,6.5 2.8,12 C2.8,17.6 7.4,22.1 12.9,22.1 C18.5,22.1 23,17.5 23,12 C23.1,6.4 18.5,1.9 12.9,1.9 L12.9,1.9 Z" id="Shape" fill="#F05F5A"></path>
                                </g>
                                <g id="Group" transform="translate(74.000000, 34.000000)">
                                    <path d="M1.9,5 L4,1.7" id="Shape" fill="#FFFFFF"></path>
                                    <path d="M1.9,6 C1.7,6 1.5,6 1.4,5.9 C0.9,5.6 0.8,5 1.1,4.5 L3.2,1.2 C3.5,0.7 4.1,0.6 4.6,0.9 C5.1,1.2 5.2,1.8 4.9,2.3 L2.8,5.6 C2.6,5.9 2.2,6 1.9,6 L1.9,6 Z" id="Shape" fill="#F05F5A"></path>
                                </g>
                                <rect id="Rectangle-path" fill="#FFCACA" x="18.6" y="12" width="14.3" height="14"></rect>
                                <rect id="Rectangle-path" fill="#FFCACA" x="20.9" y="31" width="13.3" height="21"></rect>
                                <path d="M14.4,7.4 L19.9,7.4 C21,7.4 21.9,8.3 21.9,9.4 L21.9,55.2 C21.9,56.3 21,57.2 19.9,57.2 L14.4,57.2 C13.3,57.2 12.4,56.3 12.4,55.2 L12.4,9.4 C12.4,8.3 13.3,7.4 14.4,7.4 L14.4,7.4 Z" id="Shape" fill="#FFCACA"></path>
                                <path d="M12.7,18.1 L6.5,18.1 C5.9,18.1 5.5,17.7 5.5,17.1 C5.5,16.5 5.9,16.1 6.5,16.1 L12.7,16.1 C13.3,16.1 13.7,16.5 13.7,17.1 C13.7,17.7 13.3,18.1 12.7,18.1 L12.7,18.1 Z" id="Shape" fill="#FFCACA"></path>
                                <path d="M1.1,23.6 C0.5,23.6 0.1,23.2 0.1,22.6 C0.1,19 3,16.1 6.6,16.1 C7.2,16.1 7.6,16.5 7.6,17.1 C7.6,17.7 7.2,18.1 6.6,18.1 C4.1,18.1 2.1,20.1 2.1,22.6 C2.1,23.2 1.6,23.6 1.1,23.6 L1.1,23.6 Z" id="Shape" fill="#FFCACA"></path>
                                <path d="M12.7,51.6 L6.5,51.6 C5.9,51.6 5.5,51.2 5.5,50.6 C5.5,50 5.9,49.6 6.5,49.6 L12.7,49.6 C13.3,49.6 13.7,50 13.7,50.6 C13.7,51.2 13.3,51.6 12.7,51.6 L12.7,51.6 Z" id="Shape" fill="#FFCACA"></path>
                                <path d="M6.6,51.6 C3,51.6 0.1,48.7 0.1,45.1 C0.1,44.5 0.5,44.1 1.1,44.1 C1.7,44.1 2.1,44.5 2.1,45.1 C2.1,47.6 4.1,49.6 6.6,49.6 C7.2,49.6 7.6,50 7.6,50.6 C7.6,51.2 7.1,51.6 6.6,51.6 L6.6,51.6 Z" id="Shape" fill="#FFCACA"></path>
                                <path d="M1.1,46.1 C0.5,46.1 0.1,45.7 0.1,45.1 L0.1,22.6 C0.1,22 0.5,21.6 1.1,21.6 C1.7,21.6 2.1,22 2.1,22.6 L2.1,45.1 C2.1,45.7 1.6,46.1 1.1,46.1 L1.1,46.1 Z" id="Shape" fill="#FFCACA"></path>
                                <path d="M83.1,40 C82.5,40 82.1,39.6 82.1,39 C82.1,35.6 79.3,32.8 75.9,32.8 C72.5,32.8 69.7,35.6 69.7,39 C69.7,39.6 69.3,40 68.7,40 C68.1,40 67.7,39.6 67.7,39 C67.7,34.5 71.4,30.8 75.9,30.8 C80.4,30.8 84.1,34.5 84.1,39 C84.1,39.6 83.7,40 83.1,40 L83.1,40 Z" id="Shape" fill="#F05F5A"></path>
                                <path d="M69.7,43.6 C69.4,43.6 69,43.4 68.8,43.1 C68.1,41.9 67.7,40.4 67.7,39 C67.7,38.4 68.1,38 68.7,38 C69.3,38 69.7,38.4 69.7,39 C69.7,40.1 70,41.2 70.5,42.1 C70.8,42.6 70.6,43.2 70.1,43.5 C70,43.6 69.8,43.6 69.7,43.6 L69.7,43.6 Z" id="Shape" fill="#F05F5A"></path>
                                <path d="M82.2,43.6 C82,43.6 81.9,43.6 81.7,43.5 C81.2,43.2 81.1,42.6 81.3,42.1 C81.8,41.2 82.1,40.1 82.1,39 C82.1,38.4 82.5,38 83.1,38 C83.7,38 84.1,38.4 84.1,39 C84.1,40.4 83.7,41.9 83,43.1 C82.8,43.4 82.5,43.6 82.2,43.6 L82.2,43.6 Z" id="Shape" fill="#F05F5A"></path>
                                <circle id="Oval" fill="#F05F5A" cx="75.9" cy="39" r="2.1"></circle>
                            </g>
                        </g>
                    </g>
                </g>
            </g>
        </g>
    </g>
</svg>