<?xml version="1.0" encoding="UTF-8" standalone="no"?>
<svg width="43px" height="43px" viewBox="0 0 43 43" version="1.1" xmlns="http://www.w3.org/2000/svg" xmlns:xlink="http://www.w3.org/1999/xlink">
    <!-- Generator: Sketch 39.1 (31720) - http://www.bohemiancoding.com/sketch -->
    <title>Layer_1</title>
    <desc>Created with Sketch.</desc>
    <defs>
        <linearGradient x1="12.8810937%" y1="103.011328%" x2="87.1188281%" y2="-3.01125%" id="linearGradient-1">
            <stop stop-color="#FFB900" offset="0%"></stop>
            <stop stop-color="#9100EB" offset="100%"></stop>
        </linearGradient>
    </defs>
    <g id="Symbols" stroke="none" stroke-width="1" fill="none" fill-rule="evenodd">
        <g id="INSTAGRAM" transform="translate(-569.000000, -52.000000)">
            <g id="title">
                <g transform="translate(422.000000, 49.000000)">
                    <g transform="translate(147.000000, 0.000000)">
                        <g id="1466625356_social-instagram-new-square2" transform="translate(0.000000, 3.000000)">
                            <g id="Layer_1">
                                <path d="M43,37.625 C43,40.58125 40.58125,43 37.625,43 L5.375,43 C2.41875,43 0,40.58125 0,37.625 L0,5.375 C0,2.41875 2.41875,0 5.375,0 L37.625,0 C40.58125,0 43,2.41875 43,5.375 L43,37.625 L43,37.625 Z" id="Shape" fill="url(#linearGradient-1)"></path>
                                <g id="Group" transform="translate(5.375000, 5.375000)" fill="#FFFFFF">
                                    <path d="M23.515625,32.25 L8.734375,32.25 C3.918375,32.25 0,28.3319609 0,23.515625 L0,8.734375 C0,3.918375 3.918375,0 8.734375,0 L23.515625,0 C28.3319609,0 32.25,3.918375 32.25,8.734375 L32.25,23.515625 C32.25,28.3319609 28.3319609,32.25 23.515625,32.25 L23.515625,32.25 Z M8.734375,2.6875 C5.40019531,2.6875 2.6875,5.40019531 2.6875,8.734375 L2.6875,23.515625 C2.6875,26.8498047 5.40019531,29.5625 8.734375,29.5625 L23.515625,29.5625 C26.8498047,29.5625 29.5625,26.8498047 29.5625,23.515625 L29.5625,8.734375 C29.5625,5.40019531 26.8498047,2.6875 23.515625,2.6875 L8.734375,2.6875 L8.734375,2.6875 Z" id="Shape"></path>
                                    <path d="M16.125,24.1875 C11.6792031,24.1875 8.0625,20.5704609 8.0625,16.125 C8.0625,11.6792031 11.6792031,8.0625 16.125,8.0625 C20.5704609,8.0625 24.1875,11.6792031 24.1875,16.125 C24.1875,20.5704609 20.5704609,24.1875 16.125,24.1875 L16.125,24.1875 Z M16.125,10.75 C13.1613594,10.75 10.75,13.1613594 10.75,16.125 C10.75,19.0886406 13.1613594,21.5 16.125,21.5 C19.0886406,21.5 21.5,19.0886406 21.5,16.125 C21.5,13.1613594 19.0886406,10.75 16.125,10.75 L16.125,10.75 Z" id="Shape"></path>
                                    <ellipse id="Oval" cx="24.6914062" cy="7.55859375" rx="1.84765625" ry="1.84765625"></ellipse>
                                </g>
                            </g>
                        </g>
                    </g>
                </g>
            </g>
        </g>
    </g>
</svg>