<?xml version="1.0" encoding="UTF-8" standalone="no"?>
<svg width="65px" height="65px" viewBox="0 0 65 65" version="1.1" xmlns="http://www.w3.org/2000/svg" xmlns:xlink="http://www.w3.org/1999/xlink">
    <!-- Generator: Sketch 39.1 (31720) - http://www.bohemiancoding.com/sketch -->
    <title>Logo 1</title>
    <desc>Created with Sketch.</desc>
    <defs></defs>
    <g id="Symbols" stroke="none" stroke-width="1" fill="none" fill-rule="evenodd">
        <g id="FOOTER" transform="translate(-94.000000, -60.000000)" fill="#FFFFFF">
            <g id="Group">
                <g transform="translate(94.000000, 43.000000)">
                    <g id="Logo-1" transform="translate(0.000000, 17.000000)">
                        <path d="M18.7189683,0.02028 L18.7189683,21.02932 C18.7189683,23.63816 16.8169444,25.8102 14.2489286,26.13364 L0.284761905,27.8928 L0.284761905,6.88428 C0.284761905,4.27492 2.18626984,2.1034 4.75480159,1.77996 L18.7189683,0.02028" id="Fill-8"></path>
                        <path d="M41.7614683,0.02028 L41.7614683,21.02932 C41.7614683,23.63816 39.8594444,25.8102 37.2919444,26.13364 L23.3272619,27.8928 L23.3272619,6.88428 C23.3272619,4.27492 25.2292857,2.1034 27.7973016,1.77996 L41.7614683,0.02028" id="Fill-9"></path>
                        <path d="M64.8044841,0.02028 L64.8044841,21.02932 C64.8044841,23.63816 62.9024603,25.8102 60.3344444,26.13364 L46.3702778,27.8928 L46.3702778,6.88428 C46.3702778,4.27492 48.2723016,2.1034 50.8403175,1.77996 L64.8044841,0.02028" id="Fill-10"></path>
                        <path d="M64.8044841,53.94688 L63.0721825,53.94688 C61.1134127,53.94688 59.4321825,52.96824 58.4530556,51.25848 L56.2425397,47.39956 L42.790119,47.39956 L42.790119,53.94688 C40.4980952,53.94688 38.6228968,52.05668 38.6228968,49.74632 L38.6228968,32.53848 L60.6372619,32.53848 C62.9292857,32.53848 64.8044841,34.42868 64.8044841,36.73904 L64.8044841,43.24268 C64.7817857,45.39548 63.1325397,47.17388 61.0427381,47.3798 L64.8044841,53.94688 Z M42.790119,43.199 L60.5222222,43.199 L60.5222222,36.73904 L42.790119,36.73904 L42.790119,43.199 Z M34.5996032,49.74632 C34.5996032,52.05668 32.7244048,53.94688 30.432381,53.94688 L30.4318651,49.74632 L30.4318651,32.53848 L34.5996032,32.53848 L34.5996032,49.74632 L34.5996032,49.74632 Z M0.284761905,47.39956 L0.284761905,36.73904 C0.284761905,34.42868 2.15996032,32.53848 4.45198413,32.53848 L22.299127,32.53848 C24.5911508,32.53848 26.4663492,34.42868 26.4663492,36.73904 L26.4663492,49.74632 C26.4663492,52.05668 24.5911508,53.94688 22.299127,53.94688 L22.299127,47.39956 L4.45198413,47.39956 L4.45198413,53.94688 C2.15996032,53.94688 0.284761905,52.05668 0.284761905,49.74632 L0.284761905,47.39956 L0.284761905,47.39956 Z M4.45198413,43.199 L22.299127,43.199 L22.299127,36.73904 L4.45198413,36.73904 L4.45198413,43.199 Z" id="Fill-11"></path>
                        <path d="M1.95,63.89084 L3.44448413,63.89084 L3.44448413,59.77504 L5.0622619,59.77504 L5.0622619,58.45476 L0.332222222,58.45476 L0.332222222,59.77504 L1.95,59.77504 L1.95,63.89084 L1.95,63.89084 Z M5.71742063,63.89084 L10.0930556,63.89084 L10.0930556,62.60956 L7.19642857,62.60956 L7.19642857,61.7474 L9.78507937,61.7474 L9.78507937,60.5592 L7.19642857,60.5592 L7.19642857,59.73604 L10.054881,59.73604 L10.054881,58.45476 L5.71742063,58.45476 L5.71742063,63.89084 L5.71742063,63.89084 Z M13.4519048,63.99952 C13.8475794,63.99692 14.194246,63.94388 14.4893254,63.83884 C14.7838889,63.73276 15.0418254,63.58768 15.2600397,63.40412 C15.4792857,63.22056 15.6737698,63.01048 15.8403968,62.77232 L14.7152778,61.96476 C14.6090079,62.09788 14.4970635,62.21332 14.3815079,62.3116 C14.2649206,62.40988 14.1354365,62.48788 13.9915079,62.54196 C13.8486111,62.59656 13.6845635,62.6236 13.4983333,62.62464 C13.3084921,62.6236 13.1346429,62.58616 12.9783333,62.51232 C12.8215079,62.43848 12.6868651,62.33604 12.5713095,62.20396 C12.4567857,62.0724 12.3680556,61.91952 12.3066667,61.74376 C12.2437302,61.56748 12.2127778,61.37716 12.211746,61.1728 C12.2127778,60.96948 12.2437302,60.78072 12.3066667,60.60444 C12.3680556,60.42972 12.4567857,60.2758 12.5713095,60.14372 C12.6868651,60.01164 12.8215079,59.90816 12.9783333,59.83328 C13.1346429,59.75944 13.3084921,59.722 13.4983333,59.72044 C13.7536905,59.722 13.9786111,59.77868 14.17,59.88892 C14.3613889,60.0002 14.5331746,60.15256 14.6848413,60.34964 L15.7784921,59.49528 C15.6206349,59.27012 15.4359524,59.072 15.2239286,58.89988 C15.0119048,58.72776 14.7653175,58.59308 14.4841667,58.4948 C14.2035317,58.39808 13.8795635,58.34764 13.5138095,58.34608 C13.1862302,58.34764 12.878254,58.39392 12.5903968,58.48856 C12.3025397,58.58164 12.0420238,58.71372 11.8073016,58.88428 C11.5720635,59.05536 11.370873,59.25868 11.2011508,59.49268 C11.0314286,59.72824 10.9009127,59.9872 10.8096032,60.2706 C10.7182937,60.554 10.672381,60.85456 10.6708333,61.1728 C10.672381,61.50144 10.7198413,61.8098 10.8121825,62.09528 C10.9060714,62.38284 11.0365873,62.64284 11.2063095,62.8758 C11.3760317,63.10876 11.5761905,63.30844 11.8073016,63.4764 C12.0384127,63.64332 12.2937698,63.7728 12.5713095,63.86224 C12.8488492,63.95272 13.142381,63.99796 13.4519048,63.99952 L13.4519048,63.99952 Z M16.4795635,63.89084 L17.9740476,63.89084 L17.9740476,61.82488 L19.8925794,61.82488 L19.8925794,63.89084 L21.3870635,63.89084 L21.3870635,58.45476 L19.8925794,58.45476 L19.8925794,60.48952 L17.9740476,60.48952 L17.9740476,58.45476 L16.4795635,58.45476 L16.4795635,63.89084 L16.4795635,63.89084 Z M22.3424603,63.89084 L23.8214683,63.89084 L23.8214683,60.90864 L26.1248413,63.89084 L27.4346429,63.89084 L27.4346429,58.45476 L25.9556349,58.45476 L25.9556349,61.32828 L23.7368651,58.45476 L22.3424603,58.45476 L22.3424603,63.89084 L22.3424603,63.89084 Z M31.1019841,63.99952 C31.435754,63.99796 31.7504365,63.95012 32.0444841,63.856 C32.3385317,63.7598 32.6052381,63.62668 32.8456349,63.45456 C33.0865476,63.28088 33.2934127,63.07652 33.4682937,62.842 C33.6426587,62.60644 33.7767857,62.348 33.8717063,62.06564 C33.9650794,61.7838 34.0125397,61.48584 34.0140873,61.1728 C34.0125397,60.8556 33.966627,60.5566 33.8727381,60.2732 C33.7788492,59.9898 33.6467857,59.73084 33.4734524,59.49684 C33.3011508,59.26232 33.0948016,59.059 32.8559524,58.88688 C32.6171032,58.71476 32.3514286,58.58268 32.0568651,58.48856 C31.7643651,58.39548 31.4512302,58.34764 31.1174603,58.34608 C30.7831746,58.34764 30.4690079,58.39548 30.1759921,58.4896 C29.8819444,58.58528 29.6136905,58.71892 29.3738095,58.89104 C29.132381,59.0642 28.9255159,59.26752 28.7506349,59.50308 C28.5762698,59.73864 28.4426587,59.9976 28.3492857,60.27996 C28.2538492,60.5618 28.2063889,60.85976 28.2053571,61.1728 C28.2063889,61.49 28.2538492,61.789 28.3467063,62.0724 C28.4400794,62.3558 28.5721429,62.61476 28.7459921,62.84876 C28.9177778,63.08328 29.1246429,63.28608 29.3634921,63.4582 C29.6023413,63.63032 29.8690476,63.7624 30.1620635,63.85704 C30.4550794,63.95012 30.7682143,63.99796 31.1019841,63.99952 L31.1019841,63.99952 Z M31.1174603,62.64024 C30.911627,62.6392 30.7259127,62.59864 30.5577381,62.52116 C30.3895635,62.44368 30.2440873,62.33604 30.1223413,62.20032 C29.9990476,62.0646 29.9051587,61.90912 29.8386111,61.73284 C29.7730952,61.55708 29.7395635,61.37092 29.7385317,61.1728 C29.7395635,60.97104 29.7715476,60.78176 29.8360317,60.60548 C29.9015476,60.42972 29.9938889,60.2732 30.1146032,60.13852 C30.2337698,60.00384 30.3776984,59.89776 30.5443254,59.82132 C30.7114683,59.74488 30.8976984,59.7064 31.1019841,59.70484 C31.3088492,59.7064 31.4971429,59.74644 31.6668651,59.82392 C31.8365873,59.90192 31.9815476,60.00904 32.1048413,60.14528 C32.2265873,60.281 32.3215079,60.43648 32.3885714,60.61224 C32.4540873,60.78852 32.4886508,60.97468 32.4886508,61.1728 C32.4886508,61.37456 32.455119,61.56332 32.3911508,61.7396 C32.3256349,61.91588 32.2332937,62.0724 32.1125794,62.20656 C31.9918651,62.34124 31.8479365,62.44732 31.6797619,62.52376 C31.5115873,62.6002 31.3238095,62.6392 31.1174603,62.64024 L31.1174603,62.64024 Z M34.7920238,63.89084 L38.898373,63.89084 L38.898373,62.57056 L36.2865079,62.57056 L36.2865079,58.45476 L34.7920238,58.45476 L34.7920238,63.89084 L34.7920238,63.89084 Z M41.9415079,63.99952 C42.2752778,63.99796 42.5894444,63.95012 42.8840079,63.856 C43.1780556,63.7598 43.4447619,63.62668 43.6851587,63.45456 C43.9260714,63.28088 44.1329365,63.07652 44.3078175,62.842 C44.4821825,62.60644 44.6157937,62.348 44.7107143,62.06564 C44.8046032,61.7838 44.8520635,61.48584 44.8536111,61.1728 C44.8520635,60.8556 44.8056349,60.5566 44.7122619,60.2732 C44.618373,59.9898 44.4863095,59.73084 44.3129762,59.49684 C44.1406746,59.26232 43.9338095,59.059 43.6949603,58.88688 C43.456627,58.71476 43.1904365,58.58268 42.8963889,58.48856 C42.6038889,58.39548 42.290754,58.34764 41.9564683,58.34608 C41.6226984,58.34764 41.3080159,58.39548 41.0155159,58.4896 C40.7214683,58.58528 40.4532143,58.71892 40.2128175,58.89104 C39.9713889,59.0642 39.7650397,59.26752 39.5901587,59.50308 C39.4157937,59.73864 39.2821825,59.9976 39.1882937,60.27996 C39.093373,60.5618 39.0459127,60.85976 39.0443651,61.1728 C39.0459127,61.49 39.093373,61.789 39.1857143,62.0724 C39.2796032,62.3558 39.4116667,62.61476 39.585,62.84876 C39.7573016,63.08328 39.9641667,63.28608 40.2030159,63.4582 C40.4413492,63.63032 40.7085714,63.7624 41.0015873,63.85704 C41.2940873,63.95012 41.6077381,63.99796 41.9415079,63.99952 L41.9415079,63.99952 Z M41.9564683,62.64024 C41.7511508,62.6392 41.5649206,62.59864 41.396746,62.52116 C41.2285714,62.44368 41.0836111,62.33604 40.9618651,62.20032 C40.8380556,62.0646 40.7446825,61.90912 40.6781349,61.73284 C40.6121032,61.55708 40.5790873,61.37092 40.5775397,61.1728 C40.5790873,60.97104 40.6110714,60.78176 40.6755556,60.60548 C40.7410714,60.42972 40.8334127,60.2732 40.954127,60.13852 C41.0732937,60.00384 41.2172222,59.89776 41.3838492,59.82132 C41.5509921,59.74488 41.7372222,59.7064 41.9415079,59.70484 C42.1478571,59.7064 42.3366667,59.74644 42.5063889,59.82392 C42.6755952,59.90192 42.8210714,60.00904 42.9443651,60.14528 C43.0661111,60.281 43.1610317,60.43648 43.2275794,60.61224 C43.2936111,60.78852 43.3281746,60.97468 43.3281746,61.1728 C43.3281746,61.37456 43.2946429,61.56332 43.2301587,61.7396 C43.1651587,61.91588 43.0723016,62.0724 42.9515873,62.20656 C42.830873,62.34124 42.6874603,62.44732 42.5192857,62.52376 C42.3505952,62.6002 42.1633333,62.6392 41.9564683,62.64024 L41.9564683,62.64024 Z M48.3816667,63.99952 C48.7076984,63.99796 49.0136111,63.96052 49.2973413,63.88668 C49.5810714,63.8144 49.8415873,63.71456 50.0804365,63.58924 C50.3192857,63.46236 50.5338889,63.31988 50.7237302,63.16076 L50.7237302,60.71468 L48.2434127,60.71468 L48.2434127,61.81708 L49.3061111,61.81708 L49.3061111,62.47748 C49.1957143,62.55132 49.0688095,62.60644 48.9274603,62.64544 C48.7850794,62.68288 48.6246429,62.70264 48.4435714,62.70264 C48.2289683,62.70108 48.0324206,62.66364 47.8539286,62.5898 C47.6754365,62.51752 47.5217063,62.41248 47.3906746,62.2778 C47.2606746,62.14364 47.1595635,61.98556 47.0873413,61.802 C47.0166667,61.61792 46.9810714,61.41616 46.9800397,61.1962 C46.9810714,60.98248 47.0156349,60.78592 47.0863095,60.6034 C47.1554365,60.42088 47.2529365,60.26176 47.3777778,60.12552 C47.5021032,59.98824 47.6486111,59.88216 47.815754,59.80572 C47.982381,59.7298 48.1634524,59.6908 48.3589683,59.68976 C48.534881,59.68976 48.6978968,59.71004 48.8464683,59.7506 C48.9971032,59.78908 49.1369048,59.84732 49.2705159,59.92376 C49.4025794,60.0002 49.5336111,60.09328 49.6610317,60.20196 L50.5390476,59.13804 C50.3502381,58.97112 50.1475,58.8302 49.9292857,58.71216 C49.7105556,58.59308 49.473254,58.50416 49.2122222,58.44072 C48.953254,58.37832 48.6653968,58.34608 48.3507143,58.34608 C48.0159127,58.34764 47.7012302,58.39392 47.4071825,58.48856 C47.1131349,58.58164 46.8459127,58.71372 46.6060317,58.88428 C46.3671825,59.05536 46.1603175,59.25868 45.9869841,59.49268 C45.8151984,59.72824 45.6815873,59.9872 45.5876984,60.2706 C45.4953571,60.554 45.4478968,60.85456 45.4463492,61.1728 C45.4478968,61.50508 45.4953571,61.81708 45.5902778,62.10464 C45.6851984,62.39324 45.8203571,62.65324 45.9962698,62.88516 C46.1716667,63.11812 46.3800794,63.31728 46.6225397,63.48316 C46.8655159,63.64852 47.1348016,63.77696 47.4314286,63.86484 C47.7280556,63.95428 48.0453175,63.99796 48.3816667,63.99952 L48.3816667,63.99952 Z M52.8811111,63.89084 L54.3833333,63.89084 L54.3833333,61.83268 L56.432381,58.45476 L54.7604365,58.45476 L53.6435714,60.43492 L52.5339286,58.45476 L50.8315476,58.45476 L52.8811111,61.85608 L52.8811111,63.89084 L52.8811111,63.89084 Z" id="Fill-16"></path>
                        <path d="M61.0664683,64.94124 C63.1309921,64.94124 64.8044841,63.25384 64.8044841,61.1728 C64.8044841,59.09176 63.1309921,57.40436 61.0664683,57.40436 C59.0014286,57.40436 57.3279365,59.09176 57.3279365,61.1728 C57.3279365,63.25384 59.0014286,64.94124 61.0664683,64.94124 L61.0664683,64.94124 Z M61.0664683,63.90644 C62.5640476,63.90644 63.7784127,62.68236 63.7784127,61.1728 C63.7784127,59.66272 62.5640476,58.43864 61.0664683,58.43864 C59.568373,58.43864 58.3540079,59.66272 58.3540079,61.1728 C58.3540079,62.68236 59.568373,63.90644 61.0664683,63.90644 L61.0664683,63.90644 Z" id="Fill-17"></path>
                        <path d="M59.7886508,62.80716 L60.6873016,62.80716 L60.6873016,61.81708 L61.0809127,61.81708 L61.7345238,62.80716 L62.7724603,62.80716 L61.9986508,61.66784 C62.1338095,61.61012 62.2509127,61.53472 62.3509921,61.44216 C62.4505556,61.34856 62.5279365,61.23728 62.582619,61.10728 C62.6373016,60.97832 62.6651587,60.83012 62.6656746,60.66372 C62.6656746,60.49784 62.6419444,60.3512 62.5934524,60.22276 C62.5454762,60.09536 62.4737698,59.98304 62.3783333,59.8884 C62.2705159,59.77764 62.1291667,59.69236 61.9548016,59.63048 C61.7799206,59.57016 61.5694444,59.53896 61.3223413,59.53792 L59.7886508,59.53792 L59.7886508,62.80716 L59.7886508,62.80716 Z M60.6873016,61.10728 L60.6873016,60.3226 L61.2759127,60.3226 C61.3770238,60.3226 61.4631746,60.33664 61.5359127,60.36628 C61.6086508,60.39488 61.6643651,60.43804 61.7030556,60.49524 C61.7422619,60.55296 61.762381,60.62472 61.762381,60.71052 C61.7618651,60.8348 61.7190476,60.93204 61.6365079,61.0012 C61.5529365,61.07088 61.4342857,61.10624 61.2805556,61.10728 L60.6873016,61.10728 L60.6873016,61.10728 Z" id="Fill-18"></path>
                    </g>
                </g>
            </g>
        </g>
    </g>
</svg>