<?xml version="1.0" encoding="UTF-8" standalone="no"?>
<svg width="75px" height="75px" viewBox="0 0 75 75" version="1.1" xmlns="http://www.w3.org/2000/svg" xmlns:xlink="http://www.w3.org/1999/xlink">
    <!-- Generator: Sketch 39.1 (31720) - http://www.bohemiancoding.com/sketch -->
    <title>Logo 1</title>
    <desc>Created with Sketch.</desc>
    <defs>
        <filter x="-50%" y="-50%" width="200%" height="200%" filterUnits="objectBoundingBox" id="filter-1">
            <feOffset dx="0" dy="2" in="SourceAlpha" result="shadowOffsetOuter1"></feOffset>
            <feGaussianBlur stdDeviation="2" in="shadowOffsetOuter1" result="shadowBlurOuter1"></feGaussianBlur>
            <feColorMatrix values="0 0 0 0 0   0 0 0 0 0   0 0 0 0 0  0 0 0 0.0951086957 0" type="matrix" in="shadowBlurOuter1" result="shadowMatrixOuter1"></feColorMatrix>
            <feMerge>
                <feMergeNode in="shadowMatrixOuter1"></feMergeNode>
                <feMergeNode in="SourceGraphic"></feMergeNode>
            </feMerge>
        </filter>
    </defs>
    <g id="Page-1" stroke="none" stroke-width="1" fill="none" fill-rule="evenodd">
        <g id="MENU_EXAMPLE" transform="translate(-122.000000, -28.000000)">
            <g id="Header">
                <g id="Logo-1" filter="url(#filter-1)" transform="translate(126.000000, 30.000000)">
                    <path d="M19.2949365,0.020904 L19.2949365,21.676376 C19.2949365,24.365488 17.3343889,26.60436 14.6873571,26.937752 L0.29352381,28.75104 L0.29352381,7.096104 C0.29352381,4.406456 2.25353968,2.16812 4.90110317,1.834728 L19.2949365,0.020904" id="Fill-8" fill="#1E63AE"></path>
                    <path d="M43.0464365,0.020904 L43.0464365,21.676376 C43.0464365,24.365488 41.0858889,26.60436 38.4393889,26.937752 L24.0450238,28.75104 L24.0450238,7.096104 C24.0450238,4.406456 26.0055714,2.16812 28.6526032,1.834728 L43.0464365,0.020904" id="Fill-9" fill="#EE2628"></path>
                    <path d="M66.7984683,0.020904 L66.7984683,21.676376 C66.7984683,24.365488 64.8379206,26.60436 62.1908889,26.937752 L47.7970556,28.75104 L47.7970556,7.096104 C47.7970556,4.406456 49.7576032,2.16812 52.4046349,1.834728 L66.7984683,0.020904" id="Fill-10" fill="#1EAB4A"></path>
                    <path d="M62.9209762,48.83764 L66.7984683,55.606784 L65.0128651,55.606784 C62.9938254,55.606784 61.2608651,54.598032 60.2516111,52.835664 L57.9730794,48.858008 L44.1067381,48.858008 L44.1067381,55.606784 C41.7441905,55.606784 39.8112937,53.658424 39.8112937,51.276976 L39.8112937,33.539664 L62.5030238,33.539664 C64.8655714,33.539664 66.7984683,35.488024 66.7984683,37.869472 L66.7984683,44.573224 L66.7979365,44.573224 C66.7750714,46.792264 65.0750794,48.625384 62.9209762,48.83764 L62.9209762,48.83764 Z M44.1067381,44.5282 L62.3844444,44.5282 L62.3844444,37.869472 L44.1067381,37.869472 L44.1067381,44.5282 Z M35.6642063,51.276976 C35.6642063,53.658424 33.7313095,55.606784 31.3687619,55.606784 L31.3682302,51.276976 L31.3682302,33.539664 L35.6642063,33.539664 L35.6642063,51.276976 L35.6642063,51.276976 Z M0.29352381,48.858008 L0.29352381,37.869472 C0.29352381,35.488024 2.22642063,33.539664 4.58896825,33.539664 L22.985254,33.539664 C25.3478016,33.539664 27.2806984,35.488024 27.2806984,37.869472 L27.2806984,51.276976 C27.2806984,53.658424 25.3478016,55.606784 22.985254,55.606784 L22.985254,48.858008 L4.58896825,48.858008 L4.58896825,55.606784 C2.22642063,55.606784 0.29352381,53.658424 0.29352381,51.276976 L0.29352381,48.858008 L0.29352381,48.858008 Z M4.58896825,44.5282 L22.985254,44.5282 L22.985254,37.869472 L4.58896825,37.869472 L4.58896825,44.5282 Z" id="Fill-11" fill="#FFFFFF"></path>
                    <path d="M2.01,65.856712 L3.55046825,65.856712 L3.55046825,61.614272 L5.21802381,61.614272 L5.21802381,60.253368 L0.342444444,60.253368 L0.342444444,61.614272 L2.01,61.614272 L2.01,65.856712 L2.01,65.856712 Z M5.89334127,65.856712 L10.4036111,65.856712 L10.4036111,64.536008 L7.41785714,64.536008 L7.41785714,63.64732 L10.0861587,63.64732 L10.0861587,62.42256 L7.41785714,62.42256 L7.41785714,61.574072 L10.3642619,61.574072 L10.3642619,60.253368 L5.89334127,60.253368 L5.89334127,65.856712 L5.89334127,65.856712 Z M13.8658095,65.968736 C14.2736587,65.966056 14.6309921,65.911384 14.9351508,65.803112 C15.2387778,65.693768 15.5046508,65.544224 15.7295794,65.355016 C15.9555714,65.165808 16.1560397,64.949264 16.3277937,64.703776 L15.1680556,63.871368 C15.0585159,64.008584 14.943127,64.127576 14.8240159,64.22888 C14.7038413,64.330184 14.570373,64.410584 14.4220159,64.466328 C14.2747222,64.522608 14.105627,64.55048 13.9136667,64.551552 C13.7179841,64.55048 13.5387857,64.511888 13.3776667,64.435776 C13.2160159,64.359664 13.0772302,64.254072 12.958119,64.117928 C12.8400714,63.98232 12.7486111,63.824736 12.6853333,63.643568 C12.6204603,63.461864 12.5885556,63.265688 12.5874921,63.05504 C12.5885556,62.845464 12.6204603,62.650896 12.6853333,62.469192 C12.7486111,62.289096 12.8400714,62.13044 12.958119,61.994296 C13.0772302,61.858152 13.2160159,61.751488 13.3776667,61.674304 C13.5387857,61.598192 13.7179841,61.5596 13.9136667,61.557992 C14.176881,61.5596 14.4087222,61.618024 14.606,61.731656 C14.8032778,61.84636 14.9803492,62.003408 15.1366825,62.206552 L16.2639841,61.325904 C16.1012698,61.093816 15.9109048,60.8896 15.6923571,60.712184 C15.4738095,60.534768 15.2196349,60.395944 14.9298333,60.29464 C14.6405635,60.194944 14.306627,60.142952 13.929619,60.141344 C13.5919603,60.142952 13.2745079,60.190656 12.9777937,60.288208 C12.6810794,60.384152 12.4125476,60.520296 12.1706032,60.696104 C11.928127,60.872448 11.720746,61.082024 11.5458016,61.323224 C11.3708571,61.566032 11.2363254,61.83296 11.1422063,62.12508 C11.0480873,62.4172 11.0007619,62.727008 10.9991667,63.05504 C11.0007619,63.393792 11.0496825,63.71164 11.1448651,64.005904 C11.2416429,64.302312 11.3761746,64.570312 11.551119,64.81044 C11.7260635,65.050568 11.932381,65.256392 12.1706032,65.42952 C12.4088254,65.601576 12.6720397,65.73504 12.958119,65.827232 C13.2441984,65.920496 13.5467619,65.967128 13.8658095,65.968736 L13.8658095,65.968736 Z M16.986627,65.856712 L18.5270952,65.856712 L18.5270952,63.727184 L20.5046587,63.727184 L20.5046587,65.856712 L22.045127,65.856712 L22.045127,60.253368 L20.5046587,60.253368 L20.5046587,62.350736 L18.5270952,62.350736 L18.5270952,60.253368 L16.986627,60.253368 L16.986627,65.856712 L16.986627,65.856712 Z M23.0299206,65.856712 L24.5544365,65.856712 L24.5544365,62.782752 L26.9286825,65.856712 L28.2787857,65.856712 L28.2787857,60.253368 L26.7542698,60.253368 L26.7542698,63.215304 L24.4672302,60.253368 L23.0299206,60.253368 L23.0299206,65.856712 L23.0299206,65.856712 Z M32.0589683,65.968736 C32.4030079,65.967128 32.727373,65.917816 33.0304683,65.8208 C33.3335635,65.72164 33.6084762,65.584424 33.8562698,65.407008 C34.1045952,65.227984 34.3178254,65.017336 34.4980873,64.7756 C34.6778175,64.532792 34.8160714,64.2664 34.9139127,63.975352 C35.0101587,63.68484 35.0590794,63.377712 35.0606746,63.05504 C35.0590794,62.72808 35.011754,62.41988 34.9149762,62.12776 C34.8181984,61.83564 34.6820714,61.568712 34.5034048,61.327512 C34.3258016,61.085776 34.1131032,60.8762 33.8669048,60.698784 C33.6207063,60.521368 33.3468571,60.385224 33.0432302,60.288208 C32.7417302,60.192264 32.4189603,60.142952 32.0749206,60.141344 C31.7303492,60.142952 31.4065159,60.192264 31.1044841,60.28928 C30.8013889,60.387904 30.524881,60.525656 30.277619,60.703072 C30.0287619,60.88156 29.8155317,61.091136 29.6352698,61.333944 C29.4555397,61.576752 29.3178175,61.84368 29.2215714,62.134728 C29.1231984,62.42524 29.0742778,62.732368 29.0732143,63.05504 C29.0742778,63.382 29.1231984,63.6902 29.2189127,63.98232 C29.3151587,64.27444 29.4512857,64.541368 29.6304841,64.782568 C29.8075556,65.024304 30.0207857,65.233344 30.2669841,65.41076 C30.5131825,65.588176 30.7880952,65.72432 31.090127,65.821872 C31.3921587,65.917816 31.7149286,65.967128 32.0589683,65.968736 L32.0589683,65.968736 Z M32.0749206,64.567632 C31.862754,64.56656 31.6713254,64.524752 31.4979762,64.444888 C31.324627,64.365024 31.1746746,64.254072 31.0491825,64.114176 C30.9220952,63.97428 30.8253175,63.814016 30.7567222,63.632312 C30.6891905,63.451144 30.654627,63.259256 30.6535635,63.05504 C30.654627,62.847072 30.6875952,62.651968 30.7540635,62.470264 C30.8215952,62.289096 30.9167778,62.12776 31.0412063,61.988936 C31.1640397,61.850112 31.3123968,61.740768 31.4841508,61.661976 C31.6564365,61.583184 31.8483968,61.54352 32.0589683,61.541912 C32.2721984,61.54352 32.4662857,61.584792 32.6412302,61.664656 C32.8161746,61.745056 32.9655952,61.855472 33.0926825,61.995904 C33.2181746,62.1358 33.3160159,62.296064 33.3851429,62.477232 C33.4526746,62.658936 33.4883016,62.850824 33.4883016,63.05504 C33.4883016,63.263008 33.4537381,63.457576 33.3878016,63.63928 C33.3202698,63.820984 33.2250873,63.98232 33.1006587,64.120608 C32.9762302,64.259432 32.827873,64.368776 32.6545238,64.447568 C32.4811746,64.52636 32.287619,64.56656 32.0749206,64.567632 L32.0749206,64.567632 Z M35.8625476,65.856712 L40.095246,65.856712 L40.095246,64.495808 L37.4030159,64.495808 L37.4030159,60.253368 L35.8625476,60.253368 L35.8625476,65.856712 L35.8625476,65.856712 Z M43.2320159,65.968736 C43.5760556,65.967128 43.8998889,65.917816 44.2035159,65.8208 C44.5066111,65.72164 44.7815238,65.584424 45.0293175,65.407008 C45.2776429,65.227984 45.490873,65.017336 45.6711349,64.7756 C45.8508651,64.532792 45.9885873,64.2664 46.0864286,63.975352 C46.1832063,63.68484 46.232127,63.377712 46.2337222,63.05504 C46.232127,62.72808 46.1842698,62.41988 46.0880238,62.12776 C45.991246,61.83564 45.855119,61.568712 45.6764524,61.327512 C45.4988492,61.085776 45.285619,60.8762 45.0394206,60.698784 C44.793754,60.521368 44.519373,60.385224 44.2162778,60.288208 C43.9147778,60.192264 43.5920079,60.142952 43.2474365,60.141344 C42.9033968,60.142952 42.5790317,60.192264 42.2775317,60.28928 C41.9744365,60.387904 41.6979286,60.525656 41.4501349,60.703072 C41.2012778,60.88156 40.9885794,61.091136 40.8083175,61.333944 C40.6285873,61.576752 40.4908651,61.84368 40.3940873,62.134728 C40.296246,62.42524 40.2473254,62.732368 40.2457302,63.05504 C40.2473254,63.382 40.296246,63.6902 40.3914286,63.98232 C40.4882063,64.27444 40.6243333,64.541368 40.803,64.782568 C40.9806032,65.024304 41.1938333,65.233344 41.4400317,65.41076 C41.6856984,65.588176 41.9611429,65.72432 42.2631746,65.821872 C42.5646746,65.917816 42.8879762,65.967128 43.2320159,65.968736 L43.2320159,65.968736 Z M43.2474365,64.567632 C43.0358016,64.56656 42.8438413,64.524752 42.6704921,64.444888 C42.4971429,64.365024 42.3477222,64.254072 42.2222302,64.114176 C42.0946111,63.97428 41.9983651,63.814016 41.9297698,63.632312 C41.8617063,63.451144 41.8276746,63.259256 41.8260794,63.05504 C41.8276746,62.847072 41.8606429,62.651968 41.9271111,62.470264 C41.9946429,62.289096 42.0898254,62.12776 42.214254,61.988936 C42.3370873,61.850112 42.4854444,61.740768 42.6571984,61.661976 C42.8294841,61.583184 43.0214444,61.54352 43.2320159,61.541912 C43.4447143,61.54352 43.6393333,61.584792 43.8142778,61.664656 C43.9886905,61.745056 44.1386429,61.855472 44.2657302,61.995904 C44.3912222,62.1358 44.4890635,62.296064 44.5576587,62.477232 C44.6257222,62.658936 44.6613492,62.850824 44.6613492,63.05504 C44.6613492,63.263008 44.6267857,63.457576 44.5603175,63.63928 C44.4933175,63.820984 44.3976032,63.98232 44.2731746,64.120608 C44.148746,64.259432 44.0009206,64.368776 43.8275714,64.447568 C43.6536905,64.52636 43.4606667,64.56656 43.2474365,64.567632 L43.2474365,64.567632 Z M49.8703333,65.968736 C50.2063968,65.967128 50.5217222,65.928536 50.8141825,65.852424 C51.1066429,65.77792 51.3751746,65.675008 51.621373,65.545832 C51.8675714,65.415048 52.0887778,65.268184 52.2844603,65.104168 L52.2844603,62.582824 L49.7278254,62.582824 L49.7278254,63.719144 L50.8232222,63.719144 L50.8232222,64.399864 C50.7094286,64.475976 50.578619,64.532792 50.4329206,64.572992 C50.2861587,64.611584 50.1207857,64.631952 49.9341429,64.631952 C49.7129365,64.630344 49.5103413,64.591752 49.3263571,64.51564 C49.142373,64.441136 48.9839127,64.332864 48.8488492,64.19404 C48.7148492,64.055752 48.610627,63.892808 48.5361825,63.7036 C48.4633333,63.513856 48.4266429,63.305888 48.4255794,63.07916 C48.4266429,62.858864 48.4622698,62.656256 48.535119,62.46812 C48.606373,62.279984 48.706873,62.115968 48.8355556,61.975536 C48.9637063,61.834032 49.1147222,61.724688 49.2870079,61.645896 C49.4587619,61.56764 49.6454048,61.52744 49.8469365,61.526368 C50.0282619,61.526368 50.1962937,61.547272 50.3494365,61.58908 C50.5047063,61.628744 50.6488095,61.688776 50.7865317,61.767568 C50.9226587,61.84636 51.0577222,61.942304 51.1890635,62.054328 L52.0940952,60.957672 C51.8994762,60.785616 51.6905,60.64036 51.4655714,60.518688 C51.2401111,60.395944 50.9955079,60.304288 50.7264444,60.238896 C50.4595079,60.174576 50.1627937,60.141344 49.8384286,60.141344 C49.4933254,60.142952 49.1689603,60.190656 48.8658651,60.288208 C48.5627698,60.384152 48.2873254,60.520296 48.0400635,60.696104 C47.7938651,60.872448 47.5806349,61.082024 47.4019683,61.323224 C47.2248968,61.566032 47.0871746,61.83296 46.9903968,62.12508 C46.8952143,62.4172 46.8462937,62.727008 46.8446984,63.05504 C46.8462937,63.397544 46.8952143,63.719144 46.9930556,64.015552 C47.0908968,64.313032 47.2302143,64.581032 47.4115397,64.820088 C47.5923333,65.060216 47.8071587,65.265504 48.0570794,65.436488 C48.3075317,65.606936 48.5851032,65.739328 48.8908571,65.829912 C49.1966111,65.922104 49.5236349,65.967128 49.8703333,65.968736 L49.8703333,65.968736 Z M54.5082222,65.856712 L56.0566667,65.856712 L56.0566667,63.735224 L58.1687619,60.253368 L56.445373,60.253368 L55.2941429,62.294456 L54.1503571,60.253368 L52.3955952,60.253368 L54.5082222,63.759344 L54.5082222,65.856712 L54.5082222,65.856712 Z" id="Fill-16" fill="#FFFFFF"></path>
                    <path d="M62.9454365,66.939432 C65.0734841,66.939432 66.7984683,65.200112 66.7984683,63.05504 C66.7984683,60.909968 65.0734841,59.170648 62.9454365,59.170648 C60.8168571,59.170648 59.091873,60.909968 59.091873,63.05504 C59.091873,65.200112 60.8168571,66.939432 62.9454365,66.939432 L62.9454365,66.939432 Z M62.9454365,65.872792 C64.4890952,65.872792 65.7408254,64.611048 65.7408254,63.05504 C65.7408254,61.498496 64.4890952,60.236752 62.9454365,60.236752 C61.401246,60.236752 60.1495159,61.498496 60.1495159,63.05504 C60.1495159,64.611048 61.401246,65.872792 62.9454365,65.872792 L62.9454365,65.872792 Z" id="Fill-17" fill="#FFFFFF"></path>
                    <path d="M61.6283016,64.739688 L62.5546032,64.739688 L62.5546032,63.719144 L62.9603254,63.719144 L63.6340476,64.739688 L64.7039206,64.739688 L63.9063016,63.565312 C64.045619,63.505816 64.1663254,63.428096 64.2694841,63.332688 C64.3721111,63.236208 64.451873,63.121504 64.5082381,62.987504 C64.5646032,62.854576 64.5933175,62.701816 64.5938492,62.530296 C64.5938492,62.359312 64.5693889,62.20816 64.5194048,62.075768 C64.4699524,61.944448 64.3960397,61.828672 64.2976667,61.73112 C64.1865317,61.616952 64.0408333,61.529048 63.8611032,61.465264 C63.6808413,61.403088 63.4638889,61.370928 63.2091825,61.369856 L61.6283016,61.369856 L61.6283016,64.739688 L61.6283016,64.739688 Z M62.5546032,62.987504 L62.5546032,62.17868 L63.1613254,62.17868 C63.2655476,62.17868 63.3543492,62.193152 63.4293254,62.223704 C63.5043016,62.253184 63.5617302,62.297672 63.6016111,62.356632 C63.6420238,62.416128 63.6627619,62.490096 63.6627619,62.578536 C63.6622302,62.70664 63.6180952,62.806872 63.5330159,62.87816 C63.446873,62.949984 63.3245714,62.986432 63.1661111,62.987504 L62.5546032,62.987504 L62.5546032,62.987504 Z" id="Fill-18" fill="#FFFFFF"></path>
                </g>
            </g>
        </g>
    </g>
</svg>