<?xml version="1.0" encoding="UTF-8" standalone="no"?>
<svg width="58px" height="47px" viewBox="0 0 58 47" version="1.1" xmlns="http://www.w3.org/2000/svg" xmlns:xlink="http://www.w3.org/1999/xlink">
    <!-- Generator: Sketch 39.1 (31720) - http://www.bohemiancoding.com/sketch -->
    <title>Group 27</title>
    <desc>Created with Sketch.</desc>
    <defs></defs>
    <g id="-" stroke="none" stroke-width="1" fill="none" fill-rule="evenodd">
        <g id="Holod_Open" transform="translate(-1111.000000, -3574.000000)" fill="#1D87E4">
            <g id="Oborudovanie" transform="translate(0.000000, 3383.000000)">
                <g id="BARNDS" transform="translate(205.000000, 47.000000)">
                    <g id="GAZ" transform="translate(840.000000, 144.000000)">
                        <g id="Group-13" transform="translate(20.000000, 0.000000)">
                            <g id="Group-27" transform="translate(46.000000, 0.000000)">
                                <path d="M51.1,22.3 C50.5,22.3 50.1,21.9 50.1,21.3 C50.1,12.4 42.6,8.2 35.3,5.3 C34.8,5.1 34.5,4.5 34.7,4 C34.9,3.5 35.5,3.2 36,3.4 C43.5,6.4 52.1,11.1 52.1,21.2 C52.1,21.8 51.6,22.3 51.1,22.3 L51.1,22.3 Z" id="Shape"></path>
                                <path d="M7.5,22.3 C6.9,22.3 6.5,21.9 6.5,21.3 C6.5,11.6 14.4,6.9 22.2,3.6 C22.7,3.4 23.3,3.6 23.5,4.1 C23.7,4.6 23.5,5.2 23,5.4 C15.5,8.6 8.6,12.7 8.6,21.2 C8.5,21.8 8,22.3 7.5,22.3 L7.5,22.3 Z" id="Shape"></path>
                                <path d="M7.5,23.1 C6.9,23.1 6.5,22.7 6.5,22.1 L6.5,21.3 C6.5,20.7 6.9,20.3 7.5,20.3 C8.1,20.3 8.5,20.7 8.5,21.3 L8.5,22.1 C8.5,22.6 8,23.1 7.5,23.1 L7.5,23.1 Z" id="Shape"></path>
                                <path d="M49,26.4 C48.4,26.4 48,26 48,25.4 C48,24.2 48,21.1 51.1,21.1 C51.7,21.1 52.1,21.5 52.1,22.1 C52.1,22.7 51.7,23.1 51.1,23.1 C50.5,23.1 50,23.1 50,25.4 C50,26 49.5,26.4 49,26.4 L49,26.4 Z" id="Shape"></path>
                                <path d="M51.1,39.1 L7.5,39.1 C6.9,39.1 6.5,38.7 6.5,38.1 C6.5,37.5 6.9,37.1 7.5,37.1 L51.1,37.1 C51.7,37.1 52.1,37.5 52.1,38.1 C52.1,38.7 51.6,39.1 51.1,39.1 L51.1,39.1 Z" id="Shape"></path>
                                <path d="M9.6,32 C9,32 8.6,31.6 8.6,31 L8.6,25.4 C8.6,24.8 9,24.4 9.6,24.4 C10.2,24.4 10.6,24.8 10.6,25.4 L10.6,31 C10.6,31.6 10.1,32 9.6,32 L9.6,32 Z" id="Shape"></path>
                                <path d="M9.7,39.1 L7.8,39.1 C3.9,39.1 0.8,35.9 0.8,32.1 L0.8,31.1 C0.8,30.5 1.2,30.1 1.8,30.1 L3.1,30.1 L3.1,25.5 C3.1,23.1 5,21.2 7.4,21.2 C10.5,21.2 10.5,24.3 10.5,25.5 C10.5,26.1 10.1,26.5 9.5,26.5 C8.9,26.5 8.5,26.1 8.5,25.5 C8.5,23.2 8,23.2 7.4,23.2 C6.1,23.2 5.1,24.2 5.1,25.5 L5.1,31.1 C5.1,31.7 4.7,32.1 4.1,32.1 L2.8,32.1 C2.8,34.9 5.1,37.1 7.8,37.1 L9.7,37.1 C10.3,37.1 10.7,37.5 10.7,38.1 C10.7,38.7 10.3,39.1 9.7,39.1 L9.7,39.1 Z" id="Shape"></path>
                                <path d="M50.7,39.1 L48.8,39.1 C48.2,39.1 47.8,38.7 47.8,38.1 C47.8,37.5 48.2,37.1 48.8,37.1 L50.7,37.1 C53.5,37.1 55.7,34.8 55.7,32.1 L55.7,32.1 L54.4,32.1 C53.8,32.1 53.4,31.7 53.4,31.1 L53.4,25.5 C53.4,24.2 52.4,23.2 51.1,23.2 C50.5,23.2 50,23.2 50,25.5 C50,26.1 49.6,26.5 49,26.5 C48.4,26.5 48,26.1 48,25.5 C48,24.3 48,21.2 51.1,21.2 C53.5,21.2 55.4,23.1 55.4,25.5 L55.4,30.1 L56.7,30.1 C57.3,30.1 57.7,30.5 57.7,31.1 L57.7,32.1 C57.7,35.9 54.6,39.1 50.7,39.1 L50.7,39.1 Z" id="Shape"></path>
                                <path d="M49,32 C48.4,32 48,31.6 48,31 L48,25.4 C48,24.8 48.4,24.4 49,24.4 C49.6,24.4 50,24.8 50,25.4 L50,31 C50,31.6 49.5,32 49,32 L49,32 Z" id="Shape"></path>
                                <path d="M35.5,5.3 C34.9,5.3 34.5,4.9 34.5,4.3 C34.5,2.4 34,2 29.3,2 C24.6,2 24.1,2.5 24.1,4.3 C24.1,4.9 23.7,5.3 23.1,5.3 C22.5,5.3 22.1,4.9 22.1,4.3 C22.1,0 25.8,0 29.3,0 C32.8,0 36.5,0 36.5,4.3 C36.5,4.9 36,5.3 35.5,5.3 L35.5,5.3 Z" id="Shape"></path>
                                <path d="M23.1,32 C22.5,32 22.1,31.6 22.1,31 L22.1,4.3 C22.1,3.7 22.5,3.3 23.1,3.3 C23.7,3.3 24.1,3.7 24.1,4.3 L24.1,31 C24.1,31.6 23.6,32 23.1,32 L23.1,32 Z" id="Shape"></path>
                                <path d="M35.5,32 C34.9,32 34.5,31.6 34.5,31 L34.5,25.8 C34.5,25.2 34.9,24.8 35.5,24.8 C36.1,24.8 36.5,25.2 36.5,25.8 L36.5,31 C36.5,31.6 36,32 35.5,32 L35.5,32 Z" id="Shape"></path>
                                <path d="M35.5,21.6 C34.9,21.6 34.5,21.2 34.5,20.6 L34.5,4.4 C34.5,3.8 34.9,3.4 35.5,3.4 C36.1,3.4 36.5,3.8 36.5,4.4 L36.5,20.6 C36.5,21.1 36,21.6 35.5,21.6 L35.5,21.6 Z" id="Shape"></path>
                                <path d="M29.3,32.9 C21.4,32.9 14.1,32.1 14,32.1 C13.5,32 13.1,31.5 13.1,31 C13.2,30.5 13.7,30.1 14.2,30.1 C14.3,30.1 21.5,30.9 29.2,30.9 C37,30.9 44,30.1 44,30.1 C44.5,30 45,30.4 45.1,31 C45.2,31.5 44.8,32 44.2,32.1 C44.3,32 37.2,32.9 29.3,32.9 L29.3,32.9 Z" id="Shape"></path>
                                <path d="M13.6,20 C13,20 12.6,19.6 12.6,19 L12.6,9.8 C12.6,9.2 13,8.8 13.6,8.8 C14.2,8.8 14.6,9.2 14.6,9.8 L14.6,19 C14.6,19.6 14.1,20 13.6,20 L13.6,20 Z" id="Shape"></path>
                                <path d="M17.9,20 C17.3,20 16.9,19.6 16.9,19 L16.9,6.9 C16.9,6.3 17.3,5.9 17.9,5.9 C18.5,5.9 18.9,6.3 18.9,6.9 L18.9,19 C18.9,19.6 18.4,20 17.9,20 L17.9,20 Z" id="Shape"></path>
                                <path d="M15.7,22.2 C14,22.2 12.5,20.8 12.5,19 C12.5,18.4 12.9,18 13.5,18 C14.1,18 14.5,18.4 14.5,19 C14.5,19.6 15,20.2 15.7,20.2 C16.4,20.2 16.9,19.7 16.9,19 C16.9,18.4 17.3,18 17.9,18 C18.5,18 18.9,18.4 18.9,19 C18.9,20.8 17.5,22.2 15.7,22.2 L15.7,22.2 Z" id="Shape"></path>
                                <path d="M45,20 C44.4,20 44,19.6 44,19 L44,9.8 C44,9.2 44.4,8.8 45,8.8 C45.6,8.8 46,9.2 46,9.8 L46,19 C46,19.6 45.5,20 45,20 L45,20 Z" id="Shape"></path>
                                <path d="M40.7,20 C40.1,20 39.7,19.6 39.7,19 L39.7,6.9 C39.7,6.3 40.1,5.9 40.7,5.9 C41.3,5.9 41.7,6.3 41.7,6.9 L41.7,19 C41.7,19.6 41.2,20 40.7,20 L40.7,20 Z" id="Shape"></path>
                                <path d="M42.8,22.2 C41.1,22.2 39.6,20.8 39.6,19 C39.6,18.4 40,18 40.6,18 C41.2,18 41.6,18.4 41.6,19 C41.6,19.6 42.1,20.2 42.8,20.2 C43.5,20.2 44,19.7 44,19 C44,18.4 44.4,18 45,18 C45.6,18 46,18.4 46,19 C46,20.8 44.6,22.2 42.8,22.2 L42.8,22.2 Z" id="Shape"></path>
                                <path d="M8.3,44.1 C7.7,44.1 7.3,43.7 7.3,43.1 L7.3,38.1 C7.3,37.5 7.7,37.1 8.3,37.1 C8.9,37.1 9.3,37.5 9.3,38.1 L9.3,43.1 C9.3,43.7 8.9,44.1 8.3,44.1 L8.3,44.1 Z" id="Shape"></path>
                                <path d="M50.4,44.1 C49.8,44.1 49.4,43.7 49.4,43.1 L49.4,38.1 C49.4,37.5 49.8,37.1 50.4,37.1 C51,37.1 51.4,37.5 51.4,38.1 L51.4,43.1 C51.4,43.7 50.9,44.1 50.4,44.1 L50.4,44.1 Z" id="Shape"></path>
                                <path d="M10.4,46.2 C8.7,46.2 7.4,44.8 7.4,43.2 C7.4,42.6 7.8,42.2 8.4,42.2 C9,42.2 9.4,42.6 9.4,43.2 C9.4,43.8 9.9,44.2 10.4,44.2 C10.7,44.2 11,44.1 11.2,43.8 C11.5,43.4 12.2,43.3 12.6,43.6 C13,43.9 13.1,44.6 12.8,45 C12.2,45.7 11.3,46.2 10.4,46.2 L10.4,46.2 Z" id="Shape"></path>
                                <path d="M12,45.3 C11.8,45.3 11.6,45.3 11.5,45.2 C11,44.9 10.9,44.3 11.2,43.8 L14.9,37.6 C15.2,37.1 15.8,37 16.3,37.3 C16.8,37.6 16.9,38.2 16.6,38.7 L12.9,44.9 C12.7,45.2 12.4,45.3 12,45.3 L12,45.3 Z" id="Shape"></path>
                                <path d="M48.3,46.2 C47.3,46.2 46.5,45.8 45.9,45 C45.6,44.6 45.6,43.9 46.1,43.6 C46.5,43.3 47.2,43.3 47.5,43.8 C47.7,44.1 48,44.2 48.3,44.2 C48.9,44.2 49.3,43.7 49.3,43.2 C49.3,42.6 49.7,42.2 50.3,42.2 C50.9,42.2 51.3,42.6 51.3,43.2 C51.4,44.8 50,46.2 48.3,46.2 L48.3,46.2 Z" id="Shape"></path>
                                <path d="M46.7,45.3 C46.4,45.3 46,45.1 45.8,44.8 L42.1,38.6 C41.8,38.1 42,37.5 42.4,37.2 C42.9,36.9 43.5,37.1 43.8,37.5 L47.5,43.7 C47.8,44.2 47.6,44.8 47.2,45.1 C47,45.3 46.9,45.3 46.7,45.3 L46.7,45.3 Z" id="Shape"></path>
                            </g>
                        </g>
                    </g>
                </g>
            </g>
        </g>
    </g>
</svg>