<?xml version="1.0" encoding="UTF-8" standalone="no"?>
<svg width="45px" height="63px" viewBox="0 0 45 63" version="1.1" xmlns="http://www.w3.org/2000/svg" xmlns:xlink="http://www.w3.org/1999/xlink">
    <!-- Generator: Sketch 39.1 (31720) - http://www.bohemiancoding.com/sketch -->
    <title>Group 21</title>
    <desc>Created with Sketch.</desc>
    <defs></defs>
    <g id="-" stroke="none" stroke-width="1" fill="none" fill-rule="evenodd">
        <g id="Holod_Open" transform="translate(-278.000000, -3558.000000)" fill="#1D87E4">
            <g id="Oborudovanie" transform="translate(0.000000, 3383.000000)">
                <g id="Group-21" transform="translate(278.000000, 175.000000)">
                    <circle id="Oval" cx="19.8" cy="9.7" r="1.5"></circle>
                    <path d="M38.6,49.2 L29,49.2 C28.4,49.2 28,48.8 28,48.2 L28,26.8 C28,26.2 28.4,25.8 29,25.8 L38.6,25.8 C39.2,25.8 39.6,26.2 39.6,26.8 L39.6,48.2 C39.6,48.7 39.2,49.2 38.6,49.2 L38.6,49.2 Z M30,47.2 L37.6,47.2 L37.6,27.8 L30,27.8 L30,47.2 L30,47.2 Z" id="Shape"></path>
                    <path d="M38.6,49.2 C38.2,49.2 37.9,49 37.7,48.6 C37.5,48.1 37.7,47.5 38.1,47.3 L42.2,45.2 L42.2,29.8 L38.1,27.7 C37.6,27.5 37.4,26.9 37.7,26.4 C38,25.9 38.5,25.7 39,26 L43.7,28.4 C44,28.6 44.3,28.9 44.3,29.3 L44.3,46 C44.3,46.4 44.1,46.7 43.7,46.9 L39,49.3 C38.9,49.1 38.8,49.2 38.6,49.2 L38.6,49.2 Z" id="Shape"></path>
                    <path d="M29,27.8 L10.6,27.8 C10,27.8 9.6,27.4 9.6,26.8 C9.6,26.2 10,25.8 10.6,25.8 L29,25.8 C29.6,25.8 30,26.2 30,26.8 C30,27.4 29.6,27.8 29,27.8 L29,27.8 Z" id="Shape"></path>
                    <path d="M29,49.2 L10.6,49.2 C10,49.2 9.6,48.8 9.6,48.2 C9.6,47.6 10,47.2 10.6,47.2 L29,47.2 C29.6,47.2 30,47.6 30,48.2 C30,48.8 29.6,49.2 29,49.2 L29,49.2 Z" id="Shape"></path>
                    <path d="M10.6,49.2 L7,49.2 C6.4,49.2 6,48.8 6,48.2 L6,26.8 C6,26.2 6.4,25.8 7,25.8 L10.6,25.8 C11.2,25.8 11.6,26.2 11.6,26.8 L11.6,48.2 C11.6,48.7 11.1,49.2 10.6,49.2 L10.6,49.2 Z M7.9,47.2 L9.5,47.2 L9.5,27.8 L7.9,27.8 L7.9,47.2 L7.9,47.2 Z" id="Shape"></path>
                    <path d="M6.9,53.5 L1.7,53.5 C1.1,53.5 0.7,53.1 0.7,52.5 L0.7,23 C0.7,22.4 1.1,22 1.7,22 L6.9,22 C7.5,22 7.9,22.4 7.9,23 L7.9,52.6 C7.9,53.1 7.5,53.5 6.9,53.5 L6.9,53.5 Z M2.7,51.5 L5.9,51.5 L5.9,24 L2.7,24 L2.7,51.5 L2.7,51.5 Z" id="Shape"></path>
                    <path d="M19.7,18.5 C14.8,18.5 10.9,14.5 10.9,9.7 C10.9,4.9 14.9,0.9 19.7,0.9 C24.5,0.9 28.5,4.9 28.5,9.7 C28.5,14.5 24.6,18.5 19.7,18.5 L19.7,18.5 Z M19.7,2.9 C15.9,2.9 12.9,6 12.9,9.7 C12.9,13.4 16,16.5 19.7,16.5 C23.4,16.5 26.5,13.4 26.5,9.7 C26.5,6 23.5,2.9 19.7,2.9 L19.7,2.9 Z" id="Shape"></path>
                    <path d="M19.8,10.7 C19.5,10.7 19.2,10.6 19,10.3 C18.7,9.9 18.7,9.2 19.1,8.9 L20.2,8 C20.6,7.7 21.3,7.7 21.6,8.1 C21.9,8.5 21.9,9.2 21.5,9.5 L20.4,10.4 C20.2,10.7 20,10.7 19.8,10.7 L19.8,10.7 Z" id="Shape"></path>
                    <path d="M19.8,18.5 C19.2,18.5 18.8,18.1 18.8,17.5 L18.8,16.6 C18.8,16 19.2,15.6 19.8,15.6 C20.4,15.6 20.8,16 20.8,16.6 L20.8,17.5 C20.8,18.1 20.3,18.5 19.8,18.5 L19.8,18.5 Z" id="Shape"></path>
                    <path d="M19.8,3.8 C19.2,3.8 18.8,3.4 18.8,2.8 L18.8,1.9 C18.8,1.3 19.2,0.9 19.8,0.9 C20.4,0.9 20.8,1.3 20.8,1.9 L20.8,2.8 C20.8,3.4 20.3,3.8 19.8,3.8 L19.8,3.8 Z" id="Shape"></path>
                    <path d="M27,10.7 L26.4,10.7 C25.8,10.7 25.4,10.3 25.4,9.7 C25.4,9.1 25.8,8.7 26.4,8.7 L27,8.7 C27.6,8.7 28,9.1 28,9.7 C28,10.3 27.5,10.7 27,10.7 L27,10.7 Z" id="Shape"></path>
                    <path d="M13,10.7 L12.1,10.7 C11.5,10.7 11.1,10.3 11.1,9.7 C11.1,9.1 11.5,8.7 12.1,8.7 L13,8.7 C13.6,8.7 14,9.1 14,9.7 C14,10.3 13.5,10.7 13,10.7 L13,10.7 Z" id="Shape"></path>
                    <path d="M24,27.8 L15.5,27.8 C14.9,27.8 14.5,27.4 14.5,26.8 L14.5,22.2 C14.5,21.6 14.9,21.2 15.5,21.2 L24,21.2 C24.6,21.2 25,21.6 25,22.2 L25,26.8 C25,27.3 24.5,27.8 24,27.8 L24,27.8 Z M16.5,25.8 L23,25.8 L23,23.2 L16.5,23.2 L16.5,25.8 L16.5,25.8 Z" id="Shape"></path>
                    <path d="M17.8,23.2 C17.2,23.2 16.8,22.8 16.8,22.2 L16.8,17.5 C16.8,16.9 17.2,16.5 17.8,16.5 C18.4,16.5 18.8,16.9 18.8,17.5 L18.8,22.2 C18.8,22.8 18.4,23.2 17.8,23.2 L17.8,23.2 Z" id="Shape"></path>
                    <path d="M21.6,23.2 C21,23.2 20.6,22.8 20.6,22.2 L20.6,17.5 C20.6,16.9 21,16.5 21.6,16.5 C22.2,16.5 22.6,16.9 22.6,17.5 L22.6,22.2 C22.6,22.8 22.2,23.2 21.6,23.2 L21.6,23.2 Z" id="Shape"></path>
                    <path d="M19.8,14.7 C17.1,14.7 14.9,12.5 14.9,9.8 C14.9,7.1 17.1,4.9 19.8,4.9 C22.5,4.9 24.7,7.1 24.7,9.8 C24.7,12.5 22.5,14.7 19.8,14.7 L19.8,14.7 Z M19.8,6.8 C18.2,6.8 16.9,8.1 16.9,9.7 C16.9,11.3 18.2,12.6 19.8,12.6 C21.4,12.6 22.7,11.3 22.7,9.7 C22.7,8.1 21.4,6.8 19.8,6.8 L19.8,6.8 Z" id="Shape"></path>
                    <path d="M29,38.5 L10.6,38.5 C10,38.5 9.6,38.1 9.6,37.5 C9.6,36.9 10,36.5 10.6,36.5 L29,36.5 C29.6,36.5 30,36.9 30,37.5 C30,38.1 29.6,38.5 29,38.5 L29,38.5 Z" id="Shape"></path>
                    <path d="M29,33.5 L10.6,33.5 C10,33.5 9.6,33.1 9.6,32.5 C9.6,31.9 10,31.5 10.6,31.5 L29,31.5 C29.6,31.5 30,31.9 30,32.5 C30,33.1 29.6,33.5 29,33.5 L29,33.5 Z" id="Shape"></path>
                    <path d="M29,43.5 L10.6,43.5 C10,43.5 9.6,43.1 9.6,42.5 C9.6,41.9 10,41.5 10.6,41.5 L29,41.5 C29.6,41.5 30,41.9 30,42.5 C30,43.1 29.6,43.5 29,43.5 L29,43.5 Z" id="Shape"></path>
                    <path d="M25.9,53.5 L6.9,53.5 C6.3,53.5 5.9,53.1 5.9,52.5 C5.9,51.9 6.3,51.5 6.9,51.5 L25.8,51.5 C26.4,51.5 26.8,51.9 26.8,52.5 C26.8,53.1 26.4,53.5 25.9,53.5 L25.9,53.5 Z" id="Shape"></path>
                    <path d="M25.9,62.1 C23,62.1 20.6,59.7 20.6,56.8 C20.6,53.9 23,51.5 25.9,51.5 C28.8,51.5 31.2,53.9 31.2,56.8 C31.2,59.7 28.8,62.1 25.9,62.1 L25.9,62.1 Z M25.9,53.5 C24.1,53.5 22.6,55 22.6,56.8 C22.6,58.6 24.1,60.1 25.9,60.1 C27.7,60.1 29.2,58.6 29.2,56.8 C29.2,55 27.7,53.5 25.9,53.5 L25.9,53.5 Z" id="Shape"></path>
                </g>
            </g>
        </g>
    </g>
</svg>