<?xml version="1.0" encoding="UTF-8" standalone="no"?>
<svg width="57px" height="50px" viewBox="0 0 57 50" version="1.1" xmlns="http://www.w3.org/2000/svg" xmlns:xlink="http://www.w3.org/1999/xlink">
    <!-- Generator: Sketch 39.1 (31720) - http://www.bohemiancoding.com/sketch -->
    <title>Group 25</title>
    <desc>Created with Sketch.</desc>
    <defs></defs>
    <g id="-" stroke="none" stroke-width="1" fill="none" fill-rule="evenodd">
        <g id="Holod_Open" transform="translate(-482.000000, -3570.000000)" fill="#1D87E4">
            <g id="Oborudovanie" transform="translate(0.000000, 3383.000000)">
                <g id="BARNDS" transform="translate(205.000000, 47.000000)">
                    <g id="WARM" transform="translate(210.000000, 140.000000)">
                        <g id="Group-25" transform="translate(67.000000, 0.000000)">
                            <path d="M55.7,49.4 C55.1,49.4 54.7,49 54.7,48.4 L54.7,21.6 L2.7,21.6 L2.7,48.4 C2.7,49 2.3,49.4 1.7,49.4 C1.1,49.4 0.7,49 0.7,48.4 L0.7,20.6 C0.7,20 1.1,19.6 1.7,19.6 L55.7,19.6 C56.3,19.6 56.7,20 56.7,20.6 L56.7,48.4 C56.7,48.9 56.2,49.4 55.7,49.4 L55.7,49.4 Z" id="Shape"></path>
                            <path d="M23.9,21.6 L9.4,21.6 C8.8,21.6 8.4,21.2 8.4,20.6 L8.4,15.7 C8.4,15.1 8.8,14.7 9.4,14.7 L23.9,14.7 C24.5,14.7 24.9,15.1 24.9,15.7 L24.9,20.6 C24.9,21.2 24.5,21.6 23.9,21.6 L23.9,21.6 Z M10.4,19.6 L22.9,19.6 L22.9,16.7 L10.4,16.7 L10.4,19.6 L10.4,19.6 Z" id="Shape"></path>
                            <path d="M47.9,21.6 L33.4,21.6 C32.8,21.6 32.4,21.2 32.4,20.6 L32.4,15.7 C32.4,15.1 32.8,14.7 33.4,14.7 L47.9,14.7 C48.5,14.7 48.9,15.1 48.9,15.7 L48.9,20.6 C48.9,21.2 48.5,21.6 47.9,21.6 L47.9,21.6 Z M34.4,19.6 L46.9,19.6 L46.9,16.7 L34.4,16.7 L34.4,19.6 L34.4,19.6 Z" id="Shape"></path>
                            <path d="M50.9,35.5 L6.4,35.5 C5.8,35.5 5.4,35.1 5.4,34.5 L5.4,25.4 C5.4,24.8 5.8,24.4 6.4,24.4 L50.9,24.4 C51.5,24.4 51.9,24.8 51.9,25.4 L51.9,34.5 C51.9,35 51.5,35.5 50.9,35.5 L50.9,35.5 Z M7.4,33.5 L49.9,33.5 L49.9,26.4 L7.4,26.4 L7.4,33.5 L7.4,33.5 Z" id="Shape"></path>
                            <path d="M50.9,29.4 L6.4,29.4 C5.8,29.4 5.4,29 5.4,28.4 C5.4,27.8 5.8,27.4 6.4,27.4 L50.9,27.4 C51.5,27.4 51.9,27.8 51.9,28.4 C51.9,29 51.5,29.4 50.9,29.4 L50.9,29.4 Z" id="Shape"></path>
                            <path d="M50.9,32.4 L6.4,32.4 C5.8,32.4 5.4,32 5.4,31.4 C5.4,30.8 5.8,30.4 6.4,30.4 L50.9,30.4 C51.5,30.4 51.9,30.8 51.9,31.4 C51.9,32 51.5,32.4 50.9,32.4 L50.9,32.4 Z" id="Shape"></path>
                            <path d="M6.4,49.4 L1.6,49.4 C1,49.4 0.6,49 0.6,48.4 C0.6,47.8 1,47.4 1.6,47.4 L6.4,47.4 C7,47.4 7.4,47.8 7.4,48.4 C7.4,49 7,49.4 6.4,49.4 L6.4,49.4 Z" id="Shape"></path>
                            <path d="M55.7,49.4 L50.9,49.4 C50.3,49.4 49.9,49 49.9,48.4 C49.9,47.8 50.3,47.4 50.9,47.4 L55.7,47.4 C56.3,47.4 56.7,47.8 56.7,48.4 C56.7,49 56.2,49.4 55.7,49.4 L55.7,49.4 Z" id="Shape"></path>
                            <path d="M6.4,49.4 C5.8,49.4 5.4,49 5.4,48.4 L5.4,39.2 C5.4,38.6 5.8,38.2 6.4,38.2 C7,38.2 7.4,38.6 7.4,39.2 L7.4,48.4 C7.4,48.9 7,49.4 6.4,49.4 L6.4,49.4 Z" id="Shape"></path>
                            <path d="M50.9,40.2 L6.4,40.2 C5.8,40.2 5.4,39.8 5.4,39.2 C5.4,38.6 5.8,38.2 6.4,38.2 L50.9,38.2 C51.5,38.2 51.9,38.6 51.9,39.2 C51.9,39.8 51.5,40.2 50.9,40.2 L50.9,40.2 Z" id="Shape"></path>
                            <path d="M50.9,49.4 C50.3,49.4 49.9,49 49.9,48.4 L49.9,39.2 C49.9,38.6 50.3,38.2 50.9,38.2 C51.5,38.2 51.9,38.6 51.9,39.2 L51.9,48.4 C51.9,48.9 51.5,49.4 50.9,49.4 L50.9,49.4 Z" id="Shape"></path>
                            <path d="M42.3,49.4 L15.1,49.4 C13.1,49.4 11.5,47.8 11.5,45.8 C11.5,43.8 13.1,42.2 15.1,42.2 L42.3,42.2 C44.3,42.2 45.9,43.8 45.9,45.8 C45.9,47.8 44.3,49.4 42.3,49.4 L42.3,49.4 Z M15.1,44.1 C14.2,44.1 13.5,44.8 13.5,45.7 C13.5,46.6 14.2,47.3 15.1,47.3 L42.3,47.3 C43.2,47.3 43.9,46.6 43.9,45.7 C43.9,44.8 43.2,44.1 42.3,44.1 L15.1,44.1 L15.1,44.1 Z" id="Shape"></path>
                            <path d="M12.5,46.7 L6.5,46.7 C5.9,46.7 5.5,46.3 5.5,45.7 C5.5,45.1 5.9,44.7 6.5,44.7 L12.5,44.7 C13.1,44.7 13.5,45.1 13.5,45.7 C13.5,46.3 13,46.7 12.5,46.7 L12.5,46.7 Z" id="Shape"></path>
                            <path d="M50.9,46.7 L44.9,46.7 C44.3,46.7 43.9,46.3 43.9,45.7 C43.9,45.1 44.3,44.7 44.9,44.7 L50.9,44.7 C51.5,44.7 51.9,45.1 51.9,45.7 C51.9,46.3 51.5,46.7 50.9,46.7 L50.9,46.7 Z" id="Shape"></path>
                            <g id="Group" transform="translate(11.000000, 0.000000)">
                                <path d="M5.7,11.9 C5.1,11.9 4.7,11.5 4.7,10.9 L4.7,1.5 C4.7,0.9 5.1,0.5 5.7,0.5 L5.7,0.5 C6.3,0.5 6.7,0.9 6.7,1.5 L6.7,10.9 C6.7,11.5 6.2,11.9 5.7,11.9 L5.7,11.9 L5.7,11.9 Z" id="Shape"></path>
                                <path d="M9.8,9.5 C9.6,9.5 9.5,9.5 9.3,9.4 L1.1,4.8 C0.6,4.5 0.4,3.9 0.7,3.4 C1,2.9 1.6,2.7 2.1,3 L10.3,7.6 C10.8,7.9 11,8.5 10.7,9 C10.5,9.3 10.2,9.5 9.8,9.5 L9.8,9.5 Z" id="Shape"></path>
                                <path d="M1.6,9.5 C1.3,9.5 0.9,9.3 0.7,9 C0.4,8.5 0.6,7.9 1.1,7.6 L9.3,3 C9.8,2.7 10.4,2.9 10.7,3.4 C11,3.9 10.8,4.5 10.3,4.8 L2.1,9.4 C1.9,9.5 1.7,9.5 1.6,9.5 L1.6,9.5 Z" id="Shape"></path>
                            </g>
                            <g id="Group" transform="translate(35.000000, 0.000000)">
                                <path d="M5.7,11.9 C5.1,11.9 4.7,11.5 4.7,10.9 L4.7,1.5 C4.7,0.9 5.1,0.5 5.7,0.5 L5.7,0.5 C6.3,0.5 6.7,0.9 6.7,1.5 L6.7,10.9 C6.7,11.5 6.3,11.9 5.7,11.9 L5.7,11.9 L5.7,11.9 Z" id="Shape"></path>
                                <path d="M9.8,9.5 C9.6,9.5 9.5,9.5 9.3,9.4 L1.1,4.8 C0.6,4.5 0.4,3.9 0.7,3.4 C1,2.9 1.6,2.7 2.1,3 L10.3,7.6 C10.8,7.9 11,8.5 10.7,9 C10.5,9.3 10.2,9.5 9.8,9.5 L9.8,9.5 Z" id="Shape"></path>
                                <path d="M1.6,9.5 C1.3,9.5 0.9,9.3 0.7,9 C0.4,8.5 0.6,7.9 1.1,7.6 L9.3,3 C9.8,2.7 10.4,2.9 10.7,3.4 C11,3.9 10.8,4.5 10.3,4.8 L2.1,9.4 C1.9,9.5 1.7,9.5 1.6,9.5 L1.6,9.5 Z" id="Shape"></path>
                            </g>
                        </g>
                    </g>
                </g>
            </g>
        </g>
    </g>
</svg>