<?xml version="1.0" encoding="UTF-8" standalone="no"?>
<svg width="65px" height="38px" viewBox="0 0 65 38" version="1.1" xmlns="http://www.w3.org/2000/svg" xmlns:xlink="http://www.w3.org/1999/xlink">
    <!-- Generator: Sketch 39.1 (31720) - http://www.bohemiancoding.com/sketch -->
    <title>Group 32</title>
    <desc>Created with Sketch.</desc>
    <defs></defs>
    <g id="-" stroke="none" stroke-width="1" fill="none" fill-rule="evenodd">
        <g id="Holod_Open" transform="translate(-690.000000, -3582.000000)" fill="#1D87E4">
            <g id="Oborudovanie" transform="translate(0.000000, 3383.000000)">
                <g id="BARNDS" transform="translate(205.000000, 47.000000)">
                    <g id="WATER" transform="translate(420.000000, 152.000000)">
                        <g id="Group-9" transform="translate(13.000000, 0.000000)">
                            <g id="Group-32" transform="translate(52.000000, 0.000000)">
                                <path d="M27.4,29.2 L8.4,29.2 C6.7,29.2 5.4,27.9 5.4,26.2 L5.4,7.2 C5.4,5.5 6.7,4.2 8.4,4.2 L27.4,4.2 C29.1,4.2 30.4,5.5 30.4,7.2 L30.4,26.2 C30.4,27.8 29.1,29.2 27.4,29.2 L27.4,29.2 Z M8.5,6.2 C7.9,6.2 7.5,6.6 7.5,7.2 L7.5,26.2 C7.5,26.8 7.9,27.2 8.5,27.2 L27.5,27.2 C28.1,27.2 28.5,26.8 28.5,26.2 L28.5,7.2 C28.5,6.6 28.1,6.2 27.5,6.2 L8.5,6.2 L8.5,6.2 Z" id="Shape"></path>
                                <path d="M63.1,37.2 C62.5,37.2 62.1,36.8 62.1,36.2 L62.1,2.2 L2.9,2.2 L2.9,36.2 C2.9,36.8 2.5,37.2 1.9,37.2 C1.3,37.2 0.9,36.8 0.9,36.2 L0.9,1.2 C0.9,0.6 1.3,0.2 1.9,0.2 L63.1,0.2 C63.7,0.2 64.1,0.6 64.1,1.2 L64.1,36.2 C64.1,36.7 63.6,37.2 63.1,37.2 L63.1,37.2 Z" id="Shape"></path>
                                <path d="M18,22.4 C14.8,22.4 12.2,19.8 12.2,16.6 C12.2,13.4 14.8,10.8 18,10.8 C21.2,10.8 23.8,13.4 23.8,16.6 C23.8,19.8 21.1,22.4 18,22.4 L18,22.4 Z M18,12.9 C15.9,12.9 14.2,14.6 14.2,16.7 C14.2,18.8 15.9,20.5 18,20.5 C20.1,20.5 21.8,18.8 21.8,16.7 C21.7,14.6 20,12.9 18,12.9 L18,12.9 Z" id="Shape"></path>
                                <path d="M18,12.8 C17.4,12.8 17,12.4 17,11.8 L17,5.3 C17,4.7 17.4,4.3 18,4.3 C18.6,4.3 19,4.7 19,5.3 L19,11.8 C19,12.3 18.5,12.8 18,12.8 L18,12.8 Z" id="Shape"></path>
                                <path d="M22.7,17.7 C22.1,17.7 21.7,17.3 21.7,16.7 L21.7,5.2 C21.7,4.6 22.1,4.2 22.7,4.2 C23.3,4.2 23.7,4.6 23.7,5.2 L23.7,16.7 C23.7,17.2 23.3,17.7 22.7,17.7 L22.7,17.7 Z" id="Shape"></path>
                                <path d="M29.2,17.9 L22.7,17.9 C22.1,17.9 21.7,17.5 21.7,16.9 C21.7,16.3 22.1,15.9 22.7,15.9 L29.2,15.9 C29.8,15.9 30.2,16.3 30.2,16.9 C30.2,17.5 29.8,17.9 29.2,17.9 L29.2,17.9 Z" id="Shape"></path>
                                <path d="M29,22.4 L18,22.4 C17.4,22.4 17,22 17,21.4 C17,20.8 17.4,20.4 18,20.4 L29,20.4 C29.6,20.4 30,20.8 30,21.4 C30,22 29.6,22.4 29,22.4 L29,22.4 Z" id="Shape"></path>
                                <path d="M18,29.2 C17.4,29.2 17,28.8 17,28.2 L17,21.5 C17,20.9 17.4,20.5 18,20.5 C18.6,20.5 19,20.9 19,21.5 L19,28.2 C19,28.7 18.5,29.2 18,29.2 L18,29.2 Z" id="Shape"></path>
                                <path d="M13.2,29.2 C12.6,29.2 12.2,28.8 12.2,28.2 L12.2,17.2 C12.2,16.6 12.6,16.2 13.2,16.2 C13.8,16.2 14.2,16.6 14.2,17.2 L14.2,28.2 C14.2,28.7 13.8,29.2 13.2,29.2 L13.2,29.2 Z" id="Shape"></path>
                                <path d="M12.9,17.7 L6.5,17.7 C5.9,17.7 5.5,17.3 5.5,16.7 C5.5,16.1 5.9,15.7 6.5,15.7 L12.9,15.7 C13.5,15.7 13.9,16.1 13.9,16.7 C13.9,17.3 13.5,17.7 12.9,17.7 L12.9,17.7 Z" id="Shape"></path>
                                <path d="M18,12.9 L6.5,12.9 C5.9,12.9 5.5,12.5 5.5,11.9 C5.5,11.3 5.9,10.9 6.5,10.9 L18,10.9 C18.6,10.9 19,11.3 19,11.9 C19,12.5 18.5,12.9 18,12.9 L18,12.9 Z" id="Shape"></path>
                                <path d="M18,26.2 C12.8,26.2 8.5,21.9 8.5,16.7 C8.5,11.5 12.8,7.2 18,7.2 C23.2,7.2 27.5,11.5 27.5,16.7 C27.5,21.9 23.2,26.2 18,26.2 L18,26.2 Z M18,9.2 C13.9,9.2 10.5,12.6 10.5,16.7 C10.5,20.8 13.9,24.2 18,24.2 C22.1,24.2 25.5,20.8 25.5,16.7 C25.5,12.6 22.1,9.2 18,9.2 L18,9.2 Z" id="Shape"></path>
                                <path d="M6.5,14.1 L6.2,14.1 C5.7,13.9 5.4,13.4 5.5,12.8 C6.8,8.8 9.9,5.7 13.9,4.4 C14.4,4.2 15,4.5 15.2,5 C15.4,5.5 15.1,6.1 14.6,6.3 C11.2,7.4 8.6,10.1 7.5,13.4 C7.4,13.8 7,14.1 6.5,14.1 L6.5,14.1 Z" id="Shape"></path>
                                <path d="M14.2,29.1 C14.1,29.1 14,29.1 13.9,29 C10,27.7 6.9,24.5 5.6,20.6 C5.4,20.1 5.7,19.5 6.3,19.3 C6.8,19.1 7.4,19.4 7.6,20 C8.7,23.3 11.3,26 14.6,27.1 C15.1,27.3 15.4,27.8 15.2,28.4 C15,28.8 14.6,29.1 14.2,29.1 L14.2,29.1 Z" id="Shape"></path>
                                <path d="M21.8,29.1 C21.4,29.1 21,28.8 20.9,28.4 C20.7,27.9 21,27.3 21.5,27.1 C24.8,26 27.4,23.4 28.5,20.1 C28.7,19.6 29.2,19.3 29.8,19.5 C30.3,19.7 30.6,20.2 30.4,20.8 C29.1,24.7 26.1,27.8 22.2,29.1 C22,29 21.9,29.1 21.8,29.1 L21.8,29.1 Z" id="Shape"></path>
                                <path d="M29.3,13.8 C28.9,13.8 28.5,13.5 28.4,13.1 C27.3,9.8 24.7,7.2 21.4,6.2 C20.9,6 20.6,5.5 20.8,4.9 C21,4.4 21.5,4.1 22.1,4.3 C26,5.5 29.1,8.6 30.4,12.5 C30.6,13 30.3,13.6 29.8,13.8 L29.3,13.8 L29.3,13.8 Z" id="Shape"></path>
                                <path d="M56.4,29.2 L37.4,29.2 C35.7,29.2 34.4,27.9 34.4,26.2 L34.4,7.2 C34.4,5.5 35.7,4.2 37.4,4.2 L56.4,4.2 C58.1,4.2 59.4,5.5 59.4,7.2 L59.4,26.2 C59.4,27.8 58.1,29.2 56.4,29.2 L56.4,29.2 Z M37.5,6.2 C36.9,6.2 36.5,6.6 36.5,7.2 L36.5,26.2 C36.5,26.8 36.9,27.2 37.5,27.2 L56.5,27.2 C57.1,27.2 57.5,26.8 57.5,26.2 L57.5,7.2 C57.5,6.6 57.1,6.2 56.5,6.2 L37.5,6.2 L37.5,6.2 Z" id="Shape"></path>
                                <path d="M47,22.4 C43.8,22.4 41.2,19.8 41.2,16.6 C41.2,13.4 43.8,10.8 47,10.8 C50.2,10.8 52.8,13.4 52.8,16.6 C52.8,19.8 50.1,22.4 47,22.4 L47,22.4 Z M47,12.9 C44.9,12.9 43.2,14.6 43.2,16.7 C43.2,18.8 44.9,20.5 47,20.5 C49.1,20.5 50.8,18.8 50.8,16.7 C50.7,14.6 49,12.9 47,12.9 L47,12.9 Z" id="Shape"></path>
                                <path d="M47,12.8 C46.4,12.8 46,12.4 46,11.8 L46,5.3 C46,4.7 46.4,4.3 47,4.3 C47.6,4.3 48,4.7 48,5.3 L48,11.8 C48,12.3 47.5,12.8 47,12.8 L47,12.8 Z" id="Shape"></path>
                                <path d="M51.7,17.7 C51.1,17.7 50.7,17.3 50.7,16.7 L50.7,5.2 C50.7,4.6 51.1,4.2 51.7,4.2 C52.3,4.2 52.7,4.6 52.7,5.2 L52.7,16.7 C52.7,17.2 52.3,17.7 51.7,17.7 L51.7,17.7 Z" id="Shape"></path>
                                <path d="M58.2,17.9 L51.7,17.9 C51.1,17.9 50.7,17.5 50.7,16.9 C50.7,16.3 51.1,15.9 51.7,15.9 L58.2,15.9 C58.8,15.9 59.2,16.3 59.2,16.9 C59.2,17.5 58.8,17.9 58.2,17.9 L58.2,17.9 Z" id="Shape"></path>
                                <path d="M58,22.4 L47,22.4 C46.4,22.4 46,22 46,21.4 C46,20.8 46.4,20.4 47,20.4 L58,20.4 C58.6,20.4 59,20.8 59,21.4 C59,22 58.6,22.4 58,22.4 L58,22.4 Z" id="Shape"></path>
                                <path d="M47,29.2 C46.4,29.2 46,28.8 46,28.2 L46,21.5 C46,20.9 46.4,20.5 47,20.5 C47.6,20.5 48,20.9 48,21.5 L48,28.2 C48,28.7 47.5,29.2 47,29.2 L47,29.2 Z" id="Shape"></path>
                                <path d="M42.2,29.2 C41.6,29.2 41.2,28.8 41.2,28.2 L41.2,17.2 C41.2,16.6 41.6,16.2 42.2,16.2 C42.8,16.2 43.2,16.6 43.2,17.2 L43.2,28.2 C43.2,28.7 42.8,29.2 42.2,29.2 L42.2,29.2 Z" id="Shape"></path>
                                <path d="M41.9,17.7 L35.5,17.7 C34.9,17.7 34.5,17.3 34.5,16.7 C34.5,16.1 34.9,15.7 35.5,15.7 L41.9,15.7 C42.5,15.7 42.9,16.1 42.9,16.7 C42.9,17.3 42.5,17.7 41.9,17.7 L41.9,17.7 Z" id="Shape"></path>
                                <path d="M47,12.9 L35.5,12.9 C34.9,12.9 34.5,12.5 34.5,11.9 C34.5,11.3 34.9,10.9 35.5,10.9 L47,10.9 C47.6,10.9 48,11.3 48,11.9 C48,12.5 47.5,12.9 47,12.9 L47,12.9 Z" id="Shape"></path>
                                <path d="M47,26.2 C41.8,26.2 37.5,21.9 37.5,16.7 C37.5,11.5 41.8,7.2 47,7.2 C52.2,7.2 56.5,11.5 56.5,16.7 C56.5,21.9 52.2,26.2 47,26.2 L47,26.2 Z M47,9.2 C42.9,9.2 39.5,12.6 39.5,16.7 C39.5,20.8 42.9,24.2 47,24.2 C51.1,24.2 54.5,20.8 54.5,16.7 C54.5,12.6 51.1,9.2 47,9.2 L47,9.2 Z" id="Shape"></path>
                                <path d="M35.5,14.1 L35.2,14.1 C34.7,13.9 34.4,13.4 34.5,12.8 C35.8,8.8 38.9,5.7 42.9,4.4 C43.4,4.2 44,4.5 44.2,5 C44.4,5.5 44.1,6.1 43.6,6.3 C40.2,7.4 37.6,10.1 36.5,13.4 C36.4,13.8 36,14.1 35.5,14.1 L35.5,14.1 Z" id="Shape"></path>
                                <path d="M43.2,29.1 C43.1,29.1 43,29.1 42.9,29 C39,27.7 35.9,24.5 34.6,20.6 C34.4,20.1 34.7,19.5 35.3,19.3 C35.8,19.1 36.4,19.4 36.6,20 C37.7,23.3 40.3,26 43.6,27.1 C44.1,27.3 44.4,27.8 44.2,28.4 C44,28.8 43.6,29.1 43.2,29.1 L43.2,29.1 Z" id="Shape"></path>
                                <path d="M50.8,29.1 C50.4,29.1 50,28.8 49.9,28.4 C49.7,27.9 50,27.3 50.5,27.1 C53.8,26 56.4,23.4 57.5,20.1 C57.7,19.6 58.2,19.3 58.8,19.5 C59.4,19.7 59.6,20.2 59.4,20.8 C58.1,24.7 55.1,27.8 51.2,29.1 C51,29 50.9,29.1 50.8,29.1 L50.8,29.1 Z" id="Shape"></path>
                                <path d="M58.3,13.8 C57.9,13.8 57.5,13.5 57.4,13.1 C56.3,9.8 53.7,7.2 50.4,6.2 C49.9,6 49.6,5.5 49.8,4.9 C50,4.4 50.5,4.1 51.1,4.3 C55,5.5 58.1,8.6 59.4,12.5 C59.6,13 59.3,13.6 58.8,13.8 L58.3,13.8 L58.3,13.8 Z" id="Shape"></path>
                                <path d="M7.6,37.2 L1.9,37.2 C1.3,37.2 0.9,36.8 0.9,36.2 C0.9,35.6 1.3,35.2 1.9,35.2 L7.6,35.2 C8.2,35.2 8.6,35.6 8.6,36.2 C8.6,36.8 8.1,37.2 7.6,37.2 L7.6,37.2 Z" id="Shape"></path>
                                <path d="M63.1,37.2 L57.4,37.2 C56.8,37.2 56.4,36.8 56.4,36.2 C56.4,35.6 56.8,35.2 57.4,35.2 L63.1,35.2 C63.7,35.2 64.1,35.6 64.1,36.2 C64.1,36.8 63.6,37.2 63.1,37.2 L63.1,37.2 Z" id="Shape"></path>
                                <path d="M7.6,37.2 C7,37.2 6.6,36.8 6.6,36.2 L6.6,33.1 C6.6,32.5 7,32.1 7.6,32.1 C8.2,32.1 8.6,32.5 8.6,33.1 L8.6,36.2 C8.6,36.7 8.1,37.2 7.6,37.2 L7.6,37.2 Z" id="Shape"></path>
                                <path d="M57.4,37.2 C56.8,37.2 56.4,36.8 56.4,36.2 L56.4,33.1 C56.4,32.5 56.8,32.1 57.4,32.1 C58,32.1 58.4,32.5 58.4,33.1 L58.4,36.2 C58.4,36.7 57.9,37.2 57.4,37.2 L57.4,37.2 Z" id="Shape"></path>
                                <path d="M57.4,34.1 L7.6,34.1 C7,34.1 6.6,33.7 6.6,33.1 C6.6,32.5 7,32.1 7.6,32.1 L57.4,32.1 C58,32.1 58.4,32.5 58.4,33.1 C58.4,33.7 57.9,34.1 57.4,34.1 L57.4,34.1 Z" id="Shape"></path>
                            </g>
                        </g>
                    </g>
                </g>
            </g>
        </g>
    </g>
</svg>