<?xml version="1.0" encoding="UTF-8" standalone="no"?>
<svg width="57px" height="41px" viewBox="0 0 57 41" version="1.1" xmlns="http://www.w3.org/2000/svg" xmlns:xlink="http://www.w3.org/1999/xlink">
    <!-- Generator: Sketch 39.1 (31720) - http://www.bohemiancoding.com/sketch -->
    <title>Group 28</title>
    <desc>Created with Sketch.</desc>
    <defs></defs>
    <g id="-" stroke="none" stroke-width="1" fill="none" fill-rule="evenodd">
        <g id="Holod_Open" transform="translate(-902.000000, -3579.000000)" fill="#1D87E4">
            <g id="Oborudovanie" transform="translate(0.000000, 3383.000000)">
                <g id="BARNDS" transform="translate(205.000000, 47.000000)">
                    <g id="AIR" transform="translate(630.000000, 149.000000)">
                        <g id="Group-12" transform="translate(32.000000, 0.000000)">
                            <g id="Group-28" transform="translate(35.000000, 0.000000)">
                                <path d="M39,40.5 L3.7,40.5 C2,40.5 0.7,39.2 0.7,37.5 L0.7,3 C0.7,1.3 2,0 3.7,0 L39,0 C40.7,0 42,1.3 42,3 L42,37.5 C42,39.2 40.7,40.5 39,40.5 L39,40.5 Z M3.7,2 C3.1,2 2.7,2.4 2.7,3 L2.7,37.5 C2.7,38.1 3.1,38.5 3.7,38.5 L39,38.5 C39.6,38.5 40,38.1 40,37.5 L40,3 C40,2.4 39.6,2 39,2 L3.7,2 L3.7,2 Z" id="Shape"></path>
                                <path d="M1,13.5 C0.4,13.5 0,13.1 0,12.5 L0,8.3 C0,7.7 0.4,7.3 1,7.3 C1.6,7.3 2,7.7 2,8.3 L2,12.5 C2,13 1.6,13.5 1,13.5 L1,13.5 Z" id="Shape"></path>
                                <path d="M1,33.3 C0.4,33.3 0,32.9 0,32.3 L0,28.1 C0,27.5 0.4,27.1 1,27.1 C1.6,27.1 2,27.5 2,28.1 L2,32.3 C2,32.8 1.6,33.3 1,33.3 L1,33.3 Z" id="Shape"></path>
                                <path d="M35.5,28 L7.3,28 C6.2,28 5.3,27.1 5.3,26 L5.3,6.2 C5.3,5.1 6.2,4.2 7.3,4.2 L35.5,4.2 C36.6,4.2 37.5,5.1 37.5,6.2 L37.5,26 C37.5,27.1 36.6,28 35.5,28 L35.5,28 Z M35.5,26 L35.5,27 L35.5,26 L35.5,26 L35.5,26 L35.5,26 Z M7.3,6.2 L7.3,26 L35.5,26 L35.5,6.2 L7.3,6.2 L7.3,6.2 Z" id="Shape"></path>
                                <path d="M9.5,37.1 C7.5,37.1 5.9,35.5 5.9,33.5 C5.9,31.5 7.5,29.9 9.5,29.9 C11.5,29.9 13.1,31.5 13.1,33.5 C13.1,35.5 11.5,37.1 9.5,37.1 L9.5,37.1 Z M9.5,31.9 C8.6,31.9 7.9,32.6 7.9,33.5 C7.9,34.4 8.6,35.1 9.5,35.1 C10.4,35.1 11.1,34.4 11.1,33.5 C11.1,32.6 10.4,31.9 9.5,31.9 L9.5,31.9 Z" id="Shape"></path>
                                <path d="M18,37.1 C16,37.1 14.4,35.5 14.4,33.5 C14.4,31.5 16,29.9 18,29.9 C20,29.9 21.6,31.5 21.6,33.5 C21.6,35.5 20,37.1 18,37.1 L18,37.1 Z M18,31.9 C17.1,31.9 16.4,32.6 16.4,33.5 C16.4,34.4 17.1,35.1 18,35.1 C18.9,35.1 19.6,34.4 19.6,33.5 C19.6,32.6 18.9,31.9 18,31.9 L18,31.9 Z" id="Shape"></path>
                                <path d="M49.8,11.4 L41,11.4 C40.4,11.4 40,11 40,10.4 C40,9.8 40.4,9.4 41,9.4 L49.8,9.4 C50.4,9.4 50.8,9.8 50.8,10.4 C50.8,11 50.4,11.4 49.8,11.4 L49.8,11.4 Z" id="Shape"></path>
                                <path d="M49.8,29.4 C49.2,29.4 48.8,29 48.8,28.4 L48.8,10.4 C48.8,9.8 49.2,9.4 49.8,9.4 C50.4,9.4 50.8,9.8 50.8,10.4 L50.8,28.4 C50.8,28.9 50.4,29.4 49.8,29.4 L49.8,29.4 Z" id="Shape"></path>
                                <path d="M53.2,15.3 L41,15.3 C40.4,15.3 40,14.9 40,14.3 C40,13.7 40.4,13.3 41,13.3 L53.2,13.3 C53.8,13.3 54.2,13.7 54.2,14.3 C54.2,14.9 53.8,15.3 53.2,15.3 L53.2,15.3 Z" id="Shape"></path>
                                <path d="M53.2,30 C52.6,30 52.2,29.6 52.2,29 L52.2,14.3 C52.2,13.7 52.6,13.3 53.2,13.3 C53.8,13.3 54.2,13.7 54.2,14.3 L54.2,29 C54.2,29.6 53.8,30 53.2,30 L53.2,30 Z" id="Shape"></path>
                                <path d="M46.4,24.1 L41,24.1 C40.4,24.1 40,23.7 40,23.1 C40,22.5 40.4,22.1 41,22.1 L46.4,22.1 C47,22.1 47.4,22.5 47.4,23.1 C47.4,23.7 47,24.1 46.4,24.1 L46.4,24.1 Z" id="Shape"></path>
                                <path d="M46.4,30.2 C45.8,30.2 45.4,29.8 45.4,29.2 L45.4,23.1 C45.4,22.5 45.8,22.1 46.4,22.1 C47,22.1 47.4,22.5 47.4,23.1 L47.4,29.2 C47.4,29.8 47,30.2 46.4,30.2 L46.4,30.2 Z" id="Shape"></path>
                                <path d="M55.9,40.5 L44.7,40.5 C44.1,40.5 43.7,40.1 43.7,39.5 L43.7,29.2 C43.7,28.6 44.1,28.2 44.7,28.2 L55.9,28.2 C56.5,28.2 56.9,28.6 56.9,29.2 L56.9,39.5 C56.9,40.1 56.4,40.5 55.9,40.5 L55.9,40.5 Z M45.7,38.5 L54.9,38.5 L54.9,30.2 L45.7,30.2 L45.7,38.5 L45.7,38.5 Z" id="Shape"></path>
                                <path d="M31.3,18.8 L11.4,18.8 C10.8,18.8 10.4,18.4 10.4,17.8 L10.4,10 C10.4,9.4 10.8,9 11.4,9 L31.3,9 C31.9,9 32.3,9.4 32.3,10 L32.3,17.7 C32.3,18.3 31.9,18.8 31.3,18.8 L31.3,18.8 Z M12.4,16.8 L30.3,16.8 L30.3,11 L12.4,11 L12.4,16.8 L12.4,16.8 Z" id="Shape"></path>
                            </g>
                        </g>
                    </g>
                </g>
            </g>
        </g>
    </g>
</svg>