<?xml version="1.0" encoding="UTF-8" standalone="no"?>
<svg width="95px" height="64px" viewBox="0 0 95 64" version="1.1" xmlns="http://www.w3.org/2000/svg" xmlns:xlink="http://www.w3.org/1999/xlink">
    <!-- Generator: Sketch 39.1 (31720) - http://www.bohemiancoding.com/sketch -->
    <title>Group 2</title>
    <desc>Created with Sketch.</desc>
    <defs></defs>
    <g id="-" stroke="none" stroke-width="1" fill="none" fill-rule="evenodd">
        <g id="Holod_Open" transform="translate(-723.000000, -1316.000000)" fill="#1D87E4">
            <g id="PROECTIROVANIE" transform="translate(0.000000, 1036.000000)">
                <g id="CLASSIFICATION" transform="translate(146.000000, 269.000000)">
                    <g id="OVOSHEHRANILISHE" transform="translate(531.000000, 11.000000)">
                        <g id="Group-18-Copy">
                            <g id="Group-2" transform="translate(46.000000, 0.000000)">
                                <path d="M77.7,63.6 C68.4,63.6 60.9,56 60.9,46.8 C60.9,46.2 61.3,45.8 61.9,45.8 C62.5,45.8 62.9,46.2 62.9,46.8 C62.9,55 69.6,61.6 77.7,61.6 C85.8,61.6 92.5,54.9 92.5,46.8 C92.5,46.2 92.9,45.8 93.5,45.8 C94.1,45.8 94.5,46.2 94.5,46.8 C94.6,56 87,63.6 77.7,63.6 L77.7,63.6 Z" id="Shape"></path>
                                <path d="M93.6,47.7 L61.9,47.7 C61.3,47.7 60.9,47.3 60.9,46.7 C60.9,46.1 61.3,45.7 61.9,45.7 L93.6,45.7 C94.2,45.7 94.6,46.1 94.6,46.7 C94.6,47.3 94.1,47.7 93.6,47.7 L93.6,47.7 Z" id="Shape"></path>
                                <path d="M66.8,47.7 L66.7,47.7 C66.2,47.6 65.8,47.1 65.9,46.6 C66,45.8 66.1,44.9 66.1,44.1 C66.1,34.4 58.2,26.6 48.6,26.6 C39,26.6 31.1,34.5 31.1,44.1 C31.1,44.7 30.7,45.1 30.1,45.1 C29.5,45.1 29.1,44.7 29.1,44.1 C29.1,33.3 37.9,24.6 48.6,24.6 C59.3,24.6 68,33.3 68,44 C68,44.9 67.9,45.9 67.8,46.8 C67.7,47.4 67.3,47.7 66.8,47.7 L66.8,47.7 Z" id="Shape"></path>
                                <path d="M48.5,63.6 C43.7,63.6 39,61.8 35.4,58.6 C35,58.2 35,57.6 35.3,57.2 C35.7,56.8 36.3,56.8 36.7,57.1 C39.9,60 44.1,61.6 48.4,61.6 C52.7,61.6 56.8,60 60,57.2 C60.4,56.8 61,56.9 61.4,57.3 C61.8,57.7 61.7,58.3 61.3,58.7 C57.8,61.8 53.2,63.6 48.5,63.6 L48.5,63.6 Z" id="Shape"></path>
                                <path d="M77.7,63.6 C77.1,63.6 76.7,63.2 76.7,62.6 L76.7,46.8 C76.7,46.2 77.1,45.8 77.7,45.8 C78.3,45.8 78.7,46.2 78.7,46.8 L78.7,62.6 C78.7,63.1 78.3,63.6 77.7,63.6 L77.7,63.6 Z" id="Shape"></path>
                                <path d="M88.9,58.9 C88.6,58.9 88.4,58.8 88.2,58.6 L77,47.4 C76.6,47 76.6,46.4 77,46 C77.4,45.6 78,45.6 78.4,46 L89.6,57.2 C90,57.6 90,58.2 89.6,58.6 C89.5,58.8 89.2,58.9 88.9,58.9 L88.9,58.9 Z" id="Shape"></path>
                                <path d="M66.5,58.9 C66.2,58.9 66,58.8 65.8,58.6 C65.4,58.2 65.4,57.6 65.8,57.2 L77,46 C77.4,45.6 78,45.6 78.4,46 C78.8,46.4 78.8,47 78.4,47.4 L67.2,58.6 C67,58.8 66.8,58.9 66.5,58.9 L66.5,58.9 Z" id="Shape"></path>
                                <path d="M54.4,23.3 C50.6,23.3 47.5,20.2 47.5,16.4 C47.5,12.6 50.6,9.5 54.4,9.5 C55,9.5 55.4,9.9 55.4,10.5 C55.4,11.1 55,11.5 54.4,11.5 C51.7,11.5 49.5,13.7 49.5,16.4 C49.5,19.1 51.7,21.3 54.4,21.3 C55,21.3 55.4,21.7 55.4,22.3 C55.4,22.9 55,23.3 54.4,23.3 L54.4,23.3 Z" id="Shape"></path>
                                <path d="M72.5,11.5 C71.9,11.5 71.5,11.1 71.5,10.5 C71.5,6.1 67.9,2.5 63.5,2.5 C59.1,2.5 55.5,6.1 55.5,10.5 C55.5,11.1 55.1,11.5 54.5,11.5 C53.9,11.5 53.5,11.1 53.5,10.5 C53.5,5 58,0.5 63.5,0.5 C69,0.5 73.5,5 73.5,10.5 C73.5,11.1 73,11.5 72.5,11.5 L72.5,11.5 Z" id="Shape"></path>
                                <path d="M85,17.4 C84.9,17.4 84.7,17.4 84.6,17.3 C84.1,17.1 83.9,16.5 84.1,16 C84.8,14.6 84.8,13 84.3,11.5 C83.8,10 82.7,8.8 81.2,8.2 C79.8,7.5 78.2,7.5 76.7,8 C75.2,8.5 74,9.6 73.4,11.1 C73.2,11.6 72.6,11.8 72.1,11.6 C71.6,11.4 71.4,10.8 71.6,10.3 C72.5,8.4 74.1,6.9 76,6.2 C78,5.5 80.1,5.6 82,6.4 C83.9,7.3 85.4,8.9 86.1,10.8 C86.8,12.7 86.7,14.9 85.9,16.8 C85.8,17.2 85.4,17.4 85,17.4 L85,17.4 Z" id="Shape"></path>
                                <path d="M86.8,27.8 C86.3,27.8 85.9,27.5 85.8,27 C85.7,26.5 86,25.9 86.5,25.8 C88.2,25.4 89.3,23.7 89.1,21.4 C88.9,18.5 86.2,17.4 85.1,17.4 C85.1,17.4 85.1,17.4 85,17.4 C84.5,17.4 84,17 84,16.4 C84,15.8 84.4,15.4 85,15.4 L85.1,15.4 C87.4,15.4 90.8,17.5 91.1,21.3 C91.3,24.5 89.7,27.1 87,27.8 L86.8,27.8 L86.8,27.8 Z" id="Shape"></path>
                                <path d="M77.7,47.7 C77.1,47.7 76.7,47.3 76.7,46.7 L76.7,35.8 C76.7,30.3 81.2,25.8 86.7,25.8 C87.3,25.8 87.7,26.2 87.7,26.8 C87.7,27.4 87.3,27.8 86.7,27.8 C82.3,27.8 78.7,31.4 78.7,35.8 L78.7,46.7 C78.7,47.3 78.3,47.7 77.7,47.7 L77.7,47.7 Z" id="Shape"></path>
                                <circle id="Oval" cx="39.5" cy="37.2" r="1.8"></circle>
                                <path d="M19.6,63.6 C15.6,63.6 12.4,60.4 12.4,56.4 L12.4,52.1 C12.4,48.1 15.6,44.9 19.6,44.9 C20.3,44.9 21.1,45 21.8,45.2 L39.9,51 C41.3,51.5 42.3,52.7 42.3,54.2 C42.3,55.7 41.4,57 39.9,57.4 L21.8,63.2 C21.1,63.5 20.4,63.6 19.6,63.6 L19.6,63.6 Z M19.6,46.9 C16.7,46.9 14.4,49.2 14.4,52.1 L14.4,56.4 C14.4,59.3 16.7,61.6 19.6,61.6 C20.1,61.6 20.7,61.5 21.2,61.3 L39.3,55.5 C40,55.3 40.3,54.7 40.3,54.2 C40.3,53.7 40,53.1 39.3,52.9 L21.2,47.1 C20.7,46.9 20.2,46.9 19.6,46.9 L19.6,46.9 Z" id="Shape"></path>
                                <path d="M18.9,51.5 C18.3,51.5 17.9,51.1 17.9,50.5 L17.9,46 C17.9,45.4 18.3,45 18.9,45 C19.5,45 19.9,45.4 19.9,46 L19.9,50.5 C19.9,51 19.4,51.5 18.9,51.5 L18.9,51.5 Z" id="Shape"></path>
                                <path d="M23.2,62.7 C22.6,62.7 22.2,62.3 22.2,61.7 L22.2,57.8 C22.2,57.2 22.6,56.8 23.2,56.8 C23.8,56.8 24.2,57.2 24.2,57.8 L24.2,61.7 C24.2,62.3 23.8,62.7 23.2,62.7 L23.2,62.7 Z" id="Shape"></path>
                                <path d="M29.1,53.6 C28.5,53.6 28.1,53.2 28.1,52.6 L28.1,48.6 C28.1,48 28.5,47.6 29.1,47.6 C29.7,47.6 30.1,48 30.1,48.6 L30.1,52.6 C30.1,53.1 29.7,53.6 29.1,53.6 L29.1,53.6 Z" id="Shape"></path>
                                <path d="M13.4,55.7 L3.7,55.7 C3.1,55.7 2.7,55.3 2.7,54.7 C2.7,54.1 3.1,53.7 3.7,53.7 L13.4,53.7 C14,53.7 14.4,54.1 14.4,54.7 C14.4,55.3 14,55.7 13.4,55.7 L13.4,55.7 Z" id="Shape"></path>
                                <path d="M9.7,60.9000122 C7.7,60.9000122 6.1,59.3000122 6.1,57.3000122 C6.1,55.3000122 7.7,53.7000122 9.7,53.7000122 C10.3,53.7000122 10.7,54.1000122 10.7,54.7000122 C10.7,55.3000122 10.3,55.7000122 9.7,55.7000122 C8.8,55.7000122 8.1,56.4000122 8.1,57.3000122 C8.1,58.2000122 8.8,58.9000122 9.7,58.9000122 C10.3,58.9000122 10.7,59.3000122 10.7,59.9000122 C10.7,60.5000122 10.2,60.9000122 9.7,60.9000122 L9.7,60.9000122 Z" id="Shape"></path>
                                <path d="M13.4,52.7 L8.7,52.7 C8.1,52.7 7.7,52.3 7.7,51.7 C7.7,51.1 8.1,50.7 8.7,50.7 L13.4,50.7 C14,50.7 14.4,51.1 14.4,51.7 C14.4,52.3 14,52.7 13.4,52.7 L13.4,52.7 Z" id="Shape"></path>
                                <path d="M8.7,52.7 C6.7,52.7 5.1,51.1 5.1,49.1 C5.1,47.1 6.7,45.5 8.7,45.5 C9.3,45.5 9.7,45.9 9.7,46.5 C9.7,47.1 9.3,47.5 8.7,47.5 C7.8,47.5 7.1,48.2 7.1,49.1 C7.1,50 7.8,50.7 8.7,50.7 C9.3,50.7 9.7,51.1 9.7,51.7 C9.7,52.3 9.2,52.7 8.7,52.7 L8.7,52.7 Z" id="Shape"></path>
                                <path d="M0,57.3000122 C0,55.3000122 1.6,53.7000122 3.6,53.7000122 C4.2,53.7000122 4.6,54.1000122 4.6,54.7000122 C4.6,55.3000122 4.2,55.7000122 3.6,55.7000122 C2.7,55.7000122 2,56.4000122 2,57.3000122 C2,58.2000122 2.7,58.9000122 3.6,58.9000122 C4.2,58.9000122 4.6,59.3000122 4.6,59.9000122 C4.6,60.5000122 4.1,60.9000122 3.6,60.9000122 C1.6,60.9000122 0,59.3000122 0,57.3000122 Z" id="Shape-Copy"></path>
                                <g id="Group-4" transform="translate(7.000000, 8.000000)">
                                    <path d="M14,27 C13.4,27 13,26.6 13,26 L13,1.9 C13,1.3 13.4,0.9 14,0.9 C14.6,0.9 15,1.3 15,1.9 L15,26 C15,26.6 14.5,27 14,27 L14,27 Z" id="Shape"></path>
                                    <path d="M14,10.4 C13.7,10.4 13.5,10.3 13.3,10.1 C12.9,9.7 12.9,9.1 13.3,8.7 L18.1,3.9 C18.5,3.5 19.1,3.5 19.5,3.9 C19.9,4.3 19.9,4.9 19.5,5.3 L14.7,10.1 C14.5,10.3 14.2,10.4 14,10.4 L14,10.4 Z" id="Shape"></path>
                                    <path d="M14,10.4 C13.7,10.4 13.5,10.3 13.3,10.1 L8.5,5.3 C8.1,4.9 8.1,4.3 8.5,3.9 C8.9,3.5 9.5,3.5 9.9,3.9 L14.7,8.7 C15.1,9.1 15.1,9.7 14.7,10.1 C14.5,10.3 14.2,10.4 14,10.4 L14,10.4 Z" id="Shape"></path>
                                    <path d="M9.2,24.5 C8.9,24.5 8.7,24.4 8.5,24.2 C8.1,23.8 8.1,23.2 8.5,22.8 L13.3,18 C13.7,17.6 14.3,17.6 14.7,18 C15.1,18.4 15.1,19 14.7,19.4 L9.9,24.2 C9.7,24.4 9.4,24.5 9.2,24.5 L9.2,24.5 Z" id="Shape"></path>
                                    <path d="M18.7,24.5 C18.4,24.5 18.2,24.4 18,24.2 L13.2,19.4 C12.8,19 12.8,18.4 13.2,18 C13.6,17.6 14.2,17.6 14.6,18 L19.4,22.8 C19.8,23.2 19.8,23.8 19.4,24.2 C19.2,24.4 19,24.5 18.7,24.5 L18.7,24.5 Z" id="Shape"></path>
                                    <path d="M26,15 L1.9,15 C1.3,15 0.9,14.6 0.9,14 C0.9,13.4 1.3,13 1.9,13 L26,13 C26.6,13 27,13.4 27,14 C27,14.6 26.6,15 26,15 L26,15 Z" id="Shape"></path>
                                    <path d="M9.3,15 C9,15 8.8,14.9 8.6,14.7 L3.8,9.9 C3.4,9.5 3.4,8.9 3.8,8.5 C4.2,8.1 4.8,8.1 5.2,8.5 L10,13.3 C10.4,13.7 10.4,14.3 10,14.7 C9.8,14.9 9.6,15 9.3,15 L9.3,15 Z" id="Shape"></path>
                                    <path d="M4.5,19.8 C4.2,19.8 4,19.7 3.8,19.5 C3.4,19.1 3.4,18.5 3.8,18.1 L8.6,13.3 C9,12.9 9.6,12.9 10,13.3 C10.4,13.7 10.4,14.3 10,14.7 L5.2,19.5 C5,19.7 4.7,19.8 4.5,19.8 L4.5,19.8 Z" id="Shape"></path>
                                    <path d="M23.4,19.8 C23.1,19.8 22.9,19.7 22.7,19.5 L17.9,14.7 C17.5,14.3 17.5,13.7 17.9,13.3 C18.3,12.9 18.9,12.9 19.3,13.3 L24.1,18.1 C24.5,18.5 24.5,19.1 24.1,19.5 C23.9,19.7 23.7,19.8 23.4,19.8 L23.4,19.8 Z" id="Shape"></path>
                                    <path d="M18.6,15 C18.3,15 18.1,14.9 17.9,14.7 C17.5,14.3 17.5,13.7 17.9,13.3 L22.7,8.5 C23.1,8.1 23.7,8.1 24.1,8.5 C24.5,8.9 24.5,9.5 24.1,9.9 L19.3,14.7 C19.1,14.9 18.8,15 18.6,15 L18.6,15 Z" id="Shape"></path>
                                </g>
                            </g>
                        </g>
                    </g>
                </g>
            </g>
        </g>
    </g>
</svg>