<?xml version="1.0" encoding="UTF-8" standalone="no"?>
<svg width="66px" height="75px" viewBox="0 0 66 75" version="1.1" xmlns="http://www.w3.org/2000/svg" xmlns:xlink="http://www.w3.org/1999/xlink">
    <!-- Generator: Sketch 39.1 (31720) - http://www.bohemiancoding.com/sketch -->
    <title>Group</title>
    <desc>Created with Sketch.</desc>
    <defs></defs>
    <g id="-" stroke="none" stroke-width="1" fill="none" fill-rule="evenodd">
        <g id="Holod_Open" transform="translate(-187.000000, -1305.000000)" fill="#1D87E4">
            <g id="PROECTIROVANIE" transform="translate(0.000000, 1036.000000)">
                <g id="CLASSIFICATION" transform="translate(146.000000, 269.000000)">
                    <g id="HOLODILNIE-SKLADI">
                        <g id="Group-18">
                            <g id="Group" transform="translate(41.000000, 0.000000)">
                                <path d="M60.72,75 L25.696,75 C22.792,75 20.416,72.6176471 20.416,69.7058824 L20.416,5.29411765 C20.416,2.38235294 22.792,0 25.696,0 L60.72,0 C63.624,0 66,2.38235294 66,5.29411765 L66,69.7058824 C66,72.6176471 63.624,75 60.72,75 L60.72,75 Z M25.696,1.76470588 C23.76,1.76470588 22.176,3.35294118 22.176,5.29411765 L22.176,69.7058824 C22.176,71.6470588 23.76,73.2352941 25.696,73.2352941 L60.72,73.2352941 C62.656,73.2352941 64.24,71.6470588 64.24,69.7058824 L64.24,5.29411765 C64.24,3.35294118 62.656,1.76470588 60.72,1.76470588 L25.696,1.76470588 L25.696,1.76470588 Z" id="Shape"></path>
                                <rect id="Rectangle-path" x="21.296" y="27.4411765" width="43.824" height="1.76470588"></rect>
                                <path d="M9.24,65.1176471 C4.576,65.1176471 0.704,61.3235294 0.704,56.5588235 C0.704,56.1176471 0.704,55.7647059 0.792,55.3235294 C0.88,54.8823529 1.32,54.5294118 1.76,54.6176471 C2.376,54.7058824 2.64,55.1470588 2.64,55.5882353 C2.552,55.9411765 2.552,56.2058824 2.552,56.5588235 C2.552,60.2647059 5.544,63.3529412 9.328,63.3529412 C13.024,63.3529412 16.104,60.3529412 16.104,56.5588235 C16.104,54.1764706 14.872,51.9705882 12.76,50.7352941 C12.496,50.5588235 12.32,50.2941176 12.32,49.9411765 L12.32,26.1176471 C12.32,24.4411765 11,23.1176471 9.328,23.1176471 C7.656,23.1176471 6.336,24.4411765 6.336,26.1176471 L6.336,49.9411765 C6.336,50.2941176 6.16,50.5588235 5.896,50.7352941 C5.28,51.0882353 4.752,51.5294118 4.224,52.0588235 C3.872,52.4117647 3.344,52.5 2.992,52.1470588 C2.64,51.7941176 2.552,51.2647059 2.904,50.9117647 C3.344,50.3823529 3.96,49.8529412 4.576,49.5 L4.576,26.2941176 C4.576,23.6470588 6.688,21.5294118 9.328,21.5294118 C11.968,21.5294118 14.08,23.6470588 14.08,26.2941176 L14.08,49.5882353 C16.368,51.1764706 17.864,53.8235294 17.864,56.6470588 C17.776,61.3235294 13.992,65.1176471 9.24,65.1176471 L9.24,65.1176471 Z" id="Shape"></path>
                                <path d="M26.84,19.9411765 C26.312,19.9411765 25.96,19.5882353 25.96,19.0588235 L25.96,10.9411765 C25.96,10.4117647 26.312,10.0588235 26.84,10.0588235 C27.368,10.0588235 27.72,10.4117647 27.72,10.9411765 L27.72,19.0588235 C27.72,19.5 27.28,19.9411765 26.84,19.9411765 L26.84,19.9411765 Z" id="Shape"></path>
                                <path d="M26.84,45.1764706 C26.312,45.1764706 25.96,44.8235294 25.96,44.2941176 L25.96,28.3235294 C25.96,27.7941176 26.312,27.4411765 26.84,27.4411765 C27.368,27.4411765 27.72,27.7941176 27.72,28.3235294 L27.72,44.2941176 C27.72,44.7352941 27.28,45.1764706 26.84,45.1764706 L26.84,45.1764706 Z" id="Shape"></path>
                                <path d="M13.112,46.6764706 L9.24,46.6764706 C8.712,46.6764706 8.36,46.3235294 8.36,45.7941176 C8.36,45.2647059 8.712,44.9117647 9.24,44.9117647 L13.112,44.9117647 C13.64,44.9117647 13.992,45.2647059 13.992,45.7941176 C13.992,46.3235294 13.64,46.6764706 13.112,46.6764706 L13.112,46.6764706 Z" id="Shape"></path>
                                <path d="M13.112,41.7352941 L10.208,41.7352941 C9.68,41.7352941 9.328,41.3823529 9.328,40.8529412 C9.328,40.3235294 9.68,39.9705882 10.208,39.9705882 L13.112,39.9705882 C13.64,39.9705882 13.992,40.3235294 13.992,40.8529412 C13.992,41.3823529 13.64,41.7352941 13.112,41.7352941 L13.112,41.7352941 Z" id="Shape"></path>
                                <path d="M13.112,36.7941176 L9.24,36.7941176 C8.712,36.7941176 8.36,36.4411765 8.36,35.9117647 C8.36,35.3823529 8.712,35.0294118 9.24,35.0294118 L13.112,35.0294118 C13.64,35.0294118 13.992,35.3823529 13.992,35.9117647 C13.992,36.4411765 13.64,36.7941176 13.112,36.7941176 L13.112,36.7941176 Z" id="Shape"></path>
                                <path d="M13.112,31.8529412 L10.208,31.8529412 C9.68,31.8529412 9.328,31.5 9.328,30.9705882 C9.328,30.4411765 9.68,30.0882353 10.208,30.0882353 L13.112,30.0882353 C13.64,30.0882353 13.992,30.4411765 13.992,30.9705882 C13.992,31.5 13.64,31.8529412 13.112,31.8529412 L13.112,31.8529412 Z" id="Shape"></path>
                                <path d="M9.24,61.3235294 C6.688,61.3235294 4.576,59.2058824 4.576,56.6470588 C4.576,54.0882353 6.688,51.9705882 9.24,51.9705882 C11.792,51.9705882 13.904,54.0882353 13.904,56.6470588 C13.904,59.2058824 11.88,61.3235294 9.24,61.3235294 L9.24,61.3235294 Z M9.24,53.6470588 C7.656,53.6470588 6.336,54.9705882 6.336,56.5588235 C6.336,58.1470588 7.656,59.4705882 9.24,59.4705882 C10.824,59.4705882 12.144,58.1470588 12.144,56.5588235 C12.144,54.9705882 10.912,53.6470588 9.24,53.6470588 L9.24,53.6470588 Z" id="Shape"></path>
                                <ellipse id="Oval" cx="9.24" cy="56.6470588" rx="1.32" ry="1.32352941"></ellipse>
                            </g>
                        </g>
                    </g>
                </g>
            </g>
        </g>
    </g>
</svg>