<?xml version="1.0" encoding="UTF-8" standalone="no"?>
<svg width="123px" height="64px" viewBox="0 0 123 64" version="1.1" xmlns="http://www.w3.org/2000/svg" xmlns:xlink="http://www.w3.org/1999/xlink">
    <!-- Generator: Sketch 39.1 (31720) - http://www.bohemiancoding.com/sketch -->
    <title>Layer_1</title>
    <desc>Created with Sketch.</desc>
    <defs></defs>
    <g id="-" stroke="none" stroke-width="1" fill="none" fill-rule="evenodd">
        <g id="Holod_Open" transform="translate(-424.000000, -1316.000000)" fill="#1D87E4">
            <g id="PROECTIROVANIE" transform="translate(0.000000, 1036.000000)">
                <g id="CLASSIFICATION" transform="translate(146.000000, 269.000000)">
                    <g id="Group-5" transform="translate(208.000000, 11.000000)">
                        <g id="measo" transform="translate(70.000000, 0.000000)">
                            <g id="Layer_1">
                                <path d="M81.1,7.6 L50.6,7.6 C48.8,7.6 47.3,6.1 47.3,4.3 L47.3,3.4 C47.3,1.6 48.8,0.1 50.6,0.1 L81.1,0.1 C82.9,0.1 84.4,1.6 84.4,3.4 L84.4,4.3 C84.4,6.1 82.9,7.6 81.1,7.6 L81.1,7.6 Z M50.6,2 C49.9,2 49.3,2.6 49.3,3.3 L49.3,4.2 C49.3,4.9 49.9,5.5 50.6,5.5 L81.1,5.5 C81.8,5.5 82.4,4.9 82.4,4.2 L82.4,3.3 C82.4,2.6 81.8,2 81.1,2 L50.6,2 L50.6,2 Z" id="Shape"></path>
                                <path d="M30.6,39.5 C30,39.5 29.6,39.1 29.6,38.5 C29.6,34.2 33.1,30.7 37.4,30.7 C38,30.7 38.4,31.1 38.4,31.7 C38.4,32.3 38,32.7 37.4,32.7 C34.2,32.7 31.6,35.3 31.6,38.5 C31.6,39 31.2,39.5 30.6,39.5 L30.6,39.5 Z" id="Shape"></path>
                                <path d="M23.8,56.8 C23.2,56.8 22.8,56.4 22.8,55.8 C22.8,55.2 23.2,54.8 23.8,54.8 C27,54.8 29.6,52.2 29.6,49 C29.6,48.4 30,48 30.6,48 C31.2,48 31.6,48.4 31.6,49 C31.6,53.3 28.1,56.8 23.8,56.8 L23.8,56.8 Z" id="Shape"></path>
                                <path d="M30.6,50 C30,50 29.6,49.6 29.6,49 L29.6,38.5 C29.6,37.9 30,37.5 30.6,37.5 C31.2,37.5 31.6,37.9 31.6,38.5 L31.6,49 C31.6,49.5 31.2,50 30.6,50 L30.6,50 Z" id="Shape"></path>
                                <path d="M81.4,49.1 C71.8,49.1 64,41.3 64,31.7 C64,22.1 71.8,14.3 81.4,14.3 C91,14.3 98.8,22.1 98.8,31.7 C98.8,41.3 91,49.1 81.4,49.1 L81.4,49.1 Z M81.4,16.3 C72.9,16.3 66,23.2 66,31.7 C66,40.2 72.9,47.1 81.4,47.1 C89.9,47.1 96.8,40.2 96.8,31.7 C96.8,23.2 89.9,16.3 81.4,16.3 L81.4,16.3 Z" id="Shape"></path>
                                <path d="M80.2,49.1 L75.6,49.1 C75,49.1 74.6,48.7 74.6,48.1 C74.6,47.5 75,47.1 75.6,47.1 L80.2,47.1 C80.8,47.1 81.2,47.5 81.2,48.1 C81.2,48.7 80.8,49.1 80.2,49.1 L80.2,49.1 Z" id="Shape"></path>
                                <path d="M53.8,49.1 C44.2,49.1 36.4,41.3 36.4,31.7 C36.4,22.1 44.2,14.3 53.8,14.3 C54.4,14.3 54.8,14.7 54.8,15.3 C54.8,15.9 54.4,16.3 53.8,16.3 C45.3,16.3 38.4,23.2 38.4,31.7 C38.4,40.2 45.3,47.1 53.8,47.1 C54.4,47.1 54.8,47.5 54.8,48.1 C54.8,48.7 54.4,49.1 53.8,49.1 L53.8,49.1 Z" id="Shape"></path>
                                <path d="M56,16.3 L53.9,16.3 C53.3,16.3 52.9,15.9 52.9,15.3 C52.9,14.7 53.3,14.3 53.9,14.3 L56,14.3 C56.6,14.3 57,14.7 57,15.3 C57,15.9 56.5,16.3 56,16.3 L56,16.3 Z" id="Shape"></path>
                                <path d="M19.6,61 C18.6,61 17.7,60.7 16.9,60.2 C15.2,60.7 13.3,61 11.3,61 C6.2,61 0.9,61 0.9,55.8 C0.9,50.6 6.2,50.6 11.3,50.6 C13.3,50.6 15.2,50.9 16.9,51.4 C17.7,50.9 18.6,50.6 19.6,50.6 C22.5,50.6 24.8,52.9 24.8,55.8 C24.8,58.6 22.5,61 19.6,61 L19.6,61 Z M17.1,58.1 C17.3,58.1 17.5,58.2 17.7,58.3 C18.3,58.7 18.9,59 19.6,59 C21.3,59 22.8,57.6 22.8,55.8 C22.8,54 21.4,52.6 19.6,52.6 C18.9,52.6 18.3,52.8 17.7,53.3 C17.4,53.5 17.1,53.6 16.8,53.5 C15.2,53 13.4,52.7 11.4,52.7 C5.4,52.7 3,53 3,55.9 C3,58.8 5.4,59.1 11.4,59.1 C13.4,59.1 15.3,58.8 16.8,58.3 C16.9,58.1 17,58.1 17.1,58.1 L17.1,58.1 Z" id="Shape"></path>
                                <path d="M56.6,16.3 C56.2,16.3 55.8,16 55.7,15.6 L52.5,6.9 C52.3,6.4 52.6,5.8 53.1,5.6 C53.6,5.4 54.2,5.7 54.4,6.2 L57.6,14.9 C57.8,15.4 57.5,16 57,16.2 C56.8,16.3 56.7,16.3 56.6,16.3 L56.6,16.3 Z" id="Shape"></path>
                                <path d="M75.2,16.3 C75.1,16.3 75,16.3 74.9,16.2 C74.4,16 74.1,15.4 74.3,14.9 L77.5,6.2 C77.7,5.7 78.3,5.4 78.8,5.6 C79.3,5.8 79.6,6.4 79.4,6.9 L76.2,15.6 C75.9,16 75.6,16.3 75.2,16.3 L75.2,16.3 Z" id="Shape"></path>
                                <path d="M81.1,63.3 L50.6,63.3 C48.8,63.3 47.3,61.8 47.3,60 L47.3,59.1 C47.3,57.3 48.8,55.8 50.6,55.8 L81.1,55.8 C82.9,55.8 84.4,57.3 84.4,59.1 L84.4,60 C84.4,61.8 82.9,63.3 81.1,63.3 L81.1,63.3 Z M50.6,57.8 C49.9,57.8 49.3,58.4 49.3,59.1 L49.3,60 C49.3,60.7 49.9,61.3 50.6,61.3 L81.1,61.3 C81.8,61.3 82.4,60.7 82.4,60 L82.4,59.1 C82.4,58.4 81.8,57.8 81.1,57.8 L50.6,57.8 L50.6,57.8 Z" id="Shape"></path>
                                <path d="M78.2,57.5 C77.8,57.5 77.4,57.2 77.3,56.8 L74.5,48.4 C74.3,47.9 74.6,47.3 75.1,47.1 C75.6,46.9 76.2,47.2 76.4,47.7 L79.2,56.1 C79.4,56.6 79.1,57.2 78.6,57.4 C78.4,57.5 78.3,57.5 78.2,57.5 L78.2,57.5 Z" id="Shape"></path>
                                <path d="M53.4,57.8 C53.3,57.8 53.2,57.8 53.1,57.7 C52.6,57.5 52.3,56.9 52.5,56.4 L55.7,47.7 C55.9,47.2 56.5,46.9 57,47.1 C57.5,47.3 57.8,47.9 57.6,48.4 L54.4,57.1 C54.2,57.5 53.8,57.8 53.4,57.8 L53.4,57.8 Z" id="Shape"></path>
                                <path d="M80.2,16.3 L65.1,16.3 C64.5,16.3 64.1,15.9 64.1,15.3 C64.1,14.7 64.5,14.3 65.1,14.3 L80.2,14.3 C80.8,14.3 81.2,14.7 81.2,15.3 C81.2,15.9 80.8,16.3 80.2,16.3 L80.2,16.3 Z" id="Shape"></path>
                                <path d="M76,41.1 C75.1,40.6 74.8,39.5 75.3,38.7 L75.3,38.7 C75.8,37.9 76.9,37.6 77.7,38 L77.7,38 C78.6,38.5 78.9,39.6 78.4,40.4 L78.4,40.4 C78.1,41 77.5,41.3 76.9,41.3 L76.9,41.3 C76.5,41.4 76.2,41.3 76,41.1 L76,41.1 Z M84.4,40.5 C83.9,39.6 84.2,38.6 85,38.1 L85,38.1 C85.9,37.6 86.9,37.9 87.4,38.8 L87.4,38.8 C87.9,39.6 87.6,40.7 86.8,41.2 L86.8,41.2 L86.8,41.2 L86.8,41.2 C86.5,41.4 86.2,41.4 85.9,41.4 L85.9,41.4 C85.3,41.3 84.7,41 84.4,40.5 L84.4,40.5 Z M70.5,31.7 C70.5,30.7 71.3,29.9 72.3,29.9 L72.3,29.9 C73.3,29.9 74.1,30.7 74.1,31.7 L74.1,31.7 C74.1,32.7 73.3,33.5 72.3,33.5 L72.3,33.5 L72.3,33.5 L72.3,33.5 C71.3,33.5 70.5,32.7 70.5,31.7 L70.5,31.7 Z M88.7,31.7 C88.7,31.7 88.7,31.6 88.7,31.7 L88.7,31.7 C88.7,30.6 89.5,29.8 90.5,29.8 L90.5,29.8 C91.5,29.8 92.3,30.6 92.3,31.6 L92.3,31.6 C92.3,31.6 92.3,31.6 92.3,31.7 L92.3,31.7 L92.3,31.7 L92.3,31.7 C92.3,32.7 91.5,33.5 90.5,33.5 L90.5,33.5 C89.5,33.5 88.7,32.7 88.7,31.7 L88.7,31.7 Z M75.2,24.7 C74.7,23.9 75,22.8 75.8,22.3 L75.8,22.3 L75.8,22.3 L75.8,22.3 C76.6,21.8 77.7,22.1 78.2,22.9 L78.2,22.9 C78.7,23.8 78.4,24.8 77.6,25.3 L77.6,25.3 C77.3,25.5 77,25.5 76.7,25.5 L76.7,25.5 C76.2,25.6 75.6,25.3 75.2,24.7 L75.2,24.7 Z M85,25.3 L85,25.3 C84.1,24.8 83.8,23.7 84.3,22.9 L84.3,22.9 C84.8,22 85.9,21.7 86.7,22.2 L86.7,22.2 C87.6,22.7 87.9,23.8 87.4,24.6 L87.4,24.6 C87.1,25.2 86.5,25.5 85.8,25.5 L85.8,25.5 C85.6,25.5 85.3,25.5 85,25.3 L85,25.3 Z" id="Shape"></path>
                                <path d="M79.8,32.6 C79.3,31.7 79.6,30.7 80.5,30.2 L80.5,30.2 C81.3,29.7 82.4,30 82.9,30.8 L82.9,30.8 C83.4,31.7 83.1,32.7 82.3,33.2 L82.3,33.2 C82,33.4 81.7,33.4 81.4,33.4 L81.4,33.4 C80.8,33.5 80.2,33.1 79.8,32.6 L79.8,32.6 Z" id="Shape"></path>
                                <path d="M106.9,25 C107.1,24.8 107.3,24.7 107.8,24.7 L107.9,24.7 C108.2,24.7 108.4,24.8 108.7,25.2 C109.1,25.6 109.7,26.2 110.8,26.2 C111.9,26.2 112.5,25.6 112.9,25.2 C113.3,24.8 113.4,24.7 113.7,24.7 C114,24.7 114.2,24.8 114.5,25.2 C114.9,25.6 115.5,26.2 116.6,26.2 C117.7,26.2 118.3,25.6 118.7,25.2 C119.1,24.8 119.2,24.7 119.5,24.7 L119.6,24.7 C120,24.7 120.2,24.7 120.5,25 C120.9,25.4 121.4,25.4 121.8,25 C122.2,24.6 122.2,24.1 121.8,23.7 C121,22.9 120.1,22.9 119.6,22.9 L119.6,22.9 L119.6,22.9 C118.5,22.9 117.9,23.5 117.5,23.9 C117.1,24.3 117,24.4 116.7,24.4 C116.4,24.4 116.2,24.3 115.9,23.9 C115.5,23.5 114.9,22.9 113.8,22.9 C112.7,22.9 112.1,23.5 111.7,23.9 C111.3,24.3 111.2,24.4 110.9,24.4 C110.6,24.4 110.4,24.3 110.1,23.9 C109.7,23.5 109.1,22.9 108,22.9 L108,22.9 L108,22.9 C107.4,22.9 106.6,22.9 105.8,23.7 C105.4,24.1 105.4,24.6 105.8,25 C106.2,25.4 106.5,25.4 106.9,25 L106.9,25 Z" id="Shape"></path>
                                <path d="M119.8,30 L119.8,30 C119.8,30.1 119.8,30.1 119.8,30 C118.7,30 118.1,30.6 117.7,31 C117.3,31.4 117.2,31.5 116.9,31.5 C116.6,31.5 116.4,31.4 116.1,31 C115.7,30.6 115.1,30 114,30 C112.9,30 112.3,30.6 111.9,31 C111.5,31.4 111.4,31.5 111.1,31.5 C110.8,31.5 110.6,31.4 110.3,31 C109.9,30.6 109.3,30 108.2,30 L108.2,30 L108.2,30 C107.6,30 106.8,30 106,30.8 C105.6,31.2 105.6,31.7 106,32.1 C106.4,32.5 106.9,32.5 107.3,32.1 C107.5,31.9 107.7,31.8 108.2,31.8 L108.2,31.8 C108.5,31.8 108.7,31.9 109,32.3 C109.4,32.7 110,33.3 111.1,33.3 C112.2,33.3 112.8,32.7 113.2,32.3 C113.6,31.9 113.7,31.8 114,31.8 C114.3,31.8 114.5,31.9 114.8,32.3 C115.2,32.7 115.8,33.3 116.9,33.3 C118,33.3 118.6,32.7 119,32.3 C119.4,31.9 119.5,31.8 119.8,31.8 L119.8,31.8 C120.3,31.8 120.5,31.8 120.7,32.1 C121.1,32.5 121.6,32.5 122,32.1 C122.4,31.7 122.4,31.2 122,30.8 C121.2,30 120.3,30 119.8,30 L119.8,30 Z" id="Shape"></path>
                                <path d="M119.8,37.4 L119.8,37.4 C119.8,37.5 119.8,37.5 119.8,37.4 C118.7,37.4 118.1,38 117.7,38.4 C117.3,38.8 117.2,38.9 116.9,38.9 C116.6,38.9 116.4,38.8 116.1,38.4 C115.7,38 115.1,37.4 114,37.4 C112.9,37.4 112.3,38 111.9,38.4 C111.5,38.8 111.4,38.9 111.1,38.9 C110.8,38.9 110.6,38.8 110.3,38.4 C109.9,38 109.3,37.4 108.2,37.4 L108.2,37.4 L108.2,37.4 C107.6,37.4 106.8,37.4 106,38.2 C105.6,38.6 105.6,39.1 106,39.5 C106.4,39.9 106.9,39.9 107.3,39.5 C107.5,39.3 107.7,39.2 108.2,39.2 L108.2,39.2 C108.5,39.2 108.7,39.3 109,39.7 C109.4,40.1 110,40.7 111.1,40.7 C112.2,40.7 112.8,40.1 113.2,39.7 C113.6,39.3 113.7,39.2 114,39.2 C114.3,39.2 114.5,39.3 114.8,39.7 C115.2,40.1 115.8,40.7 116.9,40.7 C118,40.7 118.6,40.1 119,39.7 C119.4,39.3 119.5,39.2 119.8,39.2 L119.8,39.2 C120.3,39.2 120.4,39.2 120.7,39.5 C121.1,39.9 121.6,39.9 122,39.5 C122.4,39.1 122.4,38.6 122,38.2 C121.2,37.4 120.3,37.4 119.8,37.4 L119.8,37.4 Z" id="Shape"></path>
                                <path d="M61.1,49.1 L53.8,49.1 C53.2,49.1 52.8,48.7 52.8,48.1 C52.8,47.5 53.2,47.1 53.8,47.1 L61.1,47.1 C61.7,47.1 62.1,47.5 62.1,48.1 C62.1,48.7 61.7,49.1 61.1,49.1 L61.1,49.1 Z" id="Shape"></path>
                            </g>
                        </g>
                    </g>
                </g>
            </g>
        </g>
    </g>
</svg>