<?xml version="1.0" encoding="UTF-8" standalone="no"?>
<svg width="74px" height="74px" viewBox="0 0 74 74" version="1.1" xmlns="http://www.w3.org/2000/svg" xmlns:xlink="http://www.w3.org/1999/xlink">
    <!-- Generator: Sketch 39.1 (31720) - http://www.bohemiancoding.com/sketch -->
    <title>Layer_1</title>
    <desc>Created with Sketch.</desc>
    <defs></defs>
    <g id="-" stroke="none" stroke-width="1" fill="none" fill-rule="evenodd">
        <g id="Holod_Open" transform="translate(-966.000000, -1306.000000)" fill="#1D87E4">
            <g id="PROECTIROVANIE" transform="translate(0.000000, 1036.000000)">
                <g id="CLASSIFICATION" transform="translate(146.000000, 269.000000)">
                    <g id="CHICKEN-STORE" transform="translate(779.000000, 1.000000)">
                        <g id="airtech_kurka">
                            <g id="Layer_1" transform="translate(41.000000, 0.000000)">
                                <g id="Group">
                                    <circle id="Oval" cx="60.7" cy="22.2" r="1.8"></circle>
                                    <path d="M72,27.3 L67.9,24.9 L67.9,21.2 C67.9,16.7 65.6,12.8 62.2,10.5 L63.7,8.9 L63.7,8.9 L63.7,8.9 C64.4,8 64.7,7 64.5,5.9 C64.4,4.8 63.8,3.9 62.9,3.2 C61.6,2.2 59.8,2.1 58.4,2.9 C57.4,1 55.2,-0.2 53,0.2 C51.6,0.4 50.5,1.2 49.7,2.3 C49.3,2.9 49,3.5 48.9,4.1 L48.8,4.1 C48,3.9 47.1,4 46.4,4.4 C44.9,5.3 44.4,7.2 45.2,8.7 C45.4,9 45.7,9.2 46.1,9.2 C46.3,9.2 46.4,9.2 46.6,9.1 C47.1,8.8 47.2,8.2 47,7.7 C46.7,7.2 46.9,6.4 47.4,6.1 C47.7,5.9 48,5.9 48.3,6 C48.6,6.1 48.8,6.3 49,6.5 C49.3,7 49.9,7.1 50.4,6.9 C50.8,6.7 50.9,6.3 50.9,5.9 L50.9,5.9 C50.8,5.1 50.9,4.2 51.4,3.5 C51.9,2.8 52.6,2.3 53.4,2.2 C55.1,1.9 56.8,3.1 57.1,4.8 L57.1,4.9 C57.1,5 57.1,5.1 57.2,5.1 L57.3,5.2 C57.3,5.3 57.4,5.3 57.5,5.4 L57.5,5.4 L57.5,5.4 C57.8,5.6 58.3,5.6 58.6,5.4 C58.6,5.4 58.6,5.4 58.7,5.3 C58.8,5.2 58.8,5.2 58.9,5.1 C59.6,4.2 60.9,4 61.8,4.7 C62.2,5 62.5,5.5 62.6,6.1 C62.7,6.6 62.5,7.2 62.2,7.6 L60.5,9.5 C58.8,8.7 57,8.3 55.1,8.3 C48,8.3 42.2,14.1 42.2,21.2 L42.2,21.2 L42.2,21.2 L42.2,32.7 C38.7,30.4 34.4,29.2 29.8,29.2 C21.8,29.2 14.5,33.1 11.2,39.3 L1.9,39.3 C1.3,39.3 0.9,39.7 0.9,40.3 L0.9,40.3 L0.9,40.3 C0.9,43.6 3.2,46.4 6.2,47.1 C5.8,47.7 5.5,48.5 5.5,49.4 C5.5,51.6 7.3,53.4 9.5,53.4 L10.6,53.4 C10.6,53.4 10.6,53.4 10.6,53.5 C14.4,65.6 25.9,74 38.6,74 C54.8,74 68,60.8 68,44.6 L68,31.9 L70.6,31.9 C71.7,31.9 72.7,31.2 73,30.2 C73.3,29.1 72.9,28 72,27.3 L72,27.3 Z M38.6,72 C30,72 22.1,67.9 17,61.4 C20.6,63.9 25.1,65.3 30,65.3 C41.3,65.3 50.4,57.6 50.4,48.1 C50.4,47.4 50.3,46.7 50.2,46 C50.1,45.5 49.6,45.1 49.1,45.2 C48.6,45.3 48.2,45.8 48.3,46.3 C48.4,46.9 48.4,47.5 48.4,48.1 C48.4,56.5 40.1,63.3 30,63.3 C22.4,63.3 15.5,59.3 12.8,53.5 L15.4,53.5 L22.3,53.5 C22.9,53.5 23.3,53.1 23.3,52.5 C23.3,51.9 22.9,51.5 22.3,51.5 L15.4,51.5 L11.8,51.5 L9.5,51.5 C8.4,51.5 7.5,50.6 7.5,49.5 C7.5,48.4 8.4,47.5 9.5,47.5 L9.7,47.5 L10.3,47.5 L18.2,47.5 L18.8,47.5 C19.4,47.5 19.8,47.1 19.8,46.5 C19.8,45.9 19.4,45.5 18.8,45.5 L18.2,45.5 L10.3,45.5 L9.7,45.5 L9.5,45.5 L7.9,45.5 C5.4,45.5 3.4,43.7 2.9,41.4 L11.8,41.4 C12.3,41.4 12.7,41 12.8,40.5 C15.7,34.9 22.3,31.3 29.7,31.3 C36.1,31.3 42.2,34.1 45.5,38.7 C45.8,39.1 46.4,39.2 46.9,38.9 C47.3,38.6 47.4,37.9 47.1,37.5 C46.2,36.3 45.2,35.2 44.1,34.3 L44.1,21.3 C44.1,15.3 49,10.4 55,10.4 C61,10.4 66,15.2 66,21.2 L66,44.6 C66,59.7 53.7,72 38.6,72 L38.6,72 Z M71,29.5 C71,29.6 70.8,29.9 70.5,29.9 L68,29.9 L68,27.2 L70.9,28.9 C71.1,29.2 71.1,29.4 71,29.5 L71,29.5 Z" id="Shape"></path>
                                </g>
                            </g>
                        </g>
                    </g>
                </g>
            </g>
        </g>
    </g>
</svg>