<?xml version="1.0" encoding="UTF-8" standalone="no"?>
<svg width="96px" height="55px" viewBox="0 0 96 55" version="1.1" xmlns="http://www.w3.org/2000/svg" xmlns:xlink="http://www.w3.org/1999/xlink">
    <!-- Generator: Sketch 39.1 (31720) - http://www.bohemiancoding.com/sketch -->
    <title>gipermarket</title>
    <desc>Created with Sketch.</desc>
    <defs></defs>
    <g id="-" stroke="none" stroke-width="1" fill="none" fill-rule="evenodd">
        <g id="Holod_Open" transform="translate(-1170.000000, -1326.000000)">
            <g id="PROECTIROVANIE" transform="translate(0.000000, 1036.000000)">
                <g id="CLASSIFICATION" transform="translate(146.000000, 269.000000)">
                    <g id="CHICKEN-STORE-Copy" transform="translate(995.000000, 21.000000)">
                        <g id="airtech_kurka">
                            <g id="gipermarket" transform="translate(29.000000, 0.000000)">
                                <g id="Layer_1">
                                    <path d="M87.8,54.2 L8.3,54.2 C7.2,54.2 6.3,53.3 6.3,52.2 L6.3,26.6 C6.3,25.5 7.2,24.6 8.3,24.6 L12.3,24.6 L12.3,13.2 L11.6,13 C11.3,12.9 11,12.7 10.9,12.4 C10.6,11.8 10.7,11 11.1,10.4 C11.5,9.9 12,9.5 12.7,9.5 L46.3,0.6 C47.3,0.3 48.4,0.3 49.4,0.6 L83.5,9.5 C84.1,9.5 84.7,9.9 85.1,10.4 C85.5,11 85.5,11.7 85.3,12.4 C85.2,12.7 84.9,12.9 84.6,13 L83.9,13.2 L83.9,24.6 L87.9,24.6 C89,24.6 89.9,25.5 89.9,26.6 L89.9,52.2 C89.8,53.3 88.9,54.2 87.8,54.2 L87.8,54.2 Z M8.2,26.6 L8.2,52.2 L87.8,52.2 L87.8,52.2 L87.8,26.6 L82.8,26.6 C82.2,26.6 81.8,26.2 81.8,25.6 L81.8,12.4 C81.8,11.9 82.1,11.5 82.6,11.4 L82.7,11.4 L48.9,2.6 C48.2,2.4 47.5,2.4 46.8,2.6 L13.4,11.4 L13.6,11.4 C14,11.5 14.4,11.9 14.4,12.4 L14.4,25.6 C14.4,26.2 14,26.6 13.4,26.6 L8.2,26.6 L8.2,26.6 Z" id="Shape" fill="#1D87E4"></path>
                                    <g id="Group" transform="translate(26.000000, 14.000000)">
                                        <path d="M40.4,8.7 L3.7,8.7 C2.6,8.7 1.7,7.8 1.7,6.7 L1.7,3.7 C1.7,2.6 2.6,1.7 3.7,1.7 L40.4,1.7 C41.5,1.7 42.4,2.6 42.4,3.7 L42.4,6.7 C42.4,7.8 41.5,8.7 40.4,8.7 L40.4,8.7 Z" id="Shape" fill="#FFFFFF"></path>
                                        <path d="M40.4,9.7 L3.7,9.7 C2,9.7 0.7,8.4 0.7,6.7 L0.7,3.7 C0.7,2 2,0.7 3.7,0.7 L40.4,0.7 C42.1,0.7 43.4,2 43.4,3.7 L43.4,6.7 C43.4,8.4 42,9.7 40.4,9.7 L40.4,9.7 Z M3.6,2.7 C3,2.7 2.6,3.1 2.6,3.7 L2.6,6.7 C2.6,7.3 3,7.7 3.6,7.7 L40.3,7.7 C40.9,7.7 41.3,7.3 41.3,6.7 L41.3,3.7 C41.3,3.1 40.9,2.7 40.3,2.7 L3.6,2.7 L3.6,2.7 Z" id="Shape" fill="#1D87E4"></path>
                                    </g>
                                    <g id="Group" transform="translate(37.000000, 14.000000)">
                                        <path d="M1,1.7 L1,8.7" id="Shape" fill="#FFFFFF"></path>
                                        <path d="M1,9.7 C0.4,9.7 0,9.3 0,8.7 L0,1.7 C0,1.1 0.4,0.7 1,0.7 C1.6,0.7 2,1.1 2,1.7 L2,8.7 C2,9.3 1.6,9.7 1,9.7 L1,9.7 Z" id="Shape" fill="#1D87E4"></path>
                                    </g>
                                    <g id="Group" transform="translate(47.000000, 14.000000)">
                                        <path d="M1,1.7 L1,8.7" id="Shape" fill="#FFFFFF"></path>
                                        <path d="M1,9.7 C0.4,9.7 0,9.3 0,8.7 L0,1.7 C0,1.1 0.4,0.7 1,0.7 C1.6,0.7 2,1.1 2,1.7 L2,8.7 C2,9.3 1.6,9.7 1,9.7 L1,9.7 Z" id="Shape" fill="#1D87E4"></path>
                                    </g>
                                    <g id="Group" transform="translate(57.000000, 14.000000)">
                                        <path d="M1,1.7 L1,8.7" id="Shape" fill="#FFFFFF"></path>
                                        <path d="M1,9.7 C0.4,9.7 0,9.3 0,8.7 L0,1.7 C0,1.1 0.4,0.7 1,0.7 C1.6,0.7 2,1.1 2,1.7 L2,8.7 C2,9.3 1.6,9.7 1,9.7 L1,9.7 Z" id="Shape" fill="#1D87E4"></path>
                                    </g>
                                    <path d="M95.6,54.2 L0.4,54.2 L0.4,33.5 C0.4,32.4 1.3,31.5 2.4,31.5 L7.2,31.5 C7.8,31.5 8.2,31.9 8.2,32.5 C8.2,33.1 7.8,33.5 7.2,33.5 L2.4,33.5 L2.4,52.2 L93.6,52.2 L93.6,33.5 L88.8,33.5 C88.2,33.5 87.8,33.1 87.8,32.5 C87.8,31.9 88.2,31.5 88.8,31.5 L93.6,31.5 C94.7,31.5 95.6,32.4 95.6,33.5 L95.6,54.2 L95.6,54.2 Z" id="Shape" fill="#1D87E4"></path>
                                    <path d="M75.3,54.2 C74.7,54.2 74.3,53.8 74.3,53.2 L74.3,33.5 L21.3,33.5 L21.3,53.2 C21.3,53.8 20.9,54.2 20.3,54.2 C19.7,54.2 19.3,53.8 19.3,53.2 L19.3,32.5 C19.3,31.9 19.7,31.5 20.3,31.5 L75.3,31.5 C75.9,31.5 76.3,31.9 76.3,32.5 L76.3,53.2 C76.3,53.8 75.9,54.2 75.3,54.2 L75.3,54.2 Z" id="Shape" fill="#1D87E4"></path>
                                    <path d="M48,54.2 C47.4,54.2 47,53.8 47,53.2 L47,32.5 C47,31.9 47.4,31.5 48,31.5 C48.6,31.5 49,31.9 49,32.5 L49,53.2 C49,53.8 48.6,54.2 48,54.2 L48,54.2 Z" id="Shape" fill="#1D87E4"></path>
                                    <path d="M28,54.2 C27.4,54.2 27,53.8 27,53.2 L27,32.5 C27,31.9 27.4,31.5 28,31.5 C28.6,31.5 29,31.9 29,32.5 L29,53.2 C29,53.8 28.6,54.2 28,54.2 L28,54.2 Z" id="Shape" fill="#1D87E4"></path>
                                    <path d="M68,54.2 C67.4,54.2 67,53.8 67,53.2 L67,32.5 C67,31.9 67.4,31.5 68,31.5 C68.6,31.5 69,31.9 69,32.5 L69,53.2 C69,53.8 68.6,54.2 68,54.2 L68,54.2 Z" id="Shape" fill="#1D87E4"></path>
                                </g>
                            </g>
                        </g>
                    </g>
                </g>
            </g>
        </g>
    </g>
</svg>