<?xml version="1.0" encoding="UTF-8" standalone="no"?>
<svg width="52px" height="60px" viewBox="0 0 52 60" version="1.1" xmlns="http://www.w3.org/2000/svg" xmlns:xlink="http://www.w3.org/1999/xlink">
    <!-- Generator: Sketch 39.1 (31720) - http://www.bohemiancoding.com/sketch -->
    <title>montaj</title>
    <desc>Created with Sketch.</desc>
    <defs></defs>
    <g id="-" stroke="none" stroke-width="1" fill="none" fill-rule="evenodd">
        <g id="Main_page_blue_pop_up" transform="translate(-1167.000000, -1766.000000)">
            <g id="Group-11" transform="translate(100.000000, 1521.000000)">
                <g id="Group-10-Copy-6" transform="translate(945.000000, 211.000000)">
                    <g id="Group" transform="translate(55.000000, 34.000000)">
                        <g id="Type-1-Copy-3">
                            <g id="montaj" transform="translate(67.000000, 0.000000)">
                                <g id="Group" fill="#C0E4FF">
                                    <path d="M16.9,59.5 L46.4,59.5 C49.2,59.5 51.4,57.3 51.4,54.5 L51.4,5.5 C51.4,2.7 49.2,0.5 46.4,0.5 L16.9,0.5 C14.1,0.5 11.9,2.7 11.9,5.5 L11.9,54.5 C11.9,57.3 14.1,59.5 16.9,59.5 L16.9,59.5 Z" id="Shape"></path>
                                    <path d="M8.9,5.5 C8.9,3.6 9.6,1.9 10.7,0.5 L8.9,0.5 C6.1,0.5 3.9,2.7 3.9,5.5 L3.9,10.5 L2.1,10.5 C1,10.5 0.1,11.4 0.1,12.5 L0.1,17.5 C0.1,18.6 1,19.5 2.1,19.5 L3.9,19.5 L3.9,40.5 L2.1,40.5 C1,40.5 0.1,41.4 0.1,42.5 L0.1,47.5 C0.1,48.6 1,49.5 2.1,49.5 L3.9,49.5 L3.9,54.5 C3.9,57.3 6.1,59.5 8.9,59.5 L10.7,59.5 C9.6,58.1 8.9,56.4 8.9,54.5 L8.9,5.5 L8.9,5.5 Z" id="Shape"></path>
                                </g>
                                <g id="Group" transform="translate(17.000000, 24.000000)">
                                    <path d="M25.7,15.5 C27.7,13.5 28.5,10.7 28,8.1 C27.9,7.5 27.1,7.2 26.7,7.7 L23.7,10.7 C23.5,10.9 23.3,10.9 23.1,10.9 L19.6,10.7 C19.2,10.7 18.9,10.4 18.9,10 L18.7,6.5 C18.7,6.3 18.8,6.1 18.9,5.9 L21.9,2.9 C22.4,2.4 22.1,1.7 21.5,1.6 C18.5,1 15.3,2.1 13.3,4.8 C11.7,7 11.3,9.8 12.1,12.3 L2.2,22.2 C0.7,23.7 0.7,26 2.2,27.5 C3.7,29 6,29 7.5,27.5 L17.4,17.6 C20.2,18.4 23.5,17.8 25.7,15.5 L25.7,15.5 Z" id="Shape" fill="#FFFFFF"></path>
                                    <path d="M4.7,29.5 C3.4,29.5 2.3,29 1.4,28.1 C-0.4,26.3 -0.4,23.3 1.4,21.4 L10.9,11.9 C10.2,9.2 10.8,6.3 12.4,4.1 C14.2,1.7 16.9,0.4 19.8,0.4 C20.4,0.4 21,0.5 21.5,0.6 C22.2,0.7 22.7,1.2 22.9,1.8 C23.1,2.4 22.9,3.1 22.5,3.6 L19.6,6.5 L19.8,9.7 L23,9.9 L26,7 C26.3,6.7 26.8,6.5 27.3,6.5 C28.2,6.5 28.9,7.1 29.1,8 C29.7,11 28.7,14.1 26.6,16.3 C24.9,18 22.5,19 20.1,19 L20.1,19 C19.3,19 18.5,18.9 17.8,18.7 L8.3,28.2 C7.2,29 6,29.5 4.7,29.5 L4.7,29.5 Z M19.9,2.4 C17.6,2.4 15.5,3.5 14.1,5.3 C12.7,7.2 12.3,9.6 13,11.9 C13.1,12.3 13,12.7 12.8,12.9 L2.9,22.8 C1.8,23.9 1.8,25.6 2.9,26.6 C3.9,27.6 5.7,27.6 6.7,26.6 L16.6,16.7 C16.9,16.4 17.3,16.3 17.6,16.5 C18.3,16.7 19.1,16.9 19.9,16.9 L19.9,16.9 C21.8,16.9 23.7,16.1 25,14.8 C26.6,13.2 27.4,10.9 27.1,8.7 L24.4,11.4 C24,11.8 23.5,12 23,11.9 L19.5,11.7 C18.6,11.6 17.9,10.9 17.8,10 L17.6,6.5 C17.6,6 17.8,5.5 18.1,5.1 L20.8,2.4 L19.9,2.4 L19.9,2.4 Z" id="Shape" fill="#1D87E4"></path>
                                </g>
                                <g id="Group" transform="translate(19.000000, 7.000000)">
                                    <path d="M21.7,8.9 L3.5,8.9 C2.4,8.9 1.5,8 1.5,6.9 L1.5,3.9 C1.5,2.8 2.4,1.9 3.5,1.9 L21.7,1.9 C22.8,1.9 23.7,2.8 23.7,3.9 L23.7,6.9 C23.7,8 22.8,8.9 21.7,8.9 L21.7,8.9 Z" id="Shape" fill="#FFFFFF"></path>
                                    <path d="M21.7,9.9 L3.5,9.9 C1.8,9.9 0.5,8.6 0.5,6.9 L0.5,3.9 C0.5,2.2 1.8,0.9 3.5,0.9 L21.7,0.9 C23.4,0.9 24.7,2.2 24.7,3.9 L24.7,6.9 C24.7,8.6 23.4,9.9 21.7,9.9 L21.7,9.9 Z M3.5,2.9 C2.9,2.9 2.5,3.3 2.5,3.9 L2.5,6.9 C2.5,7.5 2.9,7.9 3.5,7.9 L21.7,7.9 C22.3,7.9 22.7,7.5 22.7,6.9 L22.7,3.9 C22.7,3.3 22.3,2.9 21.7,2.9 L3.5,2.9 L3.5,2.9 Z" id="Shape" fill="#1D87E4"></path>
                                </g>
                                <g id="Group" transform="translate(26.000000, 7.000000)">
                                    <path d="M1.6,1.9 L1.6,8.9" id="Shape" fill="#FFFFFF"></path>
                                    <path d="M1.6,9.9 C1,9.9 0.6,9.5 0.6,8.9 L0.6,1.9 C0.6,1.3 1,0.9 1.6,0.9 C2.2,0.9 2.6,1.3 2.6,1.9 L2.6,8.9 C2.6,9.5 2.1,9.9 1.6,9.9 L1.6,9.9 Z" id="Shape" fill="#1D87E4"></path>
                                </g>
                                <g id="Group" transform="translate(34.000000, 7.000000)">
                                    <path d="M1.6,1.9 L1.6,8.9" id="Shape" fill="#FFFFFF"></path>
                                    <path d="M1.6,9.9 C1,9.9 0.6,9.5 0.6,8.9 L0.6,1.9 C0.6,1.3 1,0.9 1.6,0.9 C2.2,0.9 2.6,1.3 2.6,1.9 L2.6,8.9 C2.6,9.5 2.1,9.9 1.6,9.9 L1.6,9.9 Z" id="Shape" fill="#1D87E4"></path>
                                </g>
                                <circle id="Oval" fill="#76C4FF" cx="22" cy="48.6" r="1.3"></circle>
                            </g>
                        </g>
                    </g>
                </g>
            </g>
        </g>
    </g>
</svg>