<?xml version="1.0" encoding="UTF-8" standalone="no"?>
<svg width="72px" height="53px" viewBox="0 0 72 53" version="1.1" xmlns="http://www.w3.org/2000/svg" xmlns:xlink="http://www.w3.org/1999/xlink">
    <!-- Generator: Sketch 39.1 (31720) - http://www.bohemiancoding.com/sketch -->
    <title>Group 2</title>
    <desc>Created with Sketch.</desc>
    <defs></defs>
    <g id="-" stroke="none" stroke-width="1" fill="none" fill-rule="evenodd">
        <g id="Main_page_blue_pop_up" transform="translate(-210.000000, -1769.000000)">
            <g id="Group-11" transform="translate(100.000000, 1521.000000)">
                <g id="Group-10-Copy-5" transform="translate(0.000000, 211.000000)">
                    <g id="Type-1-Copy-5" transform="translate(28.000000, 37.000000)">
                        <g id="Group-2" transform="translate(82.000000, 0.000000)">
                            <path d="M66.7,10.7 L57.6,10.7 L57.6,7.7 L59.5,7.7 C61.4,7.7 62.9,6.2 62.9,4.3 L62.9,4.3 C62.9,2.4 61.4,0.9 59.5,0.9 L33.6,0.9 C32.1,0.9 30.8,1.9 30.4,3.3 L7,3.3 C3.6,3.3 0.9,6 0.9,9.4 L0.9,34.4 C0.9,37.4 3.3,39.8 6.3,39.8 L9.8,39.8 L9.8,47.6 C9.8,50.4 12,52.6 14.8,52.6 L66.7,52.6 C69.5,52.6 71.7,50.4 71.7,47.6 L71.7,15.7 C71.7,13 69.5,10.7 66.7,10.7 L66.7,10.7 Z M55.6,10.7 L37.6,10.7 L37.6,7.7 L55.6,7.7 L55.6,10.7 L55.6,10.7 Z M9.8,15.7 L9.8,37.8 L6.3,37.8 C4.4,37.8 2.9,36.3 2.9,34.4 L2.9,9.4 C2.9,7.1 4.7,5.3 7,5.3 L30.4,5.3 C30.8,6.7 32.1,7.7 33.6,7.7 L35.5,7.7 L35.5,10.7 L14.7,10.7 C12.1,10.7 9.8,13 9.8,15.7 L9.8,15.7 Z" id="Shape" fill="#C0E4FF"></path>
                            <g id="Group" transform="translate(16.000000, 40.000000)">
                                <circle id="Oval" fill="#FFFFFF" cx="5.1" cy="5.1" r="3.7"></circle>
                                <path d="M5.1,9.8 C2.5,9.8 0.4,7.7 0.4,5.1 C0.4,2.5 2.5,0.4 5.1,0.4 C7.7,0.4 9.8,2.5 9.8,5.1 C9.8,7.7 7.7,9.8 5.1,9.8 L5.1,9.8 Z M5.1,2.5 C3.6,2.5 2.4,3.7 2.4,5.2 C2.4,6.7 3.6,7.9 5.1,7.9 C6.6,7.9 7.8,6.7 7.8,5.2 C7.8,3.7 6.6,2.5 5.1,2.5 L5.1,2.5 Z" id="Shape" fill="#1D87E4"></path>
                            </g>
                            <g id="Group" transform="translate(28.000000, 13.000000)">
                                <circle id="Oval" fill="#FFFFFF" cx="18.6" cy="18.7" r="17.5"></circle>
                                <path d="M18.6,37.2 C8.4,37.2 0.1,28.9 0.1,18.7 C0.1,8.5 8.4,0.2 18.6,0.2 C28.8,0.2 37.1,8.5 37.1,18.7 C37.1,28.9 28.8,37.2 18.6,37.2 L18.6,37.2 Z M18.6,2.2 C9.5,2.2 2.1,9.6 2.1,18.7 C2.1,27.8 9.5,35.2 18.6,35.2 C27.7,35.2 35.1,27.8 35.1,18.7 C35.1,9.6 27.7,2.2 18.6,2.2 L18.6,2.2 Z" id="Shape" fill="#1D87E4"></path>
                            </g>
                            <path d="M46.6,45.2 C39.2,45.2 33.1,39.1 33.1,31.7 C33.1,24.3 39.2,18.2 46.6,18.2 C54,18.2 60.1,24.3 60.1,31.7 C60.1,39.1 54,45.2 46.6,45.2 L46.6,45.2 Z M46.6,20.2 C40.3,20.2 35.1,25.4 35.1,31.7 C35.1,38 40.3,43.2 46.6,43.2 C52.9,43.2 58.1,38 58.1,31.7 C58.1,25.4 52.9,20.2 46.6,20.2 L46.6,20.2 Z" id="Shape" fill="#1D87E4"></path>
                            <path d="M46.5,40.2 C41.8,40.2 38,36.4 38,31.7 C38,27 41.8,23.2 46.5,23.2 C51.2,23.2 55,27 55,31.7 C55,36.4 51.1,40.2 46.5,40.2 L46.5,40.2 Z M46.5,25.2 C42.9,25.2 40,28.1 40,31.7 C40,35.3 42.9,38.2 46.5,38.2 C50.1,38.2 53,35.3 53,31.7 C53,28.1 50,25.2 46.5,25.2 L46.5,25.2 Z" id="Shape" fill="#1D87E4"></path>
                            <rect id="Rectangle-path" fill="#1D87E4" x="29.1" y="30.7" width="35" height="2"></rect>
                            <rect id="Rectangle-path" fill="#1D87E4" x="45.6" y="14.2" width="2" height="34.6"></rect>
                            <rect id="Rectangle-path" fill="#1D87E4" transform="translate(46.610790, 31.704630) rotate(45.000000) translate(-46.610790, -31.704630) " x="29.3109559" y="30.7046396" width="34.5996682" height="1.99998082"></rect>
                            <rect id="Rectangle-path" fill="#1D87E4" transform="translate(46.610790, 31.704630) rotate(45.000000) translate(-46.610790, -31.704630) " x="45.6107996" y="14.4047959" width="1.99998082" height="34.5996682"></rect>
                        </g>
                    </g>
                </g>
            </g>
        </g>
    </g>
</svg>