<?xml version="1.0" encoding="UTF-8" standalone="no"?>
<svg width="96px" height="54px" viewBox="0 0 96 54" version="1.1" xmlns="http://www.w3.org/2000/svg" xmlns:xlink="http://www.w3.org/1999/xlink">
    <!-- Generator: Sketch 39.1 (31720) - http://www.bohemiancoding.com/sketch -->
    <title>holod_skladi</title>
    <desc>Created with Sketch.</desc>
    <defs></defs>
    <g id="-" stroke="none" stroke-width="1" fill="none" fill-rule="evenodd">
        <g id="Main_page_blue_pop_up" transform="translate(-200.000000, -1558.000000)">
            <g id="Group-11" transform="translate(100.000000, 1521.000000)">
                <g id="Group-10-Copy-7">
                    <g id="Type-1-Copy" transform="translate(59.000000, 37.000000)">
                        <g id="holod_skladi" transform="translate(41.000000, 0.000000)">
                            <path d="M93.6,30.6 L88.8,30.6 L88.8,25.7 C88.8,25.1 88.3,24.7 87.8,24.7 L82.8,24.7 L82.8,11.5 L84.3,11.1 C84.6,10.4 84.1,9.6 83.3,9.6 L49.1,0.7 C48.2,0.5 47.3,0.5 46.5,0.7 L12.7,9.6 C11.9,9.6 11.4,10.4 11.7,11.1 L13.2,11.5 L13.2,24.7 L8.2,24.7 C7.6,24.7 7.2,25.2 7.2,25.7 L7.2,30.6 L2.4,30.6 C1.3,30.6 0.4,31.5 0.4,32.6 L0.4,53.3 L95.6,53.3 L95.6,32.6 C95.6,31.5 94.7,30.6 93.6,30.6 L93.6,30.6 Z M2.4,32.6 L7.2,32.6 L7.2,51.3 L7.2,51.3 L2.4,51.3 L2.4,32.6 L2.4,32.6 Z M93.6,51.3 L88.8,51.3 L88.8,51.3 L88.8,32.6 L93.6,32.6 L93.6,51.3 L93.6,51.3 Z" id="Shape" fill="#C0E4FF"></path>
                            <g id="Group" transform="translate(26.000000, 13.000000)">
                                <path d="M40.4,8.8 L3.7,8.8 C2.6,8.8 1.7,7.9 1.7,6.8 L1.7,3.8 C1.7,2.7 2.6,1.8 3.7,1.8 L40.4,1.8 C41.5,1.8 42.4,2.7 42.4,3.8 L42.4,6.8 C42.4,7.9 41.5,8.8 40.4,8.8 L40.4,8.8 Z" id="Shape" fill="#FFFFFF"></path>
                                <path d="M40.4,9.8 L3.7,9.8 C2,9.8 0.7,8.5 0.7,6.8 L0.7,3.8 C0.7,2.1 2,0.8 3.7,0.8 L40.4,0.8 C42.1,0.8 43.4,2.1 43.4,3.8 L43.4,6.8 C43.4,8.5 42,9.8 40.4,9.8 L40.4,9.8 Z M3.7,2.8 C3.1,2.8 2.7,3.2 2.7,3.8 L2.7,6.8 C2.7,7.4 3.1,7.8 3.7,7.8 L40.4,7.8 C41,7.8 41.4,7.4 41.4,6.8 L41.4,3.8 C41.4,3.2 41,2.8 40.4,2.8 L3.7,2.8 L3.7,2.8 Z" id="Shape" fill="#1D87E4"></path>
                            </g>
                            <g id="Group" transform="translate(37.000000, 13.000000)">
                                <path d="M1,1.8 L1,8.8" id="Shape" fill="#FFFFFF"></path>
                                <path d="M1,9.8 C0.4,9.8 0,9.4 0,8.8 L0,1.8 C0,1.2 0.4,0.8 1,0.8 C1.6,0.8 2,1.2 2,1.8 L2,8.8 C2,9.4 1.6,9.8 1,9.8 L1,9.8 Z" id="Shape" fill="#1D87E4"></path>
                            </g>
                            <g id="Group" transform="translate(47.000000, 13.000000)">
                                <path d="M1,1.8 L1,8.8" id="Shape" fill="#FFFFFF"></path>
                                <path d="M1,9.8 C0.4,9.8 0,9.4 0,8.8 L0,1.8 C0,1.2 0.4,0.8 1,0.8 C1.6,0.8 2,1.2 2,1.8 L2,8.8 C2,9.4 1.6,9.8 1,9.8 L1,9.8 Z" id="Shape" fill="#1D87E4"></path>
                            </g>
                            <g id="Group" transform="translate(57.000000, 13.000000)">
                                <path d="M1,1.8 L1,8.8" id="Shape" fill="#FFFFFF"></path>
                                <path d="M1,9.8 C0.4,9.8 0,9.4 0,8.8 L0,1.8 C0,1.2 0.4,0.8 1,0.8 C1.6,0.8 2,1.2 2,1.8 L2,8.8 C2,9.4 1.6,9.8 1,9.8 L1,9.8 Z" id="Shape" fill="#1D87E4"></path>
                            </g>
                            <g id="Group" transform="translate(36.000000, 27.000000)">
                                <g transform="translate(6.000000, 6.000000)" id="Shape">
                                    <polygon fill="#FFFFFF" points="3.5 9.3 1.2 5.3 3.5 1.3 8.1 1.3 10.4 5.3 8.1 9.3"></polygon>
                                    <path d="M8.1,10.3 L3.5,10.3 C3.1,10.3 2.8,10.1 2.6,9.8 L0.3,5.8 C0.1,5.5 0.1,5.1 0.3,4.8 L2.6,0.8 C2.8,0.5 3.1,0.3 3.5,0.3 L8.1,0.3 C8.5,0.3 8.8,0.5 9,0.8 L11.3,4.8 C11.5,5.1 11.5,5.5 11.3,5.8 L9,9.8 C8.8,10.2 8.5,10.3 8.1,10.3 L8.1,10.3 Z M4.1,8.3 L7.6,8.3 L9.3,5.3 L7.6,2.3 L4.1,2.3 L2.4,5.3 L4.1,8.3 L4.1,8.3 Z" fill="#1D87E4"></path>
                                </g>
                                <path d="M9.3,8 C9,8 8.6,7.8 8.4,7.5 L5.5,2.5 C5.2,2 5.4,1.4 5.9,1.1 C6.4,0.8 7,1 7.3,1.5 L10.2,6.5 C10.5,7 10.3,7.6 9.8,7.9 C9.6,7.9 9.5,8 9.3,8 L9.3,8 Z" id="Shape" fill="#1D87E4"></path>
                                <path d="M8.3,6.2 L8,6.2 L4.6,5.3 C4.1,5.2 3.8,4.6 3.9,4.1 C4,3.6 4.6,3.2 5.1,3.4 L7.5,4 L8.1,1.6 C8.2,1.1 8.8,0.7 9.3,0.9 C9.8,1 10.1,1.6 10,2.1 L9.1,5.5 C9.1,5.9 8.7,6.2 8.3,6.2 L8.3,6.2 Z" id="Shape" fill="#1D87E4"></path>
                                <path d="M14,8.5 C13.8,8.5 13.7,8.5 13.5,8.4 C13,8.1 12.9,7.5 13.1,7 L16.3,1.5 C16.6,1 17.2,0.9 17.7,1.1 C18.2,1.4 18.3,2 18.1,2.5 L14.9,8 C14.7,8.3 14.4,8.5 14,8.5 L14,8.5 Z" id="Shape" fill="#1D87E4"></path>
                                <path d="M15.4,6.2 C15,6.2 14.6,5.9 14.4,5.5 L13.5,2.1 C13.4,1.6 13.7,1 14.2,0.9 C14.7,0.8 15.3,1.1 15.4,1.6 L16,4 L18.4,3.4 C18.9,3.3 19.5,3.6 19.6,4.1 C19.7,4.6 19.4,5.2 18.9,5.3 L15.5,6.2 C15.6,6.2 15.5,6.2 15.4,6.2 L15.4,6.2 Z" id="Shape" fill="#1D87E4"></path>
                                <path d="M16.4,12.3 C15.8,12.3 15.4,11.9 15.4,11.3 C15.4,10.7 15.8,10.3 16.4,10.3 L22.6,10.3 L22.6,10.3 C23.2,10.3 23.6,10.7 23.6,11.3 C23.6,11.9 23.2,12.3 22.6,12.3 L16.4,12.3 L16.4,12.3 L16.4,12.3 Z" id="Shape" fill="#1D87E4"></path>
                                <path d="M21.4,14.8 C21.1,14.8 20.9,14.7 20.7,14.5 L18.2,12.1 C17.8,11.7 17.8,11.1 18.2,10.7 L20.6,8.2 C21,7.8 21.6,7.8 22,8.2 C22.4,8.6 22.4,9.2 22,9.6 L20.3,11.4 L22.1,13.1 C22.5,13.5 22.5,14.1 22.1,14.5 C21.9,14.7 21.6,14.8 21.4,14.8 L21.4,14.8 Z" id="Shape" fill="#1D87E4"></path>
                                <path d="M7.2,12.3 L7.2,12.3 L1.5,12.3 C0.9,12.3 0.5,11.9 0.5,11.3 C0.5,10.7 0.9,10.3 1.5,10.3 L1.5,10.3 L7.2,10.3 C7.8,10.3 8.2,10.7 8.2,11.3 C8.2,11.9 7.7,12.3 7.2,12.3 L7.2,12.3 Z" id="Shape" fill="#1D87E4"></path>
                                <path d="M2.7,14.8 C2.4,14.8 2.2,14.7 2,14.5 C1.6,14.1 1.6,13.5 2,13.1 L3.8,11.4 L2.1,9.6 C1.7,9.2 1.7,8.6 2.1,8.2 C2.5,7.8 3.1,7.8 3.5,8.2 L5.9,10.7 C6.3,11.1 6.3,11.7 5.9,12.1 L3.4,14.5 C3.2,14.7 2.9,14.8 2.7,14.8 L2.7,14.8 Z" id="Shape" fill="#1D87E4"></path>
                                <path d="M6.4,21.7 C6.2,21.7 6.1,21.7 5.9,21.6 C5.4,21.3 5.3,20.7 5.5,20.2 L8.6,14.9 C8.9,14.4 9.5,14.3 10,14.5 C10.5,14.8 10.6,15.4 10.4,15.9 L7.3,21.2 C7.1,21.5 6.7,21.7 6.4,21.7 L6.4,21.7 Z" id="Shape" fill="#1D87E4"></path>
                                <path d="M9.2,21.8 C8.8,21.8 8.4,21.5 8.2,21.1 L7.6,18.7 L5.2,19.3 C4.7,19.4 4.1,19.1 4,18.6 C3.9,18.1 4.2,17.5 4.7,17.4 L8.1,16.5 C8.4,16.4 8.6,16.5 8.9,16.6 C9.1,16.7 9.3,16.9 9.4,17.2 L10.3,20.6 C10.4,21.1 10.1,21.7 9.6,21.8 C9.3,21.8 9.2,21.8 9.2,21.8 L9.2,21.8 Z" id="Shape" fill="#1D87E4"></path>
                                <path d="M17.2,21.7 C16.9,21.7 16.5,21.5 16.3,21.2 L13.2,15.9 C12.9,15.4 13.1,14.8 13.6,14.5 C14.1,14.2 14.7,14.4 15,14.9 L18.1,20.2 C18.4,20.7 18.2,21.3 17.7,21.6 C17.6,21.6 17.4,21.7 17.2,21.7 L17.2,21.7 Z" id="Shape" fill="#1D87E4"></path>
                                <path d="M14.5,21.8 L14.2,21.8 C13.7,21.7 13.4,21.1 13.5,20.6 L14.4,17.2 C14.5,16.7 15.1,16.3 15.6,16.5 L19,17.4 C19.5,17.5 19.8,18.1 19.7,18.6 C19.6,19.1 19,19.4 18.5,19.3 L16.1,18.7 L15.5,21.1 C15.3,21.5 14.9,21.8 14.5,21.8 L14.5,21.8 Z" id="Shape" fill="#1D87E4"></path>
                            </g>
                        </g>
                    </g>
                </g>
            </g>
        </g>
    </g>
</svg>