<?xml version="1.0" encoding="UTF-8" standalone="no"?>
<svg width="78px" height="63px" viewBox="0 0 78 63" version="1.1" xmlns="http://www.w3.org/2000/svg" xmlns:xlink="http://www.w3.org/1999/xlink">
    <!-- Generator: Sketch 39.1 (31720) - http://www.bohemiancoding.com/sketch -->
    <title>holodoAPK</title>
    <desc>Created with Sketch.</desc>
    <defs></defs>
    <g id="-" stroke="none" stroke-width="1" fill="none" fill-rule="evenodd">
        <g id="Main_page_blue_pop_up" transform="translate(-1157.000000, -1552.000000)">
            <g id="Group-11" transform="translate(100.000000, 1521.000000)">
                <g id="Group-10-Copy-3" transform="translate(945.000000, 0.000000)">
                    <g id="Group" transform="translate(76.000000, 30.000000)">
                        <g id="Type-1-Copy-3">
                            <g id="holodoAPK" transform="translate(36.000000, 0.000000)">
                                <g id="Group" transform="translate(7.000000, 0.000000)">
                                    <g transform="translate(6.000000, 6.000000)" id="Shape">
                                        <polygon fill="#FFFFFF" points="4 9.5 1.6 5.4 4 1.4 8.6 1.4 10.9 5.4 8.6 9.5"></polygon>
                                        <path d="M8.6,10.5 L4,10.5 C3.6,10.5 3.3,10.3 3.1,10 L0.8,6 C0.6,5.7 0.6,5.3 0.8,5 L3.1,1 C3.3,0.7 3.6,0.5 4,0.5 L8.6,0.5 C9,0.5 9.3,0.7 9.5,1 L11.8,5 C12,5.3 12,5.7 11.8,6 L9.5,10 C9.3,10.3 9,10.5 8.6,10.5 L8.6,10.5 Z M4.5,8.5 L8,8.5 L9.7,5.5 L8,2.5 L4.5,2.5 L2.8,5.5 L4.5,8.5 L4.5,8.5 Z" fill="#1D87E4"></path>
                                    </g>
                                    <path d="M9.8,8.1 C9.5,8.1 9.1,7.9 8.9,7.6 L6,2.6 C5.7,2.1 5.9,1.5 6.4,1.2 C6.9,0.9 7.5,1.1 7.8,1.6 L10.7,6.6 C11,7.1 10.8,7.7 10.3,8 C10.1,8 9.9,8.1 9.8,8.1 L9.8,8.1 Z" id="Shape" fill="#1D87E4"></path>
                                    <path d="M8.7,6.3 L8.4,6.3 L5,5.4 C4.5,5.3 4.2,4.7 4.3,4.2 C4.4,3.7 5,3.4 5.5,3.5 L7.9,4.1 L8.5,1.7 C8.6,1.2 9.2,0.9 9.7,1 C10.2,1.1 10.5,1.7 10.4,2.2 L9.5,5.6 C9.6,6 9.2,6.3 8.7,6.3 L8.7,6.3 Z" id="Shape" fill="#1D87E4"></path>
                                    <path d="M14.5,8.6 C14.3,8.6 14.2,8.6 14,8.5 C13.5,8.2 13.4,7.6 13.6,7.1 L16.8,1.6 C17.1,1.1 17.7,1 18.2,1.2 C18.7,1.5 18.8,2.1 18.6,2.6 L15.4,8.1 C15.2,8.4 14.8,8.6 14.5,8.6 L14.5,8.6 Z" id="Shape" fill="#1D87E4"></path>
                                    <path d="M15.8,6.3 C15.4,6.3 15,6 14.8,5.6 L14,2.2 C13.9,1.7 14.2,1.1 14.7,1 C15.2,0.9 15.8,1.2 15.9,1.7 L16.5,4.1 L18.9,3.5 C19.4,3.4 20,3.7 20.1,4.2 C20.2,4.7 19.9,5.3 19.4,5.4 L16,6.3 C16,6.3 15.9,6.3 15.8,6.3 L15.8,6.3 Z" id="Shape" fill="#1D87E4"></path>
                                    <path d="M16.9,12.4 C16.3,12.4 15.9,12 15.9,11.4 C15.9,10.8 16.3,10.4 16.9,10.4 L23.1,10.4 L23.1,10.4 C23.7,10.4 24.1,10.8 24.1,11.4 C24.1,12 23.7,12.4 23.1,12.4 L16.9,12.4 L16.9,12.4 L16.9,12.4 Z" id="Shape" fill="#1D87E4"></path>
                                    <path d="M21.8,14.9 C21.5,14.9 21.3,14.8 21.1,14.6 L18.6,12.2 C18.2,11.8 18.2,11.2 18.6,10.8 L21,8.3 C21.4,7.9 22,7.9 22.4,8.3 C22.8,8.7 22.8,9.3 22.4,9.7 L20.7,11.5 L22.5,13.2 C22.9,13.6 22.9,14.2 22.5,14.6 C22.3,14.8 22.1,14.9 21.8,14.9 L21.8,14.9 Z" id="Shape" fill="#1D87E4"></path>
                                    <path d="M7.6,12.4 L7.6,12.4 L1.9,12.4 C1.3,12.4 0.9,12 0.9,11.4 C0.9,10.8 1.3,10.4 1.9,10.4 L1.9,10.4 L7.6,10.4 C8.2,10.4 8.6,10.8 8.6,11.4 C8.6,12 8.2,12.4 7.6,12.4 L7.6,12.4 Z" id="Shape" fill="#1D87E4"></path>
                                    <path d="M3.1,14.9 C2.8,14.9 2.6,14.8 2.4,14.6 C2,14.2 2,13.6 2.4,13.2 L4.2,11.5 L2.5,9.7 C2.1,9.3 2.1,8.7 2.5,8.3 C2.9,7.9 3.5,7.9 3.9,8.3 L6.3,10.8 C6.7,11.2 6.7,11.8 6.3,12.2 L3.8,14.6 C3.7,14.8 3.4,14.9 3.1,14.9 L3.1,14.9 Z" id="Shape" fill="#1D87E4"></path>
                                    <path d="M6.9,21.8 C6.7,21.8 6.6,21.8 6.4,21.7 C5.9,21.4 5.8,20.8 6,20.3 L9.1,15 C9.4,14.5 10,14.4 10.5,14.6 C11,14.9 11.1,15.5 10.9,16 L7.8,21.3 C7.5,21.6 7.2,21.8 6.9,21.8 L6.9,21.8 Z" id="Shape" fill="#1D87E4"></path>
                                    <path d="M9.6,21.9 C9.2,21.9 8.8,21.6 8.6,21.2 L8,18.8 L5.6,19.4 C5.1,19.5 4.5,19.2 4.4,18.7 C4.3,18.2 4.6,17.6 5.1,17.5 L8.5,16.6 C9,16.5 9.6,16.8 9.7,17.3 L10.6,20.7 C10.7,21.2 10.4,21.8 9.9,21.9 C9.8,21.9 9.7,21.9 9.6,21.9 L9.6,21.9 Z" id="Shape" fill="#1D87E4"></path>
                                    <path d="M17.7,21.8 C17.4,21.8 17,21.6 16.8,21.3 L13.7,16 C13.4,15.5 13.6,14.9 14.1,14.6 C14.6,14.3 15.2,14.5 15.5,15 L18.6,20.3 C18.9,20.8 18.7,21.4 18.2,21.7 C18,21.8 17.9,21.8 17.7,21.8 L17.7,21.8 Z" id="Shape" fill="#1D87E4"></path>
                                    <path d="M14.9,21.9 L14.6,21.9 C14.1,21.8 13.8,21.2 13.9,20.7 L14.8,17.3 C14.9,16.8 15.5,16.5 16,16.6 L19.4,17.5 C19.9,17.6 20.2,18.2 20.1,18.7 C20,19.2 19.4,19.5 18.9,19.4 L16.5,18.8 L15.9,21.2 C15.8,21.6 15.4,21.9 14.9,21.9 L14.9,21.9 Z" id="Shape" fill="#1D87E4"></path>
                                </g>
                                <path d="M64.9,23.6 C63.2,22.7 59,23 57.1,22.9 C55.5,21.9 53.2,19.1 51.3,18.5 C39.5,14.5 28.6,19.8 24.6,31.6 C20.6,43.4 26.9,56.2 38.7,60.2 C40.5,60.8 42.3,59.1 44.1,59.2 C45.7,60.2 47.2,61.9 49.5,62.6 C58.1,65.2 72.7,61.5 76,49.5 C79.3,37.8 74.5,28.4 64.9,23.6 L64.9,23.6 Z" id="Shape" fill="#C0E4FF"></path>
                                <polygon id="Shape" fill="#FFFFFF" points="19.8 62.8 22 62.3 25.8 59.7 29.6 54.5 31.3 50.1 31.8 42.6 28.8 33.8 23 28.5 24.8 28.5 31.8 30.6 37.5 34 42.2 39.2 45.5 42.2 49.1 45.2 51 49 51 54.5 48.9 58 44.8 60.9 39.5 62 34.6 62.3 30 62.3"></polygon>
                                <path d="M16.5,64 L16.5,62 L36.7,61.8 C44.1,61.8 50.2,58 50.7,53 C50.9,51.3 51,45.6 46.3,43.3 C44.1,42.2 42.5,40.4 40.9,38 C36.9,32.1 27.5,28.4 16.4,28.3 L16.4,26.3 C28.1,26.3 38.1,30.4 42.5,36.9 C43.9,39 45.3,40.6 47.1,41.5 C51.8,43.8 53,49 52.6,53.2 C52,59.1 45,63.8 36.6,63.8 L16.5,64 L16.5,64 Z" id="Shape" fill="#1D87E4"></path>
                                <g id="Group" transform="translate(0.000000, 26.000000)">
                                    <path d="M31.3,19.2 C31.3,29.1 24.7,37.1 16.5,37.1 C8.3,37.1 1.7,29.1 1.7,19.2 C1.7,9.3 8.4,1.4 16.6,1.4 C24.8,1.4 31.3,9.3 31.3,19.2 L31.3,19.2 Z" id="Shape" fill="#C0E4FF"></path>
                                    <path d="M16.5,38 C7.8,38 0.7,29.5 0.7,19.1 C0.7,8.7 7.8,0.3 16.6,0.3 C25.3,0.3 32.3,8.7 32.3,19.1 C32.3,29.6 25.2,38 16.5,38 L16.5,38 Z M16.6,2.4 C8.9,2.4 2.7,9.9 2.7,19.2 C2.7,28.5 8.9,36.1 16.5,36.1 C24.1,36.1 30.3,28.5 30.3,19.2 C30.3,9.9 24.2,2.4 16.6,2.4 L16.6,2.4 Z" id="Shape" fill="#1D87E4"></path>
                                </g>
                                <g id="Group" transform="translate(9.000000, 41.000000)">
                                    <circle id="Oval" fill="#FFFFFF" cx="6.8" cy="6.7" r="5.4"></circle>
                                    <path d="M6.8,13.1 C3.2,13.1 0.4,10.2 0.4,6.7 C0.4,3.2 3.3,0.3 6.8,0.3 C10.4,0.3 13.2,3.2 13.2,6.7 C13.2,10.2 10.4,13.1 6.8,13.1 L6.8,13.1 Z M6.8,2.2 C4.4,2.2 2.4,4.2 2.4,6.6 C2.4,9 4.4,11 6.8,11 C9.2,11 11.2,9 11.2,6.6 C11.2,4.2 9.3,2.2 6.8,2.2 L6.8,2.2 Z" id="Shape" fill="#1D87E4"></path>
                                </g>
                                <g id="Group" transform="translate(50.000000, 16.000000)" fill="#1D87E4">
                                    <path d="M5.1,13.4 C5,13.4 4.9,13.4 4.8,13.3 C4.3,13.1 4,12.6 4.2,12 L7.9,1.1 C8.1,0.6 8.6,0.3 9.2,0.5 C9.7,0.7 10,1.2 9.8,1.8 L6,12.7 C5.9,13.1 5.5,13.4 5.1,13.4 L5.1,13.4 Z" id="Shape"></path>
                                    <path d="M10.8,12.2 C10.5,12.2 10.3,12.1 10.1,11.9 L2.4,3.3 C2,2.9 2.1,2.3 2.5,1.9 C2.9,1.5 3.5,1.6 3.9,2 L11.6,10.6 C12,11 11.9,11.6 11.5,12 C11.3,12.1 11,12.2 10.8,12.2 L10.8,12.2 Z" id="Shape"></path>
                                    <path d="M1.3,9 C0.8,9 0.4,8.7 0.3,8.2 C0.2,7.7 0.6,7.1 1.1,7 L12.4,4.9 C12.9,4.8 13.5,5.2 13.6,5.7 C13.7,6.2 13.3,6.8 12.8,6.9 L1.4,9 L1.3,9 L1.3,9 Z" id="Shape"></path>
                                </g>
                                <g id="Group" transform="translate(27.000000, 28.000000)">
                                    <path d="M24.6,24.6 L0.8,0.8" id="Shape" fill="#76C4FF"></path>
                                    <rect id="Rectangle-path" fill="#1D87E4" transform="translate(12.749955, 12.709295) rotate(45.000000) translate(-12.749955, -12.709295) " x="-4.09988341" y="11.7093046" width="33.6996768" height="1.99998082"></rect>
                                </g>
                                <g id="Group" transform="translate(29.000000, 37.000000)">
                                    <path d="M20.6,20.8 L1.2,1.4" id="Shape" fill="#76C4FF"></path>
                                    <rect id="Rectangle-path" fill="#1D87E4" transform="translate(10.911780, 11.094300) rotate(45.000000) translate(-10.911780, -11.094300) " x="-2.78808862" y="10.0943096" width="27.3997372" height="1.99998082"></rect>
                                </g>
                                <g id="Group" transform="translate(30.000000, 45.000000)">
                                    <path d="M15.5,15.9 L1.2,1.7" id="Shape" fill="#76C4FF"></path>
                                    <rect id="Rectangle-path" fill="#1D87E4" transform="translate(8.331605, 8.799965) rotate(45.000000) translate(-8.331605, -8.799965) " x="-1.71829862" y="7.79997459" width="20.0998072" height="1.99998082"></rect>
                                </g>
                                <g id="Group" transform="translate(29.000000, 52.000000)">
                                    <path d="M10.8,10.5 L1,0.7" id="Shape" fill="#76C4FF"></path>
                                    <rect id="Rectangle-path" fill="#1D87E4" transform="translate(5.929285, 5.621105) rotate(45.000000) translate(-5.929285, -5.621105) " x="-1.02064835" y="4.62111459" width="13.8998667" height="1.99998082"></rect>
                                </g>
                                <g id="Group" transform="translate(26.000000, 56.000000)">
                                    <path d="M7,6.9 L1.4,1.3" id="Shape" fill="#76C4FF"></path>
                                    <rect id="Rectangle-path" fill="#1D87E4" transform="translate(4.186710, 4.100030) rotate(45.000000) translate(-4.186710, -4.100030) " x="0.286747401" y="3.10003959" width="7.7999252" height="1.99998082"></rect>
                                </g>
                                <g id="Group" transform="translate(36.000000, 48.000000)">
                                    <path d="M1.3,14.6 L15.1,0.8" id="Shape" fill="#76C4FF"></path>
                                    <rect id="Rectangle-path" fill="#1D87E4" transform="translate(8.190695, 7.711645) rotate(45.000000) translate(-8.190695, -7.711645) " x="7.19070459" y="-2.0382615" width="1.99998082" height="19.499813"></rect>
                                </g>
                                <g id="Group" transform="translate(29.000000, 43.000000)">
                                    <path d="M1,19.7 L19.3,1.5" id="Shape" fill="#76C4FF"></path>
                                    <rect id="Rectangle-path" fill="#1D87E4" transform="translate(10.100650, 10.559470) rotate(45.000000) translate(-10.100650, -10.559470) " x="9.10065959" y="-2.34040629" width="1.99998082" height="25.7997526"></rect>
                                </g>
                                <g id="Group" transform="translate(22.000000, 40.000000)">
                                    <path d="M0.8,22.7 L22.3,1.2" id="Shape" fill="#76C4FF"></path>
                                    <rect id="Rectangle-path" fill="#1D87E4" transform="translate(11.606170, 11.919050) rotate(45.000000) translate(-11.606170, -11.919050) " x="10.6061796" y="-3.28080423" width="1.99998082" height="30.3997085"></rect>
                                </g>
                                <g id="Group" transform="translate(30.000000, 32.000000)">
                                    <path d="M1.2,7.9 L7.4,1.7" id="Shape" fill="#76C4FF"></path>
                                    <rect id="Rectangle-path" fill="#1D87E4" transform="translate(4.322605, 4.767955) rotate(45.000000) translate(-4.322605, -4.767955) " x="3.32261459" y="0.417996717" width="1.99998082" height="8.69991657"></rect>
                                </g>
                                <g id="Group" transform="translate(28.000000, 30.000000)">
                                    <path d="M1.1,4.7 L4.9,1" id="Shape" fill="#76C4FF"></path>
                                    <rect id="Rectangle-path" fill="#1D87E4" transform="translate(2.999465, 2.857635) rotate(45.000000) translate(-2.999465, -2.857635) " x="1.99947459" y="0.207660414" width="1.99998082" height="5.29994917"></rect>
                                </g>
                                <g id="Group" transform="translate(25.000000, 28.000000)">
                                    <path d="M0.8,2.8 L2.6,1" id="Shape" fill="#76C4FF"></path>
                                    <rect id="Rectangle-path" fill="#1D87E4" transform="translate(1.743935, 1.868905) rotate(45.000000) translate(-1.743935, -1.868905) " x="0.74394459" y="0.618916988" width="1.99998082" height="2.49997602"></rect>
                                </g>
                                <g id="Group" transform="translate(30.000000, 36.000000)">
                                    <path d="M1.6,10.7 L11,1.3" id="Shape" fill="#76C4FF"></path>
                                    <rect id="Rectangle-path" fill="#1D87E4" transform="translate(6.311685, 5.957475) rotate(45.000000) translate(-6.311685, -5.957475) " x="5.31169459" y="-0.692461226" width="1.99998082" height="13.2998725"></rect>
                                </g>
                            </g>
                        </g>
                    </g>
                </g>
            </g>
        </g>
    </g>
</svg>