<?xml version="1.0" encoding="UTF-8" standalone="no"?>
<svg width="96px" height="48px" viewBox="0 0 96 48" version="1.1" xmlns="http://www.w3.org/2000/svg" xmlns:xlink="http://www.w3.org/1999/xlink">
    <!-- Generator: Sketch 39.1 (31720) - http://www.bohemiancoding.com/sketch -->
    <title>Group 2</title>
    <desc>Created with Sketch.</desc>
    <defs></defs>
    <g id="-" stroke="none" stroke-width="1" fill="none" fill-rule="evenodd">
        <g id="Main_page_blue_pop_up" transform="translate(-826.000000, -1565.000000)">
            <g id="Group-11" transform="translate(100.000000, 1521.000000)">
                <g id="Group-10" transform="translate(630.000000, 0.000000)">
                    <g id="Type-1" transform="translate(45.000000, 44.000000)">
                        <g id="Group-2" transform="translate(51.000000, 0.000000)">
                            <path d="M90.8,0.2 L48.3,0.2 C45.5,0.2 43.3,2.4 43.3,5.2 L43.3,12.1 L40,12.1 L40,5.2 C40,2.4 37.8,0.2 35,0.2 L17,0.2 C14.2,0.2 12,2.4 12,5.2 L12,12.1 L11.6,12.1 C5.3,12.1 0.1,17.3 0.1,23.6 C0.1,29.9 5.3,35.1 11.6,35.1 L12,35.1 L12,42.9 C12,45.7 14.2,47.9 17,47.9 L35,47.9 C37.8,47.9 40,45.7 40,42.9 L40,35.1 L43.3,35.1 L43.3,42.9 C43.3,45.7 45.5,47.9 48.3,47.9 L90.7,47.9 C93.5,47.9 95.7,45.7 95.7,42.9 L95.7,5.2 C95.8,2.5 93.5,0.2 90.8,0.2 L90.8,0.2 Z M11.5,33.1 C6.3,33.1 2,28.8 2,23.6 C2,18.4 6.3,14.1 11.5,14.1 L12,14.1 L12,33.1 L11.5,33.1 L11.5,33.1 Z M40,33.1 L40,14.1 L43.3,14.1 L43.3,33.1 L40,33.1 L40,33.1 Z" id="Shape" fill="#C0E4FF"></path>
                            <g id="Group" transform="translate(14.000000, 20.000000)">
                                <g transform="translate(6.000000, 6.000000)" id="Shape">
                                    <polygon fill="#FFFFFF" points="3.5 9.2 1.2 5.2 3.5 1.2 8.1 1.2 10.4 5.2 8.1 9.2"></polygon>
                                    <path d="M8.1,10.2 L3.5,10.2 C3.1,10.2 2.8,10 2.6,9.7 L0.3,5.7 C0.1,5.4 0.1,5 0.3,4.7 L2.6,0.7 C2.8,0.4 3.1,0.2 3.5,0.2 L8.1,0.2 C8.5,0.2 8.8,0.4 9,0.7 L11.3,4.7 C11.5,5 11.5,5.4 11.3,5.7 L9,9.7 C8.8,10 8.5,10.2 8.1,10.2 L8.1,10.2 Z M4,8.2 L7.5,8.2 L9.2,5.2 L7.5,2.2 L4,2.2 L2.3,5.2 L4,8.2 L4,8.2 Z" fill="#1D87E4"></path>
                                </g>
                                <path d="M9.3,7.8 C9,7.8 8.6,7.6 8.4,7.3 L5.5,2.3 C5.2,1.8 5.4,1.2 5.9,0.9 C6.4,0.6 7,0.8 7.3,1.3 L10.2,6.3 C10.5,6.8 10.3,7.4 9.8,7.7 C9.6,7.8 9.4,7.8 9.3,7.8 L9.3,7.8 Z" id="Shape" fill="#1D87E4"></path>
                                <path d="M8.2,6.1 L7.9,6.1 L4.5,5.2 C4,5.1 3.7,4.5 3.8,4 C3.9,3.5 4.5,3.2 5,3.3 L7.4,3.9 L8,1.5 C8.1,1 8.7,0.7 9.2,0.8 C9.7,0.9 10,1.5 9.9,2 L9,5.4 C9.1,5.8 8.7,6.1 8.2,6.1 L8.2,6.1 Z" id="Shape" fill="#1D87E4"></path>
                                <path d="M14,8.4 C13.8,8.4 13.7,8.4 13.5,8.3 C13,8 12.9,7.4 13.1,6.9 L16.3,1.4 C16.6,0.9 17.2,0.8 17.7,1 C18.2,1.3 18.3,1.9 18.1,2.4 L14.9,7.9 C14.7,8.2 14.3,8.4 14,8.4 L14,8.4 Z" id="Shape" fill="#1D87E4"></path>
                                <path d="M15.4,6.1 C15,6.1 14.6,5.8 14.4,5.4 L13.5,2 C13.4,1.5 13.7,0.9 14.2,0.8 C14.7,0.7 15.3,1 15.4,1.5 L16,3.9 L18.4,3.3 C18.9,3.2 19.5,3.5 19.6,4 C19.7,4.5 19.4,5.1 18.9,5.2 L15.6,6 C15.5,6.1 15.4,6.1 15.4,6.1 L15.4,6.1 Z" id="Shape" fill="#1D87E4"></path>
                                <path d="M16.4,12.2 C15.8,12.2 15.4,11.8 15.4,11.2 C15.4,10.6 15.8,10.2 16.4,10.2 L22.6,10.2 L22.6,10.2 C23.2,10.2 23.6,10.6 23.6,11.2 C23.6,11.8 23.2,12.2 22.6,12.2 L16.4,12.2 L16.4,12.2 L16.4,12.2 Z" id="Shape" fill="#1D87E4"></path>
                                <path d="M21.3,14.7 C21,14.7 20.8,14.6 20.6,14.4 L18.1,12 C17.7,11.6 17.7,11 18.1,10.6 L20.5,8.1 C20.9,7.7 21.5,7.7 21.9,8.1 C22.3,8.5 22.3,9.1 21.9,9.5 L20.2,11.3 L22,13 C22.4,13.4 22.4,14 22,14.4 C21.9,14.6 21.6,14.7 21.3,14.7 L21.3,14.7 Z" id="Shape" fill="#1D87E4"></path>
                                <path d="M7.2,12.2 L7.2,12.2 L1.5,12.2 C0.9,12.2 0.5,11.8 0.5,11.2 C0.5,10.6 0.9,10.2 1.5,10.2 L1.5,10.2 L7.2,10.2 C7.8,10.2 8.2,10.6 8.2,11.2 C8.2,11.8 7.7,12.2 7.2,12.2 L7.2,12.2 Z" id="Shape" fill="#1D87E4"></path>
                                <path d="M2.7,14.7 C2.4,14.7 2.2,14.6 2,14.4 C1.6,14 1.6,13.4 2,13 L3.8,11.3 L2,9.4 C1.6,9 1.6,8.4 2,8 C2.4,7.6 3,7.6 3.4,8 L5.8,10.5 C6,10.7 6.1,10.9 6.1,11.2 C6.1,11.5 6,11.7 5.8,11.9 L3.3,14.3 C3.2,14.6 2.9,14.7 2.7,14.7 L2.7,14.7 Z" id="Shape" fill="#1D87E4"></path>
                                <path d="M6.4,21.6 C6.2,21.6 6.1,21.6 5.9,21.5 C5.4,21.2 5.3,20.6 5.5,20.1 L8.6,14.8 C8.9,14.3 9.5,14.2 10,14.4 C10.5,14.7 10.6,15.3 10.4,15.8 L7.3,21.1 C7.1,21.4 6.7,21.6 6.4,21.6 L6.4,21.6 Z" id="Shape" fill="#1D87E4"></path>
                                <path d="M9.1,21.7 C8.7,21.7 8.3,21.4 8.1,21 L7.5,18.6 L5.1,19.2 C4.6,19.3 4,19 3.9,18.5 C3.8,18 4.1,17.4 4.6,17.3 L8,16.4 C8.5,16.3 9.1,16.6 9.2,17.1 L10.1,20.5 C10.2,21 9.9,21.6 9.4,21.7 L9.1,21.7 L9.1,21.7 Z" id="Shape" fill="#1D87E4"></path>
                                <path d="M17.2,21.6 C16.9,21.6 16.5,21.4 16.3,21.1 L13.2,15.8 C12.9,15.3 13.1,14.7 13.6,14.4 C14.1,14.1 14.7,14.3 15,14.8 L18.1,20.1 C18.4,20.6 18.2,21.2 17.7,21.5 C17.6,21.5 17.4,21.6 17.2,21.6 L17.2,21.6 Z" id="Shape" fill="#1D87E4"></path>
                                <path d="M14.5,21.7 L14.2,21.7 C13.7,21.6 13.4,21 13.5,20.5 L14.4,17.1 C14.5,16.6 15.1,16.3 15.6,16.4 L19,17.3 C19.5,17.4 19.8,18 19.7,18.5 C19.6,19 19,19.3 18.5,19.2 L16.1,18.6 L15.5,21 C15.3,21.4 14.9,21.7 14.5,21.7 L14.5,21.7 Z" id="Shape" fill="#1D87E4"></path>
                            </g>
                            <g id="Group" transform="translate(58.000000, 20.000000)">
                                <g transform="translate(5.000000, 6.000000)" id="Shape">
                                    <polygon fill="#FFFFFF" points="4 9.2 1.7 5.2 4 1.2 8.7 1.2 11 5.2 8.7 9.2"></polygon>
                                    <path d="M8.7,10.2 L4,10.2 C3.6,10.2 3.3,10 3.1,9.7 L0.8,5.7 C0.6,5.4 0.6,5 0.8,4.7 L3.1,0.7 C3.3,0.4 3.6,0.2 4,0.2 L8.6,0.2 C9,0.2 9.3,0.4 9.5,0.7 L11.8,4.7 C12,5 12,5.4 11.8,5.7 L9.5,9.7 C9.3,10 9,10.2 8.7,10.2 L8.7,10.2 Z M4.6,8.2 L8.1,8.2 L9.8,5.2 L8.1,2.2 L4.6,2.2 L2.9,5.2 L4.6,8.2 L4.6,8.2 Z" fill="#1D87E4"></path>
                                </g>
                                <path d="M8.8,7.8 C8.5,7.8 8.1,7.6 7.9,7.3 L5,2.3 C4.7,1.8 4.9,1.2 5.4,0.9 C5.9,0.6 6.5,0.8 6.8,1.3 L9.7,6.3 C10,6.8 9.8,7.4 9.3,7.7 C9.2,7.8 9,7.8 8.8,7.8 L8.8,7.8 Z" id="Shape" fill="#1D87E4"></path>
                                <path d="M7.8,6.1 L7.5,6.1 L4.1,5.2 C3.6,5.1 3.3,4.5 3.4,4 C3.5,3.5 4.1,3.2 4.6,3.3 L7,3.9 L7.6,1.5 C7.7,1 8.3,0.7 8.8,0.8 C9.3,0.9 9.6,1.5 9.5,2 L8.6,5.4 C8.5,5.7 8.4,5.9 8.1,6 C8.1,6 7.9,6.1 7.8,6.1 L7.8,6.1 Z" id="Shape" fill="#1D87E4"></path>
                                <path d="M13.5,8.4 C13.3,8.4 13.2,8.4 13,8.3 C12.5,8 12.4,7.4 12.6,6.9 L15.8,1.4 C16.1,0.9 16.7,0.8 17.2,1 C17.7,1.3 17.8,1.9 17.6,2.4 L14.4,7.9 C14.2,8.2 13.9,8.4 13.5,8.4 L13.5,8.4 Z" id="Shape" fill="#1D87E4"></path>
                                <path d="M14.9,6.1 C14.7,6.1 14.6,6.1 14.4,6 C14.2,5.9 14,5.6 13.9,5.4 L13,2 C12.9,1.5 13.2,0.9 13.7,0.8 C14.2,0.7 14.8,1 14.9,1.5 L15.5,3.9 L17.9,3.3 C18.4,3.2 19,3.5 19.1,4 C19.2,4.5 18.9,5.1 18.4,5.2 L15,6.1 C15.1,6.1 15,6.1 14.9,6.1 L14.9,6.1 Z" id="Shape" fill="#1D87E4"></path>
                                <path d="M16,12.2 C15.4,12.2 15,11.8 15,11.2 C15,10.6 15.4,10.2 16,10.2 L22.2,10.2 L22.2,10.2 C22.8,10.2 23.2,10.6 23.2,11.2 C23.2,11.8 22.8,12.2 22.2,12.2 L16,12.2 L16,12.2 L16,12.2 Z" id="Shape" fill="#1D87E4"></path>
                                <path d="M20.9,14.7 C20.6,14.7 20.4,14.6 20.2,14.4 L17.7,12 C17.3,11.6 17.3,11 17.7,10.6 L20.1,8.1 C20.5,7.7 21.1,7.7 21.5,8.1 C21.9,8.5 21.9,9.1 21.5,9.5 L19.8,11.3 L21.6,13 C22,13.4 22,14 21.6,14.4 C21.4,14.6 21.2,14.7 20.9,14.7 L20.9,14.7 Z" id="Shape" fill="#1D87E4"></path>
                                <path d="M6.7,12.2 L6.7,12.2 L1,12.2 C0.4,12.2 0,11.8 0,11.2 C0,10.6 0.4,10.2 1,10.2 L1,10.2 L6.7,10.2 C7.3,10.2 7.7,10.6 7.7,11.2 C7.7,11.8 7.3,12.2 6.7,12.2 L6.7,12.2 Z" id="Shape" fill="#1D87E4"></path>
                                <path d="M2.2,14.7 C1.9,14.7 1.7,14.6 1.5,14.4 C1.1,14 1.1,13.4 1.5,13 L3.3,11.3 L1.6,9.5 C1.2,9.1 1.2,8.5 1.6,8.1 C2,7.7 2.6,7.7 3,8.1 L5.4,10.6 C5.6,10.8 5.7,11 5.7,11.3 C5.7,11.6 5.6,11.8 5.4,12 L2.9,14.4 C2.7,14.6 2.5,14.7 2.2,14.7 L2.2,14.7 Z" id="Shape" fill="#1D87E4"></path>
                                <path d="M5.9,21.6 C5.7,21.6 5.6,21.6 5.4,21.5 C4.9,21.2 4.8,20.6 5,20.1 L8.1,14.8 C8.4,14.3 9,14.2 9.5,14.4 C10,14.7 10.1,15.3 9.9,15.8 L6.8,21.1 C6.6,21.4 6.3,21.6 5.9,21.6 L5.9,21.6 Z" id="Shape" fill="#1D87E4"></path>
                                <path d="M8.7,21.7 C8.3,21.7 7.9,21.4 7.7,21 L7.1,18.6 L4.7,19.2 C4.2,19.3 3.6,19 3.5,18.5 C3.4,18 3.7,17.4 4.2,17.3 L7.6,16.4 C8.1,16.3 8.7,16.6 8.8,17.1 L9.7,20.5 C9.8,21 9.5,21.6 9,21.7 L8.7,21.7 L8.7,21.7 Z" id="Shape" fill="#1D87E4"></path>
                                <path d="M16.8,21.6 C16.5,21.6 16.1,21.4 15.9,21.1 L12.8,15.8 C12.5,15.3 12.7,14.7 13.2,14.4 C13.7,14.1 14.3,14.3 14.6,14.8 L17.7,20.1 C18,20.6 17.8,21.2 17.3,21.5 C17.1,21.5 16.9,21.6 16.8,21.6 L16.8,21.6 Z" id="Shape" fill="#1D87E4"></path>
                                <path d="M14,21.7 L13.7,21.7 C13.2,21.6 12.9,21 13,20.5 L13.9,17.1 C14,16.8 14.1,16.6 14.4,16.5 C14.6,16.4 14.9,16.3 15.2,16.4 L18.6,17.3 C19.1,17.4 19.4,18 19.3,18.5 C19.2,19 18.6,19.3 18.1,19.2 L15.7,18.6 L15.1,21 C14.8,21.4 14.4,21.7 14,21.7 L14,21.7 Z" id="Shape" fill="#1D87E4"></path>
                            </g>
                            <g id="Group" transform="translate(17.000000, 6.000000)">
                                <path d="M14.8,8.3 L3.2,8.3 C2.1,8.3 1.2,7.4 1.2,6.3 L1.2,3.3 C1.2,2.2 2.1,1.3 3.2,1.3 L14.9,1.3 C16,1.3 16.9,2.2 16.9,3.3 L16.9,6.3 C16.8,7.4 15.9,8.3 14.8,8.3 L14.8,8.3 Z" id="Shape" fill="#FFFFFF"></path>
                                <path d="M14.8,9.3 L3.2,9.3 C1.5,9.3 0.2,8 0.2,6.3 L0.2,3.3 C0.2,1.6 1.5,0.3 3.2,0.3 L14.9,0.3 C16.6,0.3 17.9,1.6 17.9,3.3 L17.9,6.3 C17.8,7.9 16.5,9.3 14.8,9.3 L14.8,9.3 Z M3.2,2.3 C2.6,2.3 2.2,2.7 2.2,3.3 L2.2,6.3 C2.2,6.9 2.6,7.3 3.2,7.3 L14.9,7.3 C15.5,7.3 15.9,6.9 15.9,6.3 L15.9,3.3 C15.9,2.7 15.5,2.3 14.9,2.3 L3.2,2.3 L3.2,2.3 Z" id="Shape" fill="#1D87E4"></path>
                            </g>
                            <g id="Group" transform="translate(47.000000, 6.000000)">
                                <path d="M40.6,1.3 L3.8,1.3 C2.7,1.3 1.8,2.2 1.8,3.3 L1.8,6.3 C1.8,7.4 2.7,8.3 3.8,8.3 L40.5,8.3 C41.6,8.3 42.5,7.4 42.5,6.3 L42.5,3.3 C42.6,2.2 41.7,1.3 40.6,1.3 L40.6,1.3 Z" id="Shape" fill="#FFFFFF"></path>
                                <path d="M40.6,9.3 L3.8,9.3 C2.1,9.3 0.8,8 0.8,6.3 L0.8,3.3 C0.8,1.6 2.1,0.3 3.8,0.3 L40.5,0.3 C42.2,0.3 43.5,1.6 43.5,3.3 L43.5,6.3 C43.6,7.9 42.2,9.3 40.6,9.3 L40.6,9.3 Z M3.8,2.3 C3.2,2.3 2.8,2.7 2.8,3.3 L2.8,6.3 C2.8,6.9 3.2,7.3 3.8,7.3 L40.5,7.3 C41.1,7.3 41.5,6.9 41.5,6.3 L41.5,3.3 C41.5,2.7 41.1,2.3 40.5,2.3 L3.8,2.3 L3.8,2.3 Z" id="Shape" fill="#1D87E4"></path>
                            </g>
                            <g id="Group" transform="translate(58.000000, 6.000000)">
                                <path d="M1.2,1.3 L1.2,8.3" id="Shape" fill="#FFFFFF"></path>
                                <path d="M1.2,9.3 C0.6,9.3 0.2,8.9 0.2,8.3 L0.2,1.3 C0.2,0.7 0.6,0.3 1.2,0.3 C1.8,0.3 2.2,0.7 2.2,1.3 L2.2,8.3 C2.2,8.8 1.8,9.3 1.2,9.3 L1.2,9.3 Z" id="Shape" fill="#1D87E4"></path>
                            </g>
                            <g id="Group" transform="translate(68.000000, 6.000000)">
                                <path d="M1.2,1.3 L1.2,8.3" id="Shape" fill="#FFFFFF"></path>
                                <path d="M1.2,9.3 C0.6,9.3 0.2,8.9 0.2,8.3 L0.2,1.3 C0.2,0.7 0.6,0.3 1.2,0.3 C1.8,0.3 2.2,0.7 2.2,1.3 L2.2,8.3 C2.2,8.8 1.8,9.3 1.2,9.3 L1.2,9.3 Z" id="Shape" fill="#1D87E4"></path>
                            </g>
                            <g id="Group" transform="translate(78.000000, 6.000000)">
                                <path d="M1.2,1.3 L1.2,8.3" id="Shape" fill="#FFFFFF"></path>
                                <path d="M1.2,9.3 C0.6,9.3 0.2,8.9 0.2,8.3 L0.2,1.3 C0.2,0.7 0.6,0.3 1.2,0.3 C1.8,0.3 2.2,0.7 2.2,1.3 L2.2,8.3 C2.2,8.8 1.8,9.3 1.2,9.3 L1.2,9.3 Z" id="Shape" fill="#1D87E4"></path>
                            </g>
                        </g>
                    </g>
                </g>
            </g>
        </g>
    </g>
</svg>