<?xml version="1.0" encoding="UTF-8" standalone="no"?>
<svg width="90px" height="51px" viewBox="0 0 90 51" version="1.1" xmlns="http://www.w3.org/2000/svg" xmlns:xlink="http://www.w3.org/1999/xlink">
    <!-- Generator: Sketch 39.1 (31720) - http://www.bohemiancoding.com/sketch -->
    <title>co2</title>
    <desc>Created with Sketch.</desc>
    <defs></defs>
    <g id="-" stroke="none" stroke-width="1" fill="none" fill-rule="evenodd">
        <g id="Main_page_blue_pop_up" transform="translate(-514.000000, -1771.000000)">
            <g id="Group-11" transform="translate(100.000000, 1521.000000)">
                <g id="Group-10-Copy-4" transform="translate(315.000000, 211.000000)">
                    <g id="Type-1-Copy-4" transform="translate(72.000000, 34.000000)">
                        <g id="co2" transform="translate(27.000000, 5.000000)">
                            <g id="Layer_1">
                                <path d="M79.6,31.8 L79,31.8 C79.4,30.4 79.6,29 79.6,27.4 C79.6,26.2 79.4,25 79.2,23.8 C77.6,26.2 74.9,27.8 71.8,27.8 C66.9,27.8 63,23.8 63,19 C63,16.2 64.3,13.8 66.3,12.1 C65.6,12 65,12 64.3,12 C61.6,12 59.1,12.7 56.9,13.9 C53.2,6.7 45.8,1.7 37.1,1.7 C25.5,1.7 16,10.6 15,21.9 C7.7,22.7 2.1,28.9 2.1,36.4 C2.1,44.5 8.6,51 16.7,51 L79.7,51 C85,51 89.3,46.7 89.3,41.4 C89.3,36.1 84.9,31.8 79.6,31.8 L79.6,31.8 Z" id="Shape" fill="#C0E4FF"></path>
                                <g id="Group" transform="translate(23.000000, 22.000000)">
                                    <g id="Shape">
                                        <path d="M18.3,4.2 L15.3,7.7 C14.2,6.3 12.6,5.4 11.1,5.4 C8.7,5.4 6.9,7.3 6.9,9.9 C6.9,12.5 8.7,14.4 11.1,14.4 C12.4,14.4 14.1,13.6 15.3,12.4 L18.3,15.6 C16.4,17.6 13.5,19 10.9,19 C5.6,19 1.7,15.2 1.7,10 C1.7,4.9 5.7,1.1 11.1,1.1 C13.7,1.1 16.6,2.3 18.3,4.2 L18.3,4.2 Z" fill="#FFFFFF"></path>
                                        <path d="M10.9,20 C5.1,20 0.7,15.7 0.7,10 C0.7,4.4 5.2,0.1 11.1,0.1 C14.1,0.1 17.1,1.4 19.1,3.5 C19.4,3.9 19.5,4.4 19.1,4.8 L16.1,8.3 C15.9,8.5 15.7,8.7 15.3,8.7 C15,8.7 14.7,8.6 14.5,8.3 C13.6,7.1 12.2,6.4 11.1,6.4 C9.3,6.4 7.9,7.9 7.9,9.9 C7.9,11.9 9.3,13.4 11.1,13.4 C12.2,13.4 13.5,12.7 14.6,11.7 C14.8,11.5 15,11.4 15.3,11.4 C15.6,11.4 15.8,11.5 16,11.7 L19,14.9 C19.4,15.3 19.4,15.9 19,16.3 C17,18.6 13.8,20 10.9,20 L10.9,20 Z M11.1,2.1 C6.2,2.1 2.7,5.4 2.7,10 C2.7,14.6 6.2,18 10.9,18 C13,18 15.2,17.1 16.9,15.6 L15.2,13.8 C13.9,14.8 12.4,15.4 11.1,15.4 C8.2,15.4 5.9,13 5.9,9.9 C5.9,6.8 8.1,4.4 11.1,4.4 C12.5,4.4 14,5.1 15.2,6.2 L16.9,4.2 C15.4,2.9 13.2,2.1 11.1,2.1 L11.1,2.1 Z" fill="#1D87E4"></path>
                                    </g>
                                    <g transform="translate(20.000000, 0.000000)" id="Shape">
                                        <path d="M20.2,10 C20.2,15.1 16.2,19 10.7,19 C5.2,19 1.2,15.2 1.2,10 C1.2,4.9 5.2,1.1 10.7,1.1 C16.2,1.1 20.2,4.8 20.2,10 L20.2,10 Z M6.5,10 C6.5,12.6 8.5,14.6 10.8,14.6 C13.1,14.6 14.9,12.6 14.9,10 C14.9,7.4 13.1,5.4 10.8,5.4 C8.4,5.4 6.5,7.3 6.5,10 L6.5,10 Z" fill="#FFFFFF"></path>
                                        <path d="M10.7,20 C4.7,20 0.2,15.7 0.2,10 C0.2,4.3 4.6,0.1 10.7,0.1 C16.7,0.1 21.2,4.4 21.2,10 C21.2,15.7 16.7,20 10.7,20 L10.7,20 Z M10.7,2.1 C5.7,2.1 2.2,5.4 2.2,10 C2.2,14.6 5.8,18 10.7,18 C15.6,18 19.2,14.6 19.2,10 C19.2,5.4 15.6,2.1 10.7,2.1 L10.7,2.1 Z M10.8,15.6 C7.9,15.6 5.5,13.1 5.5,10 C5.5,6.9 7.8,4.4 10.8,4.4 C13.7,4.4 15.9,6.8 15.9,10 C15.9,13.1 13.7,15.6 10.8,15.6 L10.8,15.6 Z M10.8,6.4 C9,6.4 7.5,8 7.5,10 C7.5,12 9,13.6 10.8,13.6 C12.6,13.6 13.9,12 13.9,10 C13.9,8 12.6,6.4 10.8,6.4 L10.8,6.4 Z" fill="#1D87E4"></path>
                                    </g>
                                </g>
                                <circle id="Oval" fill="#C0E4FF" cx="12.4" cy="5.3" r="5.1"></circle>
                                <circle id="Oval" fill="#C0E4FF" cx="4.8" cy="14.6" r="4"></circle>
                                <path d="M71.6,35.4 C71.6,36.3 70.9,37.3 70,38.2 L68.3,40 L71.8,40 L71.8,41.7 L65.5,41.7 L65.5,40.3 L68.5,37.1 C69,36.6 69.3,36 69.3,35.7 C69.3,35.2 69,34.9 68.4,34.9 C67.7,34.9 66.9,35.3 66.1,36 L65.3,34.5 C66.4,33.7 67.5,33.2 68.7,33.2 C70.4,33.2 71.6,34.1 71.6,35.4 L71.6,35.4 Z" id="Shape" fill="#1D87E4"></path>
                                <path d="M78.5,19 C78.7,16.5 78.3,12.5 77.5,6.2 C77.5,6.2 73.9,11 69.2,12.8 L69.2,12.8 C67.4,13.5 65.9,15 65.2,17 C64.6,18.9 64.8,20.9 65.8,22.5 C67.3,20.3 69.7,17.8 73.5,16.8 C73.5,16.8 69.7,20.6 67.7,24.6 C68.3,25 68.9,25.3 69.6,25.6 C73.2,26.8 77,24.8 78.2,21.2 C78.5,20.5 78.6,19.7 78.5,19 L78.5,19 Z" id="Shape" fill="#4CAF50"></path>
                            </g>
                        </g>
                    </g>
                </g>
            </g>
        </g>
    </g>
</svg>