<?xml version="1.0" encoding="UTF-8" standalone="no"?>
<svg width="64px" height="63px" viewBox="0 0 64 63" version="1.1" xmlns="http://www.w3.org/2000/svg" xmlns:xlink="http://www.w3.org/1999/xlink">
    <!-- Generator: Sketch 39.1 (31720) - http://www.bohemiancoding.com/sketch -->
    <title>Group 4</title>
    <desc>Created with Sketch.</desc>
    <defs></defs>
    <g id="-" stroke="none" stroke-width="1" fill="none" fill-rule="evenodd">
        <g id="Main_page_blue_pop_up" transform="translate(-856.000000, -1769.000000)">
            <g id="Group-11" transform="translate(100.000000, 1521.000000)">
                <g id="Group-10-Copy-2" transform="translate(630.000000, 211.000000)">
                    <g id="Type-1-Copy" transform="translate(49.000000, 37.000000)">
                        <g id="Group-4" transform="translate(77.000000, 0.000000)">
                            <path d="M40.9,13.8 C40.6,13.8 40.4,13.7 40.2,13.5 C39.8,13.1 39.8,12.5 40.2,12.1 L49.3,3 C49.7,2.6 50.3,2.6 50.7,3 C51.1,3.4 51.1,4 50.7,4.4 L41.6,13.5 C41.4,13.7 41.1,13.8 40.9,13.8 L40.9,13.8 Z" id="Shape" fill="#C0E4FF"></path>
                            <path d="M53.3,19.7 C53,19.7 52.8,19.6 52.6,19.4 C52.2,19 52.2,18.4 52.6,18 L59.1,11.5 C59.5,11.1 60.1,11.1 60.5,11.5 C60.9,11.9 60.9,12.5 60.5,12.9 L54,19.4 C53.8,19.6 53.6,19.7 53.3,19.7 L53.3,19.7 Z" id="Shape" fill="#C0E4FF"></path>
                            <path d="M43.5,22.2 C43.2,22.2 43,22.1 42.8,21.9 C42.4,21.5 42.4,20.9 42.8,20.5 L61.8,1.5 C62.2,1.1 62.8,1.1 63.2,1.5 C63.6,1.9 63.6,2.5 63.2,2.9 L44.2,21.9 C44,22.1 43.8,22.2 43.5,22.2 L43.5,22.2 Z" id="Shape" fill="#C0E4FF"></path>
                            <path d="M41.7,27.8 L41.7,27.8 L24.8,1.3 C24.1,0.1 22.4,0.1 21.6,1.3 L4.7,27.8 L4.7,27.8 C2,31.8 0.6,36.8 1,42.2 C2,53 10.8,61.7 21.7,62.3 C34.6,63.1 45.3,52.9 45.3,40.2 C45.4,35.5 44,31.3 41.7,27.8 L41.7,27.8 Z" id="Shape" fill="#C0E4FF"></path>
                            <g id="Group" transform="translate(11.000000, 31.000000)">
                                <g transform="translate(6.000000, 5.000000)" id="Shape">
                                    <polygon fill="#FFFFFF" points="3.7 9.8 1.4 5.7 3.7 1.7 8.3 1.7 10.7 5.7 8.3 9.8"></polygon>
                                    <path d="M8.3,10.8 L3.7,10.8 C3.3,10.8 3,10.6 2.8,10.3 L0.5,6.3 C0.3,6 0.3,5.6 0.5,5.3 L2.8,1.3 C3,1 3.3,0.8 3.7,0.8 L8.3,0.8 C8.7,0.8 9,1 9.2,1.3 L11.5,5.3 C11.7,5.6 11.7,6 11.5,6.3 L9.2,10.3 C9,10.6 8.7,10.8 8.3,10.8 L8.3,10.8 Z M4.3,8.8 L7.8,8.8 L9.5,5.8 L7.8,2.8 L4.3,2.8 L2.6,5.8 L4.3,8.8 L4.3,8.8 Z" fill="#1D87E4"></path>
                                </g>
                                <path d="M9.5,7.4 C9.2,7.4 8.8,7.2 8.6,6.9 L5.7,1.9 C5.4,1.4 5.6,0.8 6.1,0.5 C6.6,0.2 7.2,0.4 7.5,0.9 L10.4,5.9 C10.7,6.4 10.5,7 10,7.3 C9.8,7.3 9.7,7.4 9.5,7.4 L9.5,7.4 Z" id="Shape" fill="#1D87E4"></path>
                                <path d="M8.5,5.6 L8.2,5.6 L4.8,4.7 C4.3,4.6 4,4 4.1,3.5 C4.2,3 4.8,2.7 5.3,2.8 L7.7,3.4 L8.3,1 C8.4,0.5 9,0.2 9.5,0.3 C10,0.4 10.3,1 10.2,1.5 L9.3,4.9 C9.2,5.2 9.1,5.4 8.8,5.5 C8.8,5.6 8.6,5.6 8.5,5.6 L8.5,5.6 Z" id="Shape" fill="#1D87E4"></path>
                                <path d="M14.2,7.9 C14,7.9 13.9,7.9 13.7,7.8 C13.2,7.5 13.1,6.9 13.3,6.4 L16.5,0.9 C16.8,0.4 17.4,0.3 17.9,0.5 C18.4,0.8 18.5,1.4 18.3,1.9 L15.1,7.4 C14.9,7.7 14.6,7.9 14.2,7.9 L14.2,7.9 Z" id="Shape" fill="#1D87E4"></path>
                                <path d="M15.6,5.6 C15.2,5.6 14.8,5.3 14.6,4.9 L13.7,1.5 C13.6,1 13.9,0.4 14.4,0.3 C14.9,0.2 15.5,0.5 15.6,1 L16.2,3.4 L18.6,2.8 C19.1,2.7 19.7,3 19.8,3.5 C19.9,4 19.6,4.6 19.1,4.7 L15.7,5.6 C15.8,5.6 15.7,5.6 15.6,5.6 L15.6,5.6 Z" id="Shape" fill="#1D87E4"></path>
                                <path d="M16.7,11.7 C16.1,11.7 15.7,11.3 15.7,10.7 C15.7,10.1 16.1,9.7 16.7,9.7 L22.9,9.7 L22.9,9.7 C23.5,9.7 23.9,10.1 23.9,10.7 C23.9,11.3 23.5,11.7 22.9,11.7 L16.7,11.7 L16.7,11.7 L16.7,11.7 Z" id="Shape" fill="#1D87E4"></path>
                                <path d="M21.6,14.2 C21.3,14.2 21.1,14.1 20.9,13.9 L18.4,11.5 C18,11.1 18,10.5 18.4,10.1 L20.8,7.6 C21.2,7.2 21.8,7.2 22.2,7.6 C22.6,8 22.6,8.6 22.2,9 L20.5,10.8 L22.3,12.5 C22.7,12.9 22.7,13.5 22.3,13.9 C22.1,14.1 21.8,14.2 21.6,14.2 L21.6,14.2 Z" id="Shape" fill="#1D87E4"></path>
                                <path d="M7.4,11.7 L7.4,11.7 L1.7,11.7 C1.1,11.7 0.7,11.3 0.7,10.7 C0.7,10.1 1.1,9.7 1.7,9.7 L1.7,9.7 L7.4,9.7 C8,9.7 8.4,10.1 8.4,10.7 C8.4,11.3 7.9,11.7 7.4,11.7 L7.4,11.7 Z" id="Shape" fill="#1D87E4"></path>
                                <path d="M2.9,14.2 C2.6,14.2 2.4,14.1 2.2,13.9 C1.8,13.5 1.8,12.9 2.2,12.5 L4,10.8 L2.3,9 C1.9,8.6 1.9,8 2.3,7.6 C2.7,7.2 3.3,7.2 3.7,7.6 L6.1,10.1 C6.3,10.3 6.4,10.5 6.4,10.8 C6.4,11.1 6.3,11.3 6.1,11.5 L3.6,13.9 C3.4,14.1 3.1,14.2 2.9,14.2 L2.9,14.2 Z" id="Shape" fill="#1D87E4"></path>
                                <path d="M6.6,21.1 C6.4,21.1 6.3,21.1 6.1,21 C5.6,20.7 5.5,20.1 5.7,19.6 L8.8,14.3 C9.1,13.8 9.7,13.7 10.2,13.9 C10.7,14.2 10.8,14.8 10.6,15.3 L7.5,20.6 C7.3,20.9 7,21.1 6.6,21.1 L6.6,21.1 Z" id="Shape" fill="#1D87E4"></path>
                                <path d="M9.4,21.2 C9,21.2 8.6,20.9 8.4,20.5 L7.8,18.1 L5.4,18.7 C4.9,18.8 4.3,18.5 4.2,18 C4.1,17.5 4.4,16.9 4.9,16.8 L8.3,15.9 C8.8,15.8 9.4,16.1 9.5,16.6 L10.4,20 C10.5,20.5 10.2,21.1 9.7,21.2 L9.4,21.2 L9.4,21.2 Z" id="Shape" fill="#1D87E4"></path>
                                <path d="M17.4,21.1 C17.1,21.1 16.7,20.9 16.5,20.6 L13.4,15.3 C13.1,14.8 13.3,14.2 13.8,13.9 C14.3,13.6 14.9,13.8 15.2,14.3 L18.3,19.6 C18.6,20.1 18.4,20.7 17.9,21 C17.8,21.1 17.6,21.1 17.4,21.1 L17.4,21.1 Z" id="Shape" fill="#1D87E4"></path>
                                <path d="M14.7,21.2 L14.4,21.2 C13.9,21.1 13.6,20.5 13.7,20 L14.6,16.6 C14.7,16.1 15.3,15.8 15.8,15.9 L19.2,16.8 C19.7,16.9 20,17.5 19.9,18 C19.8,18.5 19.2,18.8 18.7,18.7 L16.3,18.1 L15.7,20.5 C15.5,20.9 15.1,21.2 14.7,21.2 L14.7,21.2 Z" id="Shape" fill="#1D87E4"></path>
                            </g>
                        </g>
                    </g>
                </g>
            </g>
        </g>
    </g>
</svg>