<?xml version="1.0" encoding="UTF-8" standalone="no"?>
<svg width="96px" height="48px" viewBox="0 0 96 48" version="1.1" xmlns="http://www.w3.org/2000/svg" xmlns:xlink="http://www.w3.org/1999/xlink">
    <!-- Generator: Sketch 39.1 (31720) - http://www.bohemiancoding.com/sketch -->
    <title>Group 3</title>
    <desc>Created with Sketch.</desc>
    <defs></defs>
    <g id="-" stroke="none" stroke-width="1" fill="none" fill-rule="evenodd">
        <g id="Main_page_blue_pop_up" transform="translate(-510.000000, -1564.000000)">
            <g id="Group-11" transform="translate(100.000000, 1521.000000)">
                <g id="Group-10-Copy" transform="translate(315.000000, 0.000000)">
                    <g id="Type-1-Copy" transform="translate(32.000000, 43.000000)">
                        <g id="Group-3" transform="translate(63.000000, 0.000000)">
                            <path d="M95.9,40.3 C95.9,21.5 87.2,0.4 61,0.4 C42.9,0.4 33.2,10.5 28.9,22.8 L22.3,22.8 L22.3,20.4 C22.3,16 18.7,12.5 14.4,12.5 C10.1,12.5 6.5,16.1 6.5,20.4 L6.5,22.9 C2.9,23.7 0.1,26.9 0.1,30.7 C0.1,34.5 2.8,37.8 6.5,38.5 L6.5,40 C6.5,44.4 10.1,47.9 14.4,47.9 C18.7,47.9 22.3,44.3 22.3,40 L22.3,38.6 L26,38.6 L26,40 L26,45.8 C26,47 27,47.9 28.1,47.9 L93.7,47.9 C94.9,47.9 95.8,46.9 95.8,45.8 L95.9,40.3 L95.9,40.3 Z M2,30.8 C2,28.1 3.8,25.7 6.4,25 L6.4,36.5 C3.8,35.9 2,33.5 2,30.8 L2,30.8 Z M26.1,36.8 L22.3,36.8 L22.3,24.8 L28.2,24.8 C27,28.7 26.3,32.8 26.1,36.8 L26.1,36.8 Z" id="Shape" fill="#C0E4FF"></path>
                            <g id="Group" transform="translate(51.000000, 19.000000)">
                                <path d="M9.9,24.6 L9.9,24.6 C5.3,24.6 1.5,20.8 1.5,16.2 L1.5,9.4 C1.5,4.8 5.3,1 9.9,1 L9.9,1 C14.5,1 18.3,4.8 18.3,9.4 L18.3,16.2 C18.3,20.8 14.5,24.6 9.9,24.6 L9.9,24.6 Z" id="Shape" fill="#FFFFFF"></path>
                                <path d="M9.9,25.6 C4.7,25.6 0.5,21.4 0.5,16.2 L0.5,9.4 C0.5,4.2 4.7,0 9.9,0 C15.1,0 19.3,4.2 19.3,9.4 L19.3,16.2 C19.3,21.4 15.1,25.6 9.9,25.6 L9.9,25.6 Z M9.9,2 C5.8,2 2.5,5.3 2.5,9.4 L2.5,16.2 C2.5,20.3 5.8,23.6 9.9,23.6 C14,23.6 17.3,20.3 17.3,16.2 L17.3,9.4 C17.3,5.3 14,2 9.9,2 L9.9,2 Z" id="Shape" fill="#1D87E4"></path>
                            </g>
                            <path d="M69.4,31.8 L70,31.2 C70.4,30.8 70.4,30.2 70,29.8 C69.6,29.4 69,29.4 68.6,29.8 L68,30.4 L65.9,28.3 L69,25.2 C69.4,24.8 69.4,24.2 69,23.8 C68.6,23.4 68,23.4 67.6,23.8 L64.5,26.9 L62.4,24.8 L65.5,21.7 C65.9,21.3 65.9,20.7 65.5,20.3 C65.1,19.9 64.5,19.9 64.1,20.3 L61,23.4 L57.9,20.3 C57.5,19.9 56.9,19.9 56.5,20.3 C56.1,20.7 56.1,21.3 56.5,21.7 L59.6,24.8 L57.5,26.9 L54.4,23.8 C54,23.4 53.4,23.4 53,23.8 C52.6,24.2 52.6,24.8 53,25.2 L56.1,28.3 L54,30.4 L53.4,29.8 C53,29.4 52.4,29.4 52,29.8 C51.6,30.2 51.6,30.8 52,31.2 L52.6,31.8 L52,32.4 C51.6,32.8 51.6,33.4 52,33.8 C52.2,34 52.5,34.1 52.7,34.1 C52.9,34.1 53.2,34 53.4,33.8 L54,33.2 L56.1,35.3 L53,38.4 C52.6,38.8 52.6,39.4 53,39.8 C53.2,40 53.5,40.1 53.7,40.1 C53.9,40.1 54.2,40 54.4,39.8 L57.5,36.7 L59.6,38.8 L56.6,41.8 C56.2,42.2 56.2,42.8 56.6,43.2 C56.8,43.4 57.1,43.5 57.3,43.5 C57.5,43.5 57.8,43.4 58,43.2 L61,40.2 L64,43.2 C64.2,43.4 64.5,43.5 64.7,43.5 C64.9,43.5 65.2,43.4 65.4,43.2 C65.8,42.8 65.8,42.2 65.4,41.8 L62.4,38.8 L64.5,36.7 L67.6,39.8 C67.8,40 68.1,40.1 68.3,40.1 C68.5,40.1 68.8,40 69,39.8 C69.4,39.4 69.4,38.8 69,38.4 L65.9,35.3 L68,33.2 L68.6,33.8 C68.8,34 69.1,34.1 69.3,34.1 C69.5,34.1 69.8,34 70,33.8 C70.4,33.4 70.4,32.8 70,32.4 L69.4,31.8 L69.4,31.8 Z M60.9,26.2 L63,28.3 L60.9,30.4 L58.8,28.3 L60.9,26.2 L60.9,26.2 Z M55.3,31.8 L57.4,29.7 L59.5,31.8 L57.4,33.9 L55.3,31.8 L55.3,31.8 Z M60.9,37.5 L58.8,35.4 L60.9,33.3 L63,35.4 L60.9,37.5 L60.9,37.5 Z M64.4,34 L62.3,31.9 L64.4,29.8 L66.5,31.9 L64.4,34 L64.4,34 Z" id="Shape" fill="#1D87E4"></path>
                            <path d="M65.8,14.2 C64.3,14.2 63,14.7 62,15.6 L62,14.3 C62,12.2 63.7,10.5 65.8,10.5 C66.4,10.5 66.8,10.1 66.8,9.5 C66.8,8.9 66.4,8.5 65.8,8.5 C64.3,8.5 63,9 62,9.9 L62,5.8 C62,5.2 61.6,4.8 61,4.8 C60.4,4.8 60,5.2 60,5.8 L60,9.9 C59,9 57.6,8.4 56.2,8.4 C55.6,8.4 55.2,8.8 55.2,9.4 C55.2,10 55.6,10.4 56.2,10.4 C58.3,10.4 60,12.1 60,14.2 L60,14.2 L60,15.5 C59,14.6 57.6,14 56.2,14 C55.6,14 55.2,14.4 55.2,15 C55.2,15.6 55.6,16 56.2,16 C58.3,16 60,17.7 60,19.8 C60,20.4 60.4,20.8 61,20.8 L61,20.8 L61,20.8 C61.6,20.8 62,20.4 62,19.8 C62,17.7 63.7,16 65.8,16 C66.4,16 66.8,15.6 66.8,15 C66.8,14.4 66.3,14.2 65.8,14.2 L65.8,14.2 Z" id="Shape" fill="#1D87E4"></path>
                            <g id="Group" transform="translate(76.000000, 16.000000)">
                                <circle id="Oval" fill="#FFFFFF" cx="4.9" cy="5.3" r="3.7"></circle>
                                <path d="M4.9,10 C2.3,10 0.2,7.9 0.2,5.3 C0.2,2.7 2.3,0.6 4.9,0.6 C7.5,0.6 9.6,2.7 9.6,5.3 C9.6,7.9 7.5,10 4.9,10 L4.9,10 Z M4.9,2.6 C3.4,2.6 2.2,3.8 2.2,5.3 C2.2,6.8 3.4,8 4.9,8 C6.4,8 7.6,6.8 7.6,5.3 C7.6,3.8 6.4,2.6 4.9,2.6 L4.9,2.6 Z" id="Shape" fill="#1D87E4"></path>
                            </g>
                            <g id="Group" transform="translate(36.000000, 16.000000)">
                                <circle id="Oval" fill="#FFFFFF" cx="4.9" cy="5.3" r="3.7"></circle>
                                <path d="M4.9,10 C2.3,10 0.2,7.9 0.2,5.3 C0.2,2.7 2.3,0.6 4.9,0.6 C7.5,0.6 9.6,2.7 9.6,5.3 C9.6,7.9 7.5,10 4.9,10 L4.9,10 Z M4.9,2.6 C3.4,2.6 2.2,3.8 2.2,5.3 C2.2,6.8 3.4,8 4.9,8 C6.4,8 7.6,6.8 7.6,5.3 C7.6,3.8 6.4,2.6 4.9,2.6 L4.9,2.6 Z" id="Shape" fill="#1D87E4"></path>
                            </g>
                            <g id="Group" transform="translate(9.000000, 16.000000)">
                                <circle id="Oval" fill="#FFFFFF" cx="5.3" cy="5.3" r="3.7"></circle>
                                <path d="M5.3,10 C2.7,10 0.6,7.9 0.6,5.3 C0.6,2.7 2.7,0.6 5.3,0.6 C7.9,0.6 10,2.7 10,5.3 C10,7.9 7.9,10 5.3,10 L5.3,10 Z M5.3,2.6 C3.8,2.6 2.6,3.8 2.6,5.3 C2.6,6.8 3.8,8 5.3,8 C6.8,8 8,6.8 8,5.3 C8,3.8 6.8,2.6 5.3,2.6 L5.3,2.6 Z" id="Shape" fill="#1D87E4"></path>
                            </g>
                        </g>
                    </g>
                </g>
            </g>
        </g>
    </g>
</svg>