<?xml version="1.0" encoding="UTF-8" standalone="no"?>
<svg width="18px" height="19px" viewBox="0 0 18 19" version="1.1" xmlns="http://www.w3.org/2000/svg" xmlns:xlink="http://www.w3.org/1999/xlink">
    <!-- Generator: Sketch 39.1 (31720) - http://www.bohemiancoding.com/sketch -->
    <title>Shape</title>
    <desc>Created with Sketch.</desc>
    <defs></defs>
    <g id="Symbols" stroke="none" stroke-width="1" fill="none" fill-rule="evenodd">
        <g id="Menu" transform="translate(-1233.000000, -41.000000)" fill="#FFFFFF">
            <g id="button">
                <g transform="translate(1203.000000, 25.000000)">
                    <path d="M38.6366471,27.0934844 C37.0899445,25.8216697 36.057199,24.2523097 35.5142537,23.3593405 L35.1092522,22.5958185 C35.2508612,22.4438805 36.3307541,21.2875187 36.79873,20.6601079 C37.3868235,19.8722625 36.5341712,19.1607194 36.5341712,19.1607194 C36.5341712,19.1607194 34.1349829,16.7611979 33.5882058,16.2852253 C33.0414288,15.8085863 32.4120188,16.0733117 32.4120188,16.0733117 C31.2628208,16.8158422 30.0714733,17.4614123 30.0000024,20.5661462 C29.9973368,23.4729609 32.203937,26.4710716 34.5901306,28.7921251 C36.980156,31.4133895 40.2616511,34.0406514 43.4341907,34.0376527 C46.5385915,33.9668482 47.1839949,32.7756673 47.9265255,31.6264693 C47.9265255,31.6264693 48.1914174,30.9975591 47.7152783,30.4502822 C47.2388059,29.903172 44.8389512,27.5034839 44.8389512,27.5034839 C44.8389512,27.5034839 44.1279078,26.650665 43.3398959,27.2392583 C42.7526353,27.678246 41.6980654,28.6546811 41.4440023,28.8914179 C41.4445021,28.8922509 39.6803882,27.9518011 38.6366471,27.0934844 L38.6366471,27.0934844 Z" id="Shape"></path>
                </g>
            </g>
        </g>
    </g>
</svg>