<?xml version="1.0" encoding="UTF-8" standalone="no"?>
<svg width="44px" height="44px" viewBox="0 0 44 44" version="1.1" xmlns="http://www.w3.org/2000/svg" xmlns:xlink="http://www.w3.org/1999/xlink">
    <!-- Generator: Sketch 39.1 (31720) - http://www.bohemiancoding.com/sketch -->
    <title>Shape</title>
    <desc>Created with Sketch.</desc>
    <defs>
        <filter x="-50%" y="-50%" width="200%" height="200%" filterUnits="objectBoundingBox" id="filter-1">
            <feOffset dx="0" dy="2" in="SourceAlpha" result="shadowOffsetOuter1"></feOffset>
            <feGaussianBlur stdDeviation="7.5" in="shadowOffsetOuter1" result="shadowBlurOuter1"></feGaussianBlur>
            <feColorMatrix values="0 0 0 0 0   0 0 0 0 0   0 0 0 0 0  0 0 0 0.255208333 0" type="matrix" in="shadowBlurOuter1" result="shadowMatrixOuter1"></feColorMatrix>
            <feMerge>
                <feMergeNode in="shadowMatrixOuter1"></feMergeNode>
                <feMergeNode in="SourceGraphic"></feMergeNode>
            </feMerge>
        </filter>
    </defs>
    <g id="Symbols" stroke="none" stroke-width="1" fill="none" fill-rule="evenodd">
        <g id="CONTACTS-&amp;-FEEDBACK" transform="translate(-125.000000, -627.000000)" fill="#FFFFFF">
            <g id="CONTACTS">
                <g id="Group-7" filter="url(#filter-1)" transform="translate(100.000000, 147.000000)">
                    <g id="Piter-Copy" transform="translate(0.000000, 300.000000)">
                        <g id="Group-5" transform="translate(40.000000, 41.000000)">
                            <g id="office_1" transform="translate(0.000000, 73.000000)">
                                <g id="phone" transform="translate(0.000000, 71.000000)">
                                    <g id="1466618994_Call01" transform="translate(0.000000, 7.000000)">
                                        <g id="Phone">
                                            <path d="M5.35260701,6.04236286 L5.04029476,5.45175037 L4.59858849,5.68604841 L4.9643561,6.02695024 C5.22815681,5.7439076 5.46510212,5.4852934 5.73610015,5.17741562 C5.77963427,5.12787935 5.77963427,5.12787935 5.82308954,5.07809801 C6.05056204,4.81703794 6.23368756,4.59591978 6.36260104,4.42308669 C6.76445124,3.88474409 6.68770944,3.31191674 6.34461603,2.8343223 C6.24571142,2.69664464 6.14609116,2.59499758 6.06869861,2.53041306 C6.02706571,2.48590992 5.89598102,2.35511338 5.72697701,2.18700466 C5.44529179,1.90681166 5.16236128,1.62659846 4.89643878,1.36492931 C4.28904535,0.767569439 3.88192783,0.375718217 3.69956313,0.216968683 C3.62527172,0.152206885 3.5464778,0.0961675435 3.46405855,0.0490421713 C3.10764187,-0.154748434 2.73594535,-0.175543186 2.39730816,-0.0918765689 C2.3257022,-0.074184984 2.26879079,-0.0547892104 2.22837013,-0.0377885678 C2.10136941,0.0350598802 2.10136941,0.0350598802 2.05107793,0.0673534983 C0.577623212,1.01342406 0.0265402893,1.84652956 -0.0238801075,4.03681981 C-0.0260789261,6.30149742 1.43382384,8.71237493 3.83108714,11.0441959 C6.27296604,13.7236639 8.88662829,15.4206429 11.3163682,15.4183462 C13.5173195,15.3682669 14.3504378,14.8173245 15.2933817,13.3487313 C15.3288951,13.2934253 15.3288951,13.2934253 15.3606772,13.2441378 C15.4185497,13.1264118 15.437991,13.0694457 15.455724,12.9977676 C15.5396623,12.6584834 15.5186948,12.2860173 15.3139994,11.9289854 C15.2672383,11.8474241 15.2117433,11.7694131 15.1474797,11.6955482 C14.9884538,11.5129463 14.5964941,11.1057369 14.0290072,10.5286992 C13.7374085,10.232346 13.4571022,9.94930979 13.176816,9.66751577 C13.0086513,9.49844647 12.8778114,9.36731009 12.8029234,9.29242735 C12.7688693,9.24839175 12.6672845,9.14875481 12.5296707,9.04983289 C12.0521545,8.70657637 11.4792019,8.6299005 10.9405965,9.03220344 C10.7149493,9.20087867 10.4070836,9.46151209 10.0414984,9.78721527 C9.79897643,10.0032803 9.56652062,10.216207 9.36917316,10.400096 L9.07302495,10.6760478 L9.28128658,11.0231505 L9.91321355,10.3090464 C9.81865103,10.2560315 9.81865103,10.2560315 9.7185413,10.2003943 C9.54005981,10.1006884 9.3476756,9.98978228 9.15032772,9.87156774 C8.59366258,9.53811639 8.10786283,9.2130791 7.76238838,8.92897944 C6.78892217,8.12852263 6.0392326,7.17163968 5.35260701,6.04236286 Z M8.63645277,10.7294328 C8.8429598,10.8531339 9.04397794,10.9690173 9.23084615,11.0734082 C9.33614687,11.1319314 9.33614687,11.1319314 9.40850533,11.1714258 C9.43780542,11.1873208 9.43780542,11.1873208 9.45758784,11.1979551 C9.48413912,11.2119713 9.5067922,11.2227321 9.5067922,11.2227321 L9.71003304,10.7659027 L10.0508929,11.1317094 C10.2432365,10.952483 10.4705249,10.7442896 10.7067044,10.5338751 C11.0522439,10.2260308 11.3426998,9.98013625 11.5391734,9.83326877 C11.6738907,9.73264382 11.7874317,9.74783855 11.9459879,9.86181465 C12.0067875,9.90551966 12.0506179,9.94850966 12.0653516,9.96618113 C12.1701265,10.0738388 12.3003398,10.2043471 12.4678149,10.3727232 C12.7469283,10.6533381 13.0260216,10.9351494 13.2863722,11.1997378 C13.3012003,11.2148086 13.3012003,11.2148086 13.3160246,11.229881 C13.8656125,11.7887184 14.2535601,12.1917597 14.3932055,12.3521077 C14.4145216,12.3766087 14.432136,12.4013697 14.4464659,12.4263642 C14.5057648,12.5297939 14.5123613,12.6469738 14.4849901,12.7576099 C14.487715,12.7526696 14.487715,12.7526696 14.455265,12.8032048 C13.6761388,14.0166593 13.1315364,14.3768057 11.3044946,14.4184764 C9.24173718,14.4203068 6.83904015,12.8603017 4.54918907,10.3489036 C2.30696247,8.16663397 0.974229366,5.96576394 0.975987255,4.04878524 C1.01792122,2.23245524 1.37822415,1.68776343 2.58674734,0.91179916 C2.64211953,0.87624368 2.64211953,0.87624368 2.69356906,0.843067895 C2.61080784,0.886210325 2.61898594,0.883423177 2.63716444,0.87893184 C2.74759412,0.851648132 2.86456983,0.858192398 2.96769208,0.917155254 C2.99288904,0.931562281 3.01784246,0.949309499 3.04271929,0.970995242 C3.20318955,1.1106857 3.60613282,1.4985192 4.16483354,2.04798315 C4.17994527,2.06284642 4.17994527,2.06284642 4.19505537,2.07771351 C4.4595458,2.33797349 4.74124789,2.61697007 5.02175062,2.89598685 C5.19005937,3.063404 5.32051417,3.19357202 5.39476295,3.26783112 C5.44568857,3.31296675 5.48871524,3.35686881 5.53245756,3.41775919 C5.64650251,3.57651256 5.66174221,3.69026697 5.56113046,3.82505251 C5.45045352,3.973436 5.28137239,4.17759601 5.06914757,4.42115699 C5.02742159,4.46895735 5.02742159,4.46895735 4.98546593,4.51669762 C4.72234851,4.81562235 4.49058508,5.06858077 4.23282088,5.34514659 L3.98998121,5.60569926 L4.15688222,5.92034646 L4.48367377,6.53642447 C5.23803973,7.77876406 6.0510011,8.81640537 7.12724224,9.70137143 C7.51877159,10.0233442 8.04088664,10.3726792 8.63645277,10.7294328 Z" id="Shape"></path>
                                        </g>
                                    </g>
                                </g>
                            </g>
                        </g>
                    </g>
                </g>
            </g>
        </g>
    </g>
</svg>