<?xml version="1.0" encoding="UTF-8" standalone="no"?>
<svg width="45px" height="49px" viewBox="0 0 45 49" version="1.1" xmlns="http://www.w3.org/2000/svg" xmlns:xlink="http://www.w3.org/1999/xlink">
    <!-- Generator: Sketch 39.1 (31720) - http://www.bohemiancoding.com/sketch -->
    <title>Shape</title>
    <desc>Created with Sketch.</desc>
    <defs>
        <filter x="-50%" y="-50%" width="200%" height="200%" filterUnits="objectBoundingBox" id="filter-1">
            <feOffset dx="0" dy="2" in="SourceAlpha" result="shadowOffsetOuter1"></feOffset>
            <feGaussianBlur stdDeviation="7.5" in="shadowOffsetOuter1" result="shadowBlurOuter1"></feGaussianBlur>
            <feColorMatrix values="0 0 0 0 0   0 0 0 0 0   0 0 0 0 0  0 0 0 0.255208333 0" type="matrix" in="shadowBlurOuter1" result="shadowMatrixOuter1"></feColorMatrix>
            <feMerge>
                <feMergeNode in="shadowMatrixOuter1"></feMergeNode>
                <feMergeNode in="SourceGraphic"></feMergeNode>
            </feMerge>
        </filter>
    </defs>
    <g id="Symbols" stroke="none" stroke-width="1" fill="none" fill-rule="evenodd">
        <g id="CONTACTS-&amp;-FEEDBACK" transform="translate(-361.000000, -552.000000)" fill="#FFFFFF">
            <g id="CONTACTS">
                <g id="Group-7" filter="url(#filter-1)" transform="translate(100.000000, 147.000000)">
                    <g id="Piter-Copy" transform="translate(0.000000, 300.000000)">
                        <g id="Group-5" transform="translate(39.000000, 41.000000)">
                            <g id="office_1" transform="translate(0.000000, 73.000000)">
                                <g id="phone-copy" transform="translate(236.000000, 0.000000)">
                                    <g id="1466618994_Call01" transform="translate(0.000000, 3.000000)">
                                        <g id="Phone">
                                            <g id="1466620878_Checkin01">
                                                <g id="Checkin">
                                                    <path d="M8.5193975,1.11541928 L8.44,1.11565873 C8.14209275,1.12037562 7.84843188,1.14248902 7.56,1.18102338 L8.5193975,1.11541928 Z M9.46660283,1.18462204 C9.16963218,1.14386442 8.86707263,1.12052056 8.56,1.11565873 C8.53969697,1.11264286 8.51984848,1.11384921 8.5,1.11384921 C8.48015152,1.11384921 8.46030303,1.11264286 8.44,1.11264286 C4.38287879,1.17989683 1.11333333,4.47066667 1.11333333,8.52384921 C1.11333333,13.985746 7.55666667,19.1700317 8.5,19.9066587 C9.44348485,19.1701825 15.8866667,13.9855952 15.8866667,8.52384921 C15.8866667,4.77742973 13.09343,1.68238453 9.56,1.11415079 L8.56,1.11565873 L8.57583084,0.115784046 C13.1829983,0.188728529 16.8866667,3.92836372 16.8866667,8.52384921 C16.8866667,11.2191102 15.5530358,13.9468045 13.3148214,16.628062 C12.5134285,17.5880866 11.6362698,18.4904122 10.7277226,19.3227906 C10.1128061,19.886155 9.57386155,20.3370025 9.11532162,20.6949349 L8.49988759,21.1753374 L7.8845387,20.6948258 C7.42519264,20.3361332 6.88707801,19.8859494 6.27234035,19.3227473 C5.36375524,18.490332 4.48662502,17.5880547 3.68524459,16.628073 C1.44697739,13.9468304 0.113333333,11.2191715 0.113333333,8.52384921 C0.113333333,3.9284135 3.81710288,0.188729651 8.42416857,0.115784055 L8.44,1.11565873 L7.44,1.11565873 L8.44,0.112642857 C8.48013163,0.113055047 8.48013163,0.113055047 8.50037263,0.113702221 C8.51986837,0.113055047 8.51986837,0.113055047 8.56,0.112642857 L9.56,1.11264286 L9.46660283,1.18462204 Z M10.4065152,7.88704844 C10.4065152,6.88033939 9.58214328,6.06171429 8.5614591,6.06171429 C7.54080842,6.06171429 6.71651515,6.88030586 6.71651515,7.88704844 C6.71651515,8.89332279 7.5407866,9.71171438 8.5614591,9.71171438 C9.5821651,9.71171438 10.4065152,8.89328926 10.4065152,7.88704844 Z M5.71651515,7.88704844 C5.71651515,6.32642691 6.99010618,5.06171429 8.5614591,5.06171429 C10.132812,5.06171429 11.4065152,6.32642691 11.4065152,7.88704844 C11.4065152,9.44722449 10.132812,10.7117144 8.5614591,10.7117144 C6.99010618,10.7117144 5.71651515,9.44722449 5.71651515,7.88704844 Z" id="Shape"></path>
                                                </g>
                                            </g>
                                        </g>
                                    </g>
                                </g>
                            </g>
                        </g>
                    </g>
                </g>
            </g>
        </g>
    </g>
</svg>