<?xml version="1.0" encoding="UTF-8" standalone="no"?>
<svg width="12px" height="15px" viewBox="0 0 12 15" version="1.1" xmlns="http://www.w3.org/2000/svg" xmlns:xlink="http://www.w3.org/1999/xlink">
    <!-- Generator: Sketch 39.1 (31720) - http://www.bohemiancoding.com/sketch -->
    <title>Layer_1</title>
    <desc>Created with Sketch.</desc>
    <defs></defs>
    <g id="Page-1" stroke="none" stroke-width="1" fill="none" fill-rule="evenodd">
        <g id="MENU_EXAMPLE" transform="translate(-265.000000, -536.000000)" fill="#4CAF50">
            <g id="Menu" transform="translate(0.000000, 480.000000)">
                <g id="xsmall_icons" transform="translate(265.000000, 56.000000)">
                    <g id="Layer_1">
                        <g id="Group">
                            <path d="M10.9,10.2 L8.4,10.2 C10,9.3 11.1,7.6 11.1,5.6 C11.1,2.7 8.7,0.3 5.8,0.3 C2.9,0.3 0.5,2.7 0.5,5.6 C0.5,7.6 1.6,9.3 3.2,10.2 L0.7,10.2 C0.4,10.2 0.2,10.4 0.2,10.7 L0.2,13.6 C0.2,13.9 0.4,14.1 0.7,14.1 L10.9,14.1 C11.2,14.1 11.4,13.9 11.4,13.6 L11.4,10.7 C11.4,10.5 11.1,10.2 10.9,10.2 L10.9,10.2 Z M1.5,5.6 C1.5,3.2 3.4,1.3 5.8,1.3 C8.2,1.3 10.1,3.2 10.1,5.6 C10.1,8 8.2,9.9 5.8,9.9 C3.4,9.9 1.5,8 1.5,5.6 L1.5,5.6 Z M10.4,13.2 L1.2,13.2 L1.2,11.3 L10.4,11.3 L10.4,13.2 L10.4,13.2 Z" id="Shape"></path>
                            <path d="M7.2,5.4 C7.2,5.2 7.2,5.1 7.1,4.9 L8.1,4 C8.3,3.8 8.3,3.5 8.1,3.3 C7.9,3.1 7.6,3.1 7.4,3.3 L6.4,4.2 C6.2,4.1 6,4.1 5.8,4.1 C5,4.1 4.4,4.7 4.4,5.5 C4.4,6.3 5,6.9 5.8,6.9 C6.5,6.8 7.2,6.2 7.2,5.4 L7.2,5.4 Z" id="Shape"></path>
                        </g>
                    </g>
                </g>
            </g>
        </g>
    </g>
</svg>