<?xml version="1.0" encoding="UTF-8" standalone="no"?>
<svg width="85px" height="49px" viewBox="0 0 85 49" version="1.1" xmlns="http://www.w3.org/2000/svg" xmlns:xlink="http://www.w3.org/1999/xlink">
    <!-- Generator: Sketch 39.1 (31720) - http://www.bohemiancoding.com/sketch -->
    <title>1</title>
    <desc>Created with Sketch.</desc>
    <defs></defs>
    <g id="-" stroke="none" stroke-width="1" fill="none" fill-rule="evenodd">
        <g id="Holod_Open" transform="translate(-884.000000, -110.000000)" fill="#4CAF50">
            <g id="Popup" transform="translate(428.000000, 66.000000)">
                <g id="selected">
                    <g id="1" transform="translate(456.000000, 44.000000)">
                        <g id="Layer_1">
                            <path d="M46.9270833,28.9625 C39.6223958,28.9625 33.734375,23.1 33.734375,15.925 C33.734375,8.75 39.6666667,2.8875 46.9270833,2.8875 C54.1875,2.8875 60.1197917,8.75 60.1197917,15.925 C60.1197917,19.425 58.7473958,22.70625 56.2239583,25.2 C55.9583333,25.4625 55.5598958,25.4625 55.2942708,25.2 C55.0286458,24.9375 55.0286458,24.54375 55.2942708,24.28125 C57.5520833,22.05 58.7916667,19.11875 58.7916667,15.925 C58.7916667,9.45 53.4791667,4.2 46.9270833,4.2 C40.375,4.2 35.0625,9.45 35.0625,15.925 C35.0625,22.4 40.375,27.65 46.9270833,27.65 C48.875,27.65 50.6901042,27.2125 52.4166667,26.3375 C52.7265625,26.1625 53.125,26.29375 53.3020833,26.6 C53.4791667,26.90625 53.3463542,27.3 53.0364583,27.475 C51.1328125,28.48125 49.0520833,28.9625 46.9270833,28.9625 L46.9270833,28.9625 Z" id="Shape"></path>
                            <path d="M46.9270833,31.5 C38.2057292,31.5 31.1223958,24.5 31.1223958,15.88125 C31.1223958,7.2625 38.2057292,0.2625 46.9270833,0.2625 C55.6484375,0.2625 62.7317708,7.2625 62.7317708,15.88125 C62.7317708,24.5 55.6484375,31.5 46.9270833,31.5 L46.9270833,31.5 Z M46.9270833,1.61875 C38.9583333,1.61875 32.4505208,8.05 32.4505208,15.925 C32.4505208,23.8 38.9583333,30.1875 46.9270833,30.1875 C54.8958333,30.1875 61.4036458,23.75625 61.4036458,15.88125 C61.4036458,8.00625 54.8958333,1.61875 46.9270833,1.61875 L46.9270833,1.61875 Z" id="Shape"></path>
                            <ellipse id="Oval" cx="46.9270833" cy="16.1875" rx="1.10677083" ry="1.09375"></ellipse>
                            <ellipse id="Oval" cx="21.6041667" cy="39.59375" rx="1.10677083" ry="1.09375"></ellipse>
                            <path d="M46.9270833,16.84375 C46.75,16.84375 46.6171875,16.8 46.484375,16.66875 C46.21875,16.45 46.1744792,16.0125 46.4401042,15.75 L48.5651042,13.34375 C48.7864583,13.08125 49.2291667,13.0375 49.4947917,13.3 C49.7604167,13.51875 49.8046875,13.95625 49.5390625,14.21875 L47.4140625,16.625 C47.28125,16.75625 47.1041667,16.84375 46.9270833,16.84375 L46.9270833,16.84375 Z" id="Shape"></path>
                            <path d="M40.109375,16.84375 L37.6302083,16.84375 C37.2760417,16.84375 36.9661458,16.5375 36.9661458,16.1875 C36.9661458,15.8375 37.2760417,15.53125 37.6302083,15.53125 L40.1536458,15.53125 C40.5078125,15.53125 40.8177083,15.8375 40.8177083,16.1875 C40.8177083,16.5375 40.5078125,16.84375 40.109375,16.84375 L40.109375,16.84375 Z" id="Shape"></path>
                            <path d="M38.8697917,21.4375 C38.6484375,21.4375 38.4270833,21.30625 38.2942708,21.0875 C38.1171875,20.78125 38.2057292,20.3875 38.515625,20.2125 L40.6848958,18.9875 C40.9947917,18.8125 41.3932292,18.9 41.5703125,19.20625 C41.7473958,19.5125 41.6588542,19.90625 41.3489583,20.08125 L39.1796875,21.30625 C39.0911458,21.39375 38.9583333,21.4375 38.8697917,21.4375 L38.8697917,21.4375 Z" id="Shape"></path>
                            <path d="M42.2786458,24.80625 C42.1458333,24.80625 42.0572917,24.7625 41.96875,24.71875 C41.6588542,24.54375 41.5260417,24.15 41.7473958,23.84375 L42.9869792,21.7 C43.1640625,21.39375 43.5625,21.2625 43.8723958,21.48125 C44.1822917,21.65625 44.3151042,22.05 44.09375,22.35625 L42.8541667,24.5 C42.7213542,24.675 42.5,24.80625 42.2786458,24.80625 L42.2786458,24.80625 Z" id="Shape"></path>
                            <path d="M46.9270833,26.03125 C46.5729167,26.03125 46.2630208,25.725 46.2630208,25.375 L46.2630208,22.88125 C46.2630208,22.53125 46.5729167,22.225 46.9270833,22.225 C47.28125,22.225 47.5911458,22.53125 47.5911458,22.88125 L47.5911458,25.375 C47.5911458,25.725 47.28125,26.03125 46.9270833,26.03125 L46.9270833,26.03125 Z" id="Shape"></path>
                            <path d="M51.5755208,24.80625 C51.3541667,24.80625 51.1328125,24.675 51,24.45625 L49.7604167,22.3125 C49.5833333,22.00625 49.671875,21.6125 49.9817708,21.4375 C50.2916667,21.2625 50.6901042,21.35 50.8671875,21.65625 L52.1067708,23.8 C52.2838542,24.10625 52.1953125,24.5 51.8854167,24.675 C51.8411458,24.7625 51.7083333,24.80625 51.5755208,24.80625 L51.5755208,24.80625 Z" id="Shape"></path>
                            <path d="M54.984375,21.4375 C54.8515625,21.4375 54.7630208,21.39375 54.6744792,21.35 L52.5052083,20.125 C52.1953125,19.95 52.0625,19.55625 52.2838542,19.25 C52.5052083,18.94375 52.859375,18.8125 53.1692708,19.03125 L55.3385417,20.25625 C55.6484375,20.43125 55.78125,20.825 55.5598958,21.13125 C55.4713542,21.30625 55.25,21.4375 54.984375,21.4375 L54.984375,21.4375 Z" id="Shape"></path>
                            <path d="M56.2682292,16.84375 L53.7447917,16.84375 C53.390625,16.84375 53.0807292,16.5375 53.0807292,16.1875 C53.0807292,15.8375 53.390625,15.53125 53.7447917,15.53125 L56.2682292,15.53125 C56.6223958,15.53125 56.9322917,15.8375 56.9322917,16.1875 C56.9322917,16.5375 56.6223958,16.84375 56.2682292,16.84375 L56.2682292,16.84375 Z" id="Shape"></path>
                            <path d="M52.8151042,13.475 C52.59375,13.475 52.3723958,13.34375 52.2395833,13.125 C52.0625,12.81875 52.1510417,12.425 52.4609375,12.25 L54.6302083,11.025 C54.9401042,10.85 55.3385417,10.9375 55.515625,11.24375 C55.6927083,11.55 55.6041667,11.94375 55.2942708,12.11875 L53.125,13.34375 C53.0364583,13.43125 52.9479167,13.475 52.8151042,13.475 L52.8151042,13.475 Z" id="Shape"></path>
                            <path d="M50.3359375,10.98125 C50.203125,10.98125 50.1145833,10.9375 50.0260417,10.89375 C49.7161458,10.71875 49.5833333,10.325 49.8046875,10.01875 L51.0442708,7.875 C51.2213542,7.56875 51.6197917,7.4375 51.9296875,7.65625 C52.2395833,7.83125 52.3723958,8.225 52.1510417,8.53125 L50.9114583,10.675 C50.7786458,10.89375 50.5572917,10.98125 50.3359375,10.98125 L50.3359375,10.98125 Z" id="Shape"></path>
                            <path d="M46.9270833,10.10625 C46.5729167,10.10625 46.2630208,9.8 46.2630208,9.45 L46.2630208,6.95625 C46.2630208,6.60625 46.5729167,6.3 46.9270833,6.3 C47.28125,6.3 47.5911458,6.60625 47.5911458,6.95625 L47.5911458,9.45 C47.5911458,9.8 47.28125,10.10625 46.9270833,10.10625 L46.9270833,10.10625 Z" id="Shape"></path>
                            <path d="M43.5182292,10.98125 C43.296875,10.98125 43.0755208,10.85 42.9427083,10.63125 L41.703125,8.4875 C41.5260417,8.18125 41.6145833,7.7875 41.9244792,7.6125 C42.234375,7.4375 42.6328125,7.525 42.8098958,7.83125 L44.0494792,9.975 C44.2265625,10.28125 44.1380208,10.675 43.828125,10.85 C43.7395833,10.98125 43.6510417,10.98125 43.5182292,10.98125 L43.5182292,10.98125 Z" id="Shape"></path>
                            <path d="M41.0390625,13.475 C40.90625,13.475 40.8177083,13.43125 40.7291667,13.3875 L38.5598958,12.1625 C38.25,11.9875 38.1171875,11.59375 38.3385417,11.2875 C38.5598958,10.98125 38.9140625,10.85 39.2239583,11.06875 L41.3932292,12.29375 C41.703125,12.46875 41.8359375,12.8625 41.6145833,13.16875 C41.4817708,13.34375 41.2604167,13.475 41.0390625,13.475 L41.0390625,13.475 Z" id="Shape"></path>
                            <path d="M50.3802083,36.6625 L43.4739583,36.6625 C43.1197917,36.6625 42.8098958,36.35625 42.8098958,36.00625 L42.8098958,30.8875 C42.8098958,30.5375 43.1197917,30.23125 43.4739583,30.23125 L50.3802083,30.23125 C50.734375,30.23125 51.0442708,30.5375 51.0442708,30.8875 L51.0442708,36.00625 C51.0442708,36.35625 50.734375,36.6625 50.3802083,36.6625 L50.3802083,36.6625 Z M44.1380208,35.35 L49.7161458,35.35 L49.7161458,31.5 L44.1380208,31.5 L44.1380208,35.35 L44.1380208,35.35 Z" id="Shape"></path>
                            <path d="M58.6588542,46.85625 L35.7265625,46.85625 C35.3723958,46.85625 35.0625,46.55 35.0625,46.2 L35.0625,40.03125 C35.0625,39.68125 35.3723958,39.375 35.7265625,39.375 L58.6588542,39.375 C59.0130208,39.375 59.3229167,39.68125 59.3229167,40.03125 L59.3229167,46.2 C59.3229167,46.55 59.0572917,46.85625 58.6588542,46.85625 L58.6588542,46.85625 Z M36.390625,45.54375 L57.9947917,45.54375 L57.9947917,40.6875 L36.390625,40.6875 L36.390625,45.54375 L36.390625,45.54375 Z" id="Shape"></path>
                            <path d="M53.8333333,40.6875 L40.0651042,40.6875 C39.7109375,40.6875 39.4010417,40.38125 39.4010417,40.03125 L39.4010417,37.40625 C39.4010417,37.05625 39.7109375,36.75 40.0651042,36.75 L40.90625,36.75 L40.90625,36.00625 C40.90625,35.65625 41.2161458,35.35 41.5703125,35.35 L52.3723958,35.35 C52.7265625,35.35 53.0364583,35.65625 53.0364583,36.00625 L53.0364583,36.75 L53.8776042,36.75 C54.2317708,36.75 54.5416667,37.05625 54.5416667,37.40625 L54.5416667,40.03125 C54.4973958,40.38125 54.1875,40.6875 53.8333333,40.6875 L53.8333333,40.6875 Z M40.7291667,39.375 L53.1692708,39.375 L53.1692708,38.0625 L52.328125,38.0625 C51.9739583,38.0625 51.6640625,37.75625 51.6640625,37.40625 L51.6640625,36.6625 L42.1901042,36.6625 L42.1901042,37.40625 C42.1901042,37.75625 41.8802083,38.0625 41.5260417,38.0625 L40.7291667,38.0625 L40.7291667,39.375 L40.7291667,39.375 Z" id="Shape"></path>
                            <path d="M34.8411458,48.86875 L33.203125,48.86875 C32.3619792,48.86875 31.6536458,48.16875 31.6536458,47.3375 L31.6536458,38.85 C31.6536458,38.01875 32.3619792,37.31875 33.203125,37.31875 L34.8411458,37.31875 C35.6822917,37.31875 36.390625,38.01875 36.390625,38.85 L36.390625,47.3375 C36.390625,48.16875 35.7265625,48.86875 34.8411458,48.86875 L34.8411458,48.86875 Z M33.203125,38.63125 C33.0703125,38.63125 32.9817708,38.71875 32.9817708,38.85 L32.9817708,47.3375 C32.9817708,47.46875 33.0703125,47.55625 33.203125,47.55625 L34.8411458,47.55625 C34.9739583,47.55625 35.0625,47.46875 35.0625,47.3375 L35.0625,38.85 C35.0625,38.71875 34.9739583,38.63125 34.8411458,38.63125 L33.203125,38.63125 L33.203125,38.63125 Z" id="Shape"></path>
                            <path d="M60.3854167,48.86875 C59.0572917,48.86875 57.9947917,47.81875 57.9947917,46.50625 L57.9947917,39.6375 C57.9947917,38.325 59.0572917,37.275 60.3854167,37.275 C61.7135417,37.275 62.7760417,38.325 62.7760417,39.6375 L62.7760417,46.50625 C62.7317708,47.81875 61.6692708,48.86875 60.3854167,48.86875 L60.3854167,48.86875 Z M60.3854167,38.63125 C59.8098958,38.63125 59.3229167,39.1125 59.3229167,39.68125 L59.3229167,46.55 C59.3229167,47.11875 59.8098958,47.6 60.3854167,47.6 C60.9609375,47.6 61.4479167,47.11875 61.4479167,46.55 L61.4479167,39.68125 C61.4036458,39.1125 60.9609375,38.63125 60.3854167,38.63125 L60.3854167,38.63125 Z" id="Shape"></path>
                            <path d="M63.7942708,48.86875 C62.4661458,48.86875 61.4036458,47.81875 61.4036458,46.50625 L61.4036458,39.6375 C61.4036458,38.325 62.4661458,37.275 63.7942708,37.275 C65.1223958,37.275 66.1848958,38.325 66.1848958,39.6375 L66.1848958,46.50625 C66.1848958,47.81875 65.1223958,48.86875 63.7942708,48.86875 L63.7942708,48.86875 Z M63.7942708,38.63125 C63.21875,38.63125 62.7317708,39.1125 62.7317708,39.68125 L62.7317708,46.55 C62.7317708,47.11875 63.21875,47.6 63.7942708,47.6 C64.3697917,47.6 64.8567708,47.11875 64.8567708,46.55 L64.8567708,39.68125 C64.8567708,39.1125 64.3697917,38.63125 63.7942708,38.63125 L63.7942708,38.63125 Z" id="Shape"></path>
                            <path d="M47.1927083,46.85625 C46.8385417,46.85625 46.5286458,46.55 46.5286458,46.2 L46.5286458,40.03125 C46.5286458,39.68125 46.8385417,39.375 47.1927083,39.375 C47.546875,39.375 47.8567708,39.68125 47.8567708,40.03125 L47.8567708,46.2 C47.8567708,46.55 47.5911458,46.85625 47.1927083,46.85625 L47.1927083,46.85625 Z" id="Shape"></path>
                            <path d="M26.3411458,46.59375 L10.8020833,46.59375 C9.20833333,46.59375 7.92447917,45.325 7.92447917,43.75 L7.92447917,34.9125 C7.92447917,33.3375 9.20833333,32.06875 10.8020833,32.06875 L26.3411458,32.06875 C27.9348958,32.06875 29.21875,33.3375 29.21875,34.9125 L29.21875,43.75 C29.21875,45.325 27.890625,46.59375 26.3411458,46.59375 L26.3411458,46.59375 Z M10.8020833,33.38125 C9.9609375,33.38125 9.25260417,34.08125 9.25260417,34.9125 L9.25260417,43.75 C9.25260417,44.58125 9.9609375,45.28125 10.8020833,45.28125 L26.3411458,45.28125 C27.1822917,45.28125 27.890625,44.58125 27.890625,43.75 L27.890625,34.9125 C27.890625,34.08125 27.1822917,33.38125 26.3411458,33.38125 L10.8020833,33.38125 L10.8020833,33.38125 Z" id="Shape"></path>
                            <path d="M82.8307292,48.86875 L70.65625,48.86875 C69.5494792,48.86875 68.6640625,47.99375 68.6640625,46.9 L68.6640625,22.3125 C68.6640625,21.21875 69.5494792,20.34375 70.65625,20.34375 L82.8307292,20.34375 C83.9375,20.34375 84.8229167,21.21875 84.8229167,22.3125 L84.8229167,46.9 C84.8229167,47.99375 83.9375,48.86875 82.8307292,48.86875 L82.8307292,48.86875 Z M70.65625,21.65625 C70.3020833,21.65625 69.9921875,21.9625 69.9921875,22.3125 L69.9921875,46.9 C69.9921875,47.25 70.3020833,47.55625 70.65625,47.55625 L82.8307292,47.55625 C83.1848958,47.55625 83.4947917,47.25 83.4947917,46.9 L83.4947917,22.3125 C83.4947917,21.9625 83.1848958,21.65625 82.8307292,21.65625 L70.65625,21.65625 L70.65625,21.65625 Z" id="Shape"></path>
                            <path d="M12.7942708,48.86875 C12.4401042,48.86875 12.1302083,48.5625 12.1302083,48.2125 L12.1302083,46.2 C12.1302083,45.85 12.4401042,45.54375 12.7942708,45.54375 C13.1484375,45.54375 13.4583333,45.85 13.4583333,46.2 L13.4583333,48.2125 C13.4583333,48.5625 13.1484375,48.86875 12.7942708,48.86875 L12.7942708,48.86875 Z" id="Shape"></path>
                            <path d="M24.3046875,48.86875 C23.9505208,48.86875 23.640625,48.5625 23.640625,48.2125 L23.640625,46.2 C23.640625,45.85 23.9505208,45.54375 24.3046875,45.54375 C24.6588542,45.54375 24.96875,45.85 24.96875,46.2 L24.96875,48.2125 C24.96875,48.5625 24.6588542,48.86875 24.3046875,48.86875 L24.3046875,48.86875 Z" id="Shape"></path>
                            <path d="M16.2916667,27.08125 L5.79947917,27.08125 C5.4453125,27.08125 5.13541667,26.775 5.13541667,26.425 C5.13541667,26.075 5.4453125,25.76875 5.79947917,25.76875 L16.2916667,25.76875 C16.6458333,25.76875 16.9557292,26.075 16.9557292,26.425 C16.9557292,26.775 16.6901042,27.08125 16.2916667,27.08125 L16.2916667,27.08125 Z" id="Shape"></path>
                            <path d="M26.3411458,29.75 L16.8229167,29.75 C16.46875,29.75 16.1588542,29.44375 16.1588542,29.09375 L16.1588542,23.625 C16.1588542,23.275 16.46875,22.96875 16.8229167,22.96875 L26.3411458,22.96875 C26.6953125,22.96875 27.0052083,23.275 27.0052083,23.625 L27.0052083,29.09375 C27.0052083,29.4875 26.6953125,29.75 26.3411458,29.75 L26.3411458,29.75 Z M17.4869792,28.4375 L25.6770833,28.4375 L25.6770833,24.28125 L17.4869792,24.28125 L17.4869792,28.4375 L17.4869792,28.4375 Z" id="Shape"></path>
                            <path d="M18.9479167,33.38125 C18.59375,33.38125 18.2838542,33.075 18.2838542,32.725 L18.2838542,29.575 C18.2838542,29.225 18.59375,28.91875 18.9479167,28.91875 C19.3020833,28.91875 19.6119792,29.225 19.6119792,29.575 L19.6119792,32.725 C19.6119792,33.075 19.3020833,33.38125 18.9479167,33.38125 L18.9479167,33.38125 Z" id="Shape"></path>
                            <path d="M24.2604167,33.38125 C23.90625,33.38125 23.5963542,33.075 23.5963542,32.725 L23.5963542,29.575 C23.5963542,29.225 23.90625,28.91875 24.2604167,28.91875 C24.6145833,28.91875 24.9244792,29.225 24.9244792,29.575 L24.9244792,32.725 C24.9244792,33.075 24.6145833,33.38125 24.2604167,33.38125 L24.2604167,33.38125 Z" id="Shape"></path>
                            <path d="M5.79947917,36.925 C2.70052083,36.925 0.1328125,34.43125 0.1328125,31.325 C0.1328125,28.2625 2.65625,25.725 5.79947917,25.725 C6.15364583,25.725 6.46354167,26.03125 6.46354167,26.38125 C6.46354167,26.73125 6.15364583,27.0375 5.79947917,27.0375 C3.40885417,27.0375 1.4609375,28.9625 1.4609375,31.325 C1.4609375,33.6875 3.40885417,35.6125 5.79947917,35.6125 C6.15364583,35.6125 6.46354167,35.91875 6.46354167,36.26875 C6.46354167,36.61875 6.19791667,36.925 5.79947917,36.925 L5.79947917,36.925 Z" id="Shape"></path>
                            <path d="M8.58854167,36.925 L5.79947917,36.925 C5.4453125,36.925 5.13541667,36.61875 5.13541667,36.26875 C5.13541667,35.91875 5.4453125,35.6125 5.79947917,35.6125 L8.58854167,35.6125 C8.94270833,35.6125 9.25260417,35.91875 9.25260417,36.26875 C9.25260417,36.61875 8.94270833,36.925 8.58854167,36.925 L8.58854167,36.925 Z" id="Shape"></path>
                            <path d="M21.6041667,44.1875 C19.0364583,44.1875 16.9557292,42.13125 16.9557292,39.59375 C16.9557292,37.05625 19.0364583,35 21.6041667,35 C24.171875,35 26.2526042,37.05625 26.2526042,39.59375 C26.2526042,42.13125 24.1276042,44.1875 21.6041667,44.1875 L21.6041667,44.1875 Z M21.6041667,36.35625 C19.7890625,36.35625 18.2838542,37.8 18.2838542,39.6375 C18.2838542,41.43125 19.7447917,42.91875 21.6041667,42.91875 C23.4192708,42.91875 24.9244792,41.475 24.9244792,39.6375 C24.8802083,37.8 23.4192708,36.35625 21.6041667,36.35625 L21.6041667,36.35625 Z" id="Shape"></path>
                            <path d="M17.6197917,40.25 L12.7942708,40.25 C12.4401042,40.25 12.1302083,39.94375 12.1302083,39.59375 C12.1302083,39.24375 12.4401042,38.9375 12.7942708,38.9375 L17.6197917,38.9375 C17.9739583,38.9375 18.2838542,39.24375 18.2838542,39.59375 C18.2838542,39.94375 17.9739583,40.25 17.6197917,40.25 L17.6197917,40.25 Z" id="Shape"></path>
                            <path d="M81.1927083,29.00625 L72.3385417,29.00625 C71.4973958,29.00625 70.7890625,28.30625 70.7890625,27.475 L70.7890625,26.25 C70.7890625,25.41875 71.4973958,24.71875 72.3385417,24.71875 L81.1927083,24.71875 C82.0338542,24.71875 82.7421875,25.41875 82.7421875,26.25 L82.7421875,27.475 C82.7421875,28.35 82.0338542,29.00625 81.1927083,29.00625 L81.1927083,29.00625 Z M72.3385417,26.03125 C72.2057292,26.03125 72.1171875,26.11875 72.1171875,26.25 L72.1171875,27.475 C72.1171875,27.60625 72.2057292,27.69375 72.3385417,27.69375 L81.1927083,27.69375 C81.3255208,27.69375 81.4140625,27.60625 81.4140625,27.475 L81.4140625,26.25 C81.4140625,26.11875 81.3255208,26.03125 81.1927083,26.03125 L72.3385417,26.03125 L72.3385417,26.03125 Z" id="Shape"></path>
                            <path d="M74.9947917,28.91875 C74.640625,28.91875 74.3307292,28.6125 74.3307292,28.2625 L74.3307292,25.50625 C74.3307292,25.15625 74.640625,24.85 74.9947917,24.85 C75.3489583,24.85 75.6588542,25.15625 75.6588542,25.50625 L75.6588542,28.2625 C75.6588542,28.6125 75.3489583,28.91875 74.9947917,28.91875 L74.9947917,28.91875 Z" id="Shape"></path>
                            <path d="M78.5364583,28.91875 C78.1822917,28.91875 77.8723958,28.6125 77.8723958,28.2625 L77.8723958,25.50625 C77.8723958,25.15625 78.1822917,24.85 78.5364583,24.85 C78.890625,24.85 79.2005208,25.15625 79.2005208,25.50625 L79.2005208,28.2625 C79.2005208,28.6125 78.890625,28.91875 78.5364583,28.91875 L78.5364583,28.91875 Z" id="Shape"></path>
                            <path d="M81.4583333,37.975 L81.4583333,37.975 L80.8828125,37.975 L81.1927083,37.625 C81.3697917,37.45 81.3697917,37.1875 81.1927083,37.0125 C81.015625,36.8375 80.75,36.8375 80.5729167,37.0125 L79.6432292,37.975 L78.9791667,37.975 L78.2265625,36.6625 L78.5364583,36.09375 L79.8645833,35.74375 C80.0859375,35.7 80.21875,35.4375 80.1744792,35.21875 C80.1302083,35 79.8645833,34.86875 79.6432292,34.9125 L79.2005208,35.04375 L79.5104167,34.5625 C79.6432292,34.34375 79.5546875,34.08125 79.3333333,33.95 C79.1119792,33.81875 78.8463542,33.90625 78.7135417,34.125 L78.4036458,34.60625 L78.2708333,34.16875 C78.2265625,33.95 77.9609375,33.81875 77.7395833,33.8625 C77.5182292,33.90625 77.3854167,34.16875 77.4296875,34.3875 L77.7838542,35.65625 L77.4739583,36.225 L75.9244792,36.225 L75.6145833,35.65625 L75.96875,34.3875 C76.0130208,34.16875 75.8802083,33.90625 75.6588542,33.8625 C75.4375,33.81875 75.171875,33.95 75.1276042,34.16875 L74.9947917,34.60625 L74.6848958,34.125 C74.5520833,33.90625 74.2864583,33.8625 74.0651042,33.95 C73.84375,34.08125 73.7994792,34.34375 73.8880208,34.5625 L74.1979167,35.04375 L73.7552083,34.9125 C73.5338542,34.86875 73.2682292,35 73.2239583,35.21875 C73.1796875,35.4375 73.3125,35.7 73.5338542,35.74375 L74.8619792,36.09375 L75.171875,36.6625 L74.4192708,37.975 L73.9765625,37.975 L73.046875,37.0125 C72.8697917,36.8375 72.6041667,36.8375 72.4270833,37.0125 C72.25,37.1875 72.25,37.45 72.4270833,37.625 L72.7369792,37.975 L72.1614583,37.975 L72.1614583,37.975 C71.8958333,37.975 71.71875,38.15 71.71875,38.4125 C71.71875,38.675 71.8958333,38.85 72.1614583,38.85 L72.7369792,38.85 L72.3828125,39.2 C72.2057292,39.375 72.2057292,39.6375 72.3828125,39.8125 C72.4713542,39.9 72.6041667,39.94375 72.6927083,39.94375 C72.8255208,39.94375 72.9140625,39.9 73.0026042,39.8125 L73.9765625,38.85 L74.4192708,38.85 L75.171875,40.1625 L74.8619792,40.73125 L73.5338542,41.08125 C73.3125,41.125 73.1796875,41.3875 73.2239583,41.60625 C73.2682292,41.825 73.5338542,41.95625 73.7552083,41.9125 L74.1979167,41.78125 L73.8880208,42.2625 C73.7552083,42.48125 73.84375,42.74375 74.0651042,42.875 C74.1536458,42.91875 74.1979167,42.91875 74.2864583,42.91875 C74.4192708,42.91875 74.5963542,42.83125 74.6848958,42.7 L74.9947917,42.21875 L75.1276042,42.65625 C75.171875,42.83125 75.3489583,42.9625 75.5703125,42.9625 L75.703125,42.9625 C75.9244792,42.91875 76.0572917,42.65625 76.0130208,42.4375 L75.6588542,41.16875 L75.96875,40.6 L77.5182292,40.6 L77.828125,41.16875 L77.4739583,42.4375 C77.4296875,42.65625 77.5625,42.91875 77.7838542,42.9625 L77.9166667,42.9625 C78.09375,42.9625 78.2708333,42.83125 78.359375,42.65625 L78.4921875,42.21875 L78.8020833,42.7 C78.890625,42.83125 79.0234375,42.91875 79.2005208,42.91875 C79.2890625,42.91875 79.3333333,42.91875 79.421875,42.875 C79.6432292,42.74375 79.6875,42.48125 79.5989583,42.2625 L79.2890625,41.78125 L79.7317708,41.9125 C79.953125,41.95625 80.21875,41.825 80.2630208,41.60625 C80.3072917,41.3875 80.1744792,41.125 79.953125,41.08125 L78.625,40.73125 L78.3151042,40.1625 L79.0677083,38.85 L79.7317708,38.85 L80.7057292,39.8125 C80.7942708,39.9 80.8828125,39.94375 81.015625,39.94375 C81.1484375,39.94375 81.2369792,39.9 81.3255208,39.8125 C81.5026042,39.6375 81.5026042,39.375 81.3255208,39.2 L80.9713542,38.89375 L81.546875,38.89375 C81.8125,38.89375 81.9895833,38.71875 81.9895833,38.45625 C81.9010417,38.15 81.6796875,37.975 81.4583333,37.975 L81.4583333,37.975 Z M77.4296875,39.725 L75.8802083,39.725 L75.1276042,38.4125 L75.8802083,37.1 L77.3854167,37.1 C77.3854167,37.1 77.3854167,37.1 77.4296875,37.14375 L77.4739583,37.14375 L78.2265625,38.4125 L77.4296875,39.725 L77.4296875,39.725 Z" id="Shape"></path>
                        </g>
                    </g>
                </g>
            </g>
        </g>
    </g>
</svg>