<?xml version="1.0" encoding="UTF-8" standalone="no"?>
<svg width="57px" height="62px" viewBox="0 0 57 62" version="1.1" xmlns="http://www.w3.org/2000/svg" xmlns:xlink="http://www.w3.org/1999/xlink">
    <!-- Generator: Sketch 39.1 (31720) - http://www.bohemiancoding.com/sketch -->
    <title>icon</title>
    <desc>Created with Sketch.</desc>
    <defs></defs>
    <g id="-" stroke="none" stroke-width="1" fill="none" fill-rule="evenodd">
        <g id="Holod_Open" transform="translate(-501.000000, -106.000000)" fill="#1D87E4">
            <g id="Popup" transform="translate(428.000000, 66.000000)">
                <g id="icon" transform="translate(73.000000, 40.000000)">
                    <path d="M28.3237113,40.6051546 C28.1474227,40.6051546 28.0298969,40.5463918 27.8536082,40.4876289 L19.9793814,35.9041237 C19.685567,35.7278351 19.5092784,35.4340206 19.5092784,35.1402062 L19.5092784,26.0319588 C19.5092784,25.7381443 19.685567,25.4443299 19.9793814,25.2680412 L27.9123711,20.6845361 C28.2061856,20.5082474 28.5,20.5082474 28.7938144,20.6845361 L36.7268041,25.2680412 C37.0206186,25.4443299 37.1969072,25.7381443 37.1969072,26.0319588 L37.1969072,27.971134 C37.1969072,28.4412371 36.785567,28.8525773 36.3154639,28.8525773 C35.8453608,28.8525773 35.4340206,28.4412371 35.4340206,27.971134 L35.4340206,26.5608247 L28.3824742,22.5061856 L21.3309278,26.5608247 L21.3309278,34.6701031 L28.3824742,38.7247423 L35.4340206,34.6701031 L35.4340206,33.0835052 C35.4340206,32.6134021 35.8453608,32.2020619 36.3154639,32.2020619 C36.785567,32.2020619 37.1969072,32.6134021 37.1969072,33.0835052 L37.1969072,35.1989691 C37.1969072,35.4927835 37.0206186,35.7865979 36.7268041,35.9628866 L28.7938144,40.5463918 C28.6175258,40.5463918 28.5,40.6051546 28.3237113,40.6051546 L28.3237113,40.6051546 Z" id="Shape"></path>
                    <path d="M28.3237113,22.3298969 C27.8536082,22.3298969 27.442268,21.9185567 27.442268,21.4484536 L27.442268,7.11030928 C27.442268,6.64020619 27.8536082,6.22886598 28.3237113,6.22886598 C28.7938144,6.22886598 29.2051546,6.64020619 29.2051546,7.11030928 L29.2051546,21.4484536 C29.2051546,21.9185567 28.7938144,22.3298969 28.3237113,22.3298969 L28.3237113,22.3298969 Z" id="Shape"></path>
                    <path d="M28.3237113,16.3360825 C28.0886598,16.3360825 27.8536082,16.2773196 27.6773196,16.1010309 L19.9793814,8.3443299 C19.6268041,7.99175258 19.6268041,7.4628866 19.9793814,7.11030928 C20.3319588,6.75773196 20.8608247,6.75773196 21.2134021,7.11030928 L28.3237113,14.2206186 L35.4340206,7.11030928 C35.7865979,6.75773196 36.3154639,6.75773196 36.6680412,7.11030928 C37.0206186,7.4628866 37.0206186,7.99175258 36.6680412,8.3443299 L28.9701031,16.042268 C28.7938144,16.2773196 28.5587629,16.3360825 28.3237113,16.3360825 L28.3237113,16.3360825 Z" id="Shape"></path>
                    <path d="M28.3237113,7.99175258 C26.0907216,7.99175258 24.3278351,6.17010309 24.3278351,3.99587629 C24.3278351,1.82164948 26.1494845,0 28.3237113,0 C30.4979381,0 32.3195876,1.82164948 32.3195876,3.99587629 C32.3195876,6.17010309 30.556701,7.99175258 28.3237113,7.99175258 L28.3237113,7.99175258 Z M28.3237113,1.7628866 C27.0896907,1.7628866 26.0907216,2.76185567 26.0907216,3.99587629 C26.0907216,5.22989691 27.0896907,6.22886598 28.3237113,6.22886598 C29.557732,6.22886598 30.556701,5.22989691 30.556701,3.99587629 C30.556701,2.76185567 29.557732,1.7628866 28.3237113,1.7628866 L28.3237113,1.7628866 Z" id="Shape"></path>
                    <path d="M28.3237113,54.8845361 C27.8536082,54.8845361 27.442268,54.4731959 27.442268,54.0030928 L27.442268,39.6649485 C27.442268,39.1948454 27.8536082,38.7835052 28.3237113,38.7835052 C28.7938144,38.7835052 29.2051546,39.1948454 29.2051546,39.6649485 L29.2051546,54.0030928 C29.2051546,54.5319588 28.7938144,54.8845361 28.3237113,54.8845361 L28.3237113,54.8845361 Z" id="Shape"></path>
                    <path d="M36.0216495,54.2969072 C35.7865979,54.2969072 35.5515464,54.2381443 35.3752577,54.0618557 L28.2649485,46.9515464 L21.1546392,54.0618557 C20.8020619,54.414433 20.2731959,54.414433 19.9206186,54.0618557 C19.5680412,53.7092784 19.5680412,53.1804124 19.9206186,52.8278351 L27.6185567,45.1298969 C27.971134,44.7773196 28.5,44.7773196 28.8525773,45.1298969 L36.5505155,52.8278351 C36.9030928,53.1804124 36.9030928,53.7092784 36.5505155,54.0618557 C36.4917526,54.1793814 36.256701,54.2969072 36.0216495,54.2969072 L36.0216495,54.2969072 Z" id="Shape"></path>
                    <path d="M28.3237113,61.1134021 C26.0907216,61.1134021 24.3278351,59.2917526 24.3278351,57.1175258 C24.3278351,54.943299 26.1494845,53.1216495 28.3237113,53.1216495 C30.4979381,53.1216495 32.3195876,54.943299 32.3195876,57.1175258 C32.3195876,59.2917526 30.556701,61.1134021 28.3237113,61.1134021 L28.3237113,61.1134021 Z M28.3237113,54.8845361 C27.0896907,54.8845361 26.0907216,55.8835052 26.0907216,57.1175258 C26.0907216,58.3515464 27.0896907,59.3505155 28.3237113,59.3505155 C29.557732,59.3505155 30.556701,58.3515464 30.556701,57.1175258 C30.556701,55.8835052 29.557732,54.8845361 28.3237113,54.8845361 L28.3237113,54.8845361 Z" id="Shape"></path>
                    <path d="M20.3907216,26.8546392 C20.2731959,26.8546392 20.1556701,26.8546392 20.0381443,26.7958763 L7.05154639,20.743299 C6.5814433,20.5082474 6.40515464,20.0381443 6.64020619,19.5680412 C6.87525773,19.0979381 7.34536082,18.9216495 7.81546392,19.156701 L20.8020619,25.2092784 C21.2721649,25.4443299 21.4484536,25.914433 21.2134021,26.3845361 C21.0371134,26.6783505 20.743299,26.8546392 20.3907216,26.8546392 L20.3907216,26.8546392 Z" id="Shape"></path>
                    <path d="M4.75979381,28.0886598 C4.40721649,28.0886598 4.05463918,27.8536082 3.9371134,27.5010309 C3.76082474,27.0309278 3.99587629,26.5608247 4.46597938,26.3845361 L13.8680412,22.9762887 L10.4597938,13.5742268 C10.2835052,13.1041237 10.5185567,12.6340206 10.9886598,12.457732 C11.4587629,12.2814433 11.928866,12.5164948 12.1051546,12.9865979 L15.8659794,23.2701031 C15.9247423,23.5051546 15.9247423,23.7402062 15.8072165,23.9164948 C15.6896907,24.1515464 15.5134021,24.2690722 15.3371134,24.3865979 L5.05360825,28.1474227 C4.93608247,28.0886598 4.8185567,28.0886598 4.75979381,28.0886598 L4.75979381,28.0886598 Z" id="Shape"></path>
                    <path d="M4.64226804,22.6237113 C4.05463918,22.6237113 3.46701031,22.5061856 2.93814433,22.271134 C1.99793814,21.8010309 1.23402062,21.0371134 0.881443299,20.0381443 C0.528865979,19.0391753 0.587628866,17.9226804 0.998969072,16.9824742 C1.64536082,15.5721649 3.0556701,14.6907216 4.64226804,14.6907216 C5.22989691,14.6907216 5.81752577,14.8082474 6.34639175,15.043299 C8.3443299,15.9835052 9.2257732,18.3340206 8.28556701,20.3907216 C7.58041237,21.742268 6.17010309,22.6237113 4.64226804,22.6237113 L4.64226804,22.6237113 Z M4.64226804,16.3948454 C3.76082474,16.3948454 2.99690722,16.9237113 2.58556701,17.6876289 C2.35051546,18.2164948 2.29175258,18.8628866 2.52680412,19.3917526 C2.70309278,19.9793814 3.11443299,20.3907216 3.70206186,20.6845361 C3.99587629,20.8020619 4.34845361,20.9195876 4.64226804,20.9195876 C5.52371134,20.9195876 6.28762887,20.3907216 6.69896907,19.6268041 C7.22783505,18.5103093 6.75773196,17.1587629 5.64123711,16.6298969 C5.28865979,16.4536082 4.93608247,16.3948454 4.64226804,16.3948454 L4.64226804,16.3948454 Z" id="Shape"></path>
                    <path d="M6.99278351,40.8989691 C6.64020619,40.8989691 6.28762887,40.6639175 6.17010309,40.3113402 C5.99381443,39.8412371 6.22886598,39.371134 6.69896907,39.1948454 L20.1556701,34.3175258 C20.6257732,34.1412371 21.0958763,34.3762887 21.2721649,34.8463918 C21.4484536,35.3164948 21.2134021,35.7865979 20.743299,35.9628866 L7.28659794,40.8402062 C7.16907216,40.8989691 7.05154639,40.8989691 6.99278351,40.8989691 L6.99278351,40.8989691 Z" id="Shape"></path>
                    <path d="M10.1659794,47.9505155 C10.0484536,47.9505155 9.93092784,47.9505155 9.81340206,47.8917526 C9.34329897,47.7154639 9.16701031,47.1865979 9.40206186,46.7164948 L13.6329897,37.6082474 L4.52474227,33.3773196 C4.05463918,33.2010309 3.87835052,32.6721649 4.11340206,32.2020619 C4.34845361,31.7319588 4.8185567,31.5556701 5.28865979,31.7907216 L15.1608247,36.3742268 C15.3958763,36.4917526 15.5134021,36.6680412 15.6309278,36.8443299 C15.6896907,37.0793814 15.6896907,37.314433 15.5721649,37.4907216 L10.9886598,47.3628866 C10.8123711,47.7742268 10.5185567,47.9505155 10.1659794,47.9505155 L10.1659794,47.9505155 Z" id="Shape"></path>
                    <path d="M4.05463918,45.1298969 C2.35051546,45.1298969 0.881443299,44.0721649 0.293814433,42.485567 C-0.0587628866,41.4865979 2.94500535e-13,40.3701031 0.411340206,39.4298969 C0.822680412,38.4896907 1.64536082,37.7257732 2.6443299,37.3731959 C3.11443299,37.1969072 3.5257732,37.1381443 3.99587629,37.1381443 C5.7,37.1381443 7.16907216,38.1958763 7.75670103,39.7824742 C8.10927835,40.7814433 8.05051546,41.8979381 7.63917526,42.8381443 C7.16907216,43.7783505 6.40515464,44.542268 5.40618557,44.8948454 C4.93608247,45.0123711 4.52474227,45.1298969 4.05463918,45.1298969 L4.05463918,45.1298969 Z M4.05463918,38.842268 C3.81958763,38.842268 3.5257732,38.9010309 3.29072165,38.9597938 C2.70309278,39.1360825 2.29175258,39.5474227 1.99793814,40.1350515 C1.7628866,40.6639175 1.70412371,41.3103093 1.93917526,41.8391753 C2.23298969,42.7206186 3.11443299,43.3082474 4.05463918,43.3082474 C4.28969072,43.3082474 4.58350515,43.2494845 4.8185567,43.1907216 C5.40618557,43.014433 5.81752577,42.6030928 6.11134021,42.0154639 C6.34639175,41.4865979 6.40515464,40.8402062 6.17010309,40.3113402 C5.81752577,39.4886598 4.99484536,38.842268 4.05463918,38.842268 L4.05463918,38.842268 Z" id="Shape"></path>
                    <path d="M49.1845361,42.0742268 C49.0670103,42.0742268 48.9494845,42.0742268 48.8319588,42.0154639 L35.8453608,35.9628866 C35.3752577,35.7865979 35.1989691,35.257732 35.4340206,34.7876289 C35.6103093,34.3175258 36.1391753,34.1412371 36.6092784,34.3762887 L49.5958763,40.428866 C50.0659794,40.6051546 50.242268,41.1340206 50.0072165,41.6041237 C49.8309278,41.8979381 49.5371134,42.0742268 49.1845361,42.0742268 L49.1845361,42.0742268 Z" id="Shape"></path>
                    <path d="M45.3649485,48.8319588 C45.0123711,48.8319588 44.6597938,48.5969072 44.542268,48.2443299 L40.7814433,37.9608247 C40.6051546,37.4907216 40.8402062,37.0206186 41.3103093,36.8443299 L51.5938144,33.0835052 C52.0639175,32.9072165 52.5340206,33.142268 52.7103093,33.6123711 C52.8865979,34.0824742 52.6515464,34.5525773 52.1814433,34.728866 L42.7793814,38.1371134 L46.1876289,47.5391753 C46.3639175,48.0092784 46.128866,48.4793814 45.6587629,48.6556701 C45.6,48.8319588 45.4824742,48.8319588 45.3649485,48.8319588 L45.3649485,48.8319588 Z" id="Shape"></path>
                    <path d="M52.0639175,46.5402062 C51.4762887,46.5402062 50.8886598,46.4226804 50.3597938,46.1876289 C49.4195876,45.7175258 48.6556701,44.9536082 48.3030928,43.9546392 C47.9505155,42.9556701 48.0092784,41.8391753 48.4206186,40.8989691 C49.0670103,39.4886598 50.4773196,38.6072165 52.0639175,38.6072165 C52.6515464,38.6072165 53.2391753,38.7247423 53.7680412,38.9597938 C54.7082474,39.4298969 55.4721649,40.1938144 55.8247423,41.1927835 C56.1773196,42.1917526 56.1185567,43.3082474 55.7072165,44.2484536 C55.0020619,45.6 53.5917526,46.5402062 52.0639175,46.5402062 L52.0639175,46.5402062 Z M52.0639175,40.3113402 C51.1824742,40.3113402 50.4185567,40.8402062 50.0072165,41.6041237 C49.7721649,42.1329897 49.7134021,42.7793814 49.9484536,43.3082474 C50.1247423,43.8958763 50.5360825,44.3072165 51.1237113,44.6010309 C51.4175258,44.7185567 51.7701031,44.8360825 52.0639175,44.8360825 C52.9453608,44.8360825 53.7092784,44.3072165 54.1206186,43.543299 C54.3556701,43.014433 54.414433,42.3680412 54.1793814,41.8391753 C54.0030928,41.2515464 53.5917526,40.8402062 53.0041237,40.5463918 C52.7103093,40.3701031 52.357732,40.3113402 52.0639175,40.3113402 L52.0639175,40.3113402 Z" id="Shape"></path>
                    <path d="M36.256701,26.8546392 C35.9041237,26.8546392 35.5515464,26.6195876 35.4340206,26.2670103 C35.257732,25.7969072 35.4927835,25.3268041 35.9628866,25.1505155 L49.4195876,20.2731959 C49.8896907,20.0969072 50.3597938,20.3319588 50.5360825,20.8020619 C50.7123711,21.2721649 50.4773196,21.742268 50.0072165,21.9185567 L36.5505155,26.7958763 C36.4329897,26.8546392 36.3154639,26.8546392 36.256701,26.8546392 L36.256701,26.8546392 Z" id="Shape"></path>
                    <path d="M51.7701031,29.4402062 C51.6525773,29.4402062 51.5350515,29.4402062 51.4175258,29.3814433 L41.5453608,24.7979381 C41.0752577,24.5628866 40.8989691,24.0927835 41.1340206,23.6226804 L45.7175258,13.7505155 C45.9525773,13.2804124 46.4226804,13.1041237 46.8927835,13.3391753 C47.3628866,13.5742268 47.5391753,14.0443299 47.3041237,14.514433 L43.014433,23.5051546 L52.1226804,27.7360825 C52.5927835,27.971134 52.7690722,28.4412371 52.5340206,28.9113402 C52.4164948,29.2051546 52.0639175,29.4402062 51.7701031,29.4402062 L51.7701031,29.4402062 Z" id="Shape"></path>
                    <path d="M52.5927835,24.0340206 C50.8886598,24.0340206 49.4195876,22.9762887 48.8319588,21.3896907 C48.4793814,20.3907216 48.5381443,19.2742268 48.9494845,18.3340206 C49.4195876,17.3938144 50.1835052,16.6298969 51.1824742,16.2773196 C51.6525773,16.1010309 52.0639175,16.042268 52.5340206,16.042268 C54.2381443,16.042268 55.7072165,17.1 56.2948454,18.6865979 C56.6474227,19.685567 56.5886598,20.8020619 56.1773196,21.742268 C55.7072165,22.6824742 54.943299,23.4463918 53.9443299,23.7989691 C53.5329897,23.9164948 53.0628866,24.0340206 52.5927835,24.0340206 L52.5927835,24.0340206 Z M52.5927835,17.7463918 C52.357732,17.7463918 52.0639175,17.8051546 51.828866,17.8639175 C51.2412371,18.0402062 50.8298969,18.4515464 50.5360825,19.0391753 C50.3010309,19.5680412 50.242268,20.214433 50.4773196,20.743299 C50.771134,21.6247423 51.6525773,22.2123711 52.5927835,22.2123711 C52.8278351,22.2123711 53.1216495,22.1536082 53.356701,22.0948454 C53.9443299,21.9185567 54.3556701,21.5072165 54.6494845,20.9195876 C54.8845361,20.3907216 54.943299,19.7443299 54.7082474,19.2154639 C54.414433,18.3340206 53.5329897,17.7463918 52.5927835,17.7463918 L52.5927835,17.7463918 Z" id="Shape"></path>
                </g>
            </g>
        </g>
    </g>
</svg>