<?xml version="1.0" encoding="UTF-8" standalone="no"?>
<svg width="112px" height="120px" viewBox="0 0 112 120" version="1.1" xmlns="http://www.w3.org/2000/svg" xmlns:xlink="http://www.w3.org/1999/xlink">
    <!-- Generator: Sketch 39.1 (31720) - http://www.bohemiancoding.com/sketch -->
    <title>1-2</title>
    <desc>Created with Sketch.</desc>
    <defs>
        <filter x="-50%" y="-50%" width="200%" height="200%" filterUnits="objectBoundingBox" id="filter-1">
            <feOffset dx="0" dy="8" in="SourceAlpha" result="shadowOffsetOuter1"></feOffset>
            <feGaussianBlur stdDeviation="4" in="shadowOffsetOuter1" result="shadowBlurOuter1"></feGaussianBlur>
            <feColorMatrix values="0 0 0 0 0.11372549   0 0 0 0 0.529411765   0 0 0 0 0.894117647  0 0 0 0.360224185 0" type="matrix" in="shadowBlurOuter1" result="shadowMatrixOuter1"></feColorMatrix>
            <feMerge>
                <feMergeNode in="shadowMatrixOuter1"></feMergeNode>
                <feMergeNode in="SourceGraphic"></feMergeNode>
            </feMerge>
        </filter>
    </defs>
    <g id="-" stroke="none" stroke-width="1" fill="none" fill-rule="evenodd">
        <g id="main_page_red" transform="translate(-244.000000, -561.000000)" fill="#1D87E4">
            <g id="SELECTER" transform="translate(100.000000, 529.000000)">
                <g id="freeze-copy-3">
                    <g id="Bitmap">
                        <g id="1-2" filter="url(#filter-1)" transform="translate(152.000000, 32.000000)">
                            <path d="M48.2,69.1 C47.9,69.1 47.7,69 47.4,68.9 L34,61.1 C33.5,60.8 33.2,60.3 33.2,59.8 L33.2,44.3 C33.2,43.8 33.5,43.3 34,43 L47.5,35.2 C48,34.9 48.5,34.9 49,35.2 L62.5,43 C63,43.3 63.3,43.8 63.3,44.3 L63.3,47.6 C63.3,48.4 62.6,49.1 61.8,49.1 C61,49.1 60.3,48.4 60.3,47.6 L60.3,45.2 L48.3,38.3 L36.3,45.2 L36.3,59 L48.3,65.9 L60.3,59 L60.3,56.3 C60.3,55.5 61,54.8 61.8,54.8 C62.6,54.8 63.3,55.5 63.3,56.3 L63.3,59.9 C63.3,60.4 63,60.9 62.5,61.2 L49,69 C48.7,69 48.5,69.1 48.2,69.1 L48.2,69.1 Z" id="Shape"></path>
                            <path d="M48.2,38 C47.4,38 46.7,37.3 46.7,36.5 L46.7,12.1 C46.7,11.3 47.4,10.6 48.2,10.6 C49,10.6 49.7,11.3 49.7,12.1 L49.7,36.5 C49.7,37.3 49,38 48.2,38 L48.2,38 Z" id="Shape"></path>
                            <path d="M48.2,27.8 C47.8,27.8 47.4,27.7 47.1,27.4 L34,14.2 C33.4,13.6 33.4,12.7 34,12.1 C34.6,11.5 35.5,11.5 36.1,12.1 L48.2,24.2 L60.3,12.1 C60.9,11.5 61.8,11.5 62.4,12.1 C63,12.7 63,13.6 62.4,14.2 L49.3,27.3 C49,27.7 48.6,27.8 48.2,27.8 L48.2,27.8 Z" id="Shape"></path>
                            <path d="M48.2,13.6 C44.4,13.6 41.4,10.5 41.4,6.8 C41.4,3.1 44.5,0 48.2,0 C51.9,0 55,3.1 55,6.8 C55,10.5 52,13.6 48.2,13.6 L48.2,13.6 Z M48.2,3 C46.1,3 44.4,4.7 44.4,6.8 C44.4,8.9 46.1,10.6 48.2,10.6 C50.3,10.6 52,8.9 52,6.8 C52,4.7 50.3,3 48.2,3 L48.2,3 Z" id="Shape"></path>
                            <path d="M48.2,93.4 C47.4,93.4 46.7,92.7 46.7,91.9 L46.7,67.5 C46.7,66.7 47.4,66 48.2,66 C49,66 49.7,66.7 49.7,67.5 L49.7,91.9 C49.7,92.8 49,93.4 48.2,93.4 L48.2,93.4 Z" id="Shape"></path>
                            <path d="M61.3,92.4 C60.9,92.4 60.5,92.3 60.2,92 L48.1,79.9 L36,92 C35.4,92.6 34.5,92.6 33.9,92 C33.3,91.4 33.3,90.5 33.9,89.9 L47,76.8 C47.6,76.2 48.5,76.2 49.1,76.8 L62.2,89.9 C62.8,90.5 62.8,91.4 62.2,92 C62.1,92.2 61.7,92.4 61.3,92.4 L61.3,92.4 Z" id="Shape"></path>
                            <path d="M48.2,104 C44.4,104 41.4,100.9 41.4,97.2 C41.4,93.5 44.5,90.4 48.2,90.4 C51.9,90.4 55,93.5 55,97.2 C55,100.9 52,104 48.2,104 L48.2,104 Z M48.2,93.4 C46.1,93.4 44.4,95.1 44.4,97.2 C44.4,99.3 46.1,101 48.2,101 C50.3,101 52,99.3 52,97.2 C52,95.1 50.3,93.4 48.2,93.4 L48.2,93.4 Z" id="Shape"></path>
                            <path d="M34.7,45.7 C34.5,45.7 34.3,45.7 34.1,45.6 L12,35.3 C11.2,34.9 10.9,34.1 11.3,33.3 C11.7,32.5 12.5,32.2 13.3,32.6 L35.4,42.9 C36.2,43.3 36.5,44.1 36.1,44.9 C35.8,45.4 35.3,45.7 34.7,45.7 L34.7,45.7 Z" id="Shape"></path>
                            <path d="M8.1,47.8 C7.5,47.8 6.9,47.4 6.7,46.8 C6.4,46 6.8,45.2 7.6,44.9 L23.6,39.1 L17.8,23.1 C17.5,22.3 17.9,21.5 18.7,21.2 C19.5,20.9 20.3,21.3 20.6,22.1 L27,39.6 C27.1,40 27.1,40.4 26.9,40.7 C26.7,41.1 26.4,41.3 26.1,41.5 L8.6,47.9 C8.4,47.8 8.2,47.8 8.1,47.8 L8.1,47.8 Z" id="Shape"></path>
                            <path d="M7.9,38.5 C6.9,38.5 5.9,38.3 5,37.9 C3.4,37.1 2.1,35.8 1.5,34.1 C0.9,32.4 1,30.5 1.7,28.9 C2.8,26.5 5.2,25 7.9,25 C8.9,25 9.9,25.2 10.8,25.6 C14.2,27.2 15.7,31.2 14.1,34.7 C12.9,37 10.5,38.5 7.9,38.5 L7.9,38.5 Z M7.9,27.9 C6.4,27.9 5.1,28.8 4.4,30.1 C4,31 3.9,32.1 4.3,33 C4.6,34 5.3,34.7 6.3,35.2 C6.8,35.4 7.4,35.6 7.9,35.6 C9.4,35.6 10.7,34.7 11.4,33.4 C12.3,31.5 11.5,29.2 9.6,28.3 C9,28 8.4,27.9 7.9,27.9 L7.9,27.9 Z" id="Shape"></path>
                            <path d="M11.9,69.6 C11.3,69.6 10.7,69.2 10.5,68.6 C10.2,67.8 10.6,67 11.4,66.7 L34.3,58.4 C35.1,58.1 35.9,58.5 36.2,59.3 C36.5,60.1 36.1,60.9 35.3,61.2 L12.4,69.5 C12.2,69.6 12,69.6 11.9,69.6 L11.9,69.6 Z" id="Shape"></path>
                            <path d="M17.3,81.6 C17.1,81.6 16.9,81.6 16.7,81.5 C15.9,81.2 15.6,80.3 16,79.5 L23.2,64 L7.7,56.8 C6.9,56.5 6.6,55.6 7,54.8 C7.4,54 8.2,53.7 9,54.1 L25.8,61.9 C26.2,62.1 26.4,62.4 26.6,62.7 C26.7,63.1 26.7,63.5 26.5,63.8 L18.7,80.6 C18.4,81.3 17.9,81.6 17.3,81.6 L17.3,81.6 Z" id="Shape"></path>
                            <path d="M6.9,76.8 C4,76.8 1.5,75 0.5,72.3 C-0.1,70.6 4.69069228e-14,68.7 0.7,67.1 C1.4,65.5 2.8,64.2 4.5,63.6 C5.3,63.3 6,63.2 6.8,63.2 C9.7,63.2 12.2,65 13.2,67.7 C13.8,69.4 13.7,71.3 13,72.9 C12.2,74.5 10.9,75.8 9.2,76.4 C8.4,76.6 7.7,76.8 6.9,76.8 L6.9,76.8 Z M6.9,66.1 C6.5,66.1 6,66.2 5.6,66.3 C4.6,66.6 3.9,67.3 3.4,68.3 C3,69.2 2.9,70.3 3.3,71.2 C3.8,72.7 5.3,73.7 6.9,73.7 C7.3,73.7 7.8,73.6 8.2,73.5 C9.2,73.2 9.9,72.5 10.4,71.5 C10.8,70.6 10.9,69.5 10.5,68.6 C9.9,67.2 8.5,66.1 6.9,66.1 L6.9,66.1 Z" id="Shape"></path>
                            <path d="M83.7,71.6 C83.5,71.6 83.3,71.6 83.1,71.5 L61,61.2 C60.2,60.9 59.9,60 60.3,59.2 C60.6,58.4 61.5,58.1 62.3,58.5 L84.4,68.8 C85.2,69.1 85.5,70 85.1,70.8 C84.8,71.3 84.3,71.6 83.7,71.6 L83.7,71.6 Z" id="Shape"></path>
                            <path d="M77.2,83.1 C76.6,83.1 76,82.7 75.8,82.1 L69.4,64.6 C69.1,63.8 69.5,63 70.3,62.7 L87.8,56.3 C88.6,56 89.4,56.4 89.7,57.2 C90,58 89.6,58.8 88.8,59.1 L72.8,64.9 L78.6,80.9 C78.9,81.7 78.5,82.5 77.7,82.8 C77.6,83.1 77.4,83.1 77.2,83.1 L77.2,83.1 Z" id="Shape"></path>
                            <path d="M88.6,79.2 C87.6,79.2 86.6,79 85.7,78.6 C84.1,77.8 82.8,76.5 82.2,74.8 C81.6,73.1 81.7,71.2 82.4,69.6 C83.5,67.2 85.9,65.7 88.6,65.7 C89.6,65.7 90.6,65.9 91.5,66.3 C93.1,67.1 94.4,68.4 95,70.1 C95.6,71.8 95.5,73.7 94.8,75.3 C93.6,77.6 91.2,79.2 88.6,79.2 L88.6,79.2 Z M88.6,68.6 C87.1,68.6 85.8,69.5 85.1,70.8 C84.7,71.7 84.6,72.8 85,73.7 C85.3,74.7 86,75.4 87,75.9 C87.5,76.1 88.1,76.3 88.6,76.3 C90.1,76.3 91.4,75.4 92.1,74.1 C92.5,73.2 92.6,72.1 92.2,71.2 C91.9,70.2 91.2,69.5 90.2,69 C89.7,68.7 89.1,68.6 88.6,68.6 L88.6,68.6 Z" id="Shape"></path>
                            <path d="M61.7,45.7 C61.1,45.7 60.5,45.3 60.3,44.7 C60,43.9 60.4,43.1 61.2,42.8 L84.1,34.5 C84.9,34.2 85.7,34.6 86,35.4 C86.3,36.2 85.9,37 85.1,37.3 L62.2,45.6 C62,45.7 61.8,45.7 61.7,45.7 L61.7,45.7 Z" id="Shape"></path>
                            <path d="M88.1,50.1 C87.9,50.1 87.7,50.1 87.5,50 L70.7,42.2 C69.9,41.8 69.6,41 70,40.2 L77.8,23.4 C78.2,22.6 79,22.3 79.8,22.7 C80.6,23.1 80.9,23.9 80.5,24.7 L73.2,40 L88.7,47.2 C89.5,47.6 89.8,48.4 89.4,49.2 C89.2,49.7 88.6,50.1 88.1,50.1 L88.1,50.1 Z" id="Shape"></path>
                            <path d="M89.5,40.9 C86.6,40.9 84.1,39.1 83.1,36.4 C82.5,34.7 82.6,32.8 83.3,31.2 C84.1,29.6 85.4,28.3 87.1,27.7 C87.9,27.4 88.6,27.3 89.4,27.3 C92.3,27.3 94.8,29.1 95.8,31.8 C96.4,33.5 96.3,35.4 95.6,37 C94.8,38.6 93.5,39.9 91.8,40.5 C91.1,40.7 90.3,40.9 89.5,40.9 L89.5,40.9 Z M89.5,30.2 C89.1,30.2 88.6,30.3 88.2,30.4 C87.2,30.7 86.5,31.4 86,32.4 C85.6,33.3 85.5,34.4 85.9,35.3 C86.4,36.8 87.9,37.8 89.5,37.8 C89.9,37.8 90.4,37.7 90.8,37.6 C91.8,37.3 92.5,36.6 93,35.6 C93.4,34.7 93.5,33.6 93.1,32.7 C92.6,31.2 91.1,30.2 89.5,30.2 L89.5,30.2 Z" id="Shape"></path>
                        </g>
                    </g>
                </g>
            </g>
        </g>
    </g>
</svg>