<?xml version="1.0" encoding="UTF-8" standalone="no"?>
<svg width="14px" height="13px" viewBox="0 0 14 13" version="1.1" xmlns="http://www.w3.org/2000/svg" xmlns:xlink="http://www.w3.org/1999/xlink">
    <!-- Generator: Sketch 39.1 (31720) - http://www.bohemiancoding.com/sketch -->
    <title>Shape</title>
    <desc>Created with Sketch.</desc>
    <defs></defs>
    <g id="Page-1" stroke="none" stroke-width="1" fill="none" fill-rule="evenodd">
        <g id="MENU_EXAMPLE" transform="translate(-43.000000, -536.000000)" fill="#1D87E4">
            <g id="Menu" transform="translate(0.000000, 480.000000)">
                <path d="M56.2,61.726013 L56.2,61.726013 L55.2,61.726013 L55.8,61.126013 C56,60.926013 56,60.626013 55.8,60.426013 C55.6,60.226013 55.3,60.226013 55.1,60.426013 L53.8,61.726013 L52.8,61.726013 L51.7,59.826013 L52.2,59.026013 L54,58.526013 C54.3,58.426013 54.4,58.226013 54.4,57.926013 C54.3,57.626013 54.1,57.526013 53.8,57.526013 L52.9,57.726013 L53.4,56.826013 C53.5,56.626013 53.5,56.326013 53.2,56.126013 C53,56.026013 52.7,56.026013 52.5,56.326013 L52,57.226013 L51.8,56.426013 C51.7,56.126013 51.5,56.026013 51.2,56.026013 C50.9,56.126013 50.8,56.326013 50.8,56.626013 L51.3,58.426013 L50.8,59.326013 L48.6,59.326013 L48.1,58.426013 L48.6,56.626013 C48.7,56.326013 48.5,56.126013 48.2,56.026013 C47.9,55.926013 47.7,56.126013 47.6,56.426013 L47.4,57.226013 L46.9,56.326013 C46.8,56.126013 46.5,56.026013 46.2,56.126013 C46,56.226013 45.9,56.526013 46,56.826013 L46.5,57.726013 L45.6,57.526013 C45.3,57.426013 45.1,57.626013 45,57.926013 C44.9,58.226013 45.1,58.426013 45.4,58.526013 L47.2,59.026013 L47.7,59.826013 L46.6,61.726013 L45.9,61.726013 L44.6,60.426013 C44.4,60.226013 44.1,60.226013 43.9,60.426013 C43.7,60.626013 43.7,60.926013 43.9,61.126013 L44.5,61.726013 L43.5,61.726013 C43.2,61.726013 43,61.926013 43,62.226013 C43,62.526013 43.2,62.726013 43.5,62.726013 L44.5,62.726013 L43.8,63.326013 C43.6,63.526013 43.6,63.826013 43.8,64.026013 C43.9,64.126013 44,64.126013 44.2,64.126013 C44.3,64.126013 44.5,64.126013 44.6,64.026013 L45.9,62.726013 L46.6,62.726013 L47.7,64.626013 L47.2,65.426013 L45.4,65.926013 C45.1,66.026013 45,66.226013 45,66.526013 C45,66.826013 45.3,66.926013 45.6,66.926013 L46.5,66.726013 L46,67.626013 C45.9,67.826013 45.9,68.126013 46.2,68.326013 C46.3,68.326013 46.4,68.426013 46.4,68.426013 C46.6,68.426013 46.7,68.326013 46.8,68.226013 L47.3,67.326013 L47.5,68.226013 C47.6,68.426013 47.8,68.626013 48,68.626013 L48.1,68.626013 C48.4,68.526013 48.5,68.326013 48.5,68.026013 L48.1,66.026013 L48.6,65.126013 L50.8,65.126013 L51.3,66.026013 L50.8,67.826013 C50.7,68.126013 50.9,68.326013 51.2,68.426013 L51.3,68.426013 C51.5,68.426013 51.7,68.326013 51.8,68.026013 L52,67.226013 L52.5,68.126013 C52.6,68.326013 52.8,68.326013 52.9,68.326013 C53,68.326013 53.1,68.326013 53.2,68.226013 C53.4,68.126013 53.5,67.826013 53.4,67.526013 L52.9,66.626013 L53.8,66.826013 C54.1,66.926013 54.3,66.726013 54.4,66.426013 C54.5,66.126013 54.3,65.926013 54,65.826013 L52.1,65.526013 L51.6,64.726013 L52.7,62.826013 L53.7,62.826013 L55,64.126013 C55.1,64.226013 55.2,64.226013 55.4,64.226013 C55.5,64.226013 55.7,64.226013 55.8,64.126013 C56,63.926013 56,63.626013 55.8,63.426013 L55.2,62.826013 L56.2,62.826013 C56.5,62.826013 56.7,62.626013 56.7,62.326013 C56.7,61.926013 56.5,61.726013 56.2,61.726013 L56.2,61.726013 Z M50.7,63.926013 L48.7,63.926013 L47.7,62.226013 L48.7,60.526013 L50.7,60.526013 L51.7,62.226013 L50.7,63.926013 L50.7,63.926013 Z" id="Shape"></path>
            </g>
        </g>
    </g>
</svg>